%TF.GenerationSoftware,KiCad,Pcbnew,9.0.5*%
%TF.CreationDate,2025-10-14T23:48:04-03:00*%
%TF.ProjectId,RvMeg_V2,52764d65-675f-4563-922e-6b696361645f,V2.0*%
%TF.SameCoordinates,Original*%
%TF.FileFunction,Profile,NP*%
%FSLAX46Y46*%
G04 Gerber Fmt 4.6, Leading zero omitted, Abs format (unit mm)*
G04 Created by KiCad (PCBNEW 9.0.5) date 2025-10-14 23:48:04*
%MOMM*%
%LPD*%
G01*
G04 APERTURE LIST*
%TA.AperFunction,Profile*%
%ADD10C,0.100000*%
%TD*%
%TA.AperFunction,Profile*%
%ADD11C,0.200000*%
%TD*%
%TA.AperFunction,Profile*%
%ADD12C,0.050000*%
%TD*%
G04 APERTURE END LIST*
D10*
X180900000Y-99940078D02*
X180900000Y-101145222D01*
X180900068Y-115841331D02*
X180900000Y-116410392D01*
X182750000Y-114100000D02*
X182774999Y-110595000D01*
X180900000Y-110600000D02*
X180900000Y-114100000D01*
X180900000Y-108200000D02*
X180900000Y-108793042D01*
X182750000Y-106550000D02*
X182749999Y-102995000D01*
X180900000Y-102950000D02*
X180900000Y-106550000D01*
X182750000Y-98300000D02*
X182770077Y-94703831D01*
X180900000Y-94700000D02*
X180900000Y-98300000D01*
X182750000Y-114100000D02*
X180900000Y-114100000D01*
X182774999Y-115835000D02*
X180900068Y-115841331D01*
X182750000Y-106550000D02*
X180900000Y-106550000D01*
X182749999Y-108235000D02*
X180900000Y-108200000D01*
X182750000Y-98300000D02*
X180900000Y-98300000D01*
X182776000Y-99940058D02*
X180900000Y-99940078D01*
X115900000Y-111050000D02*
X115900000Y-114750000D01*
X114150000Y-111050000D02*
X114150000Y-114730846D01*
X115900000Y-108202277D02*
X115900000Y-109350000D01*
X114150000Y-102850000D02*
X114150000Y-106500000D01*
X115900000Y-102850000D02*
X115900000Y-106500000D01*
X115900000Y-99699777D02*
X115900000Y-101150000D01*
X115900000Y-94450000D02*
X115900000Y-98050000D01*
X114050000Y-94450000D02*
X114050000Y-98050000D01*
X115899991Y-91689608D02*
X115900000Y-92690333D01*
X114150000Y-111050000D02*
X115900000Y-111050000D01*
X114150000Y-109354999D02*
X115900000Y-109350000D01*
X114150000Y-102850000D02*
X115900000Y-102850000D01*
X114129922Y-101159921D02*
X115900000Y-101150000D01*
X114050000Y-94450000D02*
X115900000Y-94450000D01*
X114055001Y-92690333D02*
X115900000Y-92690333D01*
X180900000Y-110600000D02*
X182774999Y-110595000D01*
X182774999Y-108790222D02*
X180900000Y-108793042D01*
X194125000Y-115820058D02*
G75*
G02*
X192871169Y-115359750I74640J2141118D01*
G01*
X195247307Y-115812854D02*
X194125000Y-115820058D01*
X194126154Y-108821754D02*
X195244742Y-108805117D01*
X191446324Y-115264622D02*
G75*
G02*
X190022106Y-115810529I-1436511J1616942D01*
G01*
X184280904Y-108798753D02*
X182774999Y-108790222D01*
X184280904Y-108798753D02*
X190023261Y-108831283D01*
X192872324Y-109282059D02*
G75*
G02*
X191447482Y-109377188I-773148J862003D01*
G01*
X192872326Y-109282061D02*
G75*
G02*
X194126154Y-108821756I1328514J-1680939D01*
G01*
X190023261Y-108831283D02*
G75*
G02*
X191447482Y-109377188I-12392J-2163119D01*
G01*
X190022106Y-115810529D02*
X182774999Y-115835000D01*
X195244742Y-108805117D02*
G75*
G02*
X195247307Y-115812853I99992J-3503832D01*
G01*
X191446324Y-115264622D02*
G75*
G02*
X192871169Y-115359752I651686J-957261D01*
G01*
X105478675Y-109925377D02*
G75*
G02*
X104053839Y-109830237I-651675J957277D01*
G01*
X102799999Y-109369941D02*
G75*
G02*
X104053850Y-109830223I-74599J-2141159D01*
G01*
X195219742Y-101205117D02*
G75*
G02*
X195222307Y-108212855I99988J-3503833D01*
G01*
X191421324Y-107664622D02*
G75*
G02*
X192846161Y-107759761I651676J-957278D01*
G01*
X181744095Y-94700000D02*
X180900000Y-94700000D01*
D11*
X115900000Y-116410400D02*
G75*
G02*
X114297419Y-118370517I-2000000J0D01*
G01*
D10*
X189997106Y-108210529D02*
X182749999Y-108235000D01*
D11*
X113400000Y-143050000D02*
X139900000Y-143050000D01*
X140900000Y-140050000D02*
G75*
G02*
X142900000Y-138050000I2000000J0D01*
G01*
X190900000Y-85590600D02*
G75*
G02*
X188496666Y-88530666I-3000000J0D01*
G01*
D10*
X192867402Y-93387137D02*
G75*
G02*
X191442593Y-93482217I-773102J862037D01*
G01*
X115425001Y-106500000D02*
X115900000Y-106500000D01*
X189998261Y-101231283D02*
G75*
G02*
X191422495Y-101777173I-12361J-2163117D01*
G01*
X101677692Y-109377145D02*
X102799999Y-109369941D01*
X194120078Y-99925136D02*
G75*
G02*
X192866239Y-99464840I74622J2141136D01*
G01*
X191441402Y-99369700D02*
G75*
G02*
X190017184Y-99915611I-1436502J1616900D01*
G01*
X105478675Y-109925377D02*
G75*
G02*
X106902893Y-109379456I1436525J-1616923D01*
G01*
D11*
X182507769Y-118371554D02*
G75*
G02*
X180900007Y-116410392I392231J1961154D01*
G01*
D10*
X192867404Y-93387139D02*
G75*
G02*
X194121233Y-92926849I1328496J-1680961D01*
G01*
D11*
X190900000Y-135550000D02*
G75*
G02*
X183400000Y-143050000I-7500000J0D01*
G01*
D10*
X184255904Y-101198753D02*
X189998261Y-101231283D01*
X106807894Y-92714804D02*
X114055001Y-92690333D01*
X102798845Y-116368245D02*
X101680257Y-116384882D01*
X112549096Y-99726580D02*
X106806739Y-99694050D01*
X181733634Y-102950000D02*
X180900000Y-102950000D01*
X184255904Y-101198753D02*
X182749999Y-101190222D01*
X105458597Y-101730299D02*
G75*
G02*
X104033741Y-101635181I-651697J957299D01*
G01*
X103957674Y-99243272D02*
G75*
G02*
X102703845Y-99703547I-1328474J1680972D01*
G01*
X115405905Y-114750000D02*
X115900000Y-114750000D01*
D11*
X187684461Y-119406892D02*
X182507769Y-118371554D01*
X114292231Y-89728446D02*
X108311654Y-88532330D01*
D10*
X112549096Y-99726580D02*
X114055001Y-99735111D01*
X195242385Y-99917932D02*
X194120078Y-99925136D01*
D11*
X113400000Y-143050000D02*
G75*
G02*
X105900000Y-135550000I0J7500000D01*
G01*
D10*
X102779921Y-101174863D02*
G75*
G02*
X104033761Y-101635159I-74621J-2141137D01*
G01*
D11*
X105900000Y-135550000D02*
X105900000Y-123329204D01*
D10*
X104052673Y-115907938D02*
G75*
G02*
X102798844Y-116368220I-1328473J1680938D01*
G01*
X181744066Y-92891469D02*
X182770077Y-92895300D01*
X114129922Y-108204699D02*
X115425001Y-108202277D01*
X102703846Y-99703579D02*
X101585258Y-99720216D01*
X104032595Y-107712860D02*
G75*
G02*
X102778766Y-108173150I-1328495J1680960D01*
G01*
D11*
X158400000Y-78050000D02*
G75*
G02*
X138400000Y-78050000I-10000000J0D01*
G01*
X138400000Y-78050000D02*
G75*
G02*
X158400000Y-78050000I10000000J0D01*
G01*
D10*
X106902893Y-109379470D02*
X114150000Y-109354999D01*
X190017184Y-99915607D02*
X182770077Y-99940078D01*
X101657614Y-101182067D02*
X102779921Y-101174863D01*
X115405905Y-116418931D02*
X115900000Y-116418931D01*
X195239820Y-92910195D02*
G75*
G02*
X195242387Y-99917877I99980J-3503805D01*
G01*
X101660179Y-108189804D02*
G75*
G02*
X101657614Y-101182064I-99989J3503834D01*
G01*
D11*
X155900000Y-140050000D02*
X155900000Y-142050000D01*
D10*
X192847324Y-101682059D02*
G75*
G02*
X191422497Y-101777167I-773124J861959D01*
G01*
X112644095Y-116391246D02*
X114150000Y-116399777D01*
D11*
X105900000Y-85550000D02*
X105900000Y-85590588D01*
D10*
X102705000Y-92705275D02*
G75*
G02*
X103958846Y-93165563I-74600J-2141125D01*
G01*
X106882815Y-101184392D02*
X114129922Y-101159921D01*
X191441402Y-99369700D02*
G75*
G02*
X192866259Y-99464817I651698J-957300D01*
G01*
X101680257Y-116384882D02*
G75*
G02*
X101677692Y-109377146I-99997J3503832D01*
G01*
D11*
X190900000Y-135550000D02*
X190900000Y-123329216D01*
D10*
X115425001Y-108202277D02*
X115900000Y-108202277D01*
X114150000Y-114730846D02*
X115405905Y-114750000D01*
X181744095Y-94700000D02*
X182770077Y-94703831D01*
X112624017Y-108196168D02*
X114129922Y-108204699D01*
X181733634Y-101145222D02*
X180900000Y-101145222D01*
X192847326Y-101682061D02*
G75*
G02*
X194101155Y-101221779I1328474J-1680939D01*
G01*
X103957676Y-99243274D02*
G75*
G02*
X105382500Y-99148171I773124J-862026D01*
G01*
X112644095Y-116391246D02*
X106901738Y-116358716D01*
X194100000Y-108220058D02*
G75*
G02*
X192846150Y-107759775I74600J2141158D01*
G01*
D11*
X142900000Y-138050000D02*
X153900000Y-138050000D01*
X105900000Y-123329204D02*
G75*
G02*
X109115522Y-119406880I4000000J4D01*
G01*
X114292231Y-89728446D02*
G75*
G02*
X115899993Y-91689608I-392231J-1961154D01*
G01*
D10*
X105383676Y-93260711D02*
G75*
G02*
X106807894Y-92714808I1436524J-1616989D01*
G01*
X105458597Y-101730299D02*
G75*
G02*
X106882815Y-101184387I1436503J-1616901D01*
G01*
D11*
X156900000Y-143050000D02*
X183400000Y-143050000D01*
D10*
X106881660Y-108163638D02*
G75*
G02*
X105457457Y-107617713I12440J2163138D01*
G01*
X195222307Y-108212854D02*
X194100000Y-108220058D01*
X114055001Y-99735111D02*
X115900000Y-99699777D01*
X194121232Y-92926832D02*
X195239820Y-92910195D01*
D11*
X190900000Y-85550000D02*
X190900000Y-85590600D01*
X187684461Y-119406892D02*
G75*
G02*
X190899985Y-123329216I-784461J-3922308D01*
G01*
D10*
X114050000Y-98050000D02*
X115900000Y-98050000D01*
X104052675Y-115907940D02*
G75*
G02*
X105477503Y-115812831I773125J-861960D01*
G01*
D11*
X140900000Y-142050000D02*
G75*
G02*
X139900000Y-143050000I-1000000J0D01*
G01*
D10*
X115900000Y-116418931D02*
X115652953Y-116418931D01*
X190018339Y-92936361D02*
G75*
G02*
X191442543Y-93482285I-12439J-2163139D01*
G01*
X181733634Y-101145222D02*
X182749999Y-101190222D01*
X101585258Y-99720216D02*
G75*
G02*
X101582693Y-92712472I-99988J3503836D01*
G01*
D11*
X180900000Y-91689600D02*
G75*
G02*
X182513315Y-89727337I2000000J0D01*
G01*
D10*
X194101154Y-101221754D02*
X195219742Y-101205117D01*
D11*
X182513315Y-89727337D02*
X188496666Y-88530666D01*
X156900000Y-143050000D02*
G75*
G02*
X155900000Y-142050000I0J1000000D01*
G01*
D10*
X191421324Y-107664622D02*
G75*
G02*
X189997106Y-108210542I-1436524J1616922D01*
G01*
X106901738Y-116358716D02*
G75*
G02*
X105477504Y-115812825I12362J2163116D01*
G01*
X106806739Y-99694050D02*
G75*
G02*
X105382499Y-99148166I12361J2163150D01*
G01*
X114150000Y-116399777D02*
X115405905Y-116418931D01*
X184275982Y-92903831D02*
X190018339Y-92936361D01*
X112624017Y-108196168D02*
X106881660Y-108163638D01*
X114129922Y-106502422D02*
X115425001Y-106500000D01*
X104032597Y-107712862D02*
G75*
G02*
X105457406Y-107617781I773103J-862038D01*
G01*
X180900000Y-92891469D02*
X180900000Y-91689600D01*
X181744066Y-92891469D02*
X180900000Y-92891469D01*
X105383676Y-93260711D02*
G75*
G02*
X103958837Y-93165574I-651676J957311D01*
G01*
X184275982Y-92903831D02*
X182770077Y-92895300D01*
D11*
X109115525Y-119406895D02*
X114297419Y-118370516D01*
X140900000Y-142050000D02*
X140900000Y-140050000D01*
D10*
X181733634Y-102950000D02*
X182749999Y-102995000D01*
X102778767Y-108173167D02*
X101660179Y-108189804D01*
D11*
X153900000Y-138050000D02*
G75*
G02*
X155900000Y-140050000I0J-2000000D01*
G01*
D10*
X101582693Y-92712479D02*
X102705000Y-92705275D01*
D11*
X108311654Y-88532330D02*
G75*
G02*
X105900012Y-85590588I588346J2941730D01*
G01*
X105900000Y-85550000D02*
G75*
G02*
X190900000Y-85550000I42500000J0D01*
G01*
D12*
%TO.C,J4*%
X129049999Y-72125000D02*
X128049998Y-72124999D01*
X128050000Y-64825001D01*
X129050001Y-64824998D01*
X129049999Y-72125000D01*
%TO.C,J9*%
X168725001Y-64650000D02*
X168724999Y-71949998D01*
X167724998Y-71950001D01*
X167725000Y-64649999D01*
X168725001Y-64650000D01*
D10*
%TO.C,J1*%
X144645000Y-138125000D02*
X145595000Y-138125000D01*
X145595000Y-136550000D02*
X145595000Y-138125000D01*
X146445000Y-136550000D02*
X146445000Y-138125000D01*
X146445000Y-138125000D02*
X150345000Y-138125000D01*
X150345000Y-136550000D02*
X150345000Y-138125000D01*
X151195000Y-136550000D02*
X151195000Y-138125000D01*
X151195000Y-138125000D02*
X152145000Y-138125000D01*
X145595000Y-136550000D02*
G75*
G02*
X146445000Y-136550000I425000J0D01*
G01*
X150345000Y-136550000D02*
G75*
G02*
X151195000Y-136550000I425000J0D01*
G01*
D12*
%TO.C,J6*%
X141263785Y-52093324D02*
X136101902Y-57255203D01*
X135394795Y-56548095D01*
X140556675Y-51386218D01*
X141263785Y-52093324D01*
%TO.C,J8*%
X184549998Y-82075002D02*
X184550001Y-83075003D01*
X177249999Y-83075001D01*
X177250000Y-82075000D01*
X184549998Y-82075002D01*
%TO.C,J7*%
X161363703Y-56583447D02*
X160656597Y-57290557D01*
X155494718Y-52128674D01*
X156201826Y-51421567D01*
X161363703Y-56583447D01*
%TO.C,J5*%
X119474999Y-82050000D02*
X119475002Y-83050001D01*
X112175000Y-83049999D01*
X112175001Y-82049998D01*
X119474999Y-82050000D01*
%TD*%
M02*
