%TF.GenerationSoftware,KiCad,Pcbnew,9.0.5*%
%TF.CreationDate,2025-10-14T17:43:46-03:00*%
%TF.ProjectId,RvMeg_V2,52764d65-675f-4563-922e-6b696361645f,V2.0*%
%TF.SameCoordinates,Original*%
%TF.FileFunction,Profile,NP*%
%FSLAX46Y46*%
G04 Gerber Fmt 4.6, Leading zero omitted, Abs format (unit mm)*
G04 Created by KiCad (PCBNEW 9.0.5) date 2025-10-14 17:43:46*
%MOMM*%
%LPD*%
G01*
G04 APERTURE LIST*
%TA.AperFunction,Profile*%
%ADD10C,0.100000*%
%TD*%
%TA.AperFunction,Profile*%
%ADD11C,0.200000*%
%TD*%
%TA.AperFunction,Profile*%
%ADD12C,0.050000*%
%TD*%
G04 APERTURE END LIST*
D10*
X181741089Y-110600000D02*
X182749999Y-110547180D01*
X181741089Y-108793042D02*
X183766364Y-108793042D01*
X181733634Y-102950000D02*
X182749999Y-102995000D01*
X181733634Y-101145222D02*
X182749999Y-101190222D01*
X181744095Y-94700000D02*
X182770077Y-94703831D01*
X181744066Y-92891469D02*
X182770077Y-92895300D01*
X114150000Y-116399777D02*
X115405905Y-116418931D01*
X114150000Y-114730846D02*
X115405905Y-114750000D01*
X114129922Y-108204699D02*
X115425001Y-108202277D01*
X114129922Y-106502422D02*
X115425001Y-106500000D01*
X114055001Y-99735111D02*
X115900000Y-99699777D01*
X112549096Y-99726580D02*
X114055001Y-99735111D01*
X115900000Y-98050000D02*
X115900000Y-91689608D01*
X115900000Y-106500000D02*
X115900000Y-99699777D01*
X115900000Y-114750000D02*
X115900000Y-108202277D01*
X115900000Y-116418931D02*
X115652953Y-116418931D01*
X115405905Y-116418931D02*
X115900000Y-116418931D01*
X115405905Y-114750000D02*
X115900000Y-114750000D01*
X114150000Y-109354999D02*
X114150000Y-114730846D01*
X115425001Y-108202277D02*
X115900000Y-108202277D01*
X115425001Y-106500000D02*
X115900000Y-106500000D01*
X114129922Y-101159921D02*
X114129922Y-106502422D01*
X114050000Y-98050000D02*
X115900000Y-98050000D01*
X114050000Y-92654999D02*
X114050000Y-98050000D01*
X180900000Y-92891469D02*
X180900000Y-91689600D01*
X180900000Y-101145222D02*
X180900000Y-94700000D01*
X180900000Y-108793042D02*
X180900000Y-102950000D01*
X180900000Y-116410392D02*
X180900000Y-110600000D01*
X181741089Y-108793042D02*
X180900000Y-108793042D01*
X181741089Y-110600000D02*
X180900000Y-110600000D01*
X182749999Y-115785000D02*
X182749999Y-110547180D01*
X181733634Y-101145222D02*
X180900000Y-101145222D01*
X181733634Y-102950000D02*
X180900000Y-102950000D01*
X182749999Y-108235000D02*
X182749999Y-102995000D01*
X181744095Y-94700000D02*
X180900000Y-94700000D01*
X182775982Y-99940058D02*
X182770077Y-94703831D01*
X190017184Y-99915607D02*
X182770077Y-99940078D01*
X181744066Y-92891469D02*
X180900000Y-92891469D01*
X195219742Y-108755117D02*
G75*
G02*
X195222307Y-115762853I99992J-3503832D01*
G01*
X195117519Y-108816754D02*
X196236107Y-108800117D01*
X189997106Y-115760529D02*
X182749999Y-115785000D01*
X189998261Y-108781283D02*
G75*
G02*
X191422482Y-109327188I-12391J-2163117D01*
G01*
X185272269Y-108793753D02*
X191014626Y-108826283D01*
X192847324Y-109232059D02*
G75*
G02*
X191422485Y-109327184I-773144J861999D01*
G01*
X185272269Y-108793753D02*
X183766364Y-108785222D01*
X192847326Y-109232061D02*
G75*
G02*
X194101155Y-108771769I1328484J-1680919D01*
G01*
X191421324Y-115214622D02*
G75*
G02*
X189997106Y-115760531I-1436514J1616942D01*
G01*
X191421324Y-115214622D02*
G75*
G02*
X192846168Y-115309753I651686J-957258D01*
G01*
X195222307Y-115762854D02*
X194100000Y-115770058D01*
X194100000Y-115770058D02*
G75*
G02*
X192846164Y-115309757I74610J2141078D01*
G01*
X101680257Y-116384882D02*
G75*
G02*
X101677692Y-109377146I-99992J3503832D01*
G01*
X106902893Y-109379470D02*
X114150000Y-109354999D01*
X101677692Y-109377145D02*
X102799999Y-109369941D01*
X112644095Y-116391246D02*
X114150000Y-116399777D01*
X105478675Y-109925377D02*
G75*
G02*
X104053830Y-109830247I-651686J957261D01*
G01*
X105478675Y-109925377D02*
G75*
G02*
X106902893Y-109379470I1436511J-1616942D01*
G01*
X102798845Y-116368245D02*
X101680257Y-116384882D01*
X104052673Y-115907938D02*
G75*
G02*
X102798845Y-116368245I-1328516J1680936D01*
G01*
X106901738Y-116358716D02*
G75*
G02*
X105477517Y-115812811I12392J2163119D01*
G01*
X104052675Y-115907940D02*
G75*
G02*
X105477517Y-115812811I773148J-862003D01*
G01*
X112644095Y-116391246D02*
X106901738Y-116358716D01*
X102799999Y-109369941D02*
G75*
G02*
X104053830Y-109830248I-74639J-2141118D01*
G01*
X192847326Y-101682061D02*
G75*
G02*
X194101154Y-101221741I1328527J-1680904D01*
G01*
X189998261Y-101231283D02*
G75*
G02*
X191422484Y-101777186I-12388J-2163122D01*
G01*
X191421324Y-107664622D02*
G75*
G02*
X192846171Y-107759750I651689J-957263D01*
G01*
X189997106Y-108210529D02*
X182749999Y-108235000D01*
X191421324Y-107664622D02*
G75*
G02*
X189997106Y-108210530I-1436511J1616937D01*
G01*
X184255904Y-101198753D02*
X182749999Y-101190222D01*
X195219742Y-101205117D02*
G75*
G02*
X195222307Y-108212853I99992J-3503832D01*
G01*
X192847324Y-101682059D02*
G75*
G02*
X191422480Y-101777191I-773151J862004D01*
G01*
X184255904Y-101198753D02*
X189998261Y-101231283D01*
X195222307Y-108212854D02*
X194100000Y-108220058D01*
X194100000Y-108220058D02*
G75*
G02*
X192846178Y-107759740I74653J2141093D01*
G01*
X194101154Y-101221754D02*
X195219742Y-101205117D01*
X195239820Y-92910195D02*
G75*
G02*
X195242385Y-99917931I99992J-3503832D01*
G01*
X195242385Y-99917932D02*
X194120078Y-99925136D01*
X184275982Y-92903831D02*
X182770077Y-92895300D01*
X191441402Y-99369700D02*
G75*
G02*
X192866247Y-99464830I651686J-957261D01*
G01*
X191441402Y-99369700D02*
G75*
G02*
X190017184Y-99915607I-1436511J1616942D01*
G01*
X194121232Y-92926832D02*
X195239820Y-92910195D01*
X192867404Y-93387139D02*
G75*
G02*
X194121232Y-92926832I1328516J-1680936D01*
G01*
X190018339Y-92936361D02*
G75*
G02*
X191442560Y-93482266I-12392J-2163119D01*
G01*
X192867402Y-93387137D02*
G75*
G02*
X191442560Y-93482266I-773148J862003D01*
G01*
X184275982Y-92903831D02*
X190018339Y-92936361D01*
X194120078Y-99925136D02*
G75*
G02*
X192866247Y-99464829I74639J2141118D01*
G01*
X112624017Y-108196168D02*
X114129922Y-108204699D01*
X101657614Y-101182067D02*
X102779921Y-101174863D01*
X106882815Y-101184392D02*
X114129922Y-101159921D01*
X101660179Y-108189804D02*
G75*
G02*
X101657614Y-101182068I-99992J3503832D01*
G01*
X105458597Y-101730299D02*
G75*
G02*
X106882815Y-101184392I1436511J-1616942D01*
G01*
X102778767Y-108173167D02*
X101660179Y-108189804D01*
X104032595Y-107712860D02*
G75*
G02*
X102778767Y-108173167I-1328516J1680936D01*
G01*
X106881660Y-108163638D02*
G75*
G02*
X105457439Y-107617733I12392J2163119D01*
G01*
X104032597Y-107712862D02*
G75*
G02*
X105457439Y-107617733I773148J-862003D01*
G01*
X112624017Y-108196168D02*
X106881660Y-108163638D01*
X105458597Y-101730299D02*
G75*
G02*
X104033752Y-101635169I-651686J957261D01*
G01*
X102779921Y-101174863D02*
G75*
G02*
X104033752Y-101635170I-74639J-2141118D01*
G01*
X112549096Y-99726580D02*
X106806739Y-99694050D01*
X103957674Y-99243272D02*
G75*
G02*
X102703846Y-99703577I-1328511J1680933D01*
G01*
X102703846Y-99703579D02*
X101585258Y-99720216D01*
X101582693Y-92712479D02*
X102705000Y-92705275D01*
X105383676Y-93260711D02*
G75*
G02*
X106807894Y-92714806I1436507J-1616938D01*
G01*
X103957676Y-99243274D02*
G75*
G02*
X105382517Y-99148146I773147J-862005D01*
G01*
X106807894Y-92714804D02*
X114055001Y-92690333D01*
X101585258Y-99720216D02*
G75*
G02*
X101582693Y-92712480I-99992J3503832D01*
G01*
X106806739Y-99694050D02*
G75*
G02*
X105382519Y-99148144I12394J2163121D01*
G01*
X105383676Y-93260711D02*
G75*
G02*
X103958831Y-93165581I-651686J957261D01*
G01*
X102705000Y-92705275D02*
G75*
G02*
X103958831Y-93165582I-74637J-2141114D01*
G01*
D11*
X187684461Y-119406892D02*
X182507769Y-118371554D01*
X190900000Y-85590600D02*
G75*
G02*
X188496666Y-88530666I-3000000J0D01*
G01*
X113400000Y-143050000D02*
X139900000Y-143050000D01*
X140900000Y-140050000D02*
G75*
G02*
X142900000Y-138050000I2000000J0D01*
G01*
X105900000Y-123329204D02*
G75*
G02*
X109115522Y-119406880I4000000J4D01*
G01*
X114292231Y-89728446D02*
X108311654Y-88532330D01*
X105900000Y-85550000D02*
G75*
G02*
X190900000Y-85550000I42500000J0D01*
G01*
X156900000Y-143050000D02*
G75*
G02*
X155900000Y-142050000I0J1000000D01*
G01*
X113400000Y-143050000D02*
G75*
G02*
X105900000Y-135550000I0J7500000D01*
G01*
X155900000Y-140050000D02*
X155900000Y-142050000D01*
X105900000Y-85550000D02*
X105900000Y-85590588D01*
X115900000Y-116410400D02*
G75*
G02*
X114297419Y-118370517I-2000000J0D01*
G01*
X158400000Y-78050000D02*
G75*
G02*
X138400000Y-78050000I-10000000J0D01*
G01*
X138400000Y-78050000D02*
G75*
G02*
X158400000Y-78050000I10000000J0D01*
G01*
X180900000Y-91689600D02*
G75*
G02*
X182513315Y-89727337I2000000J0D01*
G01*
X142900000Y-138050000D02*
X153900000Y-138050000D01*
X182513315Y-89727337D02*
X188496666Y-88530666D01*
X105900000Y-135550000D02*
X105900000Y-123329204D01*
X156900000Y-143050000D02*
X183400000Y-143050000D01*
X190900000Y-135550000D02*
G75*
G02*
X183400000Y-143050000I-7500000J0D01*
G01*
X140900000Y-142050000D02*
G75*
G02*
X139900000Y-143050000I-1000000J0D01*
G01*
X190900000Y-135550000D02*
X190900000Y-123329216D01*
X153900000Y-138050000D02*
G75*
G02*
X155900000Y-140050000I0J-2000000D01*
G01*
X182507769Y-118371554D02*
G75*
G02*
X180900007Y-116410392I392231J1961154D01*
G01*
X190900000Y-85550000D02*
X190900000Y-85590600D01*
X140900000Y-142050000D02*
X140900000Y-140050000D01*
X187684461Y-119406892D02*
G75*
G02*
X190899985Y-123329216I-784461J-3922308D01*
G01*
X114292231Y-89728446D02*
G75*
G02*
X115899993Y-91689608I-392231J-1961154D01*
G01*
X108311654Y-88532330D02*
G75*
G02*
X105900012Y-85590588I588346J2941730D01*
G01*
X109115525Y-119406895D02*
X114297419Y-118370516D01*
D10*
%TO.C,J1*%
X150345000Y-136550000D02*
G75*
G02*
X151195000Y-136550000I425000J0D01*
G01*
X145595000Y-136550000D02*
G75*
G02*
X146445000Y-136550000I425000J0D01*
G01*
X151195000Y-138125000D02*
X152145000Y-138125000D01*
X151195000Y-136550000D02*
X151195000Y-138125000D01*
X150345000Y-136550000D02*
X150345000Y-138125000D01*
X146445000Y-138125000D02*
X150345000Y-138125000D01*
X146445000Y-136550000D02*
X146445000Y-138125000D01*
X145595000Y-136550000D02*
X145595000Y-138125000D01*
X144645000Y-138125000D02*
X145595000Y-138125000D01*
D12*
%TO.C,J4*%
X129049999Y-72125000D02*
X128049998Y-72124999D01*
X128050000Y-64825001D01*
X129050001Y-64824998D01*
X129049999Y-72125000D01*
%TO.C,J9*%
X168725001Y-64650000D02*
X168724999Y-71949998D01*
X167724998Y-71950001D01*
X167725000Y-64649999D01*
X168725001Y-64650000D01*
%TO.C,J6*%
X141263785Y-52093324D02*
X136101902Y-57255203D01*
X135394795Y-56548095D01*
X140556675Y-51386218D01*
X141263785Y-52093324D01*
%TO.C,J8*%
X184549998Y-82075002D02*
X184550001Y-83075003D01*
X177249999Y-83075001D01*
X177250000Y-82075000D01*
X184549998Y-82075002D01*
%TO.C,J7*%
X161363703Y-56583447D02*
X160656597Y-57290557D01*
X155494718Y-52128674D01*
X156201826Y-51421567D01*
X161363703Y-56583447D01*
%TO.C,J5*%
X119474999Y-82050000D02*
X119475002Y-83050001D01*
X112175000Y-83049999D01*
X112175001Y-82049998D01*
X119474999Y-82050000D01*
%TD*%
M02*
