%TF.GenerationSoftware,KiCad,Pcbnew,9.0.5*%
%TF.CreationDate,2025-10-14T17:43:45-03:00*%
%TF.ProjectId,RvMeg_V2,52764d65-675f-4563-922e-6b696361645f,V2.0*%
%TF.SameCoordinates,Original*%
%TF.FileFunction,Legend,Top*%
%TF.FilePolarity,Positive*%
%FSLAX46Y46*%
G04 Gerber Fmt 4.6, Leading zero omitted, Abs format (unit mm)*
G04 Created by KiCad (PCBNEW 9.0.5) date 2025-10-14 17:43:45*
%MOMM*%
%LPD*%
G01*
G04 APERTURE LIST*
%ADD10C,0.300000*%
%ADD11C,0.200000*%
%ADD12C,3.000000*%
%ADD13C,0.150000*%
%ADD14C,0.250000*%
%ADD15C,0.120000*%
%ADD16C,0.000000*%
G04 APERTURE END LIST*
D10*
G36*
X155936262Y-46534979D02*
G01*
X156038521Y-46764767D01*
X156112117Y-46865074D01*
X156199137Y-46920516D01*
X156299329Y-46938896D01*
X156498082Y-46938896D01*
X156753804Y-45708462D01*
X157418755Y-45708462D01*
X156758200Y-48885572D01*
X155673212Y-48885572D01*
X155377457Y-48867146D01*
X155154950Y-48817992D01*
X154990264Y-48745160D01*
X154870912Y-48652337D01*
X154788201Y-48539353D01*
X154738208Y-48402183D01*
X154722348Y-48233558D01*
X154740793Y-48078105D01*
X155439513Y-48078105D01*
X155459367Y-48180698D01*
X155506634Y-48258125D01*
X155583382Y-48316439D01*
X155698781Y-48355961D01*
X155867385Y-48371197D01*
X156204990Y-48371197D01*
X156395316Y-47455286D01*
X156069802Y-47455286D01*
X155919281Y-47471121D01*
X155786058Y-47517197D01*
X155666251Y-47593772D01*
X155565931Y-47694976D01*
X155495510Y-47809484D01*
X155452661Y-47939986D01*
X155439513Y-48078105D01*
X154740793Y-48078105D01*
X154747227Y-48023884D01*
X154810887Y-47817124D01*
X154910339Y-47632909D01*
X155047279Y-47467743D01*
X155212572Y-47329833D01*
X155402943Y-47221275D01*
X155622105Y-47141679D01*
X155623936Y-47133435D01*
X155539560Y-47086143D01*
X155450137Y-46999233D01*
X155353861Y-46859416D01*
X155250245Y-46649651D01*
X154861532Y-45708462D01*
X155622105Y-45708462D01*
X155936262Y-46534979D01*
G37*
G36*
X151999312Y-47971127D02*
G01*
X153299355Y-45708462D01*
X154029153Y-45708462D01*
X154350088Y-47971127D01*
X153659491Y-47971127D01*
X153550681Y-46545237D01*
X153544166Y-46320789D01*
X153558191Y-46153960D01*
X153548116Y-46153960D01*
X153487769Y-46320870D01*
X153391129Y-46532964D01*
X152677085Y-47971127D01*
X151999312Y-47971127D01*
G37*
G36*
X149220072Y-45708462D02*
G01*
X148819086Y-47636820D01*
X148652208Y-48307633D01*
X148668328Y-48307633D01*
X148849312Y-47899320D01*
X150068755Y-45708462D01*
X150596320Y-45708462D01*
X150928795Y-47878803D01*
X150938870Y-48307633D01*
X150957005Y-48307633D01*
X151017863Y-47907892D01*
X151094025Y-47505478D01*
X151467717Y-45708462D01*
X152063975Y-45708462D01*
X151403420Y-48885572D01*
X150440248Y-48885572D01*
X150166757Y-46966007D01*
X150143536Y-46731341D01*
X150144959Y-46518859D01*
X150130854Y-46518859D01*
X149909936Y-46970037D01*
X148846197Y-48885572D01*
X147894566Y-48885572D01*
X148555121Y-45708462D01*
X149220072Y-45708462D01*
G37*
G36*
X145900629Y-45708462D02*
G01*
X147746738Y-45708462D01*
X147086183Y-48885572D01*
X145308767Y-48885572D01*
X145423806Y-48332179D01*
X146536820Y-48332179D01*
X146692342Y-47584247D01*
X145659561Y-47584247D01*
X145774233Y-47033052D01*
X146806464Y-47033052D01*
X146966749Y-46261855D01*
X145785590Y-46261855D01*
X145900629Y-45708462D01*
G37*
G36*
X142766199Y-45929196D02*
G01*
X143025811Y-45814401D01*
X143306786Y-45730854D01*
X143612059Y-45679312D01*
X143944976Y-45661567D01*
X144248570Y-45681471D01*
X144501488Y-45737073D01*
X144712130Y-45823923D01*
X144887367Y-45940067D01*
X145032162Y-46086183D01*
X145144187Y-46258510D01*
X145221100Y-46455127D01*
X145262360Y-46681129D01*
X145264510Y-46942930D01*
X145221389Y-47247924D01*
X145141126Y-47540069D01*
X145028742Y-47804918D01*
X144884478Y-48045668D01*
X144707326Y-48264779D01*
X144495072Y-48463887D01*
X144258570Y-48632571D01*
X144008287Y-48762711D01*
X143742055Y-48856073D01*
X143457102Y-48913015D01*
X143150149Y-48932467D01*
X142819326Y-48914891D01*
X142541658Y-48865854D01*
X142309160Y-48789768D01*
X142441784Y-48151745D01*
X142603349Y-48239674D01*
X142793692Y-48305641D01*
X143017841Y-48347774D01*
X143281674Y-48362771D01*
X143501366Y-48343919D01*
X143704224Y-48288504D01*
X143893817Y-48196441D01*
X144072837Y-48065283D01*
X144226716Y-47906645D01*
X144351184Y-47725085D01*
X144447439Y-47517759D01*
X144515039Y-47280714D01*
X144549065Y-47026861D01*
X144540943Y-46819501D01*
X144497900Y-46649267D01*
X144423448Y-46508418D01*
X144315635Y-46390918D01*
X144179256Y-46305390D01*
X144008053Y-46250945D01*
X143792752Y-46231263D01*
X143621202Y-46241251D01*
X143475397Y-46269324D01*
X143351466Y-46313329D01*
X143217194Y-46959046D01*
X143848073Y-46959046D01*
X143735049Y-47502181D01*
X142439219Y-47502181D01*
X142766199Y-45929196D01*
G37*
G36*
X140240850Y-46440274D02*
G01*
X141368703Y-46440274D01*
X141749355Y-45708462D01*
X142466696Y-45708462D01*
X140670779Y-48885572D01*
X139891156Y-48885572D01*
X139617675Y-46962893D01*
X140288478Y-46962893D01*
X140415423Y-48061986D01*
X140419624Y-48174345D01*
X140406264Y-48338407D01*
X140417621Y-48338407D01*
X140465790Y-48201883D01*
X140528080Y-48070229D01*
X141115911Y-46962893D01*
X140288478Y-46962893D01*
X139617675Y-46962893D01*
X139439245Y-45708462D01*
X140160616Y-45708462D01*
X140240850Y-46440274D01*
G37*
D11*
X114292233Y-118371553D02*
X114292233Y-118371554D01*
D12*
X113400000Y-143050000D02*
G75*
G02*
X105900000Y-135549999I0J7500000D01*
G01*
X115900000Y-91689607D02*
X115900000Y-116410393D01*
X140900000Y-140049995D02*
G75*
G02*
X142899996Y-138050000I2000000J-5D01*
G01*
X105900000Y-135549999D02*
X105900000Y-123329217D01*
X114292234Y-89728446D02*
X108311652Y-88532330D01*
D11*
X108311652Y-88532329D02*
X108311652Y-88532330D01*
D12*
X182507739Y-89728452D02*
X188498786Y-88530243D01*
X113400000Y-143050000D02*
X139899997Y-143050000D01*
X155900000Y-140050000D02*
X155900000Y-142050000D01*
X140900000Y-142049996D02*
X140900000Y-140049995D01*
X158400000Y-78050000D02*
G75*
G02*
X138400000Y-78050000I-10000000J0D01*
G01*
X138400000Y-78050000D02*
G75*
G02*
X158400000Y-78050000I10000000J0D01*
G01*
X142899996Y-138050000D02*
X153900004Y-138050000D01*
X114292234Y-89728446D02*
G75*
G02*
X115899993Y-91689607I-392234J-1961154D01*
G01*
X140900000Y-142049996D02*
G75*
G02*
X139899997Y-143050000I-1000000J-4D01*
G01*
D11*
X105900000Y-85550000D02*
X105900000Y-85590587D01*
D12*
X156899964Y-143050000D02*
G75*
G02*
X155900000Y-142050000I-64J999900D01*
G01*
X190900000Y-85590579D02*
G75*
G02*
X188498784Y-88530236I-3000000J-21D01*
G01*
X190900000Y-135549999D02*
X190900000Y-123329216D01*
X156899964Y-143050000D02*
X183399994Y-143050000D01*
X108311652Y-88532329D02*
G75*
G02*
X105900013Y-85590587I588348J2941729D01*
G01*
X109115536Y-119406893D02*
X114292233Y-118371554D01*
X180900000Y-91689579D02*
G75*
G02*
X182507738Y-89728445I2000000J-21D01*
G01*
X105900000Y-123329217D02*
G75*
G02*
X109115533Y-119406878I4000000J17D01*
G01*
X182507654Y-118371531D02*
G75*
G02*
X180899951Y-116400682I392246J1961131D01*
G01*
X190900000Y-135549999D02*
G75*
G02*
X183399994Y-143050000I-7500000J-1D01*
G01*
X187684423Y-119406885D02*
X182507654Y-118371531D01*
D11*
X190900000Y-85550000D02*
X190900000Y-85590579D01*
D12*
X180900000Y-116400682D02*
X180900000Y-91689579D01*
X187684423Y-119406885D02*
G75*
G02*
X190899984Y-123329216I-784423J-3922315D01*
G01*
X153900004Y-138050000D02*
G75*
G02*
X155900000Y-140050000I-4J-2000000D01*
G01*
X105900000Y-85550000D02*
G75*
G02*
X190900000Y-85550000I42500000J0D01*
G01*
X115900000Y-116410393D02*
G75*
G02*
X114292235Y-118371561I-2000000J-7D01*
G01*
D10*
X166078571Y-111328328D02*
X166078571Y-109828328D01*
X166078571Y-109828328D02*
X166578571Y-110899757D01*
X166578571Y-110899757D02*
X167078571Y-109828328D01*
X167078571Y-109828328D02*
X167078571Y-111328328D01*
X168007143Y-111328328D02*
X167864286Y-111256900D01*
X167864286Y-111256900D02*
X167792857Y-111185471D01*
X167792857Y-111185471D02*
X167721429Y-111042614D01*
X167721429Y-111042614D02*
X167721429Y-110614042D01*
X167721429Y-110614042D02*
X167792857Y-110471185D01*
X167792857Y-110471185D02*
X167864286Y-110399757D01*
X167864286Y-110399757D02*
X168007143Y-110328328D01*
X168007143Y-110328328D02*
X168221429Y-110328328D01*
X168221429Y-110328328D02*
X168364286Y-110399757D01*
X168364286Y-110399757D02*
X168435715Y-110471185D01*
X168435715Y-110471185D02*
X168507143Y-110614042D01*
X168507143Y-110614042D02*
X168507143Y-111042614D01*
X168507143Y-111042614D02*
X168435715Y-111185471D01*
X168435715Y-111185471D02*
X168364286Y-111256900D01*
X168364286Y-111256900D02*
X168221429Y-111328328D01*
X168221429Y-111328328D02*
X168007143Y-111328328D01*
X168935715Y-110328328D02*
X169507143Y-110328328D01*
X169150000Y-109828328D02*
X169150000Y-111114042D01*
X169150000Y-111114042D02*
X169221429Y-111256900D01*
X169221429Y-111256900D02*
X169364286Y-111328328D01*
X169364286Y-111328328D02*
X169507143Y-111328328D01*
X170221429Y-111328328D02*
X170078572Y-111256900D01*
X170078572Y-111256900D02*
X170007143Y-111185471D01*
X170007143Y-111185471D02*
X169935715Y-111042614D01*
X169935715Y-111042614D02*
X169935715Y-110614042D01*
X169935715Y-110614042D02*
X170007143Y-110471185D01*
X170007143Y-110471185D02*
X170078572Y-110399757D01*
X170078572Y-110399757D02*
X170221429Y-110328328D01*
X170221429Y-110328328D02*
X170435715Y-110328328D01*
X170435715Y-110328328D02*
X170578572Y-110399757D01*
X170578572Y-110399757D02*
X170650001Y-110471185D01*
X170650001Y-110471185D02*
X170721429Y-110614042D01*
X170721429Y-110614042D02*
X170721429Y-111042614D01*
X170721429Y-111042614D02*
X170650001Y-111185471D01*
X170650001Y-111185471D02*
X170578572Y-111256900D01*
X170578572Y-111256900D02*
X170435715Y-111328328D01*
X170435715Y-111328328D02*
X170221429Y-111328328D01*
X171364286Y-111328328D02*
X171364286Y-110328328D01*
X171364286Y-110614042D02*
X171435715Y-110471185D01*
X171435715Y-110471185D02*
X171507144Y-110399757D01*
X171507144Y-110399757D02*
X171650001Y-110328328D01*
X171650001Y-110328328D02*
X171792858Y-110328328D01*
X173935714Y-110542614D02*
X174150000Y-110614042D01*
X174150000Y-110614042D02*
X174221429Y-110685471D01*
X174221429Y-110685471D02*
X174292857Y-110828328D01*
X174292857Y-110828328D02*
X174292857Y-111042614D01*
X174292857Y-111042614D02*
X174221429Y-111185471D01*
X174221429Y-111185471D02*
X174150000Y-111256900D01*
X174150000Y-111256900D02*
X174007143Y-111328328D01*
X174007143Y-111328328D02*
X173435714Y-111328328D01*
X173435714Y-111328328D02*
X173435714Y-109828328D01*
X173435714Y-109828328D02*
X173935714Y-109828328D01*
X173935714Y-109828328D02*
X174078572Y-109899757D01*
X174078572Y-109899757D02*
X174150000Y-109971185D01*
X174150000Y-109971185D02*
X174221429Y-110114042D01*
X174221429Y-110114042D02*
X174221429Y-110256900D01*
X174221429Y-110256900D02*
X174150000Y-110399757D01*
X174150000Y-110399757D02*
X174078572Y-110471185D01*
X174078572Y-110471185D02*
X173935714Y-110542614D01*
X173935714Y-110542614D02*
X173435714Y-110542614D01*
X122685714Y-111328328D02*
X122685714Y-109828328D01*
X122685714Y-109828328D02*
X123185714Y-110899757D01*
X123185714Y-110899757D02*
X123685714Y-109828328D01*
X123685714Y-109828328D02*
X123685714Y-111328328D01*
X124614286Y-111328328D02*
X124471429Y-111256900D01*
X124471429Y-111256900D02*
X124400000Y-111185471D01*
X124400000Y-111185471D02*
X124328572Y-111042614D01*
X124328572Y-111042614D02*
X124328572Y-110614042D01*
X124328572Y-110614042D02*
X124400000Y-110471185D01*
X124400000Y-110471185D02*
X124471429Y-110399757D01*
X124471429Y-110399757D02*
X124614286Y-110328328D01*
X124614286Y-110328328D02*
X124828572Y-110328328D01*
X124828572Y-110328328D02*
X124971429Y-110399757D01*
X124971429Y-110399757D02*
X125042858Y-110471185D01*
X125042858Y-110471185D02*
X125114286Y-110614042D01*
X125114286Y-110614042D02*
X125114286Y-111042614D01*
X125114286Y-111042614D02*
X125042858Y-111185471D01*
X125042858Y-111185471D02*
X124971429Y-111256900D01*
X124971429Y-111256900D02*
X124828572Y-111328328D01*
X124828572Y-111328328D02*
X124614286Y-111328328D01*
X125542858Y-110328328D02*
X126114286Y-110328328D01*
X125757143Y-109828328D02*
X125757143Y-111114042D01*
X125757143Y-111114042D02*
X125828572Y-111256900D01*
X125828572Y-111256900D02*
X125971429Y-111328328D01*
X125971429Y-111328328D02*
X126114286Y-111328328D01*
X126828572Y-111328328D02*
X126685715Y-111256900D01*
X126685715Y-111256900D02*
X126614286Y-111185471D01*
X126614286Y-111185471D02*
X126542858Y-111042614D01*
X126542858Y-111042614D02*
X126542858Y-110614042D01*
X126542858Y-110614042D02*
X126614286Y-110471185D01*
X126614286Y-110471185D02*
X126685715Y-110399757D01*
X126685715Y-110399757D02*
X126828572Y-110328328D01*
X126828572Y-110328328D02*
X127042858Y-110328328D01*
X127042858Y-110328328D02*
X127185715Y-110399757D01*
X127185715Y-110399757D02*
X127257144Y-110471185D01*
X127257144Y-110471185D02*
X127328572Y-110614042D01*
X127328572Y-110614042D02*
X127328572Y-111042614D01*
X127328572Y-111042614D02*
X127257144Y-111185471D01*
X127257144Y-111185471D02*
X127185715Y-111256900D01*
X127185715Y-111256900D02*
X127042858Y-111328328D01*
X127042858Y-111328328D02*
X126828572Y-111328328D01*
X127971429Y-111328328D02*
X127971429Y-110328328D01*
X127971429Y-110614042D02*
X128042858Y-110471185D01*
X128042858Y-110471185D02*
X128114287Y-110399757D01*
X128114287Y-110399757D02*
X128257144Y-110328328D01*
X128257144Y-110328328D02*
X128400001Y-110328328D01*
X129971429Y-110899757D02*
X130685715Y-110899757D01*
X129828572Y-111328328D02*
X130328572Y-109828328D01*
X130328572Y-109828328D02*
X130828572Y-111328328D01*
D13*
X142911033Y-134093333D02*
X143411033Y-134093333D01*
X143411033Y-134093333D02*
X143511033Y-134126666D01*
X143511033Y-134126666D02*
X143577700Y-134193333D01*
X143577700Y-134193333D02*
X143611033Y-134293333D01*
X143611033Y-134293333D02*
X143611033Y-134360000D01*
X143611033Y-133393333D02*
X143611033Y-133793333D01*
X143611033Y-133593333D02*
X142911033Y-133593333D01*
X142911033Y-133593333D02*
X143011033Y-133660000D01*
X143011033Y-133660000D02*
X143077700Y-133726667D01*
X143077700Y-133726667D02*
X143111033Y-133793333D01*
D14*
X135374619Y-122427381D02*
X134898428Y-122760714D01*
X135374619Y-122998809D02*
X134374619Y-122998809D01*
X134374619Y-122998809D02*
X134374619Y-122617857D01*
X134374619Y-122617857D02*
X134422238Y-122522619D01*
X134422238Y-122522619D02*
X134469857Y-122475000D01*
X134469857Y-122475000D02*
X134565095Y-122427381D01*
X134565095Y-122427381D02*
X134707952Y-122427381D01*
X134707952Y-122427381D02*
X134803190Y-122475000D01*
X134803190Y-122475000D02*
X134850809Y-122522619D01*
X134850809Y-122522619D02*
X134898428Y-122617857D01*
X134898428Y-122617857D02*
X134898428Y-122998809D01*
X134850809Y-121998809D02*
X134850809Y-121665476D01*
X135374619Y-121522619D02*
X135374619Y-121998809D01*
X135374619Y-121998809D02*
X134374619Y-121998809D01*
X134374619Y-121998809D02*
X134374619Y-121522619D01*
X135327000Y-121141666D02*
X135374619Y-120998809D01*
X135374619Y-120998809D02*
X135374619Y-120760714D01*
X135374619Y-120760714D02*
X135327000Y-120665476D01*
X135327000Y-120665476D02*
X135279380Y-120617857D01*
X135279380Y-120617857D02*
X135184142Y-120570238D01*
X135184142Y-120570238D02*
X135088904Y-120570238D01*
X135088904Y-120570238D02*
X134993666Y-120617857D01*
X134993666Y-120617857D02*
X134946047Y-120665476D01*
X134946047Y-120665476D02*
X134898428Y-120760714D01*
X134898428Y-120760714D02*
X134850809Y-120951190D01*
X134850809Y-120951190D02*
X134803190Y-121046428D01*
X134803190Y-121046428D02*
X134755571Y-121094047D01*
X134755571Y-121094047D02*
X134660333Y-121141666D01*
X134660333Y-121141666D02*
X134565095Y-121141666D01*
X134565095Y-121141666D02*
X134469857Y-121094047D01*
X134469857Y-121094047D02*
X134422238Y-121046428D01*
X134422238Y-121046428D02*
X134374619Y-120951190D01*
X134374619Y-120951190D02*
X134374619Y-120713095D01*
X134374619Y-120713095D02*
X134422238Y-120570238D01*
X134850809Y-120141666D02*
X134850809Y-119808333D01*
X135374619Y-119665476D02*
X135374619Y-120141666D01*
X135374619Y-120141666D02*
X134374619Y-120141666D01*
X134374619Y-120141666D02*
X134374619Y-119665476D01*
X134374619Y-119379761D02*
X134374619Y-118808333D01*
X135374619Y-119094047D02*
X134374619Y-119094047D01*
X174123809Y-122202000D02*
X174266666Y-122249619D01*
X174266666Y-122249619D02*
X174504761Y-122249619D01*
X174504761Y-122249619D02*
X174599999Y-122202000D01*
X174599999Y-122202000D02*
X174647618Y-122154380D01*
X174647618Y-122154380D02*
X174695237Y-122059142D01*
X174695237Y-122059142D02*
X174695237Y-121963904D01*
X174695237Y-121963904D02*
X174647618Y-121868666D01*
X174647618Y-121868666D02*
X174599999Y-121821047D01*
X174599999Y-121821047D02*
X174504761Y-121773428D01*
X174504761Y-121773428D02*
X174314285Y-121725809D01*
X174314285Y-121725809D02*
X174219047Y-121678190D01*
X174219047Y-121678190D02*
X174171428Y-121630571D01*
X174171428Y-121630571D02*
X174123809Y-121535333D01*
X174123809Y-121535333D02*
X174123809Y-121440095D01*
X174123809Y-121440095D02*
X174171428Y-121344857D01*
X174171428Y-121344857D02*
X174219047Y-121297238D01*
X174219047Y-121297238D02*
X174314285Y-121249619D01*
X174314285Y-121249619D02*
X174552380Y-121249619D01*
X174552380Y-121249619D02*
X174695237Y-121297238D01*
X174980952Y-121249619D02*
X175552380Y-121249619D01*
X175266666Y-122249619D02*
X175266666Y-121249619D01*
X175838095Y-121963904D02*
X176314285Y-121963904D01*
X175742857Y-122249619D02*
X176076190Y-121249619D01*
X176076190Y-121249619D02*
X176409523Y-122249619D01*
X177314285Y-122249619D02*
X176980952Y-121773428D01*
X176742857Y-122249619D02*
X176742857Y-121249619D01*
X176742857Y-121249619D02*
X177123809Y-121249619D01*
X177123809Y-121249619D02*
X177219047Y-121297238D01*
X177219047Y-121297238D02*
X177266666Y-121344857D01*
X177266666Y-121344857D02*
X177314285Y-121440095D01*
X177314285Y-121440095D02*
X177314285Y-121582952D01*
X177314285Y-121582952D02*
X177266666Y-121678190D01*
X177266666Y-121678190D02*
X177219047Y-121725809D01*
X177219047Y-121725809D02*
X177123809Y-121773428D01*
X177123809Y-121773428D02*
X176742857Y-121773428D01*
X177600000Y-121249619D02*
X178171428Y-121249619D01*
X177885714Y-122249619D02*
X177885714Y-121249619D01*
X130540476Y-135299619D02*
X130540476Y-134299619D01*
X130540476Y-134299619D02*
X130921428Y-134299619D01*
X130921428Y-134299619D02*
X131016666Y-134347238D01*
X131016666Y-134347238D02*
X131064285Y-134394857D01*
X131064285Y-134394857D02*
X131111904Y-134490095D01*
X131111904Y-134490095D02*
X131111904Y-134632952D01*
X131111904Y-134632952D02*
X131064285Y-134728190D01*
X131064285Y-134728190D02*
X131016666Y-134775809D01*
X131016666Y-134775809D02*
X130921428Y-134823428D01*
X130921428Y-134823428D02*
X130540476Y-134823428D01*
X131730952Y-134299619D02*
X131921428Y-134299619D01*
X131921428Y-134299619D02*
X132016666Y-134347238D01*
X132016666Y-134347238D02*
X132111904Y-134442476D01*
X132111904Y-134442476D02*
X132159523Y-134632952D01*
X132159523Y-134632952D02*
X132159523Y-134966285D01*
X132159523Y-134966285D02*
X132111904Y-135156761D01*
X132111904Y-135156761D02*
X132016666Y-135252000D01*
X132016666Y-135252000D02*
X131921428Y-135299619D01*
X131921428Y-135299619D02*
X131730952Y-135299619D01*
X131730952Y-135299619D02*
X131635714Y-135252000D01*
X131635714Y-135252000D02*
X131540476Y-135156761D01*
X131540476Y-135156761D02*
X131492857Y-134966285D01*
X131492857Y-134966285D02*
X131492857Y-134632952D01*
X131492857Y-134632952D02*
X131540476Y-134442476D01*
X131540476Y-134442476D02*
X131635714Y-134347238D01*
X131635714Y-134347238D02*
X131730952Y-134299619D01*
X132492857Y-134299619D02*
X132730952Y-135299619D01*
X132730952Y-135299619D02*
X132921428Y-134585333D01*
X132921428Y-134585333D02*
X133111904Y-135299619D01*
X133111904Y-135299619D02*
X133350000Y-134299619D01*
X133730952Y-134775809D02*
X134064285Y-134775809D01*
X134207142Y-135299619D02*
X133730952Y-135299619D01*
X133730952Y-135299619D02*
X133730952Y-134299619D01*
X133730952Y-134299619D02*
X134207142Y-134299619D01*
X135207142Y-135299619D02*
X134873809Y-134823428D01*
X134635714Y-135299619D02*
X134635714Y-134299619D01*
X134635714Y-134299619D02*
X135016666Y-134299619D01*
X135016666Y-134299619D02*
X135111904Y-134347238D01*
X135111904Y-134347238D02*
X135159523Y-134394857D01*
X135159523Y-134394857D02*
X135207142Y-134490095D01*
X135207142Y-134490095D02*
X135207142Y-134632952D01*
X135207142Y-134632952D02*
X135159523Y-134728190D01*
X135159523Y-134728190D02*
X135111904Y-134775809D01*
X135111904Y-134775809D02*
X135016666Y-134823428D01*
X135016666Y-134823428D02*
X134635714Y-134823428D01*
D13*
X129482700Y-59766666D02*
X129449366Y-59833333D01*
X129449366Y-59833333D02*
X129382700Y-59900000D01*
X129382700Y-59900000D02*
X129282700Y-60000000D01*
X129282700Y-60000000D02*
X129249366Y-60066666D01*
X129249366Y-60066666D02*
X129249366Y-60133333D01*
X129416033Y-60100000D02*
X129382700Y-60166666D01*
X129382700Y-60166666D02*
X129316033Y-60233333D01*
X129316033Y-60233333D02*
X129182700Y-60266666D01*
X129182700Y-60266666D02*
X128949366Y-60266666D01*
X128949366Y-60266666D02*
X128816033Y-60233333D01*
X128816033Y-60233333D02*
X128749366Y-60166666D01*
X128749366Y-60166666D02*
X128716033Y-60100000D01*
X128716033Y-60100000D02*
X128716033Y-59966666D01*
X128716033Y-59966666D02*
X128749366Y-59900000D01*
X128749366Y-59900000D02*
X128816033Y-59833333D01*
X128816033Y-59833333D02*
X128949366Y-59800000D01*
X128949366Y-59800000D02*
X129182700Y-59800000D01*
X129182700Y-59800000D02*
X129316033Y-59833333D01*
X129316033Y-59833333D02*
X129382700Y-59900000D01*
X129382700Y-59900000D02*
X129416033Y-59966666D01*
X129416033Y-59966666D02*
X129416033Y-60100000D01*
X128782700Y-59533333D02*
X128749366Y-59500000D01*
X128749366Y-59500000D02*
X128716033Y-59433333D01*
X128716033Y-59433333D02*
X128716033Y-59266667D01*
X128716033Y-59266667D02*
X128749366Y-59200000D01*
X128749366Y-59200000D02*
X128782700Y-59166667D01*
X128782700Y-59166667D02*
X128849366Y-59133333D01*
X128849366Y-59133333D02*
X128916033Y-59133333D01*
X128916033Y-59133333D02*
X129016033Y-59166667D01*
X129016033Y-59166667D02*
X129416033Y-59566667D01*
X129416033Y-59566667D02*
X129416033Y-59133333D01*
X126116666Y-101191033D02*
X126116666Y-100491033D01*
X126116666Y-100824366D02*
X126516666Y-100824366D01*
X126516666Y-101191033D02*
X126516666Y-100491033D01*
X126816666Y-100557700D02*
X126849999Y-100524366D01*
X126849999Y-100524366D02*
X126916666Y-100491033D01*
X126916666Y-100491033D02*
X127083333Y-100491033D01*
X127083333Y-100491033D02*
X127149999Y-100524366D01*
X127149999Y-100524366D02*
X127183333Y-100557700D01*
X127183333Y-100557700D02*
X127216666Y-100624366D01*
X127216666Y-100624366D02*
X127216666Y-100691033D01*
X127216666Y-100691033D02*
X127183333Y-100791033D01*
X127183333Y-100791033D02*
X126783333Y-101191033D01*
X126783333Y-101191033D02*
X127216666Y-101191033D01*
X169866033Y-133083333D02*
X170366033Y-133083333D01*
X170366033Y-133083333D02*
X170466033Y-133116666D01*
X170466033Y-133116666D02*
X170532700Y-133183333D01*
X170532700Y-133183333D02*
X170566033Y-133283333D01*
X170566033Y-133283333D02*
X170566033Y-133350000D01*
X170566033Y-132750000D02*
X169866033Y-132750000D01*
X169866033Y-132750000D02*
X169866033Y-132483333D01*
X169866033Y-132483333D02*
X169899366Y-132416667D01*
X169899366Y-132416667D02*
X169932700Y-132383333D01*
X169932700Y-132383333D02*
X169999366Y-132350000D01*
X169999366Y-132350000D02*
X170099366Y-132350000D01*
X170099366Y-132350000D02*
X170166033Y-132383333D01*
X170166033Y-132383333D02*
X170199366Y-132416667D01*
X170199366Y-132416667D02*
X170232700Y-132483333D01*
X170232700Y-132483333D02*
X170232700Y-132750000D01*
X170566033Y-131683333D02*
X170566033Y-132083333D01*
X170566033Y-131883333D02*
X169866033Y-131883333D01*
X169866033Y-131883333D02*
X169966033Y-131950000D01*
X169966033Y-131950000D02*
X170032700Y-132016667D01*
X170032700Y-132016667D02*
X170066033Y-132083333D01*
X149958333Y-129866033D02*
X149725000Y-129532700D01*
X149558333Y-129866033D02*
X149558333Y-129166033D01*
X149558333Y-129166033D02*
X149825000Y-129166033D01*
X149825000Y-129166033D02*
X149891667Y-129199366D01*
X149891667Y-129199366D02*
X149925000Y-129232700D01*
X149925000Y-129232700D02*
X149958333Y-129299366D01*
X149958333Y-129299366D02*
X149958333Y-129399366D01*
X149958333Y-129399366D02*
X149925000Y-129466033D01*
X149925000Y-129466033D02*
X149891667Y-129499366D01*
X149891667Y-129499366D02*
X149825000Y-129532700D01*
X149825000Y-129532700D02*
X149558333Y-129532700D01*
X150291667Y-129866033D02*
X150425000Y-129866033D01*
X150425000Y-129866033D02*
X150491667Y-129832700D01*
X150491667Y-129832700D02*
X150525000Y-129799366D01*
X150525000Y-129799366D02*
X150591667Y-129699366D01*
X150591667Y-129699366D02*
X150625000Y-129566033D01*
X150625000Y-129566033D02*
X150625000Y-129299366D01*
X150625000Y-129299366D02*
X150591667Y-129232700D01*
X150591667Y-129232700D02*
X150558333Y-129199366D01*
X150558333Y-129199366D02*
X150491667Y-129166033D01*
X150491667Y-129166033D02*
X150358333Y-129166033D01*
X150358333Y-129166033D02*
X150291667Y-129199366D01*
X150291667Y-129199366D02*
X150258333Y-129232700D01*
X150258333Y-129232700D02*
X150225000Y-129299366D01*
X150225000Y-129299366D02*
X150225000Y-129466033D01*
X150225000Y-129466033D02*
X150258333Y-129532700D01*
X150258333Y-129532700D02*
X150291667Y-129566033D01*
X150291667Y-129566033D02*
X150358333Y-129599366D01*
X150358333Y-129599366D02*
X150491667Y-129599366D01*
X150491667Y-129599366D02*
X150558333Y-129566033D01*
X150558333Y-129566033D02*
X150591667Y-129532700D01*
X150591667Y-129532700D02*
X150625000Y-129466033D01*
X178099999Y-87199366D02*
X178066666Y-87232700D01*
X178066666Y-87232700D02*
X177966666Y-87266033D01*
X177966666Y-87266033D02*
X177899999Y-87266033D01*
X177899999Y-87266033D02*
X177799999Y-87232700D01*
X177799999Y-87232700D02*
X177733333Y-87166033D01*
X177733333Y-87166033D02*
X177699999Y-87099366D01*
X177699999Y-87099366D02*
X177666666Y-86966033D01*
X177666666Y-86966033D02*
X177666666Y-86866033D01*
X177666666Y-86866033D02*
X177699999Y-86732700D01*
X177699999Y-86732700D02*
X177733333Y-86666033D01*
X177733333Y-86666033D02*
X177799999Y-86599366D01*
X177799999Y-86599366D02*
X177899999Y-86566033D01*
X177899999Y-86566033D02*
X177966666Y-86566033D01*
X177966666Y-86566033D02*
X178066666Y-86599366D01*
X178066666Y-86599366D02*
X178099999Y-86632700D01*
X178766666Y-87266033D02*
X178366666Y-87266033D01*
X178566666Y-87266033D02*
X178566666Y-86566033D01*
X178566666Y-86566033D02*
X178499999Y-86666033D01*
X178499999Y-86666033D02*
X178433333Y-86732700D01*
X178433333Y-86732700D02*
X178366666Y-86766033D01*
X179200000Y-86566033D02*
X179266666Y-86566033D01*
X179266666Y-86566033D02*
X179333333Y-86599366D01*
X179333333Y-86599366D02*
X179366666Y-86632700D01*
X179366666Y-86632700D02*
X179400000Y-86699366D01*
X179400000Y-86699366D02*
X179433333Y-86832700D01*
X179433333Y-86832700D02*
X179433333Y-86999366D01*
X179433333Y-86999366D02*
X179400000Y-87132700D01*
X179400000Y-87132700D02*
X179366666Y-87199366D01*
X179366666Y-87199366D02*
X179333333Y-87232700D01*
X179333333Y-87232700D02*
X179266666Y-87266033D01*
X179266666Y-87266033D02*
X179200000Y-87266033D01*
X179200000Y-87266033D02*
X179133333Y-87232700D01*
X179133333Y-87232700D02*
X179100000Y-87199366D01*
X179100000Y-87199366D02*
X179066666Y-87132700D01*
X179066666Y-87132700D02*
X179033333Y-86999366D01*
X179033333Y-86999366D02*
X179033333Y-86832700D01*
X179033333Y-86832700D02*
X179066666Y-86699366D01*
X179066666Y-86699366D02*
X179100000Y-86632700D01*
X179100000Y-86632700D02*
X179133333Y-86599366D01*
X179133333Y-86599366D02*
X179200000Y-86566033D01*
X169566666Y-101191033D02*
X169566666Y-100491033D01*
X169566666Y-100824366D02*
X169966666Y-100824366D01*
X169966666Y-101191033D02*
X169966666Y-100491033D01*
X170599999Y-100724366D02*
X170599999Y-101191033D01*
X170433333Y-100457700D02*
X170266666Y-100957700D01*
X170266666Y-100957700D02*
X170699999Y-100957700D01*
X170799999Y-127666033D02*
X170566666Y-127332700D01*
X170399999Y-127666033D02*
X170399999Y-126966033D01*
X170399999Y-126966033D02*
X170666666Y-126966033D01*
X170666666Y-126966033D02*
X170733333Y-126999366D01*
X170733333Y-126999366D02*
X170766666Y-127032700D01*
X170766666Y-127032700D02*
X170799999Y-127099366D01*
X170799999Y-127099366D02*
X170799999Y-127199366D01*
X170799999Y-127199366D02*
X170766666Y-127266033D01*
X170766666Y-127266033D02*
X170733333Y-127299366D01*
X170733333Y-127299366D02*
X170666666Y-127332700D01*
X170666666Y-127332700D02*
X170399999Y-127332700D01*
X171466666Y-127666033D02*
X171066666Y-127666033D01*
X171266666Y-127666033D02*
X171266666Y-126966033D01*
X171266666Y-126966033D02*
X171199999Y-127066033D01*
X171199999Y-127066033D02*
X171133333Y-127132700D01*
X171133333Y-127132700D02*
X171066666Y-127166033D01*
X172066666Y-126966033D02*
X171933333Y-126966033D01*
X171933333Y-126966033D02*
X171866666Y-126999366D01*
X171866666Y-126999366D02*
X171833333Y-127032700D01*
X171833333Y-127032700D02*
X171766666Y-127132700D01*
X171766666Y-127132700D02*
X171733333Y-127266033D01*
X171733333Y-127266033D02*
X171733333Y-127532700D01*
X171733333Y-127532700D02*
X171766666Y-127599366D01*
X171766666Y-127599366D02*
X171800000Y-127632700D01*
X171800000Y-127632700D02*
X171866666Y-127666033D01*
X171866666Y-127666033D02*
X172000000Y-127666033D01*
X172000000Y-127666033D02*
X172066666Y-127632700D01*
X172066666Y-127632700D02*
X172100000Y-127599366D01*
X172100000Y-127599366D02*
X172133333Y-127532700D01*
X172133333Y-127532700D02*
X172133333Y-127366033D01*
X172133333Y-127366033D02*
X172100000Y-127299366D01*
X172100000Y-127299366D02*
X172066666Y-127266033D01*
X172066666Y-127266033D02*
X172000000Y-127232700D01*
X172000000Y-127232700D02*
X171866666Y-127232700D01*
X171866666Y-127232700D02*
X171800000Y-127266033D01*
X171800000Y-127266033D02*
X171766666Y-127299366D01*
X171766666Y-127299366D02*
X171733333Y-127366033D01*
X142049999Y-106399366D02*
X142016666Y-106432700D01*
X142016666Y-106432700D02*
X141916666Y-106466033D01*
X141916666Y-106466033D02*
X141849999Y-106466033D01*
X141849999Y-106466033D02*
X141749999Y-106432700D01*
X141749999Y-106432700D02*
X141683333Y-106366033D01*
X141683333Y-106366033D02*
X141649999Y-106299366D01*
X141649999Y-106299366D02*
X141616666Y-106166033D01*
X141616666Y-106166033D02*
X141616666Y-106066033D01*
X141616666Y-106066033D02*
X141649999Y-105932700D01*
X141649999Y-105932700D02*
X141683333Y-105866033D01*
X141683333Y-105866033D02*
X141749999Y-105799366D01*
X141749999Y-105799366D02*
X141849999Y-105766033D01*
X141849999Y-105766033D02*
X141916666Y-105766033D01*
X141916666Y-105766033D02*
X142016666Y-105799366D01*
X142016666Y-105799366D02*
X142049999Y-105832700D01*
X142716666Y-106466033D02*
X142316666Y-106466033D01*
X142516666Y-106466033D02*
X142516666Y-105766033D01*
X142516666Y-105766033D02*
X142449999Y-105866033D01*
X142449999Y-105866033D02*
X142383333Y-105932700D01*
X142383333Y-105932700D02*
X142316666Y-105966033D01*
X143350000Y-105766033D02*
X143016666Y-105766033D01*
X143016666Y-105766033D02*
X142983333Y-106099366D01*
X142983333Y-106099366D02*
X143016666Y-106066033D01*
X143016666Y-106066033D02*
X143083333Y-106032700D01*
X143083333Y-106032700D02*
X143250000Y-106032700D01*
X143250000Y-106032700D02*
X143316666Y-106066033D01*
X143316666Y-106066033D02*
X143350000Y-106099366D01*
X143350000Y-106099366D02*
X143383333Y-106166033D01*
X143383333Y-106166033D02*
X143383333Y-106332700D01*
X143383333Y-106332700D02*
X143350000Y-106399366D01*
X143350000Y-106399366D02*
X143316666Y-106432700D01*
X143316666Y-106432700D02*
X143250000Y-106466033D01*
X143250000Y-106466033D02*
X143083333Y-106466033D01*
X143083333Y-106466033D02*
X143016666Y-106432700D01*
X143016666Y-106432700D02*
X142983333Y-106399366D01*
X143766033Y-116416666D02*
X143432700Y-116649999D01*
X143766033Y-116816666D02*
X143066033Y-116816666D01*
X143066033Y-116816666D02*
X143066033Y-116549999D01*
X143066033Y-116549999D02*
X143099366Y-116483333D01*
X143099366Y-116483333D02*
X143132700Y-116449999D01*
X143132700Y-116449999D02*
X143199366Y-116416666D01*
X143199366Y-116416666D02*
X143299366Y-116416666D01*
X143299366Y-116416666D02*
X143366033Y-116449999D01*
X143366033Y-116449999D02*
X143399366Y-116483333D01*
X143399366Y-116483333D02*
X143432700Y-116549999D01*
X143432700Y-116549999D02*
X143432700Y-116816666D01*
X143766033Y-115749999D02*
X143766033Y-116149999D01*
X143766033Y-115949999D02*
X143066033Y-115949999D01*
X143066033Y-115949999D02*
X143166033Y-116016666D01*
X143166033Y-116016666D02*
X143232700Y-116083333D01*
X143232700Y-116083333D02*
X143266033Y-116149999D01*
X110183333Y-127616033D02*
X109950000Y-127282700D01*
X109783333Y-127616033D02*
X109783333Y-126916033D01*
X109783333Y-126916033D02*
X110050000Y-126916033D01*
X110050000Y-126916033D02*
X110116667Y-126949366D01*
X110116667Y-126949366D02*
X110150000Y-126982700D01*
X110150000Y-126982700D02*
X110183333Y-127049366D01*
X110183333Y-127049366D02*
X110183333Y-127149366D01*
X110183333Y-127149366D02*
X110150000Y-127216033D01*
X110150000Y-127216033D02*
X110116667Y-127249366D01*
X110116667Y-127249366D02*
X110050000Y-127282700D01*
X110050000Y-127282700D02*
X109783333Y-127282700D01*
X110416667Y-126916033D02*
X110883333Y-126916033D01*
X110883333Y-126916033D02*
X110583333Y-127616033D01*
X116736179Y-61586301D02*
X116736179Y-60886301D01*
X116736179Y-60886301D02*
X116902846Y-60886301D01*
X116902846Y-60886301D02*
X117002846Y-60919634D01*
X117002846Y-60919634D02*
X117069513Y-60986301D01*
X117069513Y-60986301D02*
X117102846Y-61052968D01*
X117102846Y-61052968D02*
X117136179Y-61186301D01*
X117136179Y-61186301D02*
X117136179Y-61286301D01*
X117136179Y-61286301D02*
X117102846Y-61419634D01*
X117102846Y-61419634D02*
X117069513Y-61486301D01*
X117069513Y-61486301D02*
X117002846Y-61552968D01*
X117002846Y-61552968D02*
X116902846Y-61586301D01*
X116902846Y-61586301D02*
X116736179Y-61586301D01*
X117736179Y-61119634D02*
X117736179Y-61586301D01*
X117569513Y-60852968D02*
X117402846Y-61352968D01*
X117402846Y-61352968D02*
X117836179Y-61352968D01*
X170749999Y-122349366D02*
X170716666Y-122382700D01*
X170716666Y-122382700D02*
X170616666Y-122416033D01*
X170616666Y-122416033D02*
X170549999Y-122416033D01*
X170549999Y-122416033D02*
X170449999Y-122382700D01*
X170449999Y-122382700D02*
X170383333Y-122316033D01*
X170383333Y-122316033D02*
X170349999Y-122249366D01*
X170349999Y-122249366D02*
X170316666Y-122116033D01*
X170316666Y-122116033D02*
X170316666Y-122016033D01*
X170316666Y-122016033D02*
X170349999Y-121882700D01*
X170349999Y-121882700D02*
X170383333Y-121816033D01*
X170383333Y-121816033D02*
X170449999Y-121749366D01*
X170449999Y-121749366D02*
X170549999Y-121716033D01*
X170549999Y-121716033D02*
X170616666Y-121716033D01*
X170616666Y-121716033D02*
X170716666Y-121749366D01*
X170716666Y-121749366D02*
X170749999Y-121782700D01*
X171016666Y-121782700D02*
X171049999Y-121749366D01*
X171049999Y-121749366D02*
X171116666Y-121716033D01*
X171116666Y-121716033D02*
X171283333Y-121716033D01*
X171283333Y-121716033D02*
X171349999Y-121749366D01*
X171349999Y-121749366D02*
X171383333Y-121782700D01*
X171383333Y-121782700D02*
X171416666Y-121849366D01*
X171416666Y-121849366D02*
X171416666Y-121916033D01*
X171416666Y-121916033D02*
X171383333Y-122016033D01*
X171383333Y-122016033D02*
X170983333Y-122416033D01*
X170983333Y-122416033D02*
X171416666Y-122416033D01*
X172016666Y-121716033D02*
X171883333Y-121716033D01*
X171883333Y-121716033D02*
X171816666Y-121749366D01*
X171816666Y-121749366D02*
X171783333Y-121782700D01*
X171783333Y-121782700D02*
X171716666Y-121882700D01*
X171716666Y-121882700D02*
X171683333Y-122016033D01*
X171683333Y-122016033D02*
X171683333Y-122282700D01*
X171683333Y-122282700D02*
X171716666Y-122349366D01*
X171716666Y-122349366D02*
X171750000Y-122382700D01*
X171750000Y-122382700D02*
X171816666Y-122416033D01*
X171816666Y-122416033D02*
X171950000Y-122416033D01*
X171950000Y-122416033D02*
X172016666Y-122382700D01*
X172016666Y-122382700D02*
X172050000Y-122349366D01*
X172050000Y-122349366D02*
X172083333Y-122282700D01*
X172083333Y-122282700D02*
X172083333Y-122116033D01*
X172083333Y-122116033D02*
X172050000Y-122049366D01*
X172050000Y-122049366D02*
X172016666Y-122016033D01*
X172016666Y-122016033D02*
X171950000Y-121982700D01*
X171950000Y-121982700D02*
X171816666Y-121982700D01*
X171816666Y-121982700D02*
X171750000Y-122016033D01*
X171750000Y-122016033D02*
X171716666Y-122049366D01*
X171716666Y-122049366D02*
X171683333Y-122116033D01*
X160366033Y-130066666D02*
X160866033Y-130066666D01*
X160866033Y-130066666D02*
X160966033Y-130099999D01*
X160966033Y-130099999D02*
X161032700Y-130166666D01*
X161032700Y-130166666D02*
X161066033Y-130266666D01*
X161066033Y-130266666D02*
X161066033Y-130333333D01*
X161066033Y-129366666D02*
X161066033Y-129766666D01*
X161066033Y-129566666D02*
X160366033Y-129566666D01*
X160366033Y-129566666D02*
X160466033Y-129633333D01*
X160466033Y-129633333D02*
X160532700Y-129700000D01*
X160532700Y-129700000D02*
X160566033Y-129766666D01*
X161066033Y-128699999D02*
X161066033Y-129099999D01*
X161066033Y-128899999D02*
X160366033Y-128899999D01*
X160366033Y-128899999D02*
X160466033Y-128966666D01*
X160466033Y-128966666D02*
X160532700Y-129033333D01*
X160532700Y-129033333D02*
X160566033Y-129099999D01*
X165233333Y-134516033D02*
X165233333Y-135016033D01*
X165233333Y-135016033D02*
X165200000Y-135116033D01*
X165200000Y-135116033D02*
X165133333Y-135182700D01*
X165133333Y-135182700D02*
X165033333Y-135216033D01*
X165033333Y-135216033D02*
X164966667Y-135216033D01*
X165933333Y-135216033D02*
X165533333Y-135216033D01*
X165733333Y-135216033D02*
X165733333Y-134516033D01*
X165733333Y-134516033D02*
X165666666Y-134616033D01*
X165666666Y-134616033D02*
X165600000Y-134682700D01*
X165600000Y-134682700D02*
X165533333Y-134716033D01*
X166533333Y-134749366D02*
X166533333Y-135216033D01*
X166366667Y-134482700D02*
X166200000Y-134982700D01*
X166200000Y-134982700D02*
X166633333Y-134982700D01*
X169153571Y-138639700D02*
X170296429Y-138639700D01*
X156153571Y-138639700D02*
X157296429Y-138639700D01*
X156725000Y-139211128D02*
X156725000Y-138068271D01*
X153949366Y-134550000D02*
X153982700Y-134583333D01*
X153982700Y-134583333D02*
X154016033Y-134683333D01*
X154016033Y-134683333D02*
X154016033Y-134750000D01*
X154016033Y-134750000D02*
X153982700Y-134850000D01*
X153982700Y-134850000D02*
X153916033Y-134916667D01*
X153916033Y-134916667D02*
X153849366Y-134950000D01*
X153849366Y-134950000D02*
X153716033Y-134983333D01*
X153716033Y-134983333D02*
X153616033Y-134983333D01*
X153616033Y-134983333D02*
X153482700Y-134950000D01*
X153482700Y-134950000D02*
X153416033Y-134916667D01*
X153416033Y-134916667D02*
X153349366Y-134850000D01*
X153349366Y-134850000D02*
X153316033Y-134750000D01*
X153316033Y-134750000D02*
X153316033Y-134683333D01*
X153316033Y-134683333D02*
X153349366Y-134583333D01*
X153349366Y-134583333D02*
X153382700Y-134550000D01*
X153382700Y-134283333D02*
X153349366Y-134250000D01*
X153349366Y-134250000D02*
X153316033Y-134183333D01*
X153316033Y-134183333D02*
X153316033Y-134016667D01*
X153316033Y-134016667D02*
X153349366Y-133950000D01*
X153349366Y-133950000D02*
X153382700Y-133916667D01*
X153382700Y-133916667D02*
X153449366Y-133883333D01*
X153449366Y-133883333D02*
X153516033Y-133883333D01*
X153516033Y-133883333D02*
X153616033Y-133916667D01*
X153616033Y-133916667D02*
X154016033Y-134316667D01*
X154016033Y-134316667D02*
X154016033Y-133883333D01*
X153382700Y-133616666D02*
X153349366Y-133583333D01*
X153349366Y-133583333D02*
X153316033Y-133516666D01*
X153316033Y-133516666D02*
X153316033Y-133350000D01*
X153316033Y-133350000D02*
X153349366Y-133283333D01*
X153349366Y-133283333D02*
X153382700Y-133250000D01*
X153382700Y-133250000D02*
X153449366Y-133216666D01*
X153449366Y-133216666D02*
X153516033Y-133216666D01*
X153516033Y-133216666D02*
X153616033Y-133250000D01*
X153616033Y-133250000D02*
X154016033Y-133650000D01*
X154016033Y-133650000D02*
X154016033Y-133216666D01*
X111066666Y-134466033D02*
X111066666Y-134966033D01*
X111066666Y-134966033D02*
X111033333Y-135066033D01*
X111033333Y-135066033D02*
X110966666Y-135132700D01*
X110966666Y-135132700D02*
X110866666Y-135166033D01*
X110866666Y-135166033D02*
X110800000Y-135166033D01*
X111366666Y-134532700D02*
X111399999Y-134499366D01*
X111399999Y-134499366D02*
X111466666Y-134466033D01*
X111466666Y-134466033D02*
X111633333Y-134466033D01*
X111633333Y-134466033D02*
X111699999Y-134499366D01*
X111699999Y-134499366D02*
X111733333Y-134532700D01*
X111733333Y-134532700D02*
X111766666Y-134599366D01*
X111766666Y-134599366D02*
X111766666Y-134666033D01*
X111766666Y-134666033D02*
X111733333Y-134766033D01*
X111733333Y-134766033D02*
X111333333Y-135166033D01*
X111333333Y-135166033D02*
X111766666Y-135166033D01*
X145849366Y-116416666D02*
X145882700Y-116449999D01*
X145882700Y-116449999D02*
X145916033Y-116549999D01*
X145916033Y-116549999D02*
X145916033Y-116616666D01*
X145916033Y-116616666D02*
X145882700Y-116716666D01*
X145882700Y-116716666D02*
X145816033Y-116783333D01*
X145816033Y-116783333D02*
X145749366Y-116816666D01*
X145749366Y-116816666D02*
X145616033Y-116849999D01*
X145616033Y-116849999D02*
X145516033Y-116849999D01*
X145516033Y-116849999D02*
X145382700Y-116816666D01*
X145382700Y-116816666D02*
X145316033Y-116783333D01*
X145316033Y-116783333D02*
X145249366Y-116716666D01*
X145249366Y-116716666D02*
X145216033Y-116616666D01*
X145216033Y-116616666D02*
X145216033Y-116549999D01*
X145216033Y-116549999D02*
X145249366Y-116449999D01*
X145249366Y-116449999D02*
X145282700Y-116416666D01*
X145916033Y-115749999D02*
X145916033Y-116149999D01*
X145916033Y-115949999D02*
X145216033Y-115949999D01*
X145216033Y-115949999D02*
X145316033Y-116016666D01*
X145316033Y-116016666D02*
X145382700Y-116083333D01*
X145382700Y-116083333D02*
X145416033Y-116149999D01*
X142866033Y-111383333D02*
X143432700Y-111383333D01*
X143432700Y-111383333D02*
X143499366Y-111350000D01*
X143499366Y-111350000D02*
X143532700Y-111316666D01*
X143532700Y-111316666D02*
X143566033Y-111250000D01*
X143566033Y-111250000D02*
X143566033Y-111116666D01*
X143566033Y-111116666D02*
X143532700Y-111050000D01*
X143532700Y-111050000D02*
X143499366Y-111016666D01*
X143499366Y-111016666D02*
X143432700Y-110983333D01*
X143432700Y-110983333D02*
X142866033Y-110983333D01*
X143099366Y-110350000D02*
X143566033Y-110350000D01*
X142832700Y-110516667D02*
X143332700Y-110683333D01*
X143332700Y-110683333D02*
X143332700Y-110250000D01*
X142683333Y-104299366D02*
X142650000Y-104332700D01*
X142650000Y-104332700D02*
X142550000Y-104366033D01*
X142550000Y-104366033D02*
X142483333Y-104366033D01*
X142483333Y-104366033D02*
X142383333Y-104332700D01*
X142383333Y-104332700D02*
X142316667Y-104266033D01*
X142316667Y-104266033D02*
X142283333Y-104199366D01*
X142283333Y-104199366D02*
X142250000Y-104066033D01*
X142250000Y-104066033D02*
X142250000Y-103966033D01*
X142250000Y-103966033D02*
X142283333Y-103832700D01*
X142283333Y-103832700D02*
X142316667Y-103766033D01*
X142316667Y-103766033D02*
X142383333Y-103699366D01*
X142383333Y-103699366D02*
X142483333Y-103666033D01*
X142483333Y-103666033D02*
X142550000Y-103666033D01*
X142550000Y-103666033D02*
X142650000Y-103699366D01*
X142650000Y-103699366D02*
X142683333Y-103732700D01*
X143016667Y-104366033D02*
X143150000Y-104366033D01*
X143150000Y-104366033D02*
X143216667Y-104332700D01*
X143216667Y-104332700D02*
X143250000Y-104299366D01*
X143250000Y-104299366D02*
X143316667Y-104199366D01*
X143316667Y-104199366D02*
X143350000Y-104066033D01*
X143350000Y-104066033D02*
X143350000Y-103799366D01*
X143350000Y-103799366D02*
X143316667Y-103732700D01*
X143316667Y-103732700D02*
X143283333Y-103699366D01*
X143283333Y-103699366D02*
X143216667Y-103666033D01*
X143216667Y-103666033D02*
X143083333Y-103666033D01*
X143083333Y-103666033D02*
X143016667Y-103699366D01*
X143016667Y-103699366D02*
X142983333Y-103732700D01*
X142983333Y-103732700D02*
X142950000Y-103799366D01*
X142950000Y-103799366D02*
X142950000Y-103966033D01*
X142950000Y-103966033D02*
X142983333Y-104032700D01*
X142983333Y-104032700D02*
X143016667Y-104066033D01*
X143016667Y-104066033D02*
X143083333Y-104099366D01*
X143083333Y-104099366D02*
X143216667Y-104099366D01*
X143216667Y-104099366D02*
X143283333Y-104066033D01*
X143283333Y-104066033D02*
X143316667Y-104032700D01*
X143316667Y-104032700D02*
X143350000Y-103966033D01*
X169591666Y-88791033D02*
X169591666Y-88091033D01*
X169591666Y-88424366D02*
X169991666Y-88424366D01*
X169991666Y-88791033D02*
X169991666Y-88091033D01*
X170258333Y-88091033D02*
X170691666Y-88091033D01*
X170691666Y-88091033D02*
X170458333Y-88357700D01*
X170458333Y-88357700D02*
X170558333Y-88357700D01*
X170558333Y-88357700D02*
X170624999Y-88391033D01*
X170624999Y-88391033D02*
X170658333Y-88424366D01*
X170658333Y-88424366D02*
X170691666Y-88491033D01*
X170691666Y-88491033D02*
X170691666Y-88657700D01*
X170691666Y-88657700D02*
X170658333Y-88724366D01*
X170658333Y-88724366D02*
X170624999Y-88757700D01*
X170624999Y-88757700D02*
X170558333Y-88791033D01*
X170558333Y-88791033D02*
X170358333Y-88791033D01*
X170358333Y-88791033D02*
X170291666Y-88757700D01*
X170291666Y-88757700D02*
X170258333Y-88724366D01*
X132549999Y-52616033D02*
X132316666Y-52282700D01*
X132149999Y-52616033D02*
X132149999Y-51916033D01*
X132149999Y-51916033D02*
X132416666Y-51916033D01*
X132416666Y-51916033D02*
X132483333Y-51949366D01*
X132483333Y-51949366D02*
X132516666Y-51982700D01*
X132516666Y-51982700D02*
X132549999Y-52049366D01*
X132549999Y-52049366D02*
X132549999Y-52149366D01*
X132549999Y-52149366D02*
X132516666Y-52216033D01*
X132516666Y-52216033D02*
X132483333Y-52249366D01*
X132483333Y-52249366D02*
X132416666Y-52282700D01*
X132416666Y-52282700D02*
X132149999Y-52282700D01*
X132816666Y-51982700D02*
X132849999Y-51949366D01*
X132849999Y-51949366D02*
X132916666Y-51916033D01*
X132916666Y-51916033D02*
X133083333Y-51916033D01*
X133083333Y-51916033D02*
X133149999Y-51949366D01*
X133149999Y-51949366D02*
X133183333Y-51982700D01*
X133183333Y-51982700D02*
X133216666Y-52049366D01*
X133216666Y-52049366D02*
X133216666Y-52116033D01*
X133216666Y-52116033D02*
X133183333Y-52216033D01*
X133183333Y-52216033D02*
X132783333Y-52616033D01*
X132783333Y-52616033D02*
X133216666Y-52616033D01*
X133650000Y-51916033D02*
X133716666Y-51916033D01*
X133716666Y-51916033D02*
X133783333Y-51949366D01*
X133783333Y-51949366D02*
X133816666Y-51982700D01*
X133816666Y-51982700D02*
X133850000Y-52049366D01*
X133850000Y-52049366D02*
X133883333Y-52182700D01*
X133883333Y-52182700D02*
X133883333Y-52349366D01*
X133883333Y-52349366D02*
X133850000Y-52482700D01*
X133850000Y-52482700D02*
X133816666Y-52549366D01*
X133816666Y-52549366D02*
X133783333Y-52582700D01*
X133783333Y-52582700D02*
X133716666Y-52616033D01*
X133716666Y-52616033D02*
X133650000Y-52616033D01*
X133650000Y-52616033D02*
X133583333Y-52582700D01*
X133583333Y-52582700D02*
X133550000Y-52549366D01*
X133550000Y-52549366D02*
X133516666Y-52482700D01*
X133516666Y-52482700D02*
X133483333Y-52349366D01*
X133483333Y-52349366D02*
X133483333Y-52182700D01*
X133483333Y-52182700D02*
X133516666Y-52049366D01*
X133516666Y-52049366D02*
X133550000Y-51982700D01*
X133550000Y-51982700D02*
X133583333Y-51949366D01*
X133583333Y-51949366D02*
X133650000Y-51916033D01*
X142299366Y-122316666D02*
X142332700Y-122349999D01*
X142332700Y-122349999D02*
X142366033Y-122449999D01*
X142366033Y-122449999D02*
X142366033Y-122516666D01*
X142366033Y-122516666D02*
X142332700Y-122616666D01*
X142332700Y-122616666D02*
X142266033Y-122683333D01*
X142266033Y-122683333D02*
X142199366Y-122716666D01*
X142199366Y-122716666D02*
X142066033Y-122749999D01*
X142066033Y-122749999D02*
X141966033Y-122749999D01*
X141966033Y-122749999D02*
X141832700Y-122716666D01*
X141832700Y-122716666D02*
X141766033Y-122683333D01*
X141766033Y-122683333D02*
X141699366Y-122616666D01*
X141699366Y-122616666D02*
X141666033Y-122516666D01*
X141666033Y-122516666D02*
X141666033Y-122449999D01*
X141666033Y-122449999D02*
X141699366Y-122349999D01*
X141699366Y-122349999D02*
X141732700Y-122316666D01*
X141732700Y-122049999D02*
X141699366Y-122016666D01*
X141699366Y-122016666D02*
X141666033Y-121949999D01*
X141666033Y-121949999D02*
X141666033Y-121783333D01*
X141666033Y-121783333D02*
X141699366Y-121716666D01*
X141699366Y-121716666D02*
X141732700Y-121683333D01*
X141732700Y-121683333D02*
X141799366Y-121649999D01*
X141799366Y-121649999D02*
X141866033Y-121649999D01*
X141866033Y-121649999D02*
X141966033Y-121683333D01*
X141966033Y-121683333D02*
X142366033Y-122083333D01*
X142366033Y-122083333D02*
X142366033Y-121649999D01*
X109783333Y-122266033D02*
X109783333Y-121566033D01*
X109783333Y-121566033D02*
X109950000Y-121566033D01*
X109950000Y-121566033D02*
X110050000Y-121599366D01*
X110050000Y-121599366D02*
X110116667Y-121666033D01*
X110116667Y-121666033D02*
X110150000Y-121732700D01*
X110150000Y-121732700D02*
X110183333Y-121866033D01*
X110183333Y-121866033D02*
X110183333Y-121966033D01*
X110183333Y-121966033D02*
X110150000Y-122099366D01*
X110150000Y-122099366D02*
X110116667Y-122166033D01*
X110116667Y-122166033D02*
X110050000Y-122232700D01*
X110050000Y-122232700D02*
X109950000Y-122266033D01*
X109950000Y-122266033D02*
X109783333Y-122266033D01*
X110450000Y-121632700D02*
X110483333Y-121599366D01*
X110483333Y-121599366D02*
X110550000Y-121566033D01*
X110550000Y-121566033D02*
X110716667Y-121566033D01*
X110716667Y-121566033D02*
X110783333Y-121599366D01*
X110783333Y-121599366D02*
X110816667Y-121632700D01*
X110816667Y-121632700D02*
X110850000Y-121699366D01*
X110850000Y-121699366D02*
X110850000Y-121766033D01*
X110850000Y-121766033D02*
X110816667Y-121866033D01*
X110816667Y-121866033D02*
X110416667Y-122266033D01*
X110416667Y-122266033D02*
X110850000Y-122266033D01*
X163699366Y-79816667D02*
X163732700Y-79716667D01*
X163732700Y-79716667D02*
X163766033Y-79683333D01*
X163766033Y-79683333D02*
X163832700Y-79650000D01*
X163832700Y-79650000D02*
X163932700Y-79650000D01*
X163932700Y-79650000D02*
X163999366Y-79683333D01*
X163999366Y-79683333D02*
X164032700Y-79716667D01*
X164032700Y-79716667D02*
X164066033Y-79783333D01*
X164066033Y-79783333D02*
X164066033Y-80050000D01*
X164066033Y-80050000D02*
X163366033Y-80050000D01*
X163366033Y-80050000D02*
X163366033Y-79816667D01*
X163366033Y-79816667D02*
X163399366Y-79750000D01*
X163399366Y-79750000D02*
X163432700Y-79716667D01*
X163432700Y-79716667D02*
X163499366Y-79683333D01*
X163499366Y-79683333D02*
X163566033Y-79683333D01*
X163566033Y-79683333D02*
X163632700Y-79716667D01*
X163632700Y-79716667D02*
X163666033Y-79750000D01*
X163666033Y-79750000D02*
X163699366Y-79816667D01*
X163699366Y-79816667D02*
X163699366Y-80050000D01*
X163366033Y-79416667D02*
X163366033Y-78950000D01*
X163366033Y-78950000D02*
X164066033Y-79416667D01*
X164066033Y-79416667D02*
X164066033Y-78950000D01*
X164066033Y-78316666D02*
X164066033Y-78716666D01*
X164066033Y-78516666D02*
X163366033Y-78516666D01*
X163366033Y-78516666D02*
X163466033Y-78583333D01*
X163466033Y-78583333D02*
X163532700Y-78650000D01*
X163532700Y-78650000D02*
X163566033Y-78716666D01*
X168233866Y-83390951D02*
X168233866Y-82629047D01*
X168614819Y-83009999D02*
X167852914Y-83009999D01*
X132933966Y-68141666D02*
X132433966Y-68141666D01*
X132433966Y-68141666D02*
X132333966Y-68108333D01*
X132333966Y-68108333D02*
X132267300Y-68041666D01*
X132267300Y-68041666D02*
X132233966Y-67941666D01*
X132233966Y-67941666D02*
X132233966Y-67875000D01*
X132700633Y-68774999D02*
X132233966Y-68774999D01*
X132967300Y-68608333D02*
X132467300Y-68441666D01*
X132467300Y-68441666D02*
X132467300Y-68874999D01*
X159866033Y-111383333D02*
X160432700Y-111383333D01*
X160432700Y-111383333D02*
X160499366Y-111350000D01*
X160499366Y-111350000D02*
X160532700Y-111316666D01*
X160532700Y-111316666D02*
X160566033Y-111250000D01*
X160566033Y-111250000D02*
X160566033Y-111116666D01*
X160566033Y-111116666D02*
X160532700Y-111050000D01*
X160532700Y-111050000D02*
X160499366Y-111016666D01*
X160499366Y-111016666D02*
X160432700Y-110983333D01*
X160432700Y-110983333D02*
X159866033Y-110983333D01*
X159866033Y-110316667D02*
X159866033Y-110650000D01*
X159866033Y-110650000D02*
X160199366Y-110683333D01*
X160199366Y-110683333D02*
X160166033Y-110650000D01*
X160166033Y-110650000D02*
X160132700Y-110583333D01*
X160132700Y-110583333D02*
X160132700Y-110416667D01*
X160132700Y-110416667D02*
X160166033Y-110350000D01*
X160166033Y-110350000D02*
X160199366Y-110316667D01*
X160199366Y-110316667D02*
X160266033Y-110283333D01*
X160266033Y-110283333D02*
X160432700Y-110283333D01*
X160432700Y-110283333D02*
X160499366Y-110316667D01*
X160499366Y-110316667D02*
X160532700Y-110350000D01*
X160532700Y-110350000D02*
X160566033Y-110416667D01*
X160566033Y-110416667D02*
X160566033Y-110583333D01*
X160566033Y-110583333D02*
X160532700Y-110650000D01*
X160532700Y-110650000D02*
X160499366Y-110683333D01*
X186383333Y-84216033D02*
X186383333Y-83516033D01*
X186383333Y-83516033D02*
X186550000Y-83516033D01*
X186550000Y-83516033D02*
X186650000Y-83549366D01*
X186650000Y-83549366D02*
X186716667Y-83616033D01*
X186716667Y-83616033D02*
X186750000Y-83682700D01*
X186750000Y-83682700D02*
X186783333Y-83816033D01*
X186783333Y-83816033D02*
X186783333Y-83916033D01*
X186783333Y-83916033D02*
X186750000Y-84049366D01*
X186750000Y-84049366D02*
X186716667Y-84116033D01*
X186716667Y-84116033D02*
X186650000Y-84182700D01*
X186650000Y-84182700D02*
X186550000Y-84216033D01*
X186550000Y-84216033D02*
X186383333Y-84216033D01*
X187183333Y-83816033D02*
X187116667Y-83782700D01*
X187116667Y-83782700D02*
X187083333Y-83749366D01*
X187083333Y-83749366D02*
X187050000Y-83682700D01*
X187050000Y-83682700D02*
X187050000Y-83649366D01*
X187050000Y-83649366D02*
X187083333Y-83582700D01*
X187083333Y-83582700D02*
X187116667Y-83549366D01*
X187116667Y-83549366D02*
X187183333Y-83516033D01*
X187183333Y-83516033D02*
X187316667Y-83516033D01*
X187316667Y-83516033D02*
X187383333Y-83549366D01*
X187383333Y-83549366D02*
X187416667Y-83582700D01*
X187416667Y-83582700D02*
X187450000Y-83649366D01*
X187450000Y-83649366D02*
X187450000Y-83682700D01*
X187450000Y-83682700D02*
X187416667Y-83749366D01*
X187416667Y-83749366D02*
X187383333Y-83782700D01*
X187383333Y-83782700D02*
X187316667Y-83816033D01*
X187316667Y-83816033D02*
X187183333Y-83816033D01*
X187183333Y-83816033D02*
X187116667Y-83849366D01*
X187116667Y-83849366D02*
X187083333Y-83882700D01*
X187083333Y-83882700D02*
X187050000Y-83949366D01*
X187050000Y-83949366D02*
X187050000Y-84082700D01*
X187050000Y-84082700D02*
X187083333Y-84149366D01*
X187083333Y-84149366D02*
X187116667Y-84182700D01*
X187116667Y-84182700D02*
X187183333Y-84216033D01*
X187183333Y-84216033D02*
X187316667Y-84216033D01*
X187316667Y-84216033D02*
X187383333Y-84182700D01*
X187383333Y-84182700D02*
X187416667Y-84149366D01*
X187416667Y-84149366D02*
X187450000Y-84082700D01*
X187450000Y-84082700D02*
X187450000Y-83949366D01*
X187450000Y-83949366D02*
X187416667Y-83882700D01*
X187416667Y-83882700D02*
X187383333Y-83849366D01*
X187383333Y-83849366D02*
X187316667Y-83816033D01*
X160619366Y-119004166D02*
X160652700Y-119037499D01*
X160652700Y-119037499D02*
X160686033Y-119137499D01*
X160686033Y-119137499D02*
X160686033Y-119204166D01*
X160686033Y-119204166D02*
X160652700Y-119304166D01*
X160652700Y-119304166D02*
X160586033Y-119370833D01*
X160586033Y-119370833D02*
X160519366Y-119404166D01*
X160519366Y-119404166D02*
X160386033Y-119437499D01*
X160386033Y-119437499D02*
X160286033Y-119437499D01*
X160286033Y-119437499D02*
X160152700Y-119404166D01*
X160152700Y-119404166D02*
X160086033Y-119370833D01*
X160086033Y-119370833D02*
X160019366Y-119304166D01*
X160019366Y-119304166D02*
X159986033Y-119204166D01*
X159986033Y-119204166D02*
X159986033Y-119137499D01*
X159986033Y-119137499D02*
X160019366Y-119037499D01*
X160019366Y-119037499D02*
X160052700Y-119004166D01*
X159986033Y-118370833D02*
X159986033Y-118704166D01*
X159986033Y-118704166D02*
X160319366Y-118737499D01*
X160319366Y-118737499D02*
X160286033Y-118704166D01*
X160286033Y-118704166D02*
X160252700Y-118637499D01*
X160252700Y-118637499D02*
X160252700Y-118470833D01*
X160252700Y-118470833D02*
X160286033Y-118404166D01*
X160286033Y-118404166D02*
X160319366Y-118370833D01*
X160319366Y-118370833D02*
X160386033Y-118337499D01*
X160386033Y-118337499D02*
X160552700Y-118337499D01*
X160552700Y-118337499D02*
X160619366Y-118370833D01*
X160619366Y-118370833D02*
X160652700Y-118404166D01*
X160652700Y-118404166D02*
X160686033Y-118470833D01*
X160686033Y-118470833D02*
X160686033Y-118637499D01*
X160686033Y-118637499D02*
X160652700Y-118704166D01*
X160652700Y-118704166D02*
X160619366Y-118737499D01*
X182166666Y-139916033D02*
X182166666Y-140482700D01*
X182166666Y-140482700D02*
X182200000Y-140549366D01*
X182200000Y-140549366D02*
X182233333Y-140582700D01*
X182233333Y-140582700D02*
X182300000Y-140616033D01*
X182300000Y-140616033D02*
X182433333Y-140616033D01*
X182433333Y-140616033D02*
X182500000Y-140582700D01*
X182500000Y-140582700D02*
X182533333Y-140549366D01*
X182533333Y-140549366D02*
X182566666Y-140482700D01*
X182566666Y-140482700D02*
X182566666Y-139916033D01*
X182866666Y-139982700D02*
X182899999Y-139949366D01*
X182899999Y-139949366D02*
X182966666Y-139916033D01*
X182966666Y-139916033D02*
X183133333Y-139916033D01*
X183133333Y-139916033D02*
X183199999Y-139949366D01*
X183199999Y-139949366D02*
X183233333Y-139982700D01*
X183233333Y-139982700D02*
X183266666Y-140049366D01*
X183266666Y-140049366D02*
X183266666Y-140116033D01*
X183266666Y-140116033D02*
X183233333Y-140216033D01*
X183233333Y-140216033D02*
X182833333Y-140616033D01*
X182833333Y-140616033D02*
X183266666Y-140616033D01*
X178099999Y-89699366D02*
X178066666Y-89732700D01*
X178066666Y-89732700D02*
X177966666Y-89766033D01*
X177966666Y-89766033D02*
X177899999Y-89766033D01*
X177899999Y-89766033D02*
X177799999Y-89732700D01*
X177799999Y-89732700D02*
X177733333Y-89666033D01*
X177733333Y-89666033D02*
X177699999Y-89599366D01*
X177699999Y-89599366D02*
X177666666Y-89466033D01*
X177666666Y-89466033D02*
X177666666Y-89366033D01*
X177666666Y-89366033D02*
X177699999Y-89232700D01*
X177699999Y-89232700D02*
X177733333Y-89166033D01*
X177733333Y-89166033D02*
X177799999Y-89099366D01*
X177799999Y-89099366D02*
X177899999Y-89066033D01*
X177899999Y-89066033D02*
X177966666Y-89066033D01*
X177966666Y-89066033D02*
X178066666Y-89099366D01*
X178066666Y-89099366D02*
X178099999Y-89132700D01*
X178766666Y-89766033D02*
X178366666Y-89766033D01*
X178566666Y-89766033D02*
X178566666Y-89066033D01*
X178566666Y-89066033D02*
X178499999Y-89166033D01*
X178499999Y-89166033D02*
X178433333Y-89232700D01*
X178433333Y-89232700D02*
X178366666Y-89266033D01*
X179033333Y-89132700D02*
X179066666Y-89099366D01*
X179066666Y-89099366D02*
X179133333Y-89066033D01*
X179133333Y-89066033D02*
X179300000Y-89066033D01*
X179300000Y-89066033D02*
X179366666Y-89099366D01*
X179366666Y-89099366D02*
X179400000Y-89132700D01*
X179400000Y-89132700D02*
X179433333Y-89199366D01*
X179433333Y-89199366D02*
X179433333Y-89266033D01*
X179433333Y-89266033D02*
X179400000Y-89366033D01*
X179400000Y-89366033D02*
X179000000Y-89766033D01*
X179000000Y-89766033D02*
X179433333Y-89766033D01*
X120166033Y-92450000D02*
X119832700Y-92683333D01*
X120166033Y-92850000D02*
X119466033Y-92850000D01*
X119466033Y-92850000D02*
X119466033Y-92583333D01*
X119466033Y-92583333D02*
X119499366Y-92516667D01*
X119499366Y-92516667D02*
X119532700Y-92483333D01*
X119532700Y-92483333D02*
X119599366Y-92450000D01*
X119599366Y-92450000D02*
X119699366Y-92450000D01*
X119699366Y-92450000D02*
X119766033Y-92483333D01*
X119766033Y-92483333D02*
X119799366Y-92516667D01*
X119799366Y-92516667D02*
X119832700Y-92583333D01*
X119832700Y-92583333D02*
X119832700Y-92850000D01*
X120166033Y-91783333D02*
X120166033Y-92183333D01*
X120166033Y-91983333D02*
X119466033Y-91983333D01*
X119466033Y-91983333D02*
X119566033Y-92050000D01*
X119566033Y-92050000D02*
X119632700Y-92116667D01*
X119632700Y-92116667D02*
X119666033Y-92183333D01*
X119766033Y-91383333D02*
X119732700Y-91450000D01*
X119732700Y-91450000D02*
X119699366Y-91483333D01*
X119699366Y-91483333D02*
X119632700Y-91516666D01*
X119632700Y-91516666D02*
X119599366Y-91516666D01*
X119599366Y-91516666D02*
X119532700Y-91483333D01*
X119532700Y-91483333D02*
X119499366Y-91450000D01*
X119499366Y-91450000D02*
X119466033Y-91383333D01*
X119466033Y-91383333D02*
X119466033Y-91250000D01*
X119466033Y-91250000D02*
X119499366Y-91183333D01*
X119499366Y-91183333D02*
X119532700Y-91150000D01*
X119532700Y-91150000D02*
X119599366Y-91116666D01*
X119599366Y-91116666D02*
X119632700Y-91116666D01*
X119632700Y-91116666D02*
X119699366Y-91150000D01*
X119699366Y-91150000D02*
X119732700Y-91183333D01*
X119732700Y-91183333D02*
X119766033Y-91250000D01*
X119766033Y-91250000D02*
X119766033Y-91383333D01*
X119766033Y-91383333D02*
X119799366Y-91450000D01*
X119799366Y-91450000D02*
X119832700Y-91483333D01*
X119832700Y-91483333D02*
X119899366Y-91516666D01*
X119899366Y-91516666D02*
X120032700Y-91516666D01*
X120032700Y-91516666D02*
X120099366Y-91483333D01*
X120099366Y-91483333D02*
X120132700Y-91450000D01*
X120132700Y-91450000D02*
X120166033Y-91383333D01*
X120166033Y-91383333D02*
X120166033Y-91250000D01*
X120166033Y-91250000D02*
X120132700Y-91183333D01*
X120132700Y-91183333D02*
X120099366Y-91150000D01*
X120099366Y-91150000D02*
X120032700Y-91116666D01*
X120032700Y-91116666D02*
X119899366Y-91116666D01*
X119899366Y-91116666D02*
X119832700Y-91150000D01*
X119832700Y-91150000D02*
X119799366Y-91183333D01*
X119799366Y-91183333D02*
X119766033Y-91250000D01*
X180249999Y-126499366D02*
X180216666Y-126532700D01*
X180216666Y-126532700D02*
X180116666Y-126566033D01*
X180116666Y-126566033D02*
X180049999Y-126566033D01*
X180049999Y-126566033D02*
X179949999Y-126532700D01*
X179949999Y-126532700D02*
X179883333Y-126466033D01*
X179883333Y-126466033D02*
X179849999Y-126399366D01*
X179849999Y-126399366D02*
X179816666Y-126266033D01*
X179816666Y-126266033D02*
X179816666Y-126166033D01*
X179816666Y-126166033D02*
X179849999Y-126032700D01*
X179849999Y-126032700D02*
X179883333Y-125966033D01*
X179883333Y-125966033D02*
X179949999Y-125899366D01*
X179949999Y-125899366D02*
X180049999Y-125866033D01*
X180049999Y-125866033D02*
X180116666Y-125866033D01*
X180116666Y-125866033D02*
X180216666Y-125899366D01*
X180216666Y-125899366D02*
X180249999Y-125932700D01*
X180916666Y-126566033D02*
X180516666Y-126566033D01*
X180716666Y-126566033D02*
X180716666Y-125866033D01*
X180716666Y-125866033D02*
X180649999Y-125966033D01*
X180649999Y-125966033D02*
X180583333Y-126032700D01*
X180583333Y-126032700D02*
X180516666Y-126066033D01*
X181516666Y-125866033D02*
X181383333Y-125866033D01*
X181383333Y-125866033D02*
X181316666Y-125899366D01*
X181316666Y-125899366D02*
X181283333Y-125932700D01*
X181283333Y-125932700D02*
X181216666Y-126032700D01*
X181216666Y-126032700D02*
X181183333Y-126166033D01*
X181183333Y-126166033D02*
X181183333Y-126432700D01*
X181183333Y-126432700D02*
X181216666Y-126499366D01*
X181216666Y-126499366D02*
X181250000Y-126532700D01*
X181250000Y-126532700D02*
X181316666Y-126566033D01*
X181316666Y-126566033D02*
X181450000Y-126566033D01*
X181450000Y-126566033D02*
X181516666Y-126532700D01*
X181516666Y-126532700D02*
X181550000Y-126499366D01*
X181550000Y-126499366D02*
X181583333Y-126432700D01*
X181583333Y-126432700D02*
X181583333Y-126266033D01*
X181583333Y-126266033D02*
X181550000Y-126199366D01*
X181550000Y-126199366D02*
X181516666Y-126166033D01*
X181516666Y-126166033D02*
X181450000Y-126132700D01*
X181450000Y-126132700D02*
X181316666Y-126132700D01*
X181316666Y-126132700D02*
X181250000Y-126166033D01*
X181250000Y-126166033D02*
X181216666Y-126199366D01*
X181216666Y-126199366D02*
X181183333Y-126266033D01*
X159780488Y-47600357D02*
X159780488Y-46900357D01*
X159780488Y-46900357D02*
X159947155Y-46900357D01*
X159947155Y-46900357D02*
X160047155Y-46933690D01*
X160047155Y-46933690D02*
X160113822Y-47000357D01*
X160113822Y-47000357D02*
X160147155Y-47067024D01*
X160147155Y-47067024D02*
X160180488Y-47200357D01*
X160180488Y-47200357D02*
X160180488Y-47300357D01*
X160180488Y-47300357D02*
X160147155Y-47433690D01*
X160147155Y-47433690D02*
X160113822Y-47500357D01*
X160113822Y-47500357D02*
X160047155Y-47567024D01*
X160047155Y-47567024D02*
X159947155Y-47600357D01*
X159947155Y-47600357D02*
X159780488Y-47600357D01*
X160780488Y-46900357D02*
X160647155Y-46900357D01*
X160647155Y-46900357D02*
X160580488Y-46933690D01*
X160580488Y-46933690D02*
X160547155Y-46967024D01*
X160547155Y-46967024D02*
X160480488Y-47067024D01*
X160480488Y-47067024D02*
X160447155Y-47200357D01*
X160447155Y-47200357D02*
X160447155Y-47467024D01*
X160447155Y-47467024D02*
X160480488Y-47533690D01*
X160480488Y-47533690D02*
X160513822Y-47567024D01*
X160513822Y-47567024D02*
X160580488Y-47600357D01*
X160580488Y-47600357D02*
X160713822Y-47600357D01*
X160713822Y-47600357D02*
X160780488Y-47567024D01*
X160780488Y-47567024D02*
X160813822Y-47533690D01*
X160813822Y-47533690D02*
X160847155Y-47467024D01*
X160847155Y-47467024D02*
X160847155Y-47300357D01*
X160847155Y-47300357D02*
X160813822Y-47233690D01*
X160813822Y-47233690D02*
X160780488Y-47200357D01*
X160780488Y-47200357D02*
X160713822Y-47167024D01*
X160713822Y-47167024D02*
X160580488Y-47167024D01*
X160580488Y-47167024D02*
X160513822Y-47200357D01*
X160513822Y-47200357D02*
X160480488Y-47233690D01*
X160480488Y-47233690D02*
X160447155Y-47300357D01*
X174599366Y-129100000D02*
X174632700Y-129133333D01*
X174632700Y-129133333D02*
X174666033Y-129233333D01*
X174666033Y-129233333D02*
X174666033Y-129300000D01*
X174666033Y-129300000D02*
X174632700Y-129400000D01*
X174632700Y-129400000D02*
X174566033Y-129466667D01*
X174566033Y-129466667D02*
X174499366Y-129500000D01*
X174499366Y-129500000D02*
X174366033Y-129533333D01*
X174366033Y-129533333D02*
X174266033Y-129533333D01*
X174266033Y-129533333D02*
X174132700Y-129500000D01*
X174132700Y-129500000D02*
X174066033Y-129466667D01*
X174066033Y-129466667D02*
X173999366Y-129400000D01*
X173999366Y-129400000D02*
X173966033Y-129300000D01*
X173966033Y-129300000D02*
X173966033Y-129233333D01*
X173966033Y-129233333D02*
X173999366Y-129133333D01*
X173999366Y-129133333D02*
X174032700Y-129100000D01*
X174666033Y-128433333D02*
X174666033Y-128833333D01*
X174666033Y-128633333D02*
X173966033Y-128633333D01*
X173966033Y-128633333D02*
X174066033Y-128700000D01*
X174066033Y-128700000D02*
X174132700Y-128766667D01*
X174132700Y-128766667D02*
X174166033Y-128833333D01*
X174199366Y-127833333D02*
X174666033Y-127833333D01*
X173932700Y-128000000D02*
X174432700Y-128166666D01*
X174432700Y-128166666D02*
X174432700Y-127733333D01*
X168332700Y-59766666D02*
X168299366Y-59833333D01*
X168299366Y-59833333D02*
X168232700Y-59900000D01*
X168232700Y-59900000D02*
X168132700Y-60000000D01*
X168132700Y-60000000D02*
X168099366Y-60066666D01*
X168099366Y-60066666D02*
X168099366Y-60133333D01*
X168266033Y-60100000D02*
X168232700Y-60166666D01*
X168232700Y-60166666D02*
X168166033Y-60233333D01*
X168166033Y-60233333D02*
X168032700Y-60266666D01*
X168032700Y-60266666D02*
X167799366Y-60266666D01*
X167799366Y-60266666D02*
X167666033Y-60233333D01*
X167666033Y-60233333D02*
X167599366Y-60166666D01*
X167599366Y-60166666D02*
X167566033Y-60100000D01*
X167566033Y-60100000D02*
X167566033Y-59966666D01*
X167566033Y-59966666D02*
X167599366Y-59900000D01*
X167599366Y-59900000D02*
X167666033Y-59833333D01*
X167666033Y-59833333D02*
X167799366Y-59800000D01*
X167799366Y-59800000D02*
X168032700Y-59800000D01*
X168032700Y-59800000D02*
X168166033Y-59833333D01*
X168166033Y-59833333D02*
X168232700Y-59900000D01*
X168232700Y-59900000D02*
X168266033Y-59966666D01*
X168266033Y-59966666D02*
X168266033Y-60100000D01*
X167566033Y-59566667D02*
X167566033Y-59133333D01*
X167566033Y-59133333D02*
X167832700Y-59366667D01*
X167832700Y-59366667D02*
X167832700Y-59266667D01*
X167832700Y-59266667D02*
X167866033Y-59200000D01*
X167866033Y-59200000D02*
X167899366Y-59166667D01*
X167899366Y-59166667D02*
X167966033Y-59133333D01*
X167966033Y-59133333D02*
X168132700Y-59133333D01*
X168132700Y-59133333D02*
X168199366Y-59166667D01*
X168199366Y-59166667D02*
X168232700Y-59200000D01*
X168232700Y-59200000D02*
X168266033Y-59266667D01*
X168266033Y-59266667D02*
X168266033Y-59466667D01*
X168266033Y-59466667D02*
X168232700Y-59533333D01*
X168232700Y-59533333D02*
X168199366Y-59566667D01*
X179399366Y-133550000D02*
X179432700Y-133583333D01*
X179432700Y-133583333D02*
X179466033Y-133683333D01*
X179466033Y-133683333D02*
X179466033Y-133750000D01*
X179466033Y-133750000D02*
X179432700Y-133850000D01*
X179432700Y-133850000D02*
X179366033Y-133916667D01*
X179366033Y-133916667D02*
X179299366Y-133950000D01*
X179299366Y-133950000D02*
X179166033Y-133983333D01*
X179166033Y-133983333D02*
X179066033Y-133983333D01*
X179066033Y-133983333D02*
X178932700Y-133950000D01*
X178932700Y-133950000D02*
X178866033Y-133916667D01*
X178866033Y-133916667D02*
X178799366Y-133850000D01*
X178799366Y-133850000D02*
X178766033Y-133750000D01*
X178766033Y-133750000D02*
X178766033Y-133683333D01*
X178766033Y-133683333D02*
X178799366Y-133583333D01*
X178799366Y-133583333D02*
X178832700Y-133550000D01*
X179466033Y-132883333D02*
X179466033Y-133283333D01*
X179466033Y-133083333D02*
X178766033Y-133083333D01*
X178766033Y-133083333D02*
X178866033Y-133150000D01*
X178866033Y-133150000D02*
X178932700Y-133216667D01*
X178932700Y-133216667D02*
X178966033Y-133283333D01*
X178766033Y-132650000D02*
X178766033Y-132216666D01*
X178766033Y-132216666D02*
X179032700Y-132450000D01*
X179032700Y-132450000D02*
X179032700Y-132350000D01*
X179032700Y-132350000D02*
X179066033Y-132283333D01*
X179066033Y-132283333D02*
X179099366Y-132250000D01*
X179099366Y-132250000D02*
X179166033Y-132216666D01*
X179166033Y-132216666D02*
X179332700Y-132216666D01*
X179332700Y-132216666D02*
X179399366Y-132250000D01*
X179399366Y-132250000D02*
X179432700Y-132283333D01*
X179432700Y-132283333D02*
X179466033Y-132350000D01*
X179466033Y-132350000D02*
X179466033Y-132550000D01*
X179466033Y-132550000D02*
X179432700Y-132616666D01*
X179432700Y-132616666D02*
X179399366Y-132650000D01*
X147833333Y-101232806D02*
X147833333Y-101732806D01*
X147833333Y-101732806D02*
X147800000Y-101832806D01*
X147800000Y-101832806D02*
X147733333Y-101899473D01*
X147733333Y-101899473D02*
X147633333Y-101932806D01*
X147633333Y-101932806D02*
X147566667Y-101932806D01*
X148533333Y-101932806D02*
X148133333Y-101932806D01*
X148333333Y-101932806D02*
X148333333Y-101232806D01*
X148333333Y-101232806D02*
X148266666Y-101332806D01*
X148266666Y-101332806D02*
X148200000Y-101399473D01*
X148200000Y-101399473D02*
X148133333Y-101432806D01*
X148800000Y-101299473D02*
X148833333Y-101266139D01*
X148833333Y-101266139D02*
X148900000Y-101232806D01*
X148900000Y-101232806D02*
X149066667Y-101232806D01*
X149066667Y-101232806D02*
X149133333Y-101266139D01*
X149133333Y-101266139D02*
X149166667Y-101299473D01*
X149166667Y-101299473D02*
X149200000Y-101366139D01*
X149200000Y-101366139D02*
X149200000Y-101432806D01*
X149200000Y-101432806D02*
X149166667Y-101532806D01*
X149166667Y-101532806D02*
X148766667Y-101932806D01*
X148766667Y-101932806D02*
X149200000Y-101932806D01*
X170066033Y-129616666D02*
X169366033Y-129616666D01*
X169366033Y-129616666D02*
X169366033Y-129449999D01*
X169366033Y-129449999D02*
X169399366Y-129349999D01*
X169399366Y-129349999D02*
X169466033Y-129283333D01*
X169466033Y-129283333D02*
X169532700Y-129249999D01*
X169532700Y-129249999D02*
X169666033Y-129216666D01*
X169666033Y-129216666D02*
X169766033Y-129216666D01*
X169766033Y-129216666D02*
X169899366Y-129249999D01*
X169899366Y-129249999D02*
X169966033Y-129283333D01*
X169966033Y-129283333D02*
X170032700Y-129349999D01*
X170032700Y-129349999D02*
X170066033Y-129449999D01*
X170066033Y-129449999D02*
X170066033Y-129616666D01*
X170066033Y-128549999D02*
X170066033Y-128949999D01*
X170066033Y-128749999D02*
X169366033Y-128749999D01*
X169366033Y-128749999D02*
X169466033Y-128816666D01*
X169466033Y-128816666D02*
X169532700Y-128883333D01*
X169532700Y-128883333D02*
X169566033Y-128949999D01*
X169761994Y-137266666D02*
X169728660Y-137333333D01*
X169728660Y-137333333D02*
X169661994Y-137400000D01*
X169661994Y-137400000D02*
X169561994Y-137500000D01*
X169561994Y-137500000D02*
X169528660Y-137566666D01*
X169528660Y-137566666D02*
X169528660Y-137633333D01*
X169695327Y-137600000D02*
X169661994Y-137666666D01*
X169661994Y-137666666D02*
X169595327Y-137733333D01*
X169595327Y-137733333D02*
X169461994Y-137766666D01*
X169461994Y-137766666D02*
X169228660Y-137766666D01*
X169228660Y-137766666D02*
X169095327Y-137733333D01*
X169095327Y-137733333D02*
X169028660Y-137666666D01*
X169028660Y-137666666D02*
X168995327Y-137600000D01*
X168995327Y-137600000D02*
X168995327Y-137466666D01*
X168995327Y-137466666D02*
X169028660Y-137400000D01*
X169028660Y-137400000D02*
X169095327Y-137333333D01*
X169095327Y-137333333D02*
X169228660Y-137300000D01*
X169228660Y-137300000D02*
X169461994Y-137300000D01*
X169461994Y-137300000D02*
X169595327Y-137333333D01*
X169595327Y-137333333D02*
X169661994Y-137400000D01*
X169661994Y-137400000D02*
X169695327Y-137466666D01*
X169695327Y-137466666D02*
X169695327Y-137600000D01*
X169695327Y-136633333D02*
X169695327Y-137033333D01*
X169695327Y-136833333D02*
X168995327Y-136833333D01*
X168995327Y-136833333D02*
X169095327Y-136900000D01*
X169095327Y-136900000D02*
X169161994Y-136966667D01*
X169161994Y-136966667D02*
X169195327Y-137033333D01*
X108083333Y-134816033D02*
X107850000Y-134482700D01*
X107683333Y-134816033D02*
X107683333Y-134116033D01*
X107683333Y-134116033D02*
X107950000Y-134116033D01*
X107950000Y-134116033D02*
X108016667Y-134149366D01*
X108016667Y-134149366D02*
X108050000Y-134182700D01*
X108050000Y-134182700D02*
X108083333Y-134249366D01*
X108083333Y-134249366D02*
X108083333Y-134349366D01*
X108083333Y-134349366D02*
X108050000Y-134416033D01*
X108050000Y-134416033D02*
X108016667Y-134449366D01*
X108016667Y-134449366D02*
X107950000Y-134482700D01*
X107950000Y-134482700D02*
X107683333Y-134482700D01*
X108350000Y-134182700D02*
X108383333Y-134149366D01*
X108383333Y-134149366D02*
X108450000Y-134116033D01*
X108450000Y-134116033D02*
X108616667Y-134116033D01*
X108616667Y-134116033D02*
X108683333Y-134149366D01*
X108683333Y-134149366D02*
X108716667Y-134182700D01*
X108716667Y-134182700D02*
X108750000Y-134249366D01*
X108750000Y-134249366D02*
X108750000Y-134316033D01*
X108750000Y-134316033D02*
X108716667Y-134416033D01*
X108716667Y-134416033D02*
X108316667Y-134816033D01*
X108316667Y-134816033D02*
X108750000Y-134816033D01*
X164266033Y-68633333D02*
X164766033Y-68633333D01*
X164766033Y-68633333D02*
X164866033Y-68666666D01*
X164866033Y-68666666D02*
X164932700Y-68733333D01*
X164932700Y-68733333D02*
X164966033Y-68833333D01*
X164966033Y-68833333D02*
X164966033Y-68900000D01*
X164966033Y-68266667D02*
X164966033Y-68133333D01*
X164966033Y-68133333D02*
X164932700Y-68066667D01*
X164932700Y-68066667D02*
X164899366Y-68033333D01*
X164899366Y-68033333D02*
X164799366Y-67966667D01*
X164799366Y-67966667D02*
X164666033Y-67933333D01*
X164666033Y-67933333D02*
X164399366Y-67933333D01*
X164399366Y-67933333D02*
X164332700Y-67966667D01*
X164332700Y-67966667D02*
X164299366Y-68000000D01*
X164299366Y-68000000D02*
X164266033Y-68066667D01*
X164266033Y-68066667D02*
X164266033Y-68200000D01*
X164266033Y-68200000D02*
X164299366Y-68266667D01*
X164299366Y-68266667D02*
X164332700Y-68300000D01*
X164332700Y-68300000D02*
X164399366Y-68333333D01*
X164399366Y-68333333D02*
X164566033Y-68333333D01*
X164566033Y-68333333D02*
X164632700Y-68300000D01*
X164632700Y-68300000D02*
X164666033Y-68266667D01*
X164666033Y-68266667D02*
X164699366Y-68200000D01*
X164699366Y-68200000D02*
X164699366Y-68066667D01*
X164699366Y-68066667D02*
X164666033Y-68000000D01*
X164666033Y-68000000D02*
X164632700Y-67966667D01*
X164632700Y-67966667D02*
X164566033Y-67933333D01*
X161266033Y-134516666D02*
X160932700Y-134749999D01*
X161266033Y-134916666D02*
X160566033Y-134916666D01*
X160566033Y-134916666D02*
X160566033Y-134649999D01*
X160566033Y-134649999D02*
X160599366Y-134583333D01*
X160599366Y-134583333D02*
X160632700Y-134549999D01*
X160632700Y-134549999D02*
X160699366Y-134516666D01*
X160699366Y-134516666D02*
X160799366Y-134516666D01*
X160799366Y-134516666D02*
X160866033Y-134549999D01*
X160866033Y-134549999D02*
X160899366Y-134583333D01*
X160899366Y-134583333D02*
X160932700Y-134649999D01*
X160932700Y-134649999D02*
X160932700Y-134916666D01*
X160566033Y-133883333D02*
X160566033Y-134216666D01*
X160566033Y-134216666D02*
X160899366Y-134249999D01*
X160899366Y-134249999D02*
X160866033Y-134216666D01*
X160866033Y-134216666D02*
X160832700Y-134149999D01*
X160832700Y-134149999D02*
X160832700Y-133983333D01*
X160832700Y-133983333D02*
X160866033Y-133916666D01*
X160866033Y-133916666D02*
X160899366Y-133883333D01*
X160899366Y-133883333D02*
X160966033Y-133849999D01*
X160966033Y-133849999D02*
X161132700Y-133849999D01*
X161132700Y-133849999D02*
X161199366Y-133883333D01*
X161199366Y-133883333D02*
X161232700Y-133916666D01*
X161232700Y-133916666D02*
X161266033Y-133983333D01*
X161266033Y-133983333D02*
X161266033Y-134149999D01*
X161266033Y-134149999D02*
X161232700Y-134216666D01*
X161232700Y-134216666D02*
X161199366Y-134249999D01*
X109383333Y-84218533D02*
X109383333Y-83518533D01*
X109383333Y-83518533D02*
X109550000Y-83518533D01*
X109550000Y-83518533D02*
X109650000Y-83551866D01*
X109650000Y-83551866D02*
X109716667Y-83618533D01*
X109716667Y-83618533D02*
X109750000Y-83685200D01*
X109750000Y-83685200D02*
X109783333Y-83818533D01*
X109783333Y-83818533D02*
X109783333Y-83918533D01*
X109783333Y-83918533D02*
X109750000Y-84051866D01*
X109750000Y-84051866D02*
X109716667Y-84118533D01*
X109716667Y-84118533D02*
X109650000Y-84185200D01*
X109650000Y-84185200D02*
X109550000Y-84218533D01*
X109550000Y-84218533D02*
X109383333Y-84218533D01*
X110016667Y-83518533D02*
X110450000Y-83518533D01*
X110450000Y-83518533D02*
X110216667Y-83785200D01*
X110216667Y-83785200D02*
X110316667Y-83785200D01*
X110316667Y-83785200D02*
X110383333Y-83818533D01*
X110383333Y-83818533D02*
X110416667Y-83851866D01*
X110416667Y-83851866D02*
X110450000Y-83918533D01*
X110450000Y-83918533D02*
X110450000Y-84085200D01*
X110450000Y-84085200D02*
X110416667Y-84151866D01*
X110416667Y-84151866D02*
X110383333Y-84185200D01*
X110383333Y-84185200D02*
X110316667Y-84218533D01*
X110316667Y-84218533D02*
X110116667Y-84218533D01*
X110116667Y-84218533D02*
X110050000Y-84185200D01*
X110050000Y-84185200D02*
X110016667Y-84151866D01*
X165866033Y-50350000D02*
X165532700Y-50583333D01*
X165866033Y-50750000D02*
X165166033Y-50750000D01*
X165166033Y-50750000D02*
X165166033Y-50483333D01*
X165166033Y-50483333D02*
X165199366Y-50416667D01*
X165199366Y-50416667D02*
X165232700Y-50383333D01*
X165232700Y-50383333D02*
X165299366Y-50350000D01*
X165299366Y-50350000D02*
X165399366Y-50350000D01*
X165399366Y-50350000D02*
X165466033Y-50383333D01*
X165466033Y-50383333D02*
X165499366Y-50416667D01*
X165499366Y-50416667D02*
X165532700Y-50483333D01*
X165532700Y-50483333D02*
X165532700Y-50750000D01*
X165232700Y-50083333D02*
X165199366Y-50050000D01*
X165199366Y-50050000D02*
X165166033Y-49983333D01*
X165166033Y-49983333D02*
X165166033Y-49816667D01*
X165166033Y-49816667D02*
X165199366Y-49750000D01*
X165199366Y-49750000D02*
X165232700Y-49716667D01*
X165232700Y-49716667D02*
X165299366Y-49683333D01*
X165299366Y-49683333D02*
X165366033Y-49683333D01*
X165366033Y-49683333D02*
X165466033Y-49716667D01*
X165466033Y-49716667D02*
X165866033Y-50116667D01*
X165866033Y-50116667D02*
X165866033Y-49683333D01*
X165232700Y-49416666D02*
X165199366Y-49383333D01*
X165199366Y-49383333D02*
X165166033Y-49316666D01*
X165166033Y-49316666D02*
X165166033Y-49150000D01*
X165166033Y-49150000D02*
X165199366Y-49083333D01*
X165199366Y-49083333D02*
X165232700Y-49050000D01*
X165232700Y-49050000D02*
X165299366Y-49016666D01*
X165299366Y-49016666D02*
X165366033Y-49016666D01*
X165366033Y-49016666D02*
X165466033Y-49050000D01*
X165466033Y-49050000D02*
X165866033Y-49450000D01*
X165866033Y-49450000D02*
X165866033Y-49016666D01*
X166866033Y-124066666D02*
X166532700Y-124299999D01*
X166866033Y-124466666D02*
X166166033Y-124466666D01*
X166166033Y-124466666D02*
X166166033Y-124199999D01*
X166166033Y-124199999D02*
X166199366Y-124133333D01*
X166199366Y-124133333D02*
X166232700Y-124099999D01*
X166232700Y-124099999D02*
X166299366Y-124066666D01*
X166299366Y-124066666D02*
X166399366Y-124066666D01*
X166399366Y-124066666D02*
X166466033Y-124099999D01*
X166466033Y-124099999D02*
X166499366Y-124133333D01*
X166499366Y-124133333D02*
X166532700Y-124199999D01*
X166532700Y-124199999D02*
X166532700Y-124466666D01*
X166399366Y-123466666D02*
X166866033Y-123466666D01*
X166132700Y-123633333D02*
X166632700Y-123799999D01*
X166632700Y-123799999D02*
X166632700Y-123366666D01*
X156549999Y-120249366D02*
X156516666Y-120282700D01*
X156516666Y-120282700D02*
X156416666Y-120316033D01*
X156416666Y-120316033D02*
X156349999Y-120316033D01*
X156349999Y-120316033D02*
X156249999Y-120282700D01*
X156249999Y-120282700D02*
X156183333Y-120216033D01*
X156183333Y-120216033D02*
X156149999Y-120149366D01*
X156149999Y-120149366D02*
X156116666Y-120016033D01*
X156116666Y-120016033D02*
X156116666Y-119916033D01*
X156116666Y-119916033D02*
X156149999Y-119782700D01*
X156149999Y-119782700D02*
X156183333Y-119716033D01*
X156183333Y-119716033D02*
X156249999Y-119649366D01*
X156249999Y-119649366D02*
X156349999Y-119616033D01*
X156349999Y-119616033D02*
X156416666Y-119616033D01*
X156416666Y-119616033D02*
X156516666Y-119649366D01*
X156516666Y-119649366D02*
X156549999Y-119682700D01*
X156816666Y-119682700D02*
X156849999Y-119649366D01*
X156849999Y-119649366D02*
X156916666Y-119616033D01*
X156916666Y-119616033D02*
X157083333Y-119616033D01*
X157083333Y-119616033D02*
X157149999Y-119649366D01*
X157149999Y-119649366D02*
X157183333Y-119682700D01*
X157183333Y-119682700D02*
X157216666Y-119749366D01*
X157216666Y-119749366D02*
X157216666Y-119816033D01*
X157216666Y-119816033D02*
X157183333Y-119916033D01*
X157183333Y-119916033D02*
X156783333Y-120316033D01*
X156783333Y-120316033D02*
X157216666Y-120316033D01*
X157450000Y-119616033D02*
X157883333Y-119616033D01*
X157883333Y-119616033D02*
X157650000Y-119882700D01*
X157650000Y-119882700D02*
X157750000Y-119882700D01*
X157750000Y-119882700D02*
X157816666Y-119916033D01*
X157816666Y-119916033D02*
X157850000Y-119949366D01*
X157850000Y-119949366D02*
X157883333Y-120016033D01*
X157883333Y-120016033D02*
X157883333Y-120182700D01*
X157883333Y-120182700D02*
X157850000Y-120249366D01*
X157850000Y-120249366D02*
X157816666Y-120282700D01*
X157816666Y-120282700D02*
X157750000Y-120316033D01*
X157750000Y-120316033D02*
X157550000Y-120316033D01*
X157550000Y-120316033D02*
X157483333Y-120282700D01*
X157483333Y-120282700D02*
X157450000Y-120249366D01*
X151666667Y-50499366D02*
X151766667Y-50532700D01*
X151766667Y-50532700D02*
X151800000Y-50566033D01*
X151800000Y-50566033D02*
X151833333Y-50632700D01*
X151833333Y-50632700D02*
X151833333Y-50732700D01*
X151833333Y-50732700D02*
X151800000Y-50799366D01*
X151800000Y-50799366D02*
X151766667Y-50832700D01*
X151766667Y-50832700D02*
X151700000Y-50866033D01*
X151700000Y-50866033D02*
X151433333Y-50866033D01*
X151433333Y-50866033D02*
X151433333Y-50166033D01*
X151433333Y-50166033D02*
X151666667Y-50166033D01*
X151666667Y-50166033D02*
X151733333Y-50199366D01*
X151733333Y-50199366D02*
X151766667Y-50232700D01*
X151766667Y-50232700D02*
X151800000Y-50299366D01*
X151800000Y-50299366D02*
X151800000Y-50366033D01*
X151800000Y-50366033D02*
X151766667Y-50432700D01*
X151766667Y-50432700D02*
X151733333Y-50466033D01*
X151733333Y-50466033D02*
X151666667Y-50499366D01*
X151666667Y-50499366D02*
X151433333Y-50499366D01*
X152066667Y-50166033D02*
X152500000Y-50166033D01*
X152500000Y-50166033D02*
X152266667Y-50432700D01*
X152266667Y-50432700D02*
X152366667Y-50432700D01*
X152366667Y-50432700D02*
X152433333Y-50466033D01*
X152433333Y-50466033D02*
X152466667Y-50499366D01*
X152466667Y-50499366D02*
X152500000Y-50566033D01*
X152500000Y-50566033D02*
X152500000Y-50732700D01*
X152500000Y-50732700D02*
X152466667Y-50799366D01*
X152466667Y-50799366D02*
X152433333Y-50832700D01*
X152433333Y-50832700D02*
X152366667Y-50866033D01*
X152366667Y-50866033D02*
X152166667Y-50866033D01*
X152166667Y-50866033D02*
X152100000Y-50832700D01*
X152100000Y-50832700D02*
X152066667Y-50799366D01*
X179099999Y-67366033D02*
X178866666Y-67032700D01*
X178699999Y-67366033D02*
X178699999Y-66666033D01*
X178699999Y-66666033D02*
X178966666Y-66666033D01*
X178966666Y-66666033D02*
X179033333Y-66699366D01*
X179033333Y-66699366D02*
X179066666Y-66732700D01*
X179066666Y-66732700D02*
X179099999Y-66799366D01*
X179099999Y-66799366D02*
X179099999Y-66899366D01*
X179099999Y-66899366D02*
X179066666Y-66966033D01*
X179066666Y-66966033D02*
X179033333Y-66999366D01*
X179033333Y-66999366D02*
X178966666Y-67032700D01*
X178966666Y-67032700D02*
X178699999Y-67032700D01*
X179366666Y-66732700D02*
X179399999Y-66699366D01*
X179399999Y-66699366D02*
X179466666Y-66666033D01*
X179466666Y-66666033D02*
X179633333Y-66666033D01*
X179633333Y-66666033D02*
X179699999Y-66699366D01*
X179699999Y-66699366D02*
X179733333Y-66732700D01*
X179733333Y-66732700D02*
X179766666Y-66799366D01*
X179766666Y-66799366D02*
X179766666Y-66866033D01*
X179766666Y-66866033D02*
X179733333Y-66966033D01*
X179733333Y-66966033D02*
X179333333Y-67366033D01*
X179333333Y-67366033D02*
X179766666Y-67366033D01*
X180000000Y-66666033D02*
X180433333Y-66666033D01*
X180433333Y-66666033D02*
X180200000Y-66932700D01*
X180200000Y-66932700D02*
X180300000Y-66932700D01*
X180300000Y-66932700D02*
X180366666Y-66966033D01*
X180366666Y-66966033D02*
X180400000Y-66999366D01*
X180400000Y-66999366D02*
X180433333Y-67066033D01*
X180433333Y-67066033D02*
X180433333Y-67232700D01*
X180433333Y-67232700D02*
X180400000Y-67299366D01*
X180400000Y-67299366D02*
X180366666Y-67332700D01*
X180366666Y-67332700D02*
X180300000Y-67366033D01*
X180300000Y-67366033D02*
X180100000Y-67366033D01*
X180100000Y-67366033D02*
X180033333Y-67332700D01*
X180033333Y-67332700D02*
X180000000Y-67299366D01*
X143233333Y-131266033D02*
X143000000Y-130932700D01*
X142833333Y-131266033D02*
X142833333Y-130566033D01*
X142833333Y-130566033D02*
X143100000Y-130566033D01*
X143100000Y-130566033D02*
X143166667Y-130599366D01*
X143166667Y-130599366D02*
X143200000Y-130632700D01*
X143200000Y-130632700D02*
X143233333Y-130699366D01*
X143233333Y-130699366D02*
X143233333Y-130799366D01*
X143233333Y-130799366D02*
X143200000Y-130866033D01*
X143200000Y-130866033D02*
X143166667Y-130899366D01*
X143166667Y-130899366D02*
X143100000Y-130932700D01*
X143100000Y-130932700D02*
X142833333Y-130932700D01*
X143633333Y-130866033D02*
X143566667Y-130832700D01*
X143566667Y-130832700D02*
X143533333Y-130799366D01*
X143533333Y-130799366D02*
X143500000Y-130732700D01*
X143500000Y-130732700D02*
X143500000Y-130699366D01*
X143500000Y-130699366D02*
X143533333Y-130632700D01*
X143533333Y-130632700D02*
X143566667Y-130599366D01*
X143566667Y-130599366D02*
X143633333Y-130566033D01*
X143633333Y-130566033D02*
X143766667Y-130566033D01*
X143766667Y-130566033D02*
X143833333Y-130599366D01*
X143833333Y-130599366D02*
X143866667Y-130632700D01*
X143866667Y-130632700D02*
X143900000Y-130699366D01*
X143900000Y-130699366D02*
X143900000Y-130732700D01*
X143900000Y-130732700D02*
X143866667Y-130799366D01*
X143866667Y-130799366D02*
X143833333Y-130832700D01*
X143833333Y-130832700D02*
X143766667Y-130866033D01*
X143766667Y-130866033D02*
X143633333Y-130866033D01*
X143633333Y-130866033D02*
X143566667Y-130899366D01*
X143566667Y-130899366D02*
X143533333Y-130932700D01*
X143533333Y-130932700D02*
X143500000Y-130999366D01*
X143500000Y-130999366D02*
X143500000Y-131132700D01*
X143500000Y-131132700D02*
X143533333Y-131199366D01*
X143533333Y-131199366D02*
X143566667Y-131232700D01*
X143566667Y-131232700D02*
X143633333Y-131266033D01*
X143633333Y-131266033D02*
X143766667Y-131266033D01*
X143766667Y-131266033D02*
X143833333Y-131232700D01*
X143833333Y-131232700D02*
X143866667Y-131199366D01*
X143866667Y-131199366D02*
X143900000Y-131132700D01*
X143900000Y-131132700D02*
X143900000Y-130999366D01*
X143900000Y-130999366D02*
X143866667Y-130932700D01*
X143866667Y-130932700D02*
X143833333Y-130899366D01*
X143833333Y-130899366D02*
X143766667Y-130866033D01*
X117266666Y-123541033D02*
X117266666Y-124107700D01*
X117266666Y-124107700D02*
X117300000Y-124174366D01*
X117300000Y-124174366D02*
X117333333Y-124207700D01*
X117333333Y-124207700D02*
X117400000Y-124241033D01*
X117400000Y-124241033D02*
X117533333Y-124241033D01*
X117533333Y-124241033D02*
X117600000Y-124207700D01*
X117600000Y-124207700D02*
X117633333Y-124174366D01*
X117633333Y-124174366D02*
X117666666Y-124107700D01*
X117666666Y-124107700D02*
X117666666Y-123541033D01*
X118366666Y-124241033D02*
X117966666Y-124241033D01*
X118166666Y-124241033D02*
X118166666Y-123541033D01*
X118166666Y-123541033D02*
X118099999Y-123641033D01*
X118099999Y-123641033D02*
X118033333Y-123707700D01*
X118033333Y-123707700D02*
X117966666Y-123741033D01*
X135156513Y-57142615D02*
X134802960Y-57496169D01*
X134802960Y-57496169D02*
X134708679Y-57543309D01*
X134708679Y-57543309D02*
X134614398Y-57543309D01*
X134614398Y-57543309D02*
X134520117Y-57496169D01*
X134520117Y-57496169D02*
X134472977Y-57449028D01*
X135604347Y-57590450D02*
X135510067Y-57496169D01*
X135510067Y-57496169D02*
X135439356Y-57472598D01*
X135439356Y-57472598D02*
X135392215Y-57472598D01*
X135392215Y-57472598D02*
X135274364Y-57496169D01*
X135274364Y-57496169D02*
X135156513Y-57566879D01*
X135156513Y-57566879D02*
X134967951Y-57755441D01*
X134967951Y-57755441D02*
X134944381Y-57826152D01*
X134944381Y-57826152D02*
X134944381Y-57873292D01*
X134944381Y-57873292D02*
X134967951Y-57944003D01*
X134967951Y-57944003D02*
X135062232Y-58038284D01*
X135062232Y-58038284D02*
X135132943Y-58061854D01*
X135132943Y-58061854D02*
X135180083Y-58061854D01*
X135180083Y-58061854D02*
X135250794Y-58038284D01*
X135250794Y-58038284D02*
X135368645Y-57920433D01*
X135368645Y-57920433D02*
X135392215Y-57849722D01*
X135392215Y-57849722D02*
X135392215Y-57802582D01*
X135392215Y-57802582D02*
X135368645Y-57731871D01*
X135368645Y-57731871D02*
X135274364Y-57637590D01*
X135274364Y-57637590D02*
X135203654Y-57614020D01*
X135203654Y-57614020D02*
X135156513Y-57614020D01*
X135156513Y-57614020D02*
X135085802Y-57637590D01*
X135654819Y-130259523D02*
X136369104Y-130259523D01*
X136369104Y-130259523D02*
X136511961Y-130307142D01*
X136511961Y-130307142D02*
X136607200Y-130402380D01*
X136607200Y-130402380D02*
X136654819Y-130545237D01*
X136654819Y-130545237D02*
X136654819Y-130640475D01*
X136654819Y-129259523D02*
X136654819Y-129830951D01*
X136654819Y-129545237D02*
X135654819Y-129545237D01*
X135654819Y-129545237D02*
X135797676Y-129640475D01*
X135797676Y-129640475D02*
X135892914Y-129735713D01*
X135892914Y-129735713D02*
X135940533Y-129830951D01*
X135654819Y-128640475D02*
X135654819Y-128545237D01*
X135654819Y-128545237D02*
X135702438Y-128449999D01*
X135702438Y-128449999D02*
X135750057Y-128402380D01*
X135750057Y-128402380D02*
X135845295Y-128354761D01*
X135845295Y-128354761D02*
X136035771Y-128307142D01*
X136035771Y-128307142D02*
X136273866Y-128307142D01*
X136273866Y-128307142D02*
X136464342Y-128354761D01*
X136464342Y-128354761D02*
X136559580Y-128402380D01*
X136559580Y-128402380D02*
X136607200Y-128449999D01*
X136607200Y-128449999D02*
X136654819Y-128545237D01*
X136654819Y-128545237D02*
X136654819Y-128640475D01*
X136654819Y-128640475D02*
X136607200Y-128735713D01*
X136607200Y-128735713D02*
X136559580Y-128783332D01*
X136559580Y-128783332D02*
X136464342Y-128830951D01*
X136464342Y-128830951D02*
X136273866Y-128878570D01*
X136273866Y-128878570D02*
X136035771Y-128878570D01*
X136035771Y-128878570D02*
X135845295Y-128830951D01*
X135845295Y-128830951D02*
X135750057Y-128783332D01*
X135750057Y-128783332D02*
X135702438Y-128735713D01*
X135702438Y-128735713D02*
X135654819Y-128640475D01*
X140283333Y-129749366D02*
X140250000Y-129782700D01*
X140250000Y-129782700D02*
X140150000Y-129816033D01*
X140150000Y-129816033D02*
X140083333Y-129816033D01*
X140083333Y-129816033D02*
X139983333Y-129782700D01*
X139983333Y-129782700D02*
X139916667Y-129716033D01*
X139916667Y-129716033D02*
X139883333Y-129649366D01*
X139883333Y-129649366D02*
X139850000Y-129516033D01*
X139850000Y-129516033D02*
X139850000Y-129416033D01*
X139850000Y-129416033D02*
X139883333Y-129282700D01*
X139883333Y-129282700D02*
X139916667Y-129216033D01*
X139916667Y-129216033D02*
X139983333Y-129149366D01*
X139983333Y-129149366D02*
X140083333Y-129116033D01*
X140083333Y-129116033D02*
X140150000Y-129116033D01*
X140150000Y-129116033D02*
X140250000Y-129149366D01*
X140250000Y-129149366D02*
X140283333Y-129182700D01*
X140516667Y-129116033D02*
X140950000Y-129116033D01*
X140950000Y-129116033D02*
X140716667Y-129382700D01*
X140716667Y-129382700D02*
X140816667Y-129382700D01*
X140816667Y-129382700D02*
X140883333Y-129416033D01*
X140883333Y-129416033D02*
X140916667Y-129449366D01*
X140916667Y-129449366D02*
X140950000Y-129516033D01*
X140950000Y-129516033D02*
X140950000Y-129682700D01*
X140950000Y-129682700D02*
X140916667Y-129749366D01*
X140916667Y-129749366D02*
X140883333Y-129782700D01*
X140883333Y-129782700D02*
X140816667Y-129816033D01*
X140816667Y-129816033D02*
X140616667Y-129816033D01*
X140616667Y-129816033D02*
X140550000Y-129782700D01*
X140550000Y-129782700D02*
X140516667Y-129749366D01*
X126091666Y-88816033D02*
X126091666Y-88116033D01*
X126091666Y-88449366D02*
X126491666Y-88449366D01*
X126491666Y-88816033D02*
X126491666Y-88116033D01*
X127191666Y-88816033D02*
X126791666Y-88816033D01*
X126991666Y-88816033D02*
X126991666Y-88116033D01*
X126991666Y-88116033D02*
X126924999Y-88216033D01*
X126924999Y-88216033D02*
X126858333Y-88282700D01*
X126858333Y-88282700D02*
X126791666Y-88316033D01*
X185633966Y-82366666D02*
X185133966Y-82366666D01*
X185133966Y-82366666D02*
X185033966Y-82333333D01*
X185033966Y-82333333D02*
X184967300Y-82266666D01*
X184967300Y-82266666D02*
X184933966Y-82166666D01*
X184933966Y-82166666D02*
X184933966Y-82100000D01*
X185333966Y-82799999D02*
X185367300Y-82733333D01*
X185367300Y-82733333D02*
X185400633Y-82699999D01*
X185400633Y-82699999D02*
X185467300Y-82666666D01*
X185467300Y-82666666D02*
X185500633Y-82666666D01*
X185500633Y-82666666D02*
X185567300Y-82699999D01*
X185567300Y-82699999D02*
X185600633Y-82733333D01*
X185600633Y-82733333D02*
X185633966Y-82799999D01*
X185633966Y-82799999D02*
X185633966Y-82933333D01*
X185633966Y-82933333D02*
X185600633Y-82999999D01*
X185600633Y-82999999D02*
X185567300Y-83033333D01*
X185567300Y-83033333D02*
X185500633Y-83066666D01*
X185500633Y-83066666D02*
X185467300Y-83066666D01*
X185467300Y-83066666D02*
X185400633Y-83033333D01*
X185400633Y-83033333D02*
X185367300Y-82999999D01*
X185367300Y-82999999D02*
X185333966Y-82933333D01*
X185333966Y-82933333D02*
X185333966Y-82799999D01*
X185333966Y-82799999D02*
X185300633Y-82733333D01*
X185300633Y-82733333D02*
X185267300Y-82699999D01*
X185267300Y-82699999D02*
X185200633Y-82666666D01*
X185200633Y-82666666D02*
X185067300Y-82666666D01*
X185067300Y-82666666D02*
X185000633Y-82699999D01*
X185000633Y-82699999D02*
X184967300Y-82733333D01*
X184967300Y-82733333D02*
X184933966Y-82799999D01*
X184933966Y-82799999D02*
X184933966Y-82933333D01*
X184933966Y-82933333D02*
X184967300Y-82999999D01*
X184967300Y-82999999D02*
X185000633Y-83033333D01*
X185000633Y-83033333D02*
X185067300Y-83066666D01*
X185067300Y-83066666D02*
X185200633Y-83066666D01*
X185200633Y-83066666D02*
X185267300Y-83033333D01*
X185267300Y-83033333D02*
X185300633Y-82999999D01*
X185300633Y-82999999D02*
X185333966Y-82933333D01*
X124716031Y-83116664D02*
X125216031Y-83116664D01*
X125216031Y-83116664D02*
X125316031Y-83149997D01*
X125316031Y-83149997D02*
X125382698Y-83216664D01*
X125382698Y-83216664D02*
X125416031Y-83316664D01*
X125416031Y-83316664D02*
X125416031Y-83383331D01*
X125416031Y-82416664D02*
X125416031Y-82816664D01*
X125416031Y-82616664D02*
X124716031Y-82616664D01*
X124716031Y-82616664D02*
X124816031Y-82683331D01*
X124816031Y-82683331D02*
X124882698Y-82749998D01*
X124882698Y-82749998D02*
X124916031Y-82816664D01*
X124716031Y-82183331D02*
X124716031Y-81749997D01*
X124716031Y-81749997D02*
X124982698Y-81983331D01*
X124982698Y-81983331D02*
X124982698Y-81883331D01*
X124982698Y-81883331D02*
X125016031Y-81816664D01*
X125016031Y-81816664D02*
X125049364Y-81783331D01*
X125049364Y-81783331D02*
X125116031Y-81749997D01*
X125116031Y-81749997D02*
X125282698Y-81749997D01*
X125282698Y-81749997D02*
X125349364Y-81783331D01*
X125349364Y-81783331D02*
X125382698Y-81816664D01*
X125382698Y-81816664D02*
X125416031Y-81883331D01*
X125416031Y-81883331D02*
X125416031Y-82083331D01*
X125416031Y-82083331D02*
X125382698Y-82149997D01*
X125382698Y-82149997D02*
X125349364Y-82183331D01*
X158458333Y-131216033D02*
X158225000Y-130882700D01*
X158058333Y-131216033D02*
X158058333Y-130516033D01*
X158058333Y-130516033D02*
X158325000Y-130516033D01*
X158325000Y-130516033D02*
X158391667Y-130549366D01*
X158391667Y-130549366D02*
X158425000Y-130582700D01*
X158425000Y-130582700D02*
X158458333Y-130649366D01*
X158458333Y-130649366D02*
X158458333Y-130749366D01*
X158458333Y-130749366D02*
X158425000Y-130816033D01*
X158425000Y-130816033D02*
X158391667Y-130849366D01*
X158391667Y-130849366D02*
X158325000Y-130882700D01*
X158325000Y-130882700D02*
X158058333Y-130882700D01*
X159058333Y-130516033D02*
X158925000Y-130516033D01*
X158925000Y-130516033D02*
X158858333Y-130549366D01*
X158858333Y-130549366D02*
X158825000Y-130582700D01*
X158825000Y-130582700D02*
X158758333Y-130682700D01*
X158758333Y-130682700D02*
X158725000Y-130816033D01*
X158725000Y-130816033D02*
X158725000Y-131082700D01*
X158725000Y-131082700D02*
X158758333Y-131149366D01*
X158758333Y-131149366D02*
X158791667Y-131182700D01*
X158791667Y-131182700D02*
X158858333Y-131216033D01*
X158858333Y-131216033D02*
X158991667Y-131216033D01*
X158991667Y-131216033D02*
X159058333Y-131182700D01*
X159058333Y-131182700D02*
X159091667Y-131149366D01*
X159091667Y-131149366D02*
X159125000Y-131082700D01*
X159125000Y-131082700D02*
X159125000Y-130916033D01*
X159125000Y-130916033D02*
X159091667Y-130849366D01*
X159091667Y-130849366D02*
X159058333Y-130816033D01*
X159058333Y-130816033D02*
X158991667Y-130782700D01*
X158991667Y-130782700D02*
X158858333Y-130782700D01*
X158858333Y-130782700D02*
X158791667Y-130816033D01*
X158791667Y-130816033D02*
X158758333Y-130849366D01*
X158758333Y-130849366D02*
X158725000Y-130916033D01*
X175816033Y-60150000D02*
X175482700Y-60383333D01*
X175816033Y-60550000D02*
X175116033Y-60550000D01*
X175116033Y-60550000D02*
X175116033Y-60283333D01*
X175116033Y-60283333D02*
X175149366Y-60216667D01*
X175149366Y-60216667D02*
X175182700Y-60183333D01*
X175182700Y-60183333D02*
X175249366Y-60150000D01*
X175249366Y-60150000D02*
X175349366Y-60150000D01*
X175349366Y-60150000D02*
X175416033Y-60183333D01*
X175416033Y-60183333D02*
X175449366Y-60216667D01*
X175449366Y-60216667D02*
X175482700Y-60283333D01*
X175482700Y-60283333D02*
X175482700Y-60550000D01*
X175182700Y-59883333D02*
X175149366Y-59850000D01*
X175149366Y-59850000D02*
X175116033Y-59783333D01*
X175116033Y-59783333D02*
X175116033Y-59616667D01*
X175116033Y-59616667D02*
X175149366Y-59550000D01*
X175149366Y-59550000D02*
X175182700Y-59516667D01*
X175182700Y-59516667D02*
X175249366Y-59483333D01*
X175249366Y-59483333D02*
X175316033Y-59483333D01*
X175316033Y-59483333D02*
X175416033Y-59516667D01*
X175416033Y-59516667D02*
X175816033Y-59916667D01*
X175816033Y-59916667D02*
X175816033Y-59483333D01*
X175816033Y-58816666D02*
X175816033Y-59216666D01*
X175816033Y-59016666D02*
X175116033Y-59016666D01*
X175116033Y-59016666D02*
X175216033Y-59083333D01*
X175216033Y-59083333D02*
X175282700Y-59150000D01*
X175282700Y-59150000D02*
X175316033Y-59216666D01*
X179030488Y-61586301D02*
X179030488Y-60886301D01*
X179030488Y-60886301D02*
X179197155Y-60886301D01*
X179197155Y-60886301D02*
X179297155Y-60919634D01*
X179297155Y-60919634D02*
X179363822Y-60986301D01*
X179363822Y-60986301D02*
X179397155Y-61052968D01*
X179397155Y-61052968D02*
X179430488Y-61186301D01*
X179430488Y-61186301D02*
X179430488Y-61286301D01*
X179430488Y-61286301D02*
X179397155Y-61419634D01*
X179397155Y-61419634D02*
X179363822Y-61486301D01*
X179363822Y-61486301D02*
X179297155Y-61552968D01*
X179297155Y-61552968D02*
X179197155Y-61586301D01*
X179197155Y-61586301D02*
X179030488Y-61586301D01*
X179663822Y-60886301D02*
X180130488Y-60886301D01*
X180130488Y-60886301D02*
X179830488Y-61586301D01*
X156549999Y-122449366D02*
X156516666Y-122482700D01*
X156516666Y-122482700D02*
X156416666Y-122516033D01*
X156416666Y-122516033D02*
X156349999Y-122516033D01*
X156349999Y-122516033D02*
X156249999Y-122482700D01*
X156249999Y-122482700D02*
X156183333Y-122416033D01*
X156183333Y-122416033D02*
X156149999Y-122349366D01*
X156149999Y-122349366D02*
X156116666Y-122216033D01*
X156116666Y-122216033D02*
X156116666Y-122116033D01*
X156116666Y-122116033D02*
X156149999Y-121982700D01*
X156149999Y-121982700D02*
X156183333Y-121916033D01*
X156183333Y-121916033D02*
X156249999Y-121849366D01*
X156249999Y-121849366D02*
X156349999Y-121816033D01*
X156349999Y-121816033D02*
X156416666Y-121816033D01*
X156416666Y-121816033D02*
X156516666Y-121849366D01*
X156516666Y-121849366D02*
X156549999Y-121882700D01*
X156816666Y-121882700D02*
X156849999Y-121849366D01*
X156849999Y-121849366D02*
X156916666Y-121816033D01*
X156916666Y-121816033D02*
X157083333Y-121816033D01*
X157083333Y-121816033D02*
X157149999Y-121849366D01*
X157149999Y-121849366D02*
X157183333Y-121882700D01*
X157183333Y-121882700D02*
X157216666Y-121949366D01*
X157216666Y-121949366D02*
X157216666Y-122016033D01*
X157216666Y-122016033D02*
X157183333Y-122116033D01*
X157183333Y-122116033D02*
X156783333Y-122516033D01*
X156783333Y-122516033D02*
X157216666Y-122516033D01*
X157816666Y-122049366D02*
X157816666Y-122516033D01*
X157650000Y-121782700D02*
X157483333Y-122282700D01*
X157483333Y-122282700D02*
X157916666Y-122282700D01*
X136966033Y-125866666D02*
X136632700Y-126099999D01*
X136966033Y-126266666D02*
X136266033Y-126266666D01*
X136266033Y-126266666D02*
X136266033Y-125999999D01*
X136266033Y-125999999D02*
X136299366Y-125933333D01*
X136299366Y-125933333D02*
X136332700Y-125899999D01*
X136332700Y-125899999D02*
X136399366Y-125866666D01*
X136399366Y-125866666D02*
X136499366Y-125866666D01*
X136499366Y-125866666D02*
X136566033Y-125899999D01*
X136566033Y-125899999D02*
X136599366Y-125933333D01*
X136599366Y-125933333D02*
X136632700Y-125999999D01*
X136632700Y-125999999D02*
X136632700Y-126266666D01*
X136266033Y-125633333D02*
X136266033Y-125199999D01*
X136266033Y-125199999D02*
X136532700Y-125433333D01*
X136532700Y-125433333D02*
X136532700Y-125333333D01*
X136532700Y-125333333D02*
X136566033Y-125266666D01*
X136566033Y-125266666D02*
X136599366Y-125233333D01*
X136599366Y-125233333D02*
X136666033Y-125199999D01*
X136666033Y-125199999D02*
X136832700Y-125199999D01*
X136832700Y-125199999D02*
X136899366Y-125233333D01*
X136899366Y-125233333D02*
X136932700Y-125266666D01*
X136932700Y-125266666D02*
X136966033Y-125333333D01*
X136966033Y-125333333D02*
X136966033Y-125533333D01*
X136966033Y-125533333D02*
X136932700Y-125599999D01*
X136932700Y-125599999D02*
X136899366Y-125633333D01*
X113749999Y-66266033D02*
X113516666Y-65932700D01*
X113349999Y-66266033D02*
X113349999Y-65566033D01*
X113349999Y-65566033D02*
X113616666Y-65566033D01*
X113616666Y-65566033D02*
X113683333Y-65599366D01*
X113683333Y-65599366D02*
X113716666Y-65632700D01*
X113716666Y-65632700D02*
X113749999Y-65699366D01*
X113749999Y-65699366D02*
X113749999Y-65799366D01*
X113749999Y-65799366D02*
X113716666Y-65866033D01*
X113716666Y-65866033D02*
X113683333Y-65899366D01*
X113683333Y-65899366D02*
X113616666Y-65932700D01*
X113616666Y-65932700D02*
X113349999Y-65932700D01*
X114416666Y-66266033D02*
X114016666Y-66266033D01*
X114216666Y-66266033D02*
X114216666Y-65566033D01*
X114216666Y-65566033D02*
X114149999Y-65666033D01*
X114149999Y-65666033D02*
X114083333Y-65732700D01*
X114083333Y-65732700D02*
X114016666Y-65766033D01*
X114750000Y-66266033D02*
X114883333Y-66266033D01*
X114883333Y-66266033D02*
X114950000Y-66232700D01*
X114950000Y-66232700D02*
X114983333Y-66199366D01*
X114983333Y-66199366D02*
X115050000Y-66099366D01*
X115050000Y-66099366D02*
X115083333Y-65966033D01*
X115083333Y-65966033D02*
X115083333Y-65699366D01*
X115083333Y-65699366D02*
X115050000Y-65632700D01*
X115050000Y-65632700D02*
X115016666Y-65599366D01*
X115016666Y-65599366D02*
X114950000Y-65566033D01*
X114950000Y-65566033D02*
X114816666Y-65566033D01*
X114816666Y-65566033D02*
X114750000Y-65599366D01*
X114750000Y-65599366D02*
X114716666Y-65632700D01*
X114716666Y-65632700D02*
X114683333Y-65699366D01*
X114683333Y-65699366D02*
X114683333Y-65866033D01*
X114683333Y-65866033D02*
X114716666Y-65932700D01*
X114716666Y-65932700D02*
X114750000Y-65966033D01*
X114750000Y-65966033D02*
X114816666Y-65999366D01*
X114816666Y-65999366D02*
X114950000Y-65999366D01*
X114950000Y-65999366D02*
X115016666Y-65966033D01*
X115016666Y-65966033D02*
X115050000Y-65932700D01*
X115050000Y-65932700D02*
X115083333Y-65866033D01*
X135983333Y-47566033D02*
X135983333Y-46866033D01*
X135983333Y-46866033D02*
X136150000Y-46866033D01*
X136150000Y-46866033D02*
X136250000Y-46899366D01*
X136250000Y-46899366D02*
X136316667Y-46966033D01*
X136316667Y-46966033D02*
X136350000Y-47032700D01*
X136350000Y-47032700D02*
X136383333Y-47166033D01*
X136383333Y-47166033D02*
X136383333Y-47266033D01*
X136383333Y-47266033D02*
X136350000Y-47399366D01*
X136350000Y-47399366D02*
X136316667Y-47466033D01*
X136316667Y-47466033D02*
X136250000Y-47532700D01*
X136250000Y-47532700D02*
X136150000Y-47566033D01*
X136150000Y-47566033D02*
X135983333Y-47566033D01*
X137016667Y-46866033D02*
X136683333Y-46866033D01*
X136683333Y-46866033D02*
X136650000Y-47199366D01*
X136650000Y-47199366D02*
X136683333Y-47166033D01*
X136683333Y-47166033D02*
X136750000Y-47132700D01*
X136750000Y-47132700D02*
X136916667Y-47132700D01*
X136916667Y-47132700D02*
X136983333Y-47166033D01*
X136983333Y-47166033D02*
X137016667Y-47199366D01*
X137016667Y-47199366D02*
X137050000Y-47266033D01*
X137050000Y-47266033D02*
X137050000Y-47432700D01*
X137050000Y-47432700D02*
X137016667Y-47499366D01*
X137016667Y-47499366D02*
X136983333Y-47532700D01*
X136983333Y-47532700D02*
X136916667Y-47566033D01*
X136916667Y-47566033D02*
X136750000Y-47566033D01*
X136750000Y-47566033D02*
X136683333Y-47532700D01*
X136683333Y-47532700D02*
X136650000Y-47499366D01*
X148116667Y-60949366D02*
X148216667Y-60982700D01*
X148216667Y-60982700D02*
X148250000Y-61016033D01*
X148250000Y-61016033D02*
X148283333Y-61082700D01*
X148283333Y-61082700D02*
X148283333Y-61182700D01*
X148283333Y-61182700D02*
X148250000Y-61249366D01*
X148250000Y-61249366D02*
X148216667Y-61282700D01*
X148216667Y-61282700D02*
X148150000Y-61316033D01*
X148150000Y-61316033D02*
X147883333Y-61316033D01*
X147883333Y-61316033D02*
X147883333Y-60616033D01*
X147883333Y-60616033D02*
X148116667Y-60616033D01*
X148116667Y-60616033D02*
X148183333Y-60649366D01*
X148183333Y-60649366D02*
X148216667Y-60682700D01*
X148216667Y-60682700D02*
X148250000Y-60749366D01*
X148250000Y-60749366D02*
X148250000Y-60816033D01*
X148250000Y-60816033D02*
X148216667Y-60882700D01*
X148216667Y-60882700D02*
X148183333Y-60916033D01*
X148183333Y-60916033D02*
X148116667Y-60949366D01*
X148116667Y-60949366D02*
X147883333Y-60949366D01*
X148950000Y-61316033D02*
X148550000Y-61316033D01*
X148750000Y-61316033D02*
X148750000Y-60616033D01*
X148750000Y-60616033D02*
X148683333Y-60716033D01*
X148683333Y-60716033D02*
X148616667Y-60782700D01*
X148616667Y-60782700D02*
X148550000Y-60816033D01*
X122016033Y-62250000D02*
X121682700Y-62483333D01*
X122016033Y-62650000D02*
X121316033Y-62650000D01*
X121316033Y-62650000D02*
X121316033Y-62383333D01*
X121316033Y-62383333D02*
X121349366Y-62316667D01*
X121349366Y-62316667D02*
X121382700Y-62283333D01*
X121382700Y-62283333D02*
X121449366Y-62250000D01*
X121449366Y-62250000D02*
X121549366Y-62250000D01*
X121549366Y-62250000D02*
X121616033Y-62283333D01*
X121616033Y-62283333D02*
X121649366Y-62316667D01*
X121649366Y-62316667D02*
X121682700Y-62383333D01*
X121682700Y-62383333D02*
X121682700Y-62650000D01*
X122016033Y-61583333D02*
X122016033Y-61983333D01*
X122016033Y-61783333D02*
X121316033Y-61783333D01*
X121316033Y-61783333D02*
X121416033Y-61850000D01*
X121416033Y-61850000D02*
X121482700Y-61916667D01*
X121482700Y-61916667D02*
X121516033Y-61983333D01*
X121316033Y-61350000D02*
X121316033Y-60883333D01*
X121316033Y-60883333D02*
X122016033Y-61183333D01*
X175149999Y-96249366D02*
X175116666Y-96282700D01*
X175116666Y-96282700D02*
X175016666Y-96316033D01*
X175016666Y-96316033D02*
X174949999Y-96316033D01*
X174949999Y-96316033D02*
X174849999Y-96282700D01*
X174849999Y-96282700D02*
X174783333Y-96216033D01*
X174783333Y-96216033D02*
X174749999Y-96149366D01*
X174749999Y-96149366D02*
X174716666Y-96016033D01*
X174716666Y-96016033D02*
X174716666Y-95916033D01*
X174716666Y-95916033D02*
X174749999Y-95782700D01*
X174749999Y-95782700D02*
X174783333Y-95716033D01*
X174783333Y-95716033D02*
X174849999Y-95649366D01*
X174849999Y-95649366D02*
X174949999Y-95616033D01*
X174949999Y-95616033D02*
X175016666Y-95616033D01*
X175016666Y-95616033D02*
X175116666Y-95649366D01*
X175116666Y-95649366D02*
X175149999Y-95682700D01*
X175816666Y-96316033D02*
X175416666Y-96316033D01*
X175616666Y-96316033D02*
X175616666Y-95616033D01*
X175616666Y-95616033D02*
X175549999Y-95716033D01*
X175549999Y-95716033D02*
X175483333Y-95782700D01*
X175483333Y-95782700D02*
X175416666Y-95816033D01*
X176483333Y-96316033D02*
X176083333Y-96316033D01*
X176283333Y-96316033D02*
X176283333Y-95616033D01*
X176283333Y-95616033D02*
X176216666Y-95716033D01*
X176216666Y-95716033D02*
X176150000Y-95782700D01*
X176150000Y-95782700D02*
X176083333Y-95816033D01*
X178133333Y-92149366D02*
X178100000Y-92182700D01*
X178100000Y-92182700D02*
X178000000Y-92216033D01*
X178000000Y-92216033D02*
X177933333Y-92216033D01*
X177933333Y-92216033D02*
X177833333Y-92182700D01*
X177833333Y-92182700D02*
X177766667Y-92116033D01*
X177766667Y-92116033D02*
X177733333Y-92049366D01*
X177733333Y-92049366D02*
X177700000Y-91916033D01*
X177700000Y-91916033D02*
X177700000Y-91816033D01*
X177700000Y-91816033D02*
X177733333Y-91682700D01*
X177733333Y-91682700D02*
X177766667Y-91616033D01*
X177766667Y-91616033D02*
X177833333Y-91549366D01*
X177833333Y-91549366D02*
X177933333Y-91516033D01*
X177933333Y-91516033D02*
X178000000Y-91516033D01*
X178000000Y-91516033D02*
X178100000Y-91549366D01*
X178100000Y-91549366D02*
X178133333Y-91582700D01*
X178366667Y-91516033D02*
X178833333Y-91516033D01*
X178833333Y-91516033D02*
X178533333Y-92216033D01*
X151666667Y-54599366D02*
X151766667Y-54632700D01*
X151766667Y-54632700D02*
X151800000Y-54666033D01*
X151800000Y-54666033D02*
X151833333Y-54732700D01*
X151833333Y-54732700D02*
X151833333Y-54832700D01*
X151833333Y-54832700D02*
X151800000Y-54899366D01*
X151800000Y-54899366D02*
X151766667Y-54932700D01*
X151766667Y-54932700D02*
X151700000Y-54966033D01*
X151700000Y-54966033D02*
X151433333Y-54966033D01*
X151433333Y-54966033D02*
X151433333Y-54266033D01*
X151433333Y-54266033D02*
X151666667Y-54266033D01*
X151666667Y-54266033D02*
X151733333Y-54299366D01*
X151733333Y-54299366D02*
X151766667Y-54332700D01*
X151766667Y-54332700D02*
X151800000Y-54399366D01*
X151800000Y-54399366D02*
X151800000Y-54466033D01*
X151800000Y-54466033D02*
X151766667Y-54532700D01*
X151766667Y-54532700D02*
X151733333Y-54566033D01*
X151733333Y-54566033D02*
X151666667Y-54599366D01*
X151666667Y-54599366D02*
X151433333Y-54599366D01*
X152100000Y-54332700D02*
X152133333Y-54299366D01*
X152133333Y-54299366D02*
X152200000Y-54266033D01*
X152200000Y-54266033D02*
X152366667Y-54266033D01*
X152366667Y-54266033D02*
X152433333Y-54299366D01*
X152433333Y-54299366D02*
X152466667Y-54332700D01*
X152466667Y-54332700D02*
X152500000Y-54399366D01*
X152500000Y-54399366D02*
X152500000Y-54466033D01*
X152500000Y-54466033D02*
X152466667Y-54566033D01*
X152466667Y-54566033D02*
X152066667Y-54966033D01*
X152066667Y-54966033D02*
X152500000Y-54966033D01*
X153699999Y-129866033D02*
X153466666Y-129532700D01*
X153299999Y-129866033D02*
X153299999Y-129166033D01*
X153299999Y-129166033D02*
X153566666Y-129166033D01*
X153566666Y-129166033D02*
X153633333Y-129199366D01*
X153633333Y-129199366D02*
X153666666Y-129232700D01*
X153666666Y-129232700D02*
X153699999Y-129299366D01*
X153699999Y-129299366D02*
X153699999Y-129399366D01*
X153699999Y-129399366D02*
X153666666Y-129466033D01*
X153666666Y-129466033D02*
X153633333Y-129499366D01*
X153633333Y-129499366D02*
X153566666Y-129532700D01*
X153566666Y-129532700D02*
X153299999Y-129532700D01*
X154366666Y-129866033D02*
X153966666Y-129866033D01*
X154166666Y-129866033D02*
X154166666Y-129166033D01*
X154166666Y-129166033D02*
X154099999Y-129266033D01*
X154099999Y-129266033D02*
X154033333Y-129332700D01*
X154033333Y-129332700D02*
X153966666Y-129366033D01*
X154800000Y-129166033D02*
X154866666Y-129166033D01*
X154866666Y-129166033D02*
X154933333Y-129199366D01*
X154933333Y-129199366D02*
X154966666Y-129232700D01*
X154966666Y-129232700D02*
X155000000Y-129299366D01*
X155000000Y-129299366D02*
X155033333Y-129432700D01*
X155033333Y-129432700D02*
X155033333Y-129599366D01*
X155033333Y-129599366D02*
X155000000Y-129732700D01*
X155000000Y-129732700D02*
X154966666Y-129799366D01*
X154966666Y-129799366D02*
X154933333Y-129832700D01*
X154933333Y-129832700D02*
X154866666Y-129866033D01*
X154866666Y-129866033D02*
X154800000Y-129866033D01*
X154800000Y-129866033D02*
X154733333Y-129832700D01*
X154733333Y-129832700D02*
X154700000Y-129799366D01*
X154700000Y-129799366D02*
X154666666Y-129732700D01*
X154666666Y-129732700D02*
X154633333Y-129599366D01*
X154633333Y-129599366D02*
X154633333Y-129432700D01*
X154633333Y-129432700D02*
X154666666Y-129299366D01*
X154666666Y-129299366D02*
X154700000Y-129232700D01*
X154700000Y-129232700D02*
X154733333Y-129199366D01*
X154733333Y-129199366D02*
X154800000Y-129166033D01*
X180916033Y-122483333D02*
X181482700Y-122483333D01*
X181482700Y-122483333D02*
X181549366Y-122450000D01*
X181549366Y-122450000D02*
X181582700Y-122416666D01*
X181582700Y-122416666D02*
X181616033Y-122350000D01*
X181616033Y-122350000D02*
X181616033Y-122216666D01*
X181616033Y-122216666D02*
X181582700Y-122150000D01*
X181582700Y-122150000D02*
X181549366Y-122116666D01*
X181549366Y-122116666D02*
X181482700Y-122083333D01*
X181482700Y-122083333D02*
X180916033Y-122083333D01*
X180916033Y-121816667D02*
X180916033Y-121383333D01*
X180916033Y-121383333D02*
X181182700Y-121616667D01*
X181182700Y-121616667D02*
X181182700Y-121516667D01*
X181182700Y-121516667D02*
X181216033Y-121450000D01*
X181216033Y-121450000D02*
X181249366Y-121416667D01*
X181249366Y-121416667D02*
X181316033Y-121383333D01*
X181316033Y-121383333D02*
X181482700Y-121383333D01*
X181482700Y-121383333D02*
X181549366Y-121416667D01*
X181549366Y-121416667D02*
X181582700Y-121450000D01*
X181582700Y-121450000D02*
X181616033Y-121516667D01*
X181616033Y-121516667D02*
X181616033Y-121716667D01*
X181616033Y-121716667D02*
X181582700Y-121783333D01*
X181582700Y-121783333D02*
X181549366Y-121816667D01*
X154737978Y-50843486D02*
X155091532Y-51197039D01*
X155091532Y-51197039D02*
X155138672Y-51291320D01*
X155138672Y-51291320D02*
X155138672Y-51385601D01*
X155138672Y-51385601D02*
X155091532Y-51479882D01*
X155091532Y-51479882D02*
X155044391Y-51527022D01*
X154926540Y-50654924D02*
X155256523Y-50324941D01*
X155256523Y-50324941D02*
X155539366Y-51032048D01*
X154516033Y-58200000D02*
X154182700Y-58433333D01*
X154516033Y-58600000D02*
X153816033Y-58600000D01*
X153816033Y-58600000D02*
X153816033Y-58333333D01*
X153816033Y-58333333D02*
X153849366Y-58266667D01*
X153849366Y-58266667D02*
X153882700Y-58233333D01*
X153882700Y-58233333D02*
X153949366Y-58200000D01*
X153949366Y-58200000D02*
X154049366Y-58200000D01*
X154049366Y-58200000D02*
X154116033Y-58233333D01*
X154116033Y-58233333D02*
X154149366Y-58266667D01*
X154149366Y-58266667D02*
X154182700Y-58333333D01*
X154182700Y-58333333D02*
X154182700Y-58600000D01*
X154516033Y-57533333D02*
X154516033Y-57933333D01*
X154516033Y-57733333D02*
X153816033Y-57733333D01*
X153816033Y-57733333D02*
X153916033Y-57800000D01*
X153916033Y-57800000D02*
X153982700Y-57866667D01*
X153982700Y-57866667D02*
X154016033Y-57933333D01*
X153816033Y-56900000D02*
X153816033Y-57233333D01*
X153816033Y-57233333D02*
X154149366Y-57266666D01*
X154149366Y-57266666D02*
X154116033Y-57233333D01*
X154116033Y-57233333D02*
X154082700Y-57166666D01*
X154082700Y-57166666D02*
X154082700Y-57000000D01*
X154082700Y-57000000D02*
X154116033Y-56933333D01*
X154116033Y-56933333D02*
X154149366Y-56900000D01*
X154149366Y-56900000D02*
X154216033Y-56866666D01*
X154216033Y-56866666D02*
X154382700Y-56866666D01*
X154382700Y-56866666D02*
X154449366Y-56900000D01*
X154449366Y-56900000D02*
X154482700Y-56933333D01*
X154482700Y-56933333D02*
X154516033Y-57000000D01*
X154516033Y-57000000D02*
X154516033Y-57166666D01*
X154516033Y-57166666D02*
X154482700Y-57233333D01*
X154482700Y-57233333D02*
X154449366Y-57266666D01*
X186449999Y-78916033D02*
X186216666Y-78582700D01*
X186049999Y-78916033D02*
X186049999Y-78216033D01*
X186049999Y-78216033D02*
X186316666Y-78216033D01*
X186316666Y-78216033D02*
X186383333Y-78249366D01*
X186383333Y-78249366D02*
X186416666Y-78282700D01*
X186416666Y-78282700D02*
X186449999Y-78349366D01*
X186449999Y-78349366D02*
X186449999Y-78449366D01*
X186449999Y-78449366D02*
X186416666Y-78516033D01*
X186416666Y-78516033D02*
X186383333Y-78549366D01*
X186383333Y-78549366D02*
X186316666Y-78582700D01*
X186316666Y-78582700D02*
X186049999Y-78582700D01*
X186716666Y-78282700D02*
X186749999Y-78249366D01*
X186749999Y-78249366D02*
X186816666Y-78216033D01*
X186816666Y-78216033D02*
X186983333Y-78216033D01*
X186983333Y-78216033D02*
X187049999Y-78249366D01*
X187049999Y-78249366D02*
X187083333Y-78282700D01*
X187083333Y-78282700D02*
X187116666Y-78349366D01*
X187116666Y-78349366D02*
X187116666Y-78416033D01*
X187116666Y-78416033D02*
X187083333Y-78516033D01*
X187083333Y-78516033D02*
X186683333Y-78916033D01*
X186683333Y-78916033D02*
X187116666Y-78916033D01*
X187716666Y-78449366D02*
X187716666Y-78916033D01*
X187550000Y-78182700D02*
X187383333Y-78682700D01*
X187383333Y-78682700D02*
X187816666Y-78682700D01*
X147066667Y-122982700D02*
X147066667Y-123316033D01*
X146833333Y-122616033D02*
X147066667Y-122982700D01*
X147066667Y-122982700D02*
X147300000Y-122616033D01*
X147900000Y-123316033D02*
X147500000Y-123316033D01*
X147700000Y-123316033D02*
X147700000Y-122616033D01*
X147700000Y-122616033D02*
X147633333Y-122716033D01*
X147633333Y-122716033D02*
X147566667Y-122782700D01*
X147566667Y-122782700D02*
X147500000Y-122816033D01*
X124857538Y-134166033D02*
X124857538Y-134666033D01*
X124857538Y-134666033D02*
X124824205Y-134766033D01*
X124824205Y-134766033D02*
X124757538Y-134832700D01*
X124757538Y-134832700D02*
X124657538Y-134866033D01*
X124657538Y-134866033D02*
X124590872Y-134866033D01*
X125124205Y-134166033D02*
X125557538Y-134166033D01*
X125557538Y-134166033D02*
X125324205Y-134432700D01*
X125324205Y-134432700D02*
X125424205Y-134432700D01*
X125424205Y-134432700D02*
X125490871Y-134466033D01*
X125490871Y-134466033D02*
X125524205Y-134499366D01*
X125524205Y-134499366D02*
X125557538Y-134566033D01*
X125557538Y-134566033D02*
X125557538Y-134732700D01*
X125557538Y-134732700D02*
X125524205Y-134799366D01*
X125524205Y-134799366D02*
X125490871Y-134832700D01*
X125490871Y-134832700D02*
X125424205Y-134866033D01*
X125424205Y-134866033D02*
X125224205Y-134866033D01*
X125224205Y-134866033D02*
X125157538Y-134832700D01*
X125157538Y-134832700D02*
X125124205Y-134799366D01*
X177849999Y-131399366D02*
X177816666Y-131432700D01*
X177816666Y-131432700D02*
X177716666Y-131466033D01*
X177716666Y-131466033D02*
X177649999Y-131466033D01*
X177649999Y-131466033D02*
X177549999Y-131432700D01*
X177549999Y-131432700D02*
X177483333Y-131366033D01*
X177483333Y-131366033D02*
X177449999Y-131299366D01*
X177449999Y-131299366D02*
X177416666Y-131166033D01*
X177416666Y-131166033D02*
X177416666Y-131066033D01*
X177416666Y-131066033D02*
X177449999Y-130932700D01*
X177449999Y-130932700D02*
X177483333Y-130866033D01*
X177483333Y-130866033D02*
X177549999Y-130799366D01*
X177549999Y-130799366D02*
X177649999Y-130766033D01*
X177649999Y-130766033D02*
X177716666Y-130766033D01*
X177716666Y-130766033D02*
X177816666Y-130799366D01*
X177816666Y-130799366D02*
X177849999Y-130832700D01*
X178516666Y-131466033D02*
X178116666Y-131466033D01*
X178316666Y-131466033D02*
X178316666Y-130766033D01*
X178316666Y-130766033D02*
X178249999Y-130866033D01*
X178249999Y-130866033D02*
X178183333Y-130932700D01*
X178183333Y-130932700D02*
X178116666Y-130966033D01*
X178750000Y-130766033D02*
X179216666Y-130766033D01*
X179216666Y-130766033D02*
X178916666Y-131466033D01*
X149466667Y-118582700D02*
X149466667Y-118916033D01*
X149233333Y-118216033D02*
X149466667Y-118582700D01*
X149466667Y-118582700D02*
X149700000Y-118216033D01*
X149900000Y-118282700D02*
X149933333Y-118249366D01*
X149933333Y-118249366D02*
X150000000Y-118216033D01*
X150000000Y-118216033D02*
X150166667Y-118216033D01*
X150166667Y-118216033D02*
X150233333Y-118249366D01*
X150233333Y-118249366D02*
X150266667Y-118282700D01*
X150266667Y-118282700D02*
X150300000Y-118349366D01*
X150300000Y-118349366D02*
X150300000Y-118416033D01*
X150300000Y-118416033D02*
X150266667Y-118516033D01*
X150266667Y-118516033D02*
X149866667Y-118916033D01*
X149866667Y-118916033D02*
X150300000Y-118916033D01*
X115666666Y-78716033D02*
X115666666Y-79216033D01*
X115666666Y-79216033D02*
X115633333Y-79316033D01*
X115633333Y-79316033D02*
X115566666Y-79382700D01*
X115566666Y-79382700D02*
X115466666Y-79416033D01*
X115466666Y-79416033D02*
X115400000Y-79416033D01*
X116333333Y-78716033D02*
X115999999Y-78716033D01*
X115999999Y-78716033D02*
X115966666Y-79049366D01*
X115966666Y-79049366D02*
X115999999Y-79016033D01*
X115999999Y-79016033D02*
X116066666Y-78982700D01*
X116066666Y-78982700D02*
X116233333Y-78982700D01*
X116233333Y-78982700D02*
X116299999Y-79016033D01*
X116299999Y-79016033D02*
X116333333Y-79049366D01*
X116333333Y-79049366D02*
X116366666Y-79116033D01*
X116366666Y-79116033D02*
X116366666Y-79282700D01*
X116366666Y-79282700D02*
X116333333Y-79349366D01*
X116333333Y-79349366D02*
X116299999Y-79382700D01*
X116299999Y-79382700D02*
X116233333Y-79416033D01*
X116233333Y-79416033D02*
X116066666Y-79416033D01*
X116066666Y-79416033D02*
X115999999Y-79382700D01*
X115999999Y-79382700D02*
X115966666Y-79349366D01*
D15*
%TO.C,Q6*%
X187204999Y-114754999D02*
X190294999Y-114754999D01*
X187205169Y-114754999D02*
G75*
G02*
X188750461Y-109204999I1544827J2560001D01*
G01*
X188749537Y-109204999D02*
G75*
G02*
X190294829Y-114754999I461J-2990000D01*
G01*
X191249999Y-112194998D02*
G75*
G02*
X186249999Y-112194998I-2500000J0D01*
G01*
X186249999Y-112194998D02*
G75*
G02*
X191249999Y-112194998I2500000J0D01*
G01*
%TO.C,LED_IR4*%
X196839741Y-109668439D02*
X193749741Y-109668439D01*
X195295203Y-115218439D02*
G75*
G02*
X193749911Y-109668439I-461J2990000D01*
G01*
X196839571Y-109668439D02*
G75*
G02*
X195294279Y-115218439I-1544827J-2560001D01*
G01*
X197794741Y-112228440D02*
G75*
G02*
X192794741Y-112228440I-2500000J0D01*
G01*
X192794741Y-112228440D02*
G75*
G02*
X197794741Y-112228440I2500000J0D01*
G01*
X100060258Y-115471560D02*
X103150258Y-115471560D01*
X100060428Y-115471560D02*
G75*
G02*
X101605720Y-109921560I1544827J2560001D01*
G01*
X101604796Y-109921560D02*
G75*
G02*
X103150088Y-115471560I461J-2990000D01*
G01*
X104105258Y-112911559D02*
G75*
G02*
X99105258Y-112911559I-2500000J0D01*
G01*
X99105258Y-112911559D02*
G75*
G02*
X104105258Y-112911559I2500000J0D01*
G01*
%TO.C,Q6*%
X109695000Y-110385000D02*
X106605000Y-110385000D01*
X108150462Y-115935000D02*
G75*
G02*
X106605170Y-110385000I-461J2990000D01*
G01*
X109694830Y-110385000D02*
G75*
G02*
X108149538Y-115935000I-1544827J-2560001D01*
G01*
X110650000Y-112945001D02*
G75*
G02*
X105650000Y-112945001I-2500000J0D01*
G01*
X105650000Y-112945001D02*
G75*
G02*
X110650000Y-112945001I2500000J0D01*
G01*
%TO.C,LED_IR4*%
X196839741Y-102118439D02*
X193749741Y-102118439D01*
X195295203Y-107668439D02*
G75*
G02*
X193749911Y-102118439I-461J2990000D01*
G01*
X196839571Y-102118439D02*
G75*
G02*
X195294279Y-107668439I-1544827J-2560001D01*
G01*
X197794741Y-104678440D02*
G75*
G02*
X192794741Y-104678440I-2500000J0D01*
G01*
X192794741Y-104678440D02*
G75*
G02*
X197794741Y-104678440I2500000J0D01*
G01*
%TO.C,Q6*%
X187204999Y-107204999D02*
X190294999Y-107204999D01*
X187205169Y-107204999D02*
G75*
G02*
X188750461Y-101654999I1544827J2560001D01*
G01*
X188749537Y-101654999D02*
G75*
G02*
X190294829Y-107204999I461J-2990000D01*
G01*
X191249999Y-104644998D02*
G75*
G02*
X186249999Y-104644998I-2500000J0D01*
G01*
X186249999Y-104644998D02*
G75*
G02*
X191249999Y-104644998I2500000J0D01*
G01*
%TO.C,LED_IR4*%
X196859819Y-93823517D02*
X193769819Y-93823517D01*
X196859649Y-93823517D02*
G75*
G02*
X195314357Y-99373517I-1544827J-2560001D01*
G01*
X195315281Y-99373517D02*
G75*
G02*
X193769989Y-93823517I-461J2990000D01*
G01*
X197814819Y-96383518D02*
G75*
G02*
X192814819Y-96383518I-2500000J0D01*
G01*
X192814819Y-96383518D02*
G75*
G02*
X197814819Y-96383518I2500000J0D01*
G01*
%TO.C,Q6*%
X187225077Y-98910077D02*
X190315077Y-98910077D01*
X188769615Y-93360077D02*
G75*
G02*
X190314907Y-98910077I461J-2990000D01*
G01*
X187225247Y-98910077D02*
G75*
G02*
X188770539Y-93360077I1544827J2560001D01*
G01*
X191270077Y-96350076D02*
G75*
G02*
X186270077Y-96350076I-2500000J0D01*
G01*
X186270077Y-96350076D02*
G75*
G02*
X191270077Y-96350076I2500000J0D01*
G01*
%TO.C,LED_IR4*%
X100040180Y-107276482D02*
X103130180Y-107276482D01*
X100040350Y-107276482D02*
G75*
G02*
X101585642Y-101726482I1544827J2560001D01*
G01*
X101584718Y-101726482D02*
G75*
G02*
X103130010Y-107276482I461J-2990000D01*
G01*
X104085180Y-104716481D02*
G75*
G02*
X99085180Y-104716481I-2500000J0D01*
G01*
X99085180Y-104716481D02*
G75*
G02*
X104085180Y-104716481I2500000J0D01*
G01*
%TO.C,Q6*%
X109674922Y-102189922D02*
X106584922Y-102189922D01*
X108130384Y-107739922D02*
G75*
G02*
X106585092Y-102189922I-461J2990000D01*
G01*
X109674752Y-102189922D02*
G75*
G02*
X108129460Y-107739922I-1544827J-2560001D01*
G01*
X110629922Y-104749923D02*
G75*
G02*
X105629922Y-104749923I-2500000J0D01*
G01*
X105629922Y-104749923D02*
G75*
G02*
X110629922Y-104749923I2500000J0D01*
G01*
X109600001Y-93720334D02*
X106510001Y-93720334D01*
X109599831Y-93720334D02*
G75*
G02*
X108054539Y-99270334I-1544827J-2560001D01*
G01*
X108055463Y-99270334D02*
G75*
G02*
X106510171Y-93720334I-461J2990000D01*
G01*
X110555001Y-96280335D02*
G75*
G02*
X105555001Y-96280335I-2500000J0D01*
G01*
X105555001Y-96280335D02*
G75*
G02*
X110555001Y-96280335I2500000J0D01*
G01*
%TO.C,LED_IR4*%
X99965259Y-98806894D02*
X103055259Y-98806894D01*
X101509797Y-93256894D02*
G75*
G02*
X103055089Y-98806894I461J-2990000D01*
G01*
X99965429Y-98806894D02*
G75*
G02*
X101510721Y-93256894I1544827J2560001D01*
G01*
X104010259Y-96246893D02*
G75*
G02*
X99010259Y-96246893I-2500000J0D01*
G01*
X99010259Y-96246893D02*
G75*
G02*
X104010259Y-96246893I2500000J0D01*
G01*
%TO.C,J16*%
X175166500Y-120895000D02*
X175166500Y-112957500D01*
X175150000Y-118850000D02*
X165150000Y-118850000D01*
X175150000Y-113950000D02*
X165150000Y-113950000D01*
X175133500Y-112957500D02*
X165133500Y-112957500D01*
X170150000Y-113910000D02*
X170150000Y-112965500D01*
X165133500Y-120895000D02*
X175133500Y-120895000D01*
X165133500Y-112957500D02*
X165133500Y-120895000D01*
X174700000Y-116450000D02*
G75*
G02*
X170700000Y-116450000I-2000000J0D01*
G01*
X170700000Y-116450000D02*
G75*
G02*
X174700000Y-116450000I2000000J0D01*
G01*
X169600000Y-116450000D02*
G75*
G02*
X165600000Y-116450000I-2000000J0D01*
G01*
X165600000Y-116450000D02*
G75*
G02*
X169600000Y-116450000I2000000J0D01*
G01*
%TO.C,J15*%
X131666500Y-120895000D02*
X131666500Y-112957500D01*
X131650000Y-118850000D02*
X121650000Y-118850000D01*
X131650000Y-113950000D02*
X121650000Y-113950000D01*
X131633500Y-112957500D02*
X121633500Y-112957500D01*
X126650000Y-113910000D02*
X126650000Y-112965500D01*
X121633500Y-120895000D02*
X131633500Y-120895000D01*
X121633500Y-112957500D02*
X121633500Y-120895000D01*
X131200000Y-116450000D02*
G75*
G02*
X127200000Y-116450000I-2000000J0D01*
G01*
X127200000Y-116450000D02*
G75*
G02*
X131200000Y-116450000I2000000J0D01*
G01*
X126100000Y-116450000D02*
G75*
G02*
X122100000Y-116450000I-2000000J0D01*
G01*
X122100000Y-116450000D02*
G75*
G02*
X126100000Y-116450000I2000000J0D01*
G01*
%TO.C,J1*%
X149695000Y-133065000D02*
X149355000Y-132595000D01*
X150035000Y-132595000D01*
X149695000Y-133065000D01*
G36*
X149695000Y-133065000D02*
G01*
X149355000Y-132595000D01*
X150035000Y-132595000D01*
X149695000Y-133065000D01*
G37*
X152265000Y-133405000D02*
X152265000Y-135475000D01*
X151395000Y-133405000D02*
X152265000Y-133405000D01*
X144525000Y-133405000D02*
X145395000Y-133405000D01*
X144525000Y-133405000D02*
X144525000Y-135475000D01*
%TO.C,RESET*%
X141425000Y-122275000D02*
X141425000Y-119675000D01*
X140975000Y-122725000D02*
X141425000Y-122275000D01*
X140975000Y-119225000D02*
X141425000Y-119675000D01*
X137675000Y-123725000D02*
X139675000Y-123725000D01*
X137675000Y-118225000D02*
X139675000Y-118225000D01*
X136375000Y-122725000D02*
X135925000Y-122275000D01*
X136375000Y-119225000D02*
X135925000Y-119675000D01*
X135925000Y-122275000D02*
X135925000Y-119675000D01*
%TO.C,START*%
X178170000Y-125920000D02*
X174030000Y-125920000D01*
X178170000Y-125620000D02*
X178170000Y-125920000D01*
X178170000Y-122780000D02*
X178170000Y-123080000D01*
X174030000Y-125920000D02*
X174030000Y-125620000D01*
X174030000Y-123080000D02*
X174030000Y-122780000D01*
X174030000Y-122780000D02*
X178170000Y-122780000D01*
%TO.C,POWER*%
X139360000Y-140910000D02*
X139360000Y-140600000D01*
X139360000Y-140910000D02*
X130540000Y-140910000D01*
X139360000Y-136390000D02*
X139360000Y-136700000D01*
X133450000Y-135690000D02*
X132450000Y-135690000D01*
X132950000Y-136190000D02*
X133450000Y-135690000D01*
X132450000Y-135690000D02*
X132950000Y-136190000D01*
X130540000Y-140910000D02*
X130540000Y-140600000D01*
X130540000Y-136700000D02*
X130540000Y-136390000D01*
X130540000Y-136390000D02*
X139360000Y-136390000D01*
D16*
%TO.C,G\u002A\u002A\u002A*%
G36*
X124200731Y-71759441D02*
G01*
X124200731Y-73579135D01*
X124037930Y-73421341D01*
X123875128Y-73263548D01*
X123887291Y-71616172D01*
X123899454Y-69968796D01*
X124050092Y-69954272D01*
X124200731Y-69939748D01*
X124200731Y-71759441D01*
G37*
G36*
X123603904Y-69955548D02*
G01*
X123659977Y-69976521D01*
X123667384Y-70028676D01*
X123674154Y-70162440D01*
X123680067Y-70366724D01*
X123684905Y-70630439D01*
X123688447Y-70942495D01*
X123690475Y-71291802D01*
X123690877Y-71538351D01*
X123690877Y-73069281D01*
X123528651Y-72912045D01*
X123366424Y-72754809D01*
X123366424Y-71350215D01*
X123366424Y-69945621D01*
X123497750Y-69945621D01*
X123603904Y-69955548D01*
G37*
G36*
X123134672Y-71226412D02*
G01*
X123134672Y-72513076D01*
X122971645Y-72355063D01*
X122808617Y-72197050D01*
X122821006Y-71082923D01*
X122833395Y-69968796D01*
X122984034Y-69954272D01*
X123134672Y-69939748D01*
X123134672Y-71226412D01*
G37*
G36*
X122624818Y-70974422D02*
G01*
X122624818Y-72003222D01*
X122462592Y-71845986D01*
X122300366Y-71688750D01*
X122300366Y-70817186D01*
X122300366Y-69945621D01*
X122462592Y-69945621D01*
X122624818Y-69945621D01*
X122624818Y-70974422D01*
G37*
G36*
X124200731Y-76172119D02*
G01*
X124200731Y-77460326D01*
X121778924Y-77443979D01*
X121242966Y-77440278D01*
X120791290Y-77436767D01*
X120415478Y-77433063D01*
X120107114Y-77428787D01*
X119857779Y-77423559D01*
X119659057Y-77416999D01*
X119502530Y-77408725D01*
X119379782Y-77398358D01*
X119282394Y-77385518D01*
X119201950Y-77369824D01*
X119130032Y-77350896D01*
X119058223Y-77328354D01*
X119032665Y-77319908D01*
X118844577Y-77253413D01*
X118667768Y-77184121D01*
X118544791Y-77129066D01*
X118269896Y-76960271D01*
X117986576Y-76736771D01*
X117727966Y-76486723D01*
X117574548Y-76304569D01*
X117302785Y-75871066D01*
X117115986Y-75414361D01*
X117012416Y-74944060D01*
X116995501Y-74580658D01*
X118939964Y-74580658D01*
X118942943Y-74769320D01*
X118957210Y-74895463D01*
X118990763Y-74989211D01*
X119051601Y-75080685D01*
X119083422Y-75120972D01*
X119213142Y-75255239D01*
X119363157Y-75374536D01*
X119407874Y-75402614D01*
X119465152Y-75433446D01*
X119524159Y-75457471D01*
X119596712Y-75475545D01*
X119694628Y-75488525D01*
X119829724Y-75497267D01*
X120013818Y-75502627D01*
X120258725Y-75505460D01*
X120576263Y-75506624D01*
X120847410Y-75506903D01*
X122105951Y-75507665D01*
X121780598Y-75194800D01*
X121636449Y-75062553D01*
X121513394Y-74961354D01*
X121428413Y-74904567D01*
X121402714Y-74897385D01*
X121376148Y-74890345D01*
X121386553Y-74876465D01*
X121367129Y-74833785D01*
X121291013Y-74737344D01*
X121167879Y-74598107D01*
X121007400Y-74427035D01*
X120831018Y-74246873D01*
X120239112Y-73653650D01*
X119935400Y-73653650D01*
X119700287Y-73668714D01*
X119511273Y-73719725D01*
X119427564Y-73757939D01*
X119267714Y-73863209D01*
X119117775Y-73998727D01*
X119081702Y-74040343D01*
X119009213Y-74139240D01*
X118966755Y-74229500D01*
X118946404Y-74341329D01*
X118940238Y-74504933D01*
X118939964Y-74580658D01*
X116995501Y-74580658D01*
X116990339Y-74469769D01*
X117048018Y-74001094D01*
X117183717Y-73547642D01*
X117395701Y-73119017D01*
X117682232Y-72724827D01*
X118041575Y-72374678D01*
X118321848Y-72169730D01*
X118584389Y-71999463D01*
X117594412Y-71010289D01*
X117347732Y-70761866D01*
X117125015Y-70533829D01*
X116934079Y-70334486D01*
X116782744Y-70172141D01*
X116678830Y-70055103D01*
X116630154Y-69991678D01*
X116627764Y-69983368D01*
X116678369Y-69973610D01*
X116809710Y-69964788D01*
X117009821Y-69957242D01*
X117266739Y-69951312D01*
X117568499Y-69947336D01*
X117903137Y-69945655D01*
X117958317Y-69945621D01*
X119265541Y-69945621D01*
X121733136Y-72414767D01*
X124200731Y-74883912D01*
X124200731Y-75507665D01*
X124200731Y-76172119D01*
G37*
D15*
%TO.C,Q2*%
X125127500Y-59700000D02*
X125127500Y-59050000D01*
X125127500Y-59700000D02*
X125127500Y-60350000D01*
X128247500Y-59700000D02*
X128247500Y-59050000D01*
X128247500Y-59700000D02*
X128247500Y-60350000D01*
X125177500Y-60862500D02*
X124847500Y-61102500D01*
X124847500Y-60622500D01*
X125177500Y-60862500D01*
G36*
X125177500Y-60862500D02*
G01*
X124847500Y-61102500D01*
X124847500Y-60622500D01*
X125177500Y-60862500D01*
G37*
%TO.C,JP1*%
X171295000Y-131145000D02*
X172625000Y-131145000D01*
X171295000Y-132475000D02*
X171295000Y-131145000D01*
X173895000Y-131145000D02*
X176495000Y-131145000D01*
X173895000Y-133805000D02*
X173895000Y-131145000D01*
X173895000Y-133805000D02*
X176495000Y-133805000D01*
X176495000Y-133805000D02*
X176495000Y-131145000D01*
%TO.C,R9*%
X150302064Y-130215000D02*
X149847936Y-130215000D01*
X150302064Y-131685000D02*
X149847936Y-131685000D01*
%TO.C,C10*%
X175861252Y-86215000D02*
X175338748Y-86215000D01*
X175861252Y-87685000D02*
X175338748Y-87685000D01*
%TO.C,R16*%
X171477064Y-125065000D02*
X171022936Y-125065000D01*
X171477064Y-126535000D02*
X171022936Y-126535000D01*
%TO.C,C15*%
X145288748Y-105465000D02*
X145811252Y-105465000D01*
X145288748Y-106935000D02*
X145811252Y-106935000D01*
%TO.C,R1*%
X142690000Y-119289564D02*
X142690000Y-118835436D01*
X144160000Y-119289564D02*
X144160000Y-118835436D01*
%TO.C,R7*%
X110527064Y-124915000D02*
X110072936Y-124915000D01*
X110527064Y-126385000D02*
X110072936Y-126385000D01*
%TO.C,D4*%
X115392846Y-61960268D02*
X115392846Y-63880268D01*
X115392846Y-63880268D02*
X118252846Y-63880268D01*
X118252846Y-61960268D02*
X115392846Y-61960268D01*
%TO.C,C26*%
X170951248Y-122915000D02*
X171473752Y-122915000D01*
X170951248Y-124385000D02*
X171473752Y-124385000D01*
%TO.C,J11*%
X161390000Y-132585000D02*
X161390000Y-133835000D01*
X161390000Y-133835000D02*
X162640000Y-133835000D01*
X161490000Y-131775000D02*
X161490000Y-132075000D01*
X161490000Y-132075000D02*
X161690000Y-132075000D01*
X161590000Y-131775000D02*
X161590000Y-132075000D01*
X161690000Y-125415000D02*
X161690000Y-133535000D01*
X161690000Y-130975000D02*
X162300000Y-130975000D01*
X161690000Y-131775000D02*
X161490000Y-131775000D01*
X161690000Y-133535000D02*
X166410000Y-133535000D01*
X162300000Y-126025000D02*
X162300000Y-127975000D01*
X162300000Y-127975000D02*
X161690000Y-127975000D01*
X162300000Y-130975000D02*
X162300000Y-132925000D01*
X162300000Y-132925000D02*
X165800000Y-132925000D01*
X163000000Y-125415000D02*
X163000000Y-126025000D01*
X163000000Y-133535000D02*
X163000000Y-132925000D01*
X164300000Y-125415000D02*
X164300000Y-126025000D01*
X164300000Y-133535000D02*
X164300000Y-132925000D01*
X165300000Y-128375000D02*
X165800000Y-128375000D01*
X165300000Y-128575000D02*
X165300000Y-128375000D01*
X165300000Y-130375000D02*
X165800000Y-130375000D01*
X165300000Y-130575000D02*
X165300000Y-130375000D01*
X165800000Y-126025000D02*
X162300000Y-126025000D01*
X165800000Y-128475000D02*
X165300000Y-128475000D01*
X165800000Y-128575000D02*
X165300000Y-128575000D01*
X165800000Y-130475000D02*
X165300000Y-130475000D01*
X165800000Y-130575000D02*
X165300000Y-130575000D01*
X165800000Y-132925000D02*
X165800000Y-126025000D01*
X166410000Y-125415000D02*
X161690000Y-125415000D01*
X166410000Y-133535000D02*
X166410000Y-125415000D01*
%TO.C,J14*%
X158015000Y-141235000D02*
X158015000Y-135815000D01*
X166735000Y-135815000D02*
X158015000Y-135815000D01*
X166735000Y-141235000D02*
X158015000Y-141235000D01*
X168435000Y-137115000D02*
X166735000Y-135815000D01*
X168435000Y-139935000D02*
X166735000Y-141235000D01*
X168435000Y-139935000D02*
X168435000Y-137115000D01*
%TO.C,C22*%
X154465000Y-134336252D02*
X154465000Y-133813748D01*
X155935000Y-134336252D02*
X155935000Y-133813748D01*
%TO.C,J2*%
X109912585Y-135857074D02*
X117652585Y-135857074D01*
X109912585Y-138457074D02*
X109912585Y-135857074D01*
X109912585Y-141057074D02*
X109912585Y-139727074D01*
X111242585Y-141057074D02*
X109912585Y-141057074D01*
X112512585Y-138457074D02*
X109912585Y-138457074D01*
X112512585Y-141057074D02*
X112512585Y-138457074D01*
X112512585Y-141057074D02*
X117652585Y-141057074D01*
X117652585Y-141057074D02*
X117652585Y-135857074D01*
%TO.C,C1*%
X144865000Y-119348752D02*
X144865000Y-118826248D01*
X146335000Y-119348752D02*
X146335000Y-118826248D01*
D11*
%TO.C,U4*%
X137295000Y-114300000D02*
X137295000Y-112775000D01*
D15*
%TO.C,C9*%
X145288748Y-103315000D02*
X145811252Y-103315000D01*
X145288748Y-104785000D02*
X145811252Y-104785000D01*
%TO.C,R20*%
X132265000Y-49572936D02*
X132265000Y-50027064D01*
X133735000Y-49572936D02*
X133735000Y-50027064D01*
%TO.C,C2*%
X144711252Y-121452500D02*
X144188748Y-121452500D01*
X144711252Y-122922500D02*
X144188748Y-122922500D01*
%TO.C,D2*%
X109300000Y-124460000D02*
X112160000Y-124460000D01*
X112160000Y-122540000D02*
X109300000Y-122540000D01*
X112160000Y-124460000D02*
X112160000Y-122540000D01*
%TO.C,BZ1*%
X176800000Y-79200000D02*
G75*
G02*
X164600000Y-79200000I-6100000J0D01*
G01*
X164600000Y-79200000D02*
G75*
G02*
X176800000Y-79200000I6100000J0D01*
G01*
D11*
%TO.C,U5*%
X154295000Y-114300000D02*
X154295000Y-112775000D01*
D15*
%TO.C,D8*%
X185040000Y-84590000D02*
X185040000Y-86510000D01*
X185040000Y-86510000D02*
X187900000Y-86510000D01*
X187900000Y-84590000D02*
X185040000Y-84590000D01*
%TO.C,C5*%
X161315000Y-119148752D02*
X161315000Y-118626248D01*
X162785000Y-119148752D02*
X162785000Y-118626248D01*
%TO.C,U2*%
X182165000Y-133315000D02*
X183425000Y-133315000D01*
X182165000Y-137075000D02*
X182165000Y-133315000D01*
X188985000Y-133315000D02*
X187725000Y-133315000D01*
X188985000Y-137075000D02*
X188985000Y-133315000D01*
X182265000Y-138355000D02*
X181935000Y-138595000D01*
X181935000Y-138115000D01*
X182265000Y-138355000D01*
G36*
X182265000Y-138355000D02*
G01*
X181935000Y-138595000D01*
X181935000Y-138115000D01*
X182265000Y-138355000D01*
G37*
%TO.C,C12*%
X175861252Y-88681667D02*
X175338748Y-88681667D01*
X175861252Y-90151667D02*
X175338748Y-90151667D01*
%TO.C,R18*%
X117465000Y-91772936D02*
X117465000Y-92227064D01*
X118935000Y-91772936D02*
X118935000Y-92227064D01*
%TO.C,C16*%
X179965000Y-128911252D02*
X179965000Y-128388748D01*
X181435000Y-128911252D02*
X181435000Y-128388748D01*
%TO.C,D6*%
X158437155Y-47974324D02*
X158437155Y-49894324D01*
X158437155Y-49894324D02*
X161297155Y-49894324D01*
X161297155Y-47974324D02*
X158437155Y-47974324D01*
%TO.C,C14*%
X175165000Y-128911252D02*
X175165000Y-128388748D01*
X176635000Y-128911252D02*
X176635000Y-128388748D01*
%TO.C,Q3*%
X168727500Y-59700000D02*
X168727500Y-59050000D01*
X168727500Y-59700000D02*
X168727500Y-60350000D01*
X171847500Y-59700000D02*
X171847500Y-59050000D01*
X171847500Y-59700000D02*
X171847500Y-60350000D01*
X172127500Y-58777500D02*
X171797500Y-58537500D01*
X172127500Y-58297500D01*
X172127500Y-58777500D01*
G36*
X172127500Y-58777500D02*
G01*
X171797500Y-58537500D01*
X172127500Y-58297500D01*
X172127500Y-58777500D01*
G37*
%TO.C,C13*%
X179965000Y-132838748D02*
X179965000Y-133361252D01*
X181435000Y-132838748D02*
X181435000Y-133361252D01*
%TO.C,J12*%
X138130000Y-94506773D02*
X138130000Y-100526773D01*
X138130000Y-100526773D02*
X158670000Y-100526773D01*
X138710000Y-99926773D02*
X138710000Y-100526773D01*
X139510000Y-94506773D02*
X139510000Y-95506773D01*
X139510000Y-95506773D02*
X139760000Y-96036773D01*
X139510000Y-95506773D02*
X144590000Y-95506773D01*
X139760000Y-94506773D02*
X139760000Y-95506773D01*
X139760000Y-96036773D02*
X144590000Y-96036773D01*
X140310000Y-99926773D02*
X138710000Y-99926773D01*
X140310000Y-100526773D02*
X140310000Y-99926773D01*
X141250000Y-99926773D02*
X141250000Y-100526773D01*
X142850000Y-99926773D02*
X141250000Y-99926773D01*
X142850000Y-100526773D02*
X142850000Y-99926773D01*
X143790000Y-99926773D02*
X143790000Y-100526773D01*
X144590000Y-95506773D02*
X144590000Y-94506773D01*
X144590000Y-96036773D02*
X144590000Y-95506773D01*
X145390000Y-99926773D02*
X143790000Y-99926773D01*
X145390000Y-100526773D02*
X145390000Y-99926773D01*
X146330000Y-99926773D02*
X146330000Y-100526773D01*
X147930000Y-99926773D02*
X146330000Y-99926773D01*
X147930000Y-100526773D02*
X147930000Y-99926773D01*
X148870000Y-99926773D02*
X148870000Y-100526773D01*
X150470000Y-99926773D02*
X148870000Y-99926773D01*
X150470000Y-100526773D02*
X150470000Y-99926773D01*
X151410000Y-99926773D02*
X151410000Y-100526773D01*
X152210000Y-95506773D02*
X152210000Y-94506773D01*
X152210000Y-96036773D02*
X152210000Y-95506773D01*
X153010000Y-99926773D02*
X151410000Y-99926773D01*
X153010000Y-100526773D02*
X153010000Y-99926773D01*
X153950000Y-99926773D02*
X153950000Y-100526773D01*
X155550000Y-99926773D02*
X153950000Y-99926773D01*
X155550000Y-100526773D02*
X155550000Y-99926773D01*
X156490000Y-99926773D02*
X156490000Y-100526773D01*
X157040000Y-94506773D02*
X157040000Y-95506773D01*
X157040000Y-96036773D02*
X152210000Y-96036773D01*
X157290000Y-94506773D02*
X157290000Y-95506773D01*
X157290000Y-95506773D02*
X152210000Y-95506773D01*
X157290000Y-95506773D02*
X157040000Y-96036773D01*
X158090000Y-99926773D02*
X156490000Y-99926773D01*
X158090000Y-100526773D02*
X158090000Y-99926773D01*
X158670000Y-94506773D02*
X138130000Y-94506773D01*
X158670000Y-100526773D02*
X158670000Y-94506773D01*
X158960000Y-99496773D02*
X158960000Y-95496773D01*
%TO.C,D1*%
X167190000Y-128100000D02*
X167190000Y-130960000D01*
X167190000Y-130960000D02*
X169110000Y-130960000D01*
X169110000Y-130960000D02*
X169110000Y-128100000D01*
%TO.C,Q1*%
X172980000Y-135072500D02*
X172980000Y-135342500D01*
X172980000Y-141972500D02*
X172980000Y-141702500D01*
X179400000Y-135072500D02*
X172980000Y-135072500D01*
X179400000Y-141972500D02*
X172980000Y-141972500D01*
X171250000Y-135382500D02*
X170910000Y-134912500D01*
X171590000Y-134912500D01*
X171250000Y-135382500D01*
G36*
X171250000Y-135382500D02*
G01*
X170910000Y-134912500D01*
X171590000Y-134912500D01*
X171250000Y-135382500D01*
G37*
%TO.C,R2*%
X107415000Y-136672936D02*
X107415000Y-137127064D01*
X108885000Y-136672936D02*
X108885000Y-137127064D01*
%TO.C,R5*%
X158802064Y-133665000D02*
X158347936Y-133665000D01*
X158802064Y-135135000D02*
X158347936Y-135135000D01*
%TO.C,D3*%
X108040000Y-84592500D02*
X108040000Y-86512500D01*
X108040000Y-86512500D02*
X110900000Y-86512500D01*
X110900000Y-84592500D02*
X108040000Y-84592500D01*
%TO.C,R22*%
X163165000Y-49672936D02*
X163165000Y-50127064D01*
X164635000Y-49672936D02*
X164635000Y-50127064D01*
%TO.C,R4*%
X167415000Y-124672936D02*
X167415000Y-125127064D01*
X168885000Y-124672936D02*
X168885000Y-125127064D01*
%TO.C,C23*%
X154286252Y-119265000D02*
X153763748Y-119265000D01*
X154286252Y-120735000D02*
X153763748Y-120735000D01*
%TO.C,B3*%
X146330000Y-48980000D02*
X150470000Y-48980000D01*
X146330000Y-49280000D02*
X146330000Y-48980000D01*
X146330000Y-52120000D02*
X146330000Y-51820000D01*
X150470000Y-48980000D02*
X150470000Y-49280000D01*
X150470000Y-51820000D02*
X150470000Y-52120000D01*
X150470000Y-52120000D02*
X146330000Y-52120000D01*
%TO.C,R23*%
X179777064Y-64665000D02*
X179322936Y-64665000D01*
X179777064Y-66135000D02*
X179322936Y-66135000D01*
%TO.C,R8*%
X146227064Y-130215000D02*
X145772936Y-130215000D01*
X146227064Y-131685000D02*
X145772936Y-131685000D01*
%TO.C,U1*%
X114190000Y-126165000D02*
X114190000Y-126615000D01*
X114190000Y-133385000D02*
X114190000Y-132935000D01*
X114640000Y-126165000D02*
X114190000Y-126165000D01*
X114640000Y-133385000D02*
X114190000Y-133385000D01*
X120960000Y-126165000D02*
X121410000Y-126165000D01*
X120960000Y-133385000D02*
X121410000Y-133385000D01*
X121410000Y-126165000D02*
X121410000Y-126615000D01*
X121410000Y-133385000D02*
X121410000Y-132935000D01*
X113600000Y-126615000D02*
X113260000Y-126145000D01*
X113940000Y-126145000D01*
X113600000Y-126615000D01*
G36*
X113600000Y-126615000D02*
G01*
X113260000Y-126145000D01*
X113940000Y-126145000D01*
X113600000Y-126615000D01*
G37*
%TO.C,J10*%
X130390000Y-125390000D02*
X130390000Y-133510000D01*
X130390000Y-133510000D02*
X135110000Y-133510000D01*
X131000000Y-126000000D02*
X131000000Y-132900000D01*
X131000000Y-128350000D02*
X131500000Y-128350000D01*
X131000000Y-128450000D02*
X131500000Y-128450000D01*
X131000000Y-130350000D02*
X131500000Y-130350000D01*
X131000000Y-130450000D02*
X131500000Y-130450000D01*
X131000000Y-132900000D02*
X134500000Y-132900000D01*
X131500000Y-128350000D02*
X131500000Y-128550000D01*
X131500000Y-128550000D02*
X131000000Y-128550000D01*
X131500000Y-130350000D02*
X131500000Y-130550000D01*
X131500000Y-130550000D02*
X131000000Y-130550000D01*
X132500000Y-125390000D02*
X132500000Y-126000000D01*
X132500000Y-133510000D02*
X132500000Y-132900000D01*
X133800000Y-125390000D02*
X133800000Y-126000000D01*
X133800000Y-133510000D02*
X133800000Y-132900000D01*
X134500000Y-126000000D02*
X131000000Y-126000000D01*
X134500000Y-127950000D02*
X134500000Y-126000000D01*
X134500000Y-130950000D02*
X135110000Y-130950000D01*
X134500000Y-132900000D02*
X134500000Y-130950000D01*
X135110000Y-125390000D02*
X130390000Y-125390000D01*
X135110000Y-127150000D02*
X135310000Y-127150000D01*
X135110000Y-127950000D02*
X134500000Y-127950000D01*
X135110000Y-133510000D02*
X135110000Y-125390000D01*
X135210000Y-127150000D02*
X135210000Y-126850000D01*
X135310000Y-126850000D02*
X135110000Y-126850000D01*
X135310000Y-127150000D02*
X135310000Y-126850000D01*
X135410000Y-125090000D02*
X134160000Y-125090000D01*
X135410000Y-126340000D02*
X135410000Y-125090000D01*
%TO.C,C3*%
X139238748Y-127115000D02*
X139761252Y-127115000D01*
X139238748Y-128585000D02*
X139761252Y-128585000D01*
%TO.C,J13*%
X125889998Y-85659998D02*
X125889998Y-86909998D01*
X125889998Y-86909998D02*
X127139998Y-86909998D01*
X125989998Y-84849998D02*
X125989998Y-85149998D01*
X125989998Y-85149998D02*
X126189998Y-85149998D01*
X126089998Y-84849998D02*
X126089998Y-85149998D01*
X126189998Y-78489998D02*
X126189998Y-86609998D01*
X126189998Y-84049998D02*
X126799998Y-84049998D01*
X126189998Y-84849998D02*
X125989998Y-84849998D01*
X126189998Y-86609998D02*
X130909998Y-86609998D01*
X126799998Y-79099998D02*
X126799998Y-81049998D01*
X126799998Y-81049998D02*
X126189998Y-81049998D01*
X126799998Y-84049998D02*
X126799998Y-85999998D01*
X126799998Y-85999998D02*
X130299998Y-85999998D01*
X127499998Y-78489998D02*
X127499998Y-79099998D01*
X127499998Y-86609998D02*
X127499998Y-85999998D01*
X128799998Y-78489998D02*
X128799998Y-79099998D01*
X128799998Y-86609998D02*
X128799998Y-85999998D01*
X129799998Y-81449998D02*
X130299998Y-81449998D01*
X129799998Y-81649998D02*
X129799998Y-81449998D01*
X129799998Y-83449998D02*
X130299998Y-83449998D01*
X129799998Y-83649998D02*
X129799998Y-83449998D01*
X130299998Y-79099998D02*
X126799998Y-79099998D01*
X130299998Y-81549998D02*
X129799998Y-81549998D01*
X130299998Y-81649998D02*
X129799998Y-81649998D01*
X130299998Y-83549998D02*
X129799998Y-83549998D01*
X130299998Y-83649998D02*
X129799998Y-83649998D01*
X130299998Y-85999998D02*
X130299998Y-79099998D01*
X130909998Y-78489998D02*
X126189998Y-78489998D01*
X130909998Y-86609998D02*
X130909998Y-78489998D01*
%TO.C,R6*%
X158802064Y-131640000D02*
X158347936Y-131640000D01*
X158802064Y-133110000D02*
X158347936Y-133110000D01*
%TO.C,R21*%
X173215000Y-59927064D02*
X173215000Y-59472936D01*
X174685000Y-59927064D02*
X174685000Y-59472936D01*
%TO.C,D7*%
X177687155Y-61960268D02*
X177687155Y-63880268D01*
X177687155Y-63880268D02*
X180547155Y-63880268D01*
X180547155Y-61960268D02*
X177687155Y-61960268D01*
%TO.C,C24*%
X154286252Y-121440000D02*
X153763748Y-121440000D01*
X154286252Y-122910000D02*
X153763748Y-122910000D01*
%TO.C,R3*%
X139752064Y-125015000D02*
X139297936Y-125015000D01*
X139752064Y-126485000D02*
X139297936Y-126485000D01*
%TO.C,R19*%
X117477064Y-65065000D02*
X117022936Y-65065000D01*
X117477064Y-66535000D02*
X117022936Y-66535000D01*
%TO.C,D5*%
X135502846Y-49894324D02*
X138362846Y-49894324D01*
X138362846Y-47974324D02*
X135502846Y-47974324D01*
X138362846Y-49894324D02*
X138362846Y-47974324D01*
%TO.C,B1*%
X146330000Y-57180000D02*
X150470000Y-57180000D01*
X146330000Y-57480000D02*
X146330000Y-57180000D01*
X146330000Y-60320000D02*
X146330000Y-60020000D01*
X150470000Y-57180000D02*
X150470000Y-57480000D01*
X150470000Y-60020000D02*
X150470000Y-60320000D01*
X150470000Y-60320000D02*
X146330000Y-60320000D01*
%TO.C,R17*%
X122615000Y-62027064D02*
X122615000Y-61572936D01*
X124085000Y-62027064D02*
X124085000Y-61572936D01*
%TO.C,C11*%
X175861252Y-93615000D02*
X175338748Y-93615000D01*
X175861252Y-95085000D02*
X175338748Y-95085000D01*
%TO.C,C7*%
X175861252Y-91148333D02*
X175338748Y-91148333D01*
X175861252Y-92618333D02*
X175338748Y-92618333D01*
%TO.C,B2*%
X146330000Y-53080000D02*
X150470000Y-53080000D01*
X146330000Y-53380000D02*
X146330000Y-53080000D01*
X146330000Y-56220000D02*
X146330000Y-55920000D01*
X150470000Y-53080000D02*
X150470000Y-53380000D01*
X150470000Y-55920000D02*
X150470000Y-56220000D01*
X150470000Y-56220000D02*
X146330000Y-56220000D01*
%TO.C,R10*%
X154377064Y-130215000D02*
X153922936Y-130215000D01*
X154377064Y-131685000D02*
X153922936Y-131685000D01*
%TO.C,U3*%
X182090000Y-123225000D02*
X182090000Y-126985000D01*
X182090000Y-126985000D02*
X183350000Y-126985000D01*
X188910000Y-123225000D02*
X188910000Y-126985000D01*
X188910000Y-126985000D02*
X187650000Y-126985000D01*
X189140000Y-122185000D02*
X188810000Y-121945000D01*
X189140000Y-121705000D01*
X189140000Y-122185000D01*
G36*
X189140000Y-122185000D02*
G01*
X188810000Y-121945000D01*
X189140000Y-121705000D01*
X189140000Y-122185000D01*
G37*
%TO.C,R15*%
X151815000Y-57522936D02*
X151815000Y-57977064D01*
X153285000Y-57522936D02*
X153285000Y-57977064D01*
%TO.C,R24*%
X187127064Y-76215000D02*
X186672936Y-76215000D01*
X187127064Y-77685000D02*
X186672936Y-77685000D01*
%TO.C,Y1*%
X145260000Y-123600000D02*
X151510000Y-123600000D01*
X145260000Y-128650000D02*
X151510000Y-128650000D01*
X145260000Y-128650000D02*
G75*
G02*
X145260000Y-123600000I0J2525000D01*
G01*
X151510000Y-123600000D02*
G75*
G02*
X151510000Y-128650000I0J-2525000D01*
G01*
%TO.C,J3*%
X118642044Y-135471421D02*
X118642044Y-141491421D01*
X118642044Y-141491421D02*
X129022044Y-141491421D01*
X119222044Y-140891421D02*
X119222044Y-141491421D01*
X120022044Y-136471421D02*
X120022044Y-135471421D01*
X120272044Y-135471421D02*
X120272044Y-136471421D01*
X120272044Y-137001421D02*
X120022044Y-136471421D01*
X120822044Y-140891421D02*
X119222044Y-140891421D01*
X120822044Y-141491421D02*
X120822044Y-140891421D01*
X121762044Y-140891421D02*
X121762044Y-141491421D01*
X123362044Y-140891421D02*
X121762044Y-140891421D01*
X123362044Y-141491421D02*
X123362044Y-140891421D01*
X124302044Y-140891421D02*
X124302044Y-141491421D01*
X125902044Y-140891421D02*
X124302044Y-140891421D01*
X125902044Y-141491421D02*
X125902044Y-140891421D01*
X126842044Y-140891421D02*
X126842044Y-141491421D01*
X127392044Y-135471421D02*
X127392044Y-136471421D01*
X127392044Y-137001421D02*
X120272044Y-137001421D01*
X127642044Y-135471421D02*
X127642044Y-136471421D01*
X127642044Y-136471421D02*
X120022044Y-136471421D01*
X127642044Y-136471421D02*
X127392044Y-137001421D01*
X128442044Y-140891421D02*
X126842044Y-140891421D01*
X128442044Y-141491421D02*
X128442044Y-140891421D01*
X129022044Y-135471421D02*
X118642044Y-135471421D01*
X129022044Y-141491421D02*
X129022044Y-135471421D01*
X129312044Y-140461421D02*
X129312044Y-136461421D01*
%TO.C,C17*%
X177565000Y-128911252D02*
X177565000Y-128388748D01*
X179035000Y-128911252D02*
X179035000Y-128388748D01*
%TO.C,Y2*%
X149800000Y-119450000D02*
G75*
G02*
X149800000Y-122850000I0J-1700000D01*
G01*
X149800000Y-122850000D02*
G75*
G02*
X149800000Y-119450000I0J1700000D01*
G01*
%TD*%
M02*
