%TF.GenerationSoftware,KiCad,Pcbnew,9.0.5*%
%TF.CreationDate,2025-10-14T23:48:04-03:00*%
%TF.ProjectId,RvMeg_V2,52764d65-675f-4563-922e-6b696361645f,V2.0*%
%TF.SameCoordinates,Original*%
%TF.FileFunction,Soldermask,Bot*%
%TF.FilePolarity,Negative*%
%FSLAX46Y46*%
G04 Gerber Fmt 4.6, Leading zero omitted, Abs format (unit mm)*
G04 Created by KiCad (PCBNEW 9.0.5) date 2025-10-14 23:48:04*
%MOMM*%
%LPD*%
G01*
G04 APERTURE LIST*
G04 Aperture macros list*
%AMRoundRect*
0 Rectangle with rounded corners*
0 $1 Rounding radius*
0 $2 $3 $4 $5 $6 $7 $8 $9 X,Y pos of 4 corners*
0 Add a 4 corners polygon primitive as box body*
4,1,4,$2,$3,$4,$5,$6,$7,$8,$9,$2,$3,0*
0 Add four circle primitives for the rounded corners*
1,1,$1+$1,$2,$3*
1,1,$1+$1,$4,$5*
1,1,$1+$1,$6,$7*
1,1,$1+$1,$8,$9*
0 Add four rect primitives between the rounded corners*
20,1,$1+$1,$2,$3,$4,$5,0*
20,1,$1+$1,$4,$5,$6,$7,0*
20,1,$1+$1,$6,$7,$8,$9,0*
20,1,$1+$1,$8,$9,$2,$3,0*%
G04 Aperture macros list end*
%ADD10RoundRect,0.250000X-0.450000X0.350000X-0.450000X-0.350000X0.450000X-0.350000X0.450000X0.350000X0*%
%ADD11RoundRect,0.250000X-0.350000X-0.450000X0.350000X-0.450000X0.350000X0.450000X-0.350000X0.450000X0*%
%ADD12RoundRect,0.155000X0.155000X-0.212500X0.155000X0.212500X-0.155000X0.212500X-0.155000X-0.212500X0*%
%ADD13RoundRect,0.160000X0.160000X-0.197500X0.160000X0.197500X-0.160000X0.197500X-0.160000X-0.197500X0*%
%ADD14RoundRect,0.150000X-0.587500X-0.150000X0.587500X-0.150000X0.587500X0.150000X-0.587500X0.150000X0*%
%ADD15C,0.500000*%
%ADD16RoundRect,0.233333X-1.266667X-0.466667X1.266667X-0.466667X1.266667X0.466667X-1.266667X0.466667X0*%
%ADD17RoundRect,0.233333X-1.066667X-0.466667X1.066667X-0.466667X1.066667X0.466667X-1.066667X0.466667X0*%
%ADD18R,1.800000X1.800000*%
%ADD19C,1.800000*%
%ADD20C,0.700000*%
%ADD21C,4.400000*%
%ADD22R,1.700000X1.700000*%
%ADD23O,1.700000X1.700000*%
%ADD24C,2.500000*%
%ADD25C,1.750000*%
%ADD26RoundRect,0.250000X0.625000X-0.350000X0.625000X0.350000X-0.625000X0.350000X-0.625000X-0.350000X0*%
%ADD27O,1.750000X1.200000*%
%ADD28RoundRect,0.750000X0.750000X0.750000X-0.750000X0.750000X-0.750000X-0.750000X0.750000X-0.750000X0*%
%ADD29C,3.000000*%
%ADD30RoundRect,0.233333X1.266667X0.466667X-1.266667X0.466667X-1.266667X-0.466667X1.266667X-0.466667X0*%
%ADD31RoundRect,0.233333X1.066667X0.466667X-1.066667X0.466667X-1.066667X-0.466667X1.066667X-0.466667X0*%
%ADD32R,2.000000X2.000000*%
%ADD33C,2.000000*%
%ADD34RoundRect,0.250000X0.620000X0.845000X-0.620000X0.845000X-0.620000X-0.845000X0.620000X-0.845000X0*%
%ADD35O,1.740000X2.190000*%
%ADD36O,1.000000X1.900000*%
%ADD37O,1.050000X1.250000*%
%ADD38RoundRect,0.250000X-0.625000X0.350000X-0.625000X-0.350000X0.625000X-0.350000X0.625000X0.350000X0*%
%ADD39C,1.500000*%
%ADD40C,1.000000*%
%ADD41RoundRect,0.155000X-0.155000X0.212500X-0.155000X-0.212500X0.155000X-0.212500X0.155000X0.212500X0*%
%ADD42RoundRect,0.250000X0.350000X0.450000X-0.350000X0.450000X-0.350000X-0.450000X0.350000X-0.450000X0*%
%ADD43RoundRect,0.250000X0.450000X-0.350000X0.450000X0.350000X-0.450000X0.350000X-0.450000X-0.350000X0*%
%ADD44RoundRect,0.160000X-0.160000X0.197500X-0.160000X-0.197500X0.160000X-0.197500X0.160000X0.197500X0*%
%ADD45RoundRect,0.250000X0.475000X-0.337500X0.475000X0.337500X-0.475000X0.337500X-0.475000X-0.337500X0*%
%ADD46RoundRect,0.150000X0.587500X0.150000X-0.587500X0.150000X-0.587500X-0.150000X0.587500X-0.150000X0*%
%ADD47RoundRect,0.197500X-0.632500X0.197500X-0.632500X-0.197500X0.632500X-0.197500X0.632500X0.197500X0*%
%ADD48O,2.200000X3.500000*%
%ADD49R,1.500000X2.500000*%
%ADD50O,1.500000X2.500000*%
G04 APERTURE END LIST*
D10*
%TO.C,R11*%
X117550000Y-139700000D03*
X117550000Y-141700000D03*
%TD*%
%TO.C,R2*%
X117550000Y-135900000D03*
X117550000Y-137900000D03*
%TD*%
D11*
%TO.C,RS10*%
X191049998Y-110574999D03*
X193049998Y-110574999D03*
%TD*%
D12*
%TO.C,CS8*%
X186175000Y-111542500D03*
X186175000Y-110407500D03*
%TD*%
D13*
%TO.C,RS12*%
X186650000Y-114122500D03*
X186650000Y-112927500D03*
%TD*%
D14*
%TO.C,MOSFET-N4*%
X191062500Y-114175000D03*
X191062500Y-112275000D03*
X192937501Y-113225000D03*
%TD*%
D10*
%TO.C,RS8*%
X197325000Y-111283438D03*
X197325000Y-113283438D03*
%TD*%
D12*
%TO.C,CS7*%
X187100000Y-111542499D03*
X187100000Y-110407499D03*
%TD*%
D15*
%TO.C,CONN_SEN_FRONT_I1*%
X185180000Y-109180000D03*
X183380000Y-109180000D03*
D16*
X184280000Y-109516000D03*
D15*
X185180000Y-109880000D03*
X183380001Y-109880000D03*
X183180000Y-111025332D03*
X184980000Y-111025333D03*
D17*
X184080000Y-111379000D03*
D15*
X184980000Y-111725332D03*
X183180000Y-111725332D03*
X184980000Y-112916999D03*
X183180000Y-112916999D03*
D17*
X184080000Y-113242000D03*
D15*
X184980000Y-113616999D03*
X183180000Y-113616999D03*
X185180000Y-114755000D03*
X183380000Y-114755000D03*
D16*
X184280000Y-115105000D03*
D15*
X185180000Y-115455000D03*
X183380000Y-115455000D03*
%TD*%
D18*
%TO.C,Q6*%
X188774999Y-113514999D03*
D19*
X188774999Y-110974999D03*
%TD*%
D18*
%TO.C,LED_IR4*%
X195319741Y-111008439D03*
D19*
X195319741Y-113548439D03*
%TD*%
D18*
%TO.C,LED_IR4*%
X195294741Y-103408439D03*
D19*
X195294741Y-105948439D03*
%TD*%
D20*
%TO.C,H2*%
X125000000Y-104075000D03*
X125483274Y-102908274D03*
X125483274Y-105241726D03*
X126650000Y-102425000D03*
D21*
X126650000Y-104075000D03*
D20*
X126650000Y-105725000D03*
X127816726Y-102908274D03*
X127816726Y-105241726D03*
X128300000Y-104075000D03*
%TD*%
D18*
%TO.C,Q6*%
X108150000Y-111675000D03*
D19*
X108150000Y-114215000D03*
%TD*%
D18*
%TO.C,LED_IR4*%
X101585180Y-105986482D03*
D19*
X101585180Y-103446482D03*
%TD*%
D22*
%TO.C,JP1*%
X172625000Y-132475000D03*
D23*
X175165000Y-132475000D03*
%TD*%
D18*
%TO.C,Q6*%
X188749999Y-105914999D03*
D19*
X188749999Y-103374999D03*
%TD*%
D20*
%TO.C,H4*%
X168450000Y-104075000D03*
X168933274Y-102908274D03*
X168933274Y-105241726D03*
X170100000Y-102425000D03*
D21*
X170100000Y-104075000D03*
D20*
X170100000Y-105725000D03*
X171266726Y-102908274D03*
X171266726Y-105241726D03*
X171750000Y-104075000D03*
%TD*%
D24*
%TO.C,J15*%
X129190000Y-116450000D03*
D25*
X127920000Y-117720000D03*
X125380000Y-117720000D03*
D24*
X124110000Y-116450000D03*
%TD*%
D26*
%TO.C,J11*%
X163500000Y-131475000D03*
D27*
X163500000Y-129475000D03*
X163500000Y-127475000D03*
%TD*%
D28*
%TO.C,J14*%
X165725000Y-138525000D03*
D29*
X160725000Y-138525000D03*
%TD*%
D20*
%TO.C,H3*%
X168475000Y-91675000D03*
X168958274Y-90508274D03*
X168958274Y-92841726D03*
X170125000Y-90025000D03*
D21*
X170125000Y-91675000D03*
D20*
X170125000Y-93325000D03*
X171291726Y-90508274D03*
X171291726Y-92841726D03*
X171775000Y-91675000D03*
%TD*%
D24*
%TO.C,J16*%
X172690000Y-116450000D03*
D25*
X171420000Y-117720000D03*
X168880000Y-117720000D03*
D24*
X167610000Y-116450000D03*
%TD*%
D15*
%TO.C,CONN_SEN_FRONT_I1*%
X111650000Y-99345333D03*
X113450000Y-99345333D03*
D30*
X112550000Y-99009333D03*
D15*
X111650000Y-98645333D03*
X113449999Y-98645333D03*
X113650000Y-97500001D03*
X111850000Y-97500000D03*
D31*
X112750000Y-97146333D03*
D15*
X111850000Y-96800001D03*
X113650000Y-96800001D03*
X111850000Y-95608334D03*
X113650000Y-95608334D03*
D31*
X112750000Y-95283333D03*
D15*
X111850000Y-94908334D03*
X113650000Y-94908334D03*
X111650000Y-93770333D03*
X113450000Y-93770333D03*
D30*
X112550000Y-93420333D03*
D15*
X111650000Y-93070333D03*
X113450000Y-93070333D03*
%TD*%
D32*
%TO.C,BZ1*%
X170700000Y-83000000D03*
D33*
X170700000Y-75400000D03*
%TD*%
D20*
%TO.C,J4*%
X127490000Y-65624996D03*
X126289999Y-65624998D03*
X130810000Y-65624999D03*
X129609999Y-65625000D03*
X126289999Y-67558328D03*
X127490000Y-67558330D03*
X130810000Y-67558331D03*
X129609999Y-67558331D03*
X127490000Y-69491663D03*
X126289999Y-69491663D03*
X130810000Y-69491664D03*
X129609998Y-69491664D03*
X129609999Y-71424998D03*
X127489999Y-71424998D03*
X126289998Y-71424998D03*
X130809999Y-71424999D03*
%TD*%
D34*
%TO.C,J12*%
X157290000Y-97496773D03*
D35*
X154750000Y-97496773D03*
X152210000Y-97496773D03*
X149670000Y-97496773D03*
X147130000Y-97496773D03*
X144590000Y-97496773D03*
X142050000Y-97496773D03*
X139510000Y-97496773D03*
%TD*%
D20*
%TO.C,J9*%
X169284999Y-71150003D03*
X170485000Y-71150001D03*
X165964999Y-71150000D03*
X167165000Y-71149999D03*
X170485000Y-69216671D03*
X169284999Y-69216669D03*
X165964999Y-69216668D03*
X167165000Y-69216668D03*
X169284999Y-67283336D03*
X170485000Y-67283336D03*
X165964999Y-67283335D03*
X167165001Y-67283335D03*
X167165000Y-65350001D03*
X169285000Y-65350001D03*
X170485001Y-65350001D03*
X165965000Y-65350000D03*
%TD*%
D18*
%TO.C,Q6*%
X108129922Y-103479922D03*
D19*
X108129922Y-106019922D03*
%TD*%
D18*
%TO.C,Q6*%
X188770077Y-97620077D03*
D19*
X188770077Y-95080077D03*
%TD*%
D36*
%TO.C,J1*%
X144220000Y-136675000D03*
D37*
X146170000Y-133675000D03*
X150620000Y-133675000D03*
D36*
X152570000Y-136675000D03*
%TD*%
D20*
%TO.C,J6*%
X139595013Y-51555920D03*
X138746483Y-50707393D03*
X141942606Y-53903517D03*
X141094076Y-53054989D03*
X137379412Y-52074464D03*
X138227940Y-52922994D03*
X140575534Y-55270589D03*
X139727005Y-54422060D03*
X136860867Y-54290067D03*
X136012338Y-53441538D03*
X139208461Y-56637662D03*
X138359931Y-55789132D03*
X136992858Y-57156207D03*
X135493792Y-55657140D03*
X134645263Y-54808612D03*
X137841386Y-58004736D03*
%TD*%
D38*
%TO.C,J10*%
X133300000Y-127450000D03*
D27*
X133300000Y-129450000D03*
X133300000Y-131450000D03*
%TD*%
D18*
%TO.C,LED_IR4*%
X101605258Y-114181560D03*
D19*
X101605258Y-111641560D03*
%TD*%
D20*
%TO.C,H1*%
X124975000Y-91700000D03*
X125458274Y-90533274D03*
X125458274Y-92866726D03*
X126625000Y-90050000D03*
D21*
X126625000Y-91700000D03*
D20*
X126625000Y-93350000D03*
X127791726Y-90533274D03*
X127791726Y-92866726D03*
X128275000Y-91700000D03*
%TD*%
D18*
%TO.C,Q6*%
X108055001Y-95010334D03*
D19*
X108055001Y-97550334D03*
%TD*%
D20*
%TO.C,J8*%
X183750003Y-81515002D03*
X183750001Y-80315001D03*
X183750000Y-84835002D03*
X183749999Y-83635001D03*
X181816671Y-80315001D03*
X181816669Y-81515002D03*
X181816668Y-84835002D03*
X181816668Y-83635001D03*
X179883336Y-81515002D03*
X179883336Y-80315001D03*
X179883335Y-84835002D03*
X179883335Y-83635000D03*
X177950001Y-83635001D03*
X177950001Y-81515001D03*
X177950001Y-80315000D03*
X177950000Y-84835001D03*
%TD*%
D26*
%TO.C,J13*%
X127999998Y-84549998D03*
D27*
X127999998Y-82549998D03*
X127999998Y-80549998D03*
%TD*%
D15*
%TO.C,CONN_SEN_FRONT_I1*%
X185155000Y-101580000D03*
X183355000Y-101580000D03*
D16*
X184255000Y-101916000D03*
D15*
X185155000Y-102280000D03*
X183355001Y-102280000D03*
X183155000Y-103425332D03*
X184955000Y-103425333D03*
D17*
X184055000Y-103779000D03*
D15*
X184955000Y-104125332D03*
X183155000Y-104125332D03*
X184955000Y-105316999D03*
X183155000Y-105316999D03*
D17*
X184055000Y-105642000D03*
D15*
X184955000Y-106016999D03*
X183155000Y-106016999D03*
X185155000Y-107155000D03*
X183355000Y-107155000D03*
D16*
X184255000Y-107505000D03*
D15*
X185155000Y-107855000D03*
X183355000Y-107855000D03*
%TD*%
%TO.C,CONN_SEN_FRONT_I1*%
X111724921Y-107814921D03*
X113524921Y-107814921D03*
D30*
X112624921Y-107478921D03*
D15*
X111724921Y-107114921D03*
X113524920Y-107114921D03*
X113724921Y-105969589D03*
X111924921Y-105969588D03*
D31*
X112824921Y-105615921D03*
D15*
X111924921Y-105269589D03*
X113724921Y-105269589D03*
X111924921Y-104077922D03*
X113724921Y-104077922D03*
D31*
X112824921Y-103752921D03*
D15*
X111924921Y-103377922D03*
X113724921Y-103377922D03*
X111724921Y-102239921D03*
X113524921Y-102239921D03*
D30*
X112624921Y-101889921D03*
D15*
X111724921Y-101539921D03*
X113524921Y-101539921D03*
%TD*%
D18*
%TO.C,LED_IR4*%
X101510259Y-97516894D03*
D19*
X101510259Y-94976894D03*
%TD*%
D15*
%TO.C,CONN_SEN_FRONT_I1*%
X111744999Y-116009999D03*
X113544999Y-116009999D03*
D30*
X112644999Y-115673999D03*
D15*
X111744999Y-115309999D03*
X113544998Y-115309999D03*
X113744999Y-114164667D03*
X111944999Y-114164666D03*
D31*
X112844999Y-113810999D03*
D15*
X111944999Y-113464667D03*
X113744999Y-113464667D03*
X111944999Y-112273000D03*
X113744999Y-112273000D03*
D31*
X112844999Y-111947999D03*
D15*
X111944999Y-111573000D03*
X113744999Y-111573000D03*
X111744999Y-110434999D03*
X113544999Y-110434999D03*
D30*
X112644999Y-110084999D03*
D15*
X111744999Y-109734999D03*
X113544999Y-109734999D03*
%TD*%
%TO.C,CONN_SEN_FRONT_I1*%
X185175078Y-93285078D03*
X183375078Y-93285078D03*
D16*
X184275078Y-93621078D03*
D15*
X185175078Y-93985078D03*
X183375079Y-93985078D03*
X183175078Y-95130410D03*
X184975078Y-95130411D03*
D17*
X184075078Y-95484078D03*
D15*
X184975078Y-95830410D03*
X183175078Y-95830410D03*
X184975078Y-97022077D03*
X183175078Y-97022077D03*
D17*
X184075078Y-97347078D03*
D15*
X184975078Y-97722077D03*
X183175078Y-97722077D03*
X185175078Y-98860078D03*
X183375078Y-98860078D03*
D16*
X184275078Y-99210078D03*
D15*
X185175078Y-99560078D03*
X183375078Y-99560078D03*
%TD*%
D20*
%TO.C,J7*%
X161194001Y-55621785D03*
X162042528Y-54773255D03*
X158846404Y-57969378D03*
X159694932Y-57120848D03*
X160675457Y-53406184D03*
X159826927Y-54254712D03*
X157479332Y-56602306D03*
X158327861Y-55753777D03*
X158459854Y-52887639D03*
X159308383Y-52039110D03*
X156112259Y-55235233D03*
X156960789Y-54386703D03*
X155593714Y-53019630D03*
X157092781Y-51520564D03*
X157941309Y-50672035D03*
X154745185Y-53868158D03*
%TD*%
D39*
%TO.C,Y1*%
X145945000Y-126125000D03*
X150825000Y-126125000D03*
%TD*%
D34*
%TO.C,J3*%
X127290000Y-138600000D03*
D35*
X124750000Y-138600000D03*
X122210000Y-138600000D03*
X119670000Y-138600000D03*
%TD*%
D18*
%TO.C,LED_IR4*%
X195314819Y-95113517D03*
D19*
X195314819Y-97653517D03*
%TD*%
D40*
%TO.C,Y2*%
X149800000Y-120200000D03*
X149800000Y-122100000D03*
%TD*%
D20*
%TO.C,J5*%
X118675004Y-81490000D03*
X118675002Y-80289999D03*
X118675001Y-84810000D03*
X118675000Y-83609999D03*
X116741672Y-80289999D03*
X116741670Y-81490000D03*
X116741669Y-84810000D03*
X116741669Y-83609999D03*
X114808337Y-81490000D03*
X114808337Y-80289999D03*
X114808336Y-84810000D03*
X114808336Y-83609998D03*
X112875002Y-83609999D03*
X112875002Y-81489999D03*
X112875002Y-80289998D03*
X112875001Y-84809999D03*
%TD*%
D41*
%TO.C,CS8*%
X110749999Y-113647499D03*
X110749999Y-114782499D03*
%TD*%
D12*
%TO.C,CS7*%
X187075000Y-103942499D03*
X187075000Y-102807499D03*
%TD*%
%TO.C,CS8*%
X186170078Y-95647578D03*
X186170078Y-94512578D03*
%TD*%
D41*
%TO.C,CS7*%
X109824999Y-113647500D03*
X109824999Y-114782500D03*
%TD*%
D42*
%TO.C,RS10*%
X105854923Y-106419922D03*
X103854923Y-106419922D03*
%TD*%
D43*
%TO.C,RS8*%
X99505000Y-97241895D03*
X99505000Y-95241895D03*
%TD*%
D41*
%TO.C,CS7*%
X109730000Y-96982834D03*
X109730000Y-98117834D03*
%TD*%
D14*
%TO.C,MOSFET-N4*%
X191057578Y-98280078D03*
X191057578Y-96380078D03*
X192932579Y-97330078D03*
%TD*%
D44*
%TO.C,RS12*%
X110254921Y-102872421D03*
X110254921Y-104067421D03*
%TD*%
D43*
%TO.C,R25*%
X148125000Y-112925000D03*
X148125000Y-110925000D03*
%TD*%
D11*
%TO.C,RS10*%
X191045076Y-94680077D03*
X193045076Y-94680077D03*
%TD*%
D42*
%TO.C,RS10*%
X105875001Y-114615000D03*
X103875001Y-114615000D03*
%TD*%
D43*
%TO.C,RS8*%
X99579921Y-105711483D03*
X99579921Y-103711483D03*
%TD*%
D45*
%TO.C,C25*%
X159350000Y-127287500D03*
X159350000Y-125212500D03*
%TD*%
D11*
%TO.C,R12*%
X145000000Y-58750000D03*
X147000000Y-58750000D03*
%TD*%
D41*
%TO.C,CS8*%
X110655000Y-96982833D03*
X110655000Y-98117833D03*
%TD*%
D45*
%TO.C,C19*%
X134650000Y-124787500D03*
X134650000Y-122712500D03*
%TD*%
D46*
%TO.C,MOSFET-N4*%
X105862499Y-111014999D03*
X105862499Y-112914999D03*
X103987498Y-111964999D03*
%TD*%
D45*
%TO.C,C18*%
X131700000Y-124787500D03*
X131700000Y-122712500D03*
%TD*%
D14*
%TO.C,MOSFET-N4*%
X191037500Y-106575000D03*
X191037500Y-104675000D03*
X192912501Y-105625000D03*
%TD*%
D13*
%TO.C,RS12*%
X186645078Y-98227578D03*
X186645078Y-97032578D03*
%TD*%
D11*
%TO.C,R13*%
X145000000Y-54650000D03*
X147000000Y-54650000D03*
%TD*%
D46*
%TO.C,MOSFET-N4*%
X105842421Y-102819921D03*
X105842421Y-104719921D03*
X103967420Y-103769921D03*
%TD*%
D42*
%TO.C,RS10*%
X105780002Y-97950334D03*
X103780002Y-97950334D03*
%TD*%
D44*
%TO.C,RS12*%
X110180000Y-94402833D03*
X110180000Y-95597833D03*
%TD*%
D43*
%TO.C,RS8*%
X99599999Y-113906561D03*
X99599999Y-111906561D03*
%TD*%
D46*
%TO.C,MOSFET-N4*%
X105767500Y-94350333D03*
X105767500Y-96250333D03*
X103892499Y-95300333D03*
%TD*%
D10*
%TO.C,RS8*%
X197320078Y-95388516D03*
X197320078Y-97388516D03*
%TD*%
D41*
%TO.C,CS7*%
X109804921Y-105452422D03*
X109804921Y-106587422D03*
%TD*%
D13*
%TO.C,RS12*%
X186625000Y-106522500D03*
X186625000Y-105327500D03*
%TD*%
D41*
%TO.C,CS8*%
X110729921Y-105452421D03*
X110729921Y-106587421D03*
%TD*%
D11*
%TO.C,R14*%
X145000000Y-50550000D03*
X147000000Y-50550000D03*
%TD*%
D10*
%TO.C,RS8*%
X197300000Y-103683438D03*
X197300000Y-105683438D03*
%TD*%
D47*
%TO.C,U6*%
X146400000Y-106937500D03*
X150400000Y-106937500D03*
X150400000Y-108737500D03*
X146400000Y-108737500D03*
%TD*%
D10*
%TO.C,R26*%
X150400000Y-110925000D03*
X150400000Y-112925000D03*
%TD*%
D12*
%TO.C,CS7*%
X187095078Y-95647577D03*
X187095078Y-94512577D03*
%TD*%
D44*
%TO.C,RS12*%
X110274999Y-111067499D03*
X110274999Y-112262499D03*
%TD*%
D11*
%TO.C,RS10*%
X191024998Y-102974999D03*
X193024998Y-102974999D03*
%TD*%
D12*
%TO.C,CS8*%
X186150000Y-103942500D03*
X186150000Y-102807500D03*
%TD*%
D48*
%TO.C,POWER*%
X130650000Y-138750000D03*
X138850000Y-138750000D03*
D49*
X132750000Y-138750000D03*
D50*
X134750000Y-138750000D03*
X136750000Y-138750000D03*
%TD*%
M02*
