%TF.GenerationSoftware,KiCad,Pcbnew,9.0.5*%
%TF.CreationDate,2025-10-14T23:48:04-03:00*%
%TF.ProjectId,RvMeg_V2,52764d65-675f-4563-922e-6b696361645f,V2.0*%
%TF.SameCoordinates,Original*%
%TF.FileFunction,Paste,Bot*%
%TF.FilePolarity,Positive*%
%FSLAX46Y46*%
G04 Gerber Fmt 4.6, Leading zero omitted, Abs format (unit mm)*
G04 Created by KiCad (PCBNEW 9.0.5) date 2025-10-14 23:48:04*
%MOMM*%
%LPD*%
G01*
G04 APERTURE LIST*
G04 Aperture macros list*
%AMRoundRect*
0 Rectangle with rounded corners*
0 $1 Rounding radius*
0 $2 $3 $4 $5 $6 $7 $8 $9 X,Y pos of 4 corners*
0 Add a 4 corners polygon primitive as box body*
4,1,4,$2,$3,$4,$5,$6,$7,$8,$9,$2,$3,0*
0 Add four circle primitives for the rounded corners*
1,1,$1+$1,$2,$3*
1,1,$1+$1,$4,$5*
1,1,$1+$1,$6,$7*
1,1,$1+$1,$8,$9*
0 Add four rect primitives between the rounded corners*
20,1,$1+$1,$2,$3,$4,$5,0*
20,1,$1+$1,$4,$5,$6,$7,0*
20,1,$1+$1,$6,$7,$8,$9,0*
20,1,$1+$1,$8,$9,$2,$3,0*%
G04 Aperture macros list end*
%ADD10RoundRect,0.250000X-0.450000X0.350000X-0.450000X-0.350000X0.450000X-0.350000X0.450000X0.350000X0*%
%ADD11RoundRect,0.250000X-0.350000X-0.450000X0.350000X-0.450000X0.350000X0.450000X-0.350000X0.450000X0*%
%ADD12RoundRect,0.155000X0.155000X-0.212500X0.155000X0.212500X-0.155000X0.212500X-0.155000X-0.212500X0*%
%ADD13RoundRect,0.160000X0.160000X-0.197500X0.160000X0.197500X-0.160000X0.197500X-0.160000X-0.197500X0*%
%ADD14RoundRect,0.150000X-0.587500X-0.150000X0.587500X-0.150000X0.587500X0.150000X-0.587500X0.150000X0*%
%ADD15RoundRect,0.155000X-0.155000X0.212500X-0.155000X-0.212500X0.155000X-0.212500X0.155000X0.212500X0*%
%ADD16RoundRect,0.250000X0.350000X0.450000X-0.350000X0.450000X-0.350000X-0.450000X0.350000X-0.450000X0*%
%ADD17RoundRect,0.250000X0.450000X-0.350000X0.450000X0.350000X-0.450000X0.350000X-0.450000X-0.350000X0*%
%ADD18RoundRect,0.160000X-0.160000X0.197500X-0.160000X-0.197500X0.160000X-0.197500X0.160000X0.197500X0*%
%ADD19RoundRect,0.250000X0.475000X-0.337500X0.475000X0.337500X-0.475000X0.337500X-0.475000X-0.337500X0*%
%ADD20RoundRect,0.150000X0.587500X0.150000X-0.587500X0.150000X-0.587500X-0.150000X0.587500X-0.150000X0*%
%ADD21RoundRect,0.197500X-0.632500X0.197500X-0.632500X-0.197500X0.632500X-0.197500X0.632500X0.197500X0*%
G04 APERTURE END LIST*
D10*
%TO.C,R11*%
X117550000Y-139700000D03*
X117550000Y-141700000D03*
%TD*%
%TO.C,R2*%
X117550000Y-135900000D03*
X117550000Y-137900000D03*
%TD*%
D11*
%TO.C,RS10*%
X191049998Y-110574999D03*
X193049998Y-110574999D03*
%TD*%
D12*
%TO.C,CS8*%
X186175000Y-111542500D03*
X186175000Y-110407500D03*
%TD*%
D13*
%TO.C,RS12*%
X186650000Y-114122500D03*
X186650000Y-112927500D03*
%TD*%
D14*
%TO.C,MOSFET-N4*%
X191062500Y-114175000D03*
X191062500Y-112275000D03*
X192937501Y-113225000D03*
%TD*%
D10*
%TO.C,RS8*%
X197325000Y-111283438D03*
X197325000Y-113283438D03*
%TD*%
D12*
%TO.C,CS7*%
X187100000Y-111542499D03*
X187100000Y-110407499D03*
%TD*%
D15*
%TO.C,CS8*%
X110749999Y-113647499D03*
X110749999Y-114782499D03*
%TD*%
D12*
%TO.C,CS7*%
X187075000Y-103942499D03*
X187075000Y-102807499D03*
%TD*%
%TO.C,CS8*%
X186170078Y-95647578D03*
X186170078Y-94512578D03*
%TD*%
D15*
%TO.C,CS7*%
X109824999Y-113647500D03*
X109824999Y-114782500D03*
%TD*%
D16*
%TO.C,RS10*%
X105854923Y-106419922D03*
X103854923Y-106419922D03*
%TD*%
D17*
%TO.C,RS8*%
X99505000Y-97241895D03*
X99505000Y-95241895D03*
%TD*%
D15*
%TO.C,CS7*%
X109730000Y-96982834D03*
X109730000Y-98117834D03*
%TD*%
D14*
%TO.C,MOSFET-N4*%
X191057578Y-98280078D03*
X191057578Y-96380078D03*
X192932579Y-97330078D03*
%TD*%
D18*
%TO.C,RS12*%
X110254921Y-102872421D03*
X110254921Y-104067421D03*
%TD*%
D17*
%TO.C,R25*%
X148125000Y-112925000D03*
X148125000Y-110925000D03*
%TD*%
D11*
%TO.C,RS10*%
X191045076Y-94680077D03*
X193045076Y-94680077D03*
%TD*%
D16*
%TO.C,RS10*%
X105875001Y-114615000D03*
X103875001Y-114615000D03*
%TD*%
D17*
%TO.C,RS8*%
X99579921Y-105711483D03*
X99579921Y-103711483D03*
%TD*%
D19*
%TO.C,C25*%
X159350000Y-127287500D03*
X159350000Y-125212500D03*
%TD*%
D11*
%TO.C,R12*%
X145000000Y-58750000D03*
X147000000Y-58750000D03*
%TD*%
D15*
%TO.C,CS8*%
X110655000Y-96982833D03*
X110655000Y-98117833D03*
%TD*%
D19*
%TO.C,C19*%
X134650000Y-124787500D03*
X134650000Y-122712500D03*
%TD*%
D20*
%TO.C,MOSFET-N4*%
X105862499Y-111014999D03*
X105862499Y-112914999D03*
X103987498Y-111964999D03*
%TD*%
D19*
%TO.C,C18*%
X131700000Y-124787500D03*
X131700000Y-122712500D03*
%TD*%
D14*
%TO.C,MOSFET-N4*%
X191037500Y-106575000D03*
X191037500Y-104675000D03*
X192912501Y-105625000D03*
%TD*%
D13*
%TO.C,RS12*%
X186645078Y-98227578D03*
X186645078Y-97032578D03*
%TD*%
D11*
%TO.C,R13*%
X145000000Y-54650000D03*
X147000000Y-54650000D03*
%TD*%
D20*
%TO.C,MOSFET-N4*%
X105842421Y-102819921D03*
X105842421Y-104719921D03*
X103967420Y-103769921D03*
%TD*%
D16*
%TO.C,RS10*%
X105780002Y-97950334D03*
X103780002Y-97950334D03*
%TD*%
D18*
%TO.C,RS12*%
X110180000Y-94402833D03*
X110180000Y-95597833D03*
%TD*%
D17*
%TO.C,RS8*%
X99599999Y-113906561D03*
X99599999Y-111906561D03*
%TD*%
D20*
%TO.C,MOSFET-N4*%
X105767500Y-94350333D03*
X105767500Y-96250333D03*
X103892499Y-95300333D03*
%TD*%
D10*
%TO.C,RS8*%
X197320078Y-95388516D03*
X197320078Y-97388516D03*
%TD*%
D15*
%TO.C,CS7*%
X109804921Y-105452422D03*
X109804921Y-106587422D03*
%TD*%
D13*
%TO.C,RS12*%
X186625000Y-106522500D03*
X186625000Y-105327500D03*
%TD*%
D15*
%TO.C,CS8*%
X110729921Y-105452421D03*
X110729921Y-106587421D03*
%TD*%
D11*
%TO.C,R14*%
X145000000Y-50550000D03*
X147000000Y-50550000D03*
%TD*%
D10*
%TO.C,RS8*%
X197300000Y-103683438D03*
X197300000Y-105683438D03*
%TD*%
D21*
%TO.C,U6*%
X146400000Y-106937500D03*
X150400000Y-106937500D03*
X150400000Y-108737500D03*
X146400000Y-108737500D03*
%TD*%
D10*
%TO.C,R26*%
X150400000Y-110925000D03*
X150400000Y-112925000D03*
%TD*%
D12*
%TO.C,CS7*%
X187095078Y-95647577D03*
X187095078Y-94512577D03*
%TD*%
D18*
%TO.C,RS12*%
X110274999Y-111067499D03*
X110274999Y-112262499D03*
%TD*%
D11*
%TO.C,RS10*%
X191024998Y-102974999D03*
X193024998Y-102974999D03*
%TD*%
D12*
%TO.C,CS8*%
X186150000Y-103942500D03*
X186150000Y-102807500D03*
%TD*%
M02*
