%TF.GenerationSoftware,KiCad,Pcbnew,9.0.5*%
%TF.CreationDate,2025-10-14T23:48:04-03:00*%
%TF.ProjectId,RvMeg_V2,52764d65-675f-4563-922e-6b696361645f,V2.0*%
%TF.SameCoordinates,Original*%
%TF.FileFunction,Soldermask,Top*%
%TF.FilePolarity,Negative*%
%FSLAX46Y46*%
G04 Gerber Fmt 4.6, Leading zero omitted, Abs format (unit mm)*
G04 Created by KiCad (PCBNEW 9.0.5) date 2025-10-14 23:48:04*
%MOMM*%
%LPD*%
G01*
G04 APERTURE LIST*
G04 Aperture macros list*
%AMRoundRect*
0 Rectangle with rounded corners*
0 $1 Rounding radius*
0 $2 $3 $4 $5 $6 $7 $8 $9 X,Y pos of 4 corners*
0 Add a 4 corners polygon primitive as box body*
4,1,4,$2,$3,$4,$5,$6,$7,$8,$9,$2,$3,0*
0 Add four circle primitives for the rounded corners*
1,1,$1+$1,$2,$3*
1,1,$1+$1,$4,$5*
1,1,$1+$1,$6,$7*
1,1,$1+$1,$8,$9*
0 Add four rect primitives between the rounded corners*
20,1,$1+$1,$2,$3,$4,$5,0*
20,1,$1+$1,$4,$5,$6,$7,0*
20,1,$1+$1,$6,$7,$8,$9,0*
20,1,$1+$1,$8,$9,$2,$3,0*%
%AMRotRect*
0 Rectangle, with rotation*
0 The origin of the aperture is its center*
0 $1 length*
0 $2 width*
0 $3 Rotation angle, in degrees counterclockwise*
0 Add horizontal line*
21,1,$1,$2,0,0,$3*%
G04 Aperture macros list end*
%ADD10RoundRect,0.250000X0.337500X0.475000X-0.337500X0.475000X-0.337500X-0.475000X0.337500X-0.475000X0*%
%ADD11RoundRect,0.200000X0.200000X0.800000X-0.200000X0.800000X-0.200000X-0.800000X0.200000X-0.800000X0*%
%ADD12C,0.500000*%
%ADD13RoundRect,0.233333X-1.266667X-0.466667X1.266667X-0.466667X1.266667X0.466667X-1.266667X0.466667X0*%
%ADD14RoundRect,0.233333X-1.066667X-0.466667X1.066667X-0.466667X1.066667X0.466667X-1.066667X0.466667X0*%
%ADD15R,1.800000X1.800000*%
%ADD16C,1.800000*%
%ADD17RoundRect,0.150000X0.150000X-0.587500X0.150000X0.587500X-0.150000X0.587500X-0.150000X-0.587500X0*%
%ADD18C,0.700000*%
%ADD19C,4.400000*%
%ADD20R,1.700000X1.700000*%
%ADD21O,1.700000X1.700000*%
%ADD22RoundRect,0.250000X0.350000X0.450000X-0.350000X0.450000X-0.350000X-0.450000X0.350000X-0.450000X0*%
%ADD23RoundRect,0.250000X-0.337500X-0.475000X0.337500X-0.475000X0.337500X0.475000X-0.337500X0.475000X0*%
%ADD24C,2.500000*%
%ADD25C,1.750000*%
%ADD26RoundRect,0.250000X0.450000X-0.350000X0.450000X0.350000X-0.450000X0.350000X-0.450000X-0.350000X0*%
%ADD27RoundRect,0.250000X-0.325000X-0.450000X0.325000X-0.450000X0.325000X0.450000X-0.325000X0.450000X0*%
%ADD28R,0.750000X1.000000*%
%ADD29RoundRect,0.250000X0.625000X-0.350000X0.625000X0.350000X-0.625000X0.350000X-0.625000X-0.350000X0*%
%ADD30O,1.750000X1.200000*%
%ADD31RoundRect,0.750000X0.750000X0.750000X-0.750000X0.750000X-0.750000X-0.750000X0.750000X-0.750000X0*%
%ADD32C,3.000000*%
%ADD33RoundRect,0.250000X0.475000X-0.337500X0.475000X0.337500X-0.475000X0.337500X-0.475000X-0.337500X0*%
%ADD34R,0.700000X1.525000*%
%ADD35R,3.450000X2.560000*%
%ADD36RoundRect,0.250000X-0.450000X0.350000X-0.450000X-0.350000X0.450000X-0.350000X0.450000X0.350000X0*%
%ADD37RoundRect,0.233333X1.266667X0.466667X-1.266667X0.466667X-1.266667X-0.466667X1.266667X-0.466667X0*%
%ADD38RoundRect,0.233333X1.066667X0.466667X-1.066667X0.466667X-1.066667X-0.466667X1.066667X-0.466667X0*%
%ADD39RoundRect,0.250000X0.325000X0.450000X-0.325000X0.450000X-0.325000X-0.450000X0.325000X-0.450000X0*%
%ADD40R,2.000000X2.000000*%
%ADD41C,2.000000*%
%ADD42R,1.000000X1.500000*%
%ADD43RoundRect,0.250000X-0.900000X-0.500000X0.900000X-0.500000X0.900000X0.500000X-0.900000X0.500000X0*%
%ADD44RoundRect,0.150000X-0.150000X0.587500X-0.150000X-0.587500X0.150000X-0.587500X0.150000X0.587500X0*%
%ADD45RoundRect,0.250000X-0.475000X0.337500X-0.475000X-0.337500X0.475000X-0.337500X0.475000X0.337500X0*%
%ADD46RoundRect,0.250000X0.620000X0.845000X-0.620000X0.845000X-0.620000X-0.845000X0.620000X-0.845000X0*%
%ADD47O,1.740000X2.190000*%
%ADD48RoundRect,0.250000X0.450000X-0.325000X0.450000X0.325000X-0.450000X0.325000X-0.450000X-0.325000X0*%
%ADD49RoundRect,0.250000X-0.850000X-0.350000X0.850000X-0.350000X0.850000X0.350000X-0.850000X0.350000X0*%
%ADD50RoundRect,0.249997X-2.950003X-2.650003X2.950003X-2.650003X2.950003X2.650003X-2.950003X2.650003X0*%
%ADD51RoundRect,0.250000X0.900000X0.500000X-0.900000X0.500000X-0.900000X-0.500000X0.900000X-0.500000X0*%
%ADD52RoundRect,0.100000X-0.100000X-0.575000X0.100000X-0.575000X0.100000X0.575000X-0.100000X0.575000X0*%
%ADD53O,1.000000X1.900000*%
%ADD54R,0.875000X1.900000*%
%ADD55O,1.050000X1.250000*%
%ADD56RoundRect,0.250000X-1.200000X-0.700000X1.200000X-0.700000X1.200000X0.700000X-1.200000X0.700000X0*%
%ADD57RoundRect,0.075000X-0.662500X-0.075000X0.662500X-0.075000X0.662500X0.075000X-0.662500X0.075000X0*%
%ADD58RoundRect,0.075000X-0.075000X-0.662500X0.075000X-0.662500X0.075000X0.662500X-0.075000X0.662500X0*%
%ADD59RotRect,1.000000X1.500000X315.000000*%
%ADD60RoundRect,0.250000X-0.989949X0.282843X0.282843X-0.989949X0.989949X-0.282843X-0.282843X0.989949X0*%
%ADD61RoundRect,0.250000X-0.625000X0.350000X-0.625000X-0.350000X0.625000X-0.350000X0.625000X0.350000X0*%
%ADD62R,1.500000X1.000000*%
%ADD63RoundRect,0.250000X-0.500000X0.900000X-0.500000X-0.900000X0.500000X-0.900000X0.500000X0.900000X0*%
%ADD64RoundRect,0.375000X-0.375000X0.625000X-0.375000X-0.625000X0.375000X-0.625000X0.375000X0.625000X0*%
%ADD65RoundRect,0.500000X-1.400000X0.500000X-1.400000X-0.500000X1.400000X-0.500000X1.400000X0.500000X0*%
%ADD66RotRect,1.000000X1.500000X225.000000*%
%ADD67RoundRect,0.250000X0.282843X0.989949X-0.989949X-0.282843X-0.282843X-0.989949X0.989949X0.282843X0*%
%ADD68C,1.500000*%
%ADD69C,1.000000*%
%ADD70RoundRect,0.375000X0.375000X-0.625000X0.375000X0.625000X-0.375000X0.625000X-0.375000X-0.625000X0*%
%ADD71RoundRect,0.500000X1.400000X-0.500000X1.400000X0.500000X-1.400000X0.500000X-1.400000X-0.500000X0*%
%ADD72O,2.200000X3.500000*%
%ADD73R,1.500000X2.500000*%
%ADD74O,1.500000X2.500000*%
G04 APERTURE END LIST*
D10*
%TO.C,C4*%
X113087500Y-136000000D03*
X111012500Y-136000000D03*
%TD*%
D11*
%TO.C,BOOT*%
X115200000Y-138900000D03*
X111000000Y-138900000D03*
%TD*%
D12*
%TO.C,CONN_SEN_FRONT_I1*%
X185180000Y-109180000D03*
X183380000Y-109180000D03*
D13*
X184280000Y-109516000D03*
D12*
X185180000Y-109880000D03*
X183380001Y-109880000D03*
X183180000Y-111025332D03*
X184980000Y-111025333D03*
D14*
X184080000Y-111379000D03*
D12*
X184980000Y-111725332D03*
X183180000Y-111725332D03*
X184980000Y-112916999D03*
X183180000Y-112916999D03*
D14*
X184080000Y-113242000D03*
D12*
X184980000Y-113616999D03*
X183180000Y-113616999D03*
X185180000Y-114755000D03*
X183380000Y-114755000D03*
D13*
X184280000Y-115105000D03*
D12*
X185180000Y-115455000D03*
X183380000Y-115455000D03*
%TD*%
D15*
%TO.C,Q6*%
X188774999Y-113514999D03*
D16*
X188774999Y-110974999D03*
%TD*%
D15*
%TO.C,LED_IR4*%
X195319741Y-111008439D03*
D16*
X195319741Y-113548439D03*
%TD*%
D15*
%TO.C,LED_IR4*%
X195294741Y-103408439D03*
D16*
X195294741Y-105948439D03*
%TD*%
D17*
%TO.C,Q2*%
X125737500Y-60637500D03*
X127637500Y-60637500D03*
X126687500Y-58762500D03*
%TD*%
D18*
%TO.C,H2*%
X125000000Y-104075000D03*
X125483274Y-102908274D03*
X125483274Y-105241726D03*
X126650000Y-102425000D03*
D19*
X126650000Y-104075000D03*
D18*
X126650000Y-105725000D03*
X127816726Y-102908274D03*
X127816726Y-105241726D03*
X128300000Y-104075000D03*
%TD*%
D15*
%TO.C,Q6*%
X108150000Y-111675000D03*
D16*
X108150000Y-114215000D03*
%TD*%
D15*
%TO.C,LED_IR4*%
X101585180Y-105986482D03*
D16*
X101585180Y-103446482D03*
%TD*%
D20*
%TO.C,JP1*%
X172625000Y-132475000D03*
D21*
X175165000Y-132475000D03*
%TD*%
D15*
%TO.C,Q6*%
X188749999Y-105914999D03*
D16*
X188749999Y-103374999D03*
%TD*%
D22*
%TO.C,R9*%
X151075000Y-130950000D03*
X149075000Y-130950000D03*
%TD*%
D10*
%TO.C,C10*%
X176637500Y-86950000D03*
X174562500Y-86950000D03*
%TD*%
D18*
%TO.C,H4*%
X168450000Y-104075000D03*
X168933274Y-102908274D03*
X168933274Y-105241726D03*
X170100000Y-102425000D03*
D19*
X170100000Y-104075000D03*
D18*
X170100000Y-105725000D03*
X171266726Y-102908274D03*
X171266726Y-105241726D03*
X171750000Y-104075000D03*
%TD*%
D22*
%TO.C,R16*%
X172250000Y-125800000D03*
X170250000Y-125800000D03*
%TD*%
D23*
%TO.C,C15*%
X144512500Y-106200000D03*
X146587500Y-106200000D03*
%TD*%
D24*
%TO.C,J15*%
X129190000Y-116450000D03*
D25*
X127920000Y-117720000D03*
X125380000Y-117720000D03*
D24*
X124110000Y-116450000D03*
%TD*%
D26*
%TO.C,R1*%
X143425000Y-120062500D03*
X143425000Y-118062500D03*
%TD*%
D22*
%TO.C,R7*%
X111300000Y-125650000D03*
X109300000Y-125650000D03*
%TD*%
D27*
%TO.C,D4*%
X116227846Y-62920268D03*
X118277846Y-62920268D03*
%TD*%
D23*
%TO.C,C26*%
X170175000Y-123650000D03*
X172250000Y-123650000D03*
%TD*%
D28*
%TO.C,RESET*%
X136800000Y-123975000D03*
X136800000Y-117975000D03*
X140550000Y-123975000D03*
X140550000Y-117975000D03*
%TD*%
D29*
%TO.C,J11*%
X163500000Y-131475000D03*
D30*
X163500000Y-129475000D03*
X163500000Y-127475000D03*
%TD*%
D31*
%TO.C,J14*%
X165725000Y-138525000D03*
D32*
X160725000Y-138525000D03*
%TD*%
D33*
%TO.C,C22*%
X155200000Y-135112500D03*
X155200000Y-133037500D03*
%TD*%
%TO.C,C1*%
X145600000Y-120125000D03*
X145600000Y-118050000D03*
%TD*%
D34*
%TO.C,U4*%
X137995000Y-113537000D03*
X139265000Y-113537000D03*
X140535000Y-113537000D03*
X141805000Y-113537000D03*
X141805000Y-108113000D03*
X140535000Y-108113000D03*
X139265000Y-108113000D03*
X137995000Y-108113000D03*
D35*
X139900000Y-110825000D03*
%TD*%
D23*
%TO.C,C9*%
X144512500Y-104050000D03*
X146587500Y-104050000D03*
%TD*%
D18*
%TO.C,H3*%
X168475000Y-91675000D03*
X168958274Y-90508274D03*
X168958274Y-92841726D03*
X170125000Y-90025000D03*
D19*
X170125000Y-91675000D03*
D18*
X170125000Y-93325000D03*
X171291726Y-90508274D03*
X171291726Y-92841726D03*
X171775000Y-91675000D03*
%TD*%
D36*
%TO.C,R20*%
X133000000Y-48800000D03*
X133000000Y-50800000D03*
%TD*%
D24*
%TO.C,J16*%
X172690000Y-116450000D03*
D25*
X171420000Y-117720000D03*
X168880000Y-117720000D03*
D24*
X167610000Y-116450000D03*
%TD*%
D10*
%TO.C,C2*%
X145487500Y-122187500D03*
X143412500Y-122187500D03*
%TD*%
D12*
%TO.C,CONN_SEN_FRONT_I1*%
X111650000Y-99345333D03*
X113450000Y-99345333D03*
D37*
X112550000Y-99009333D03*
D12*
X111650000Y-98645333D03*
X113449999Y-98645333D03*
X113650000Y-97500001D03*
X111850000Y-97500000D03*
D38*
X112750000Y-97146333D03*
D12*
X111850000Y-96800001D03*
X113650000Y-96800001D03*
X111850000Y-95608334D03*
X113650000Y-95608334D03*
D38*
X112750000Y-95283333D03*
D12*
X111850000Y-94908334D03*
X113650000Y-94908334D03*
X111650000Y-93770333D03*
X113450000Y-93770333D03*
D37*
X112550000Y-93420333D03*
D12*
X111650000Y-93070333D03*
X113450000Y-93070333D03*
%TD*%
D39*
%TO.C,D2*%
X111325000Y-123500000D03*
X109275000Y-123500000D03*
%TD*%
D40*
%TO.C,BZ1*%
X170700000Y-83000000D03*
D41*
X170700000Y-75400000D03*
%TD*%
D18*
%TO.C,J4*%
X127490000Y-65624996D03*
D42*
X127539999Y-65624997D03*
D43*
X126889999Y-65624997D03*
D18*
X126289999Y-65624998D03*
X130810000Y-65624999D03*
D43*
X130209999Y-65624999D03*
D42*
X129559999Y-65624999D03*
D18*
X129609999Y-65625000D03*
D42*
X127539999Y-67541663D03*
D43*
X126889998Y-67541664D03*
X130209999Y-67541665D03*
D42*
X129560000Y-67541665D03*
D18*
X126289999Y-67558328D03*
X127490000Y-67558330D03*
X130810000Y-67558331D03*
X129609999Y-67558331D03*
D42*
X127539999Y-69458328D03*
D43*
X126890001Y-69458329D03*
X130209999Y-69458330D03*
D42*
X129560000Y-69458330D03*
D18*
X127490000Y-69491663D03*
X126289999Y-69491663D03*
X130810000Y-69491664D03*
X129609998Y-69491664D03*
D42*
X127539999Y-71374998D03*
D43*
X126890000Y-71374998D03*
X130209998Y-71374999D03*
D42*
X129560000Y-71375000D03*
D18*
X129609999Y-71424998D03*
X127489999Y-71424998D03*
X126289998Y-71424998D03*
X130809999Y-71424999D03*
%TD*%
D34*
%TO.C,U5*%
X154995000Y-113537000D03*
X156265000Y-113537000D03*
X157535000Y-113537000D03*
X158805000Y-113537000D03*
X158805000Y-108113000D03*
X157535000Y-108113000D03*
X156265000Y-108113000D03*
X154995000Y-108113000D03*
D35*
X156900000Y-110825000D03*
%TD*%
D27*
%TO.C,D8*%
X185875000Y-85550000D03*
X187925000Y-85550000D03*
%TD*%
D33*
%TO.C,C5*%
X162050000Y-119925000D03*
X162050000Y-117850000D03*
%TD*%
D10*
%TO.C,C12*%
X176637500Y-89416667D03*
X174562500Y-89416667D03*
%TD*%
D36*
%TO.C,R18*%
X118200000Y-91000000D03*
X118200000Y-93000000D03*
%TD*%
D33*
%TO.C,C16*%
X180700000Y-129687500D03*
X180700000Y-127612500D03*
%TD*%
D27*
%TO.C,D6*%
X159272155Y-48934324D03*
X161322155Y-48934324D03*
%TD*%
D33*
%TO.C,C14*%
X175900000Y-129687500D03*
X175900000Y-127612500D03*
%TD*%
D44*
%TO.C,Q3*%
X171237500Y-58762500D03*
X169337500Y-58762500D03*
X170287500Y-60637500D03*
%TD*%
D45*
%TO.C,C13*%
X180700000Y-132062500D03*
X180700000Y-134137500D03*
%TD*%
D46*
%TO.C,J12*%
X157290000Y-97496773D03*
D47*
X154750000Y-97496773D03*
X152210000Y-97496773D03*
X149670000Y-97496773D03*
X147130000Y-97496773D03*
X144590000Y-97496773D03*
X142050000Y-97496773D03*
X139510000Y-97496773D03*
%TD*%
D48*
%TO.C,D1*%
X168150000Y-130125000D03*
X168150000Y-128075000D03*
%TD*%
D49*
%TO.C,Q1*%
X171250000Y-136242500D03*
X171250000Y-138522500D03*
D50*
X177550000Y-138522500D03*
D49*
X171250000Y-140802500D03*
%TD*%
D18*
%TO.C,J9*%
X169284999Y-71150003D03*
D42*
X169235000Y-71150002D03*
D51*
X169885000Y-71150002D03*
D18*
X170485000Y-71150001D03*
X165964999Y-71150000D03*
D51*
X166565000Y-71150000D03*
D42*
X167215000Y-71150000D03*
D18*
X167165000Y-71149999D03*
D42*
X169235000Y-69233336D03*
D51*
X169885001Y-69233335D03*
X166565000Y-69233334D03*
D42*
X167214999Y-69233334D03*
D18*
X170485000Y-69216671D03*
X169284999Y-69216669D03*
X165964999Y-69216668D03*
X167165000Y-69216668D03*
D42*
X169235000Y-67316671D03*
D51*
X169884998Y-67316670D03*
X166565000Y-67316669D03*
D42*
X167214999Y-67316669D03*
D18*
X169284999Y-67283336D03*
X170485000Y-67283336D03*
X165964999Y-67283335D03*
X167165001Y-67283335D03*
D42*
X169235000Y-65400001D03*
D51*
X169884999Y-65400001D03*
X166565001Y-65400000D03*
D42*
X167214999Y-65399999D03*
D18*
X167165000Y-65350001D03*
X169285000Y-65350001D03*
X170485001Y-65350001D03*
X165965000Y-65350000D03*
%TD*%
D22*
%TO.C,R5*%
X159575000Y-134400000D03*
X157575000Y-134400000D03*
%TD*%
D27*
%TO.C,D3*%
X108875000Y-85552500D03*
X110925000Y-85552500D03*
%TD*%
D36*
%TO.C,R22*%
X163900000Y-48900000D03*
X163900000Y-50900000D03*
%TD*%
%TO.C,R4*%
X168150000Y-123900000D03*
X168150000Y-125900000D03*
%TD*%
D10*
%TO.C,C23*%
X155062500Y-120000000D03*
X152987500Y-120000000D03*
%TD*%
D15*
%TO.C,Q6*%
X108129922Y-103479922D03*
D16*
X108129922Y-106019922D03*
%TD*%
D11*
%TO.C,B3*%
X150500000Y-50550000D03*
X146300000Y-50550000D03*
%TD*%
D22*
%TO.C,R23*%
X180550000Y-65400000D03*
X178550000Y-65400000D03*
%TD*%
D15*
%TO.C,Q6*%
X188770077Y-97620077D03*
D16*
X188770077Y-95080077D03*
%TD*%
D52*
%TO.C,J1*%
X149695000Y-134000000D03*
X149045000Y-134000000D03*
X148395000Y-134000000D03*
X147745000Y-134000000D03*
X147095000Y-134000000D03*
D53*
X144220000Y-136675000D03*
D54*
X144657500Y-136675000D03*
D55*
X146170000Y-133675000D03*
D56*
X148395000Y-136675000D03*
D55*
X150620000Y-133675000D03*
D54*
X152132500Y-136675000D03*
D53*
X152570000Y-136675000D03*
%TD*%
D22*
%TO.C,R8*%
X147000000Y-130950000D03*
X145000000Y-130950000D03*
%TD*%
D57*
%TO.C,U1*%
X113637500Y-127025000D03*
X113637500Y-127525000D03*
X113637500Y-128025000D03*
X113637500Y-128525000D03*
X113637500Y-129025000D03*
X113637500Y-129525000D03*
X113637500Y-130025000D03*
X113637500Y-130525000D03*
X113637500Y-131025000D03*
X113637500Y-131525000D03*
X113637500Y-132025000D03*
X113637500Y-132525000D03*
D58*
X115050000Y-133937500D03*
X115550000Y-133937500D03*
X116050000Y-133937500D03*
X116550000Y-133937500D03*
X117050000Y-133937500D03*
X117550000Y-133937500D03*
X118050000Y-133937500D03*
X118550000Y-133937500D03*
X119050000Y-133937500D03*
X119550000Y-133937500D03*
X120050000Y-133937500D03*
X120550000Y-133937500D03*
D57*
X121962500Y-132525000D03*
X121962500Y-132025000D03*
X121962500Y-131525000D03*
X121962500Y-131025000D03*
X121962500Y-130525000D03*
X121962500Y-130025000D03*
X121962500Y-129525000D03*
X121962500Y-129025000D03*
X121962500Y-128525000D03*
X121962500Y-128025000D03*
X121962500Y-127525000D03*
X121962500Y-127025000D03*
D58*
X120550000Y-125612500D03*
X120050000Y-125612500D03*
X119550000Y-125612500D03*
X119050000Y-125612500D03*
X118550000Y-125612500D03*
X118050000Y-125612500D03*
X117550000Y-125612500D03*
X117050000Y-125612500D03*
X116550000Y-125612500D03*
X116050000Y-125612500D03*
X115550000Y-125612500D03*
X115050000Y-125612500D03*
%TD*%
D11*
%TO.C,START*%
X178200000Y-124350000D03*
X174000000Y-124350000D03*
%TD*%
D18*
%TO.C,J6*%
X139595013Y-51555920D03*
D59*
X139630367Y-51591276D03*
D60*
X139170748Y-51131656D03*
D18*
X138746483Y-50707393D03*
X141942606Y-53903517D03*
D60*
X141518341Y-53479252D03*
D18*
X141094076Y-53054989D03*
D59*
X141058721Y-53019633D03*
X138275080Y-52946563D03*
D60*
X137815459Y-52486944D03*
X140163053Y-54834540D03*
D59*
X139703435Y-54374921D03*
D18*
X137379412Y-52074464D03*
X138227940Y-52922994D03*
X140575534Y-55270589D03*
X139727005Y-54422060D03*
D59*
X136919793Y-54301850D03*
D60*
X136460174Y-53842233D03*
X138807767Y-56189827D03*
D59*
X138348148Y-55730208D03*
D18*
X136860867Y-54290067D03*
X136012338Y-53441538D03*
X139208461Y-56637662D03*
X138359931Y-55789132D03*
D59*
X135564503Y-55657140D03*
D60*
X135104884Y-55197522D03*
X137452476Y-57545115D03*
D59*
X136992858Y-57085498D03*
D18*
X136992858Y-57156207D03*
X135493792Y-55657140D03*
X134645263Y-54808612D03*
X137841386Y-58004736D03*
%TD*%
D61*
%TO.C,J10*%
X133300000Y-127450000D03*
D30*
X133300000Y-129450000D03*
X133300000Y-131450000D03*
%TD*%
D23*
%TO.C,C3*%
X138462500Y-127850000D03*
X140537500Y-127850000D03*
%TD*%
D15*
%TO.C,LED_IR4*%
X101605258Y-114181560D03*
D16*
X101605258Y-111641560D03*
%TD*%
D18*
%TO.C,H1*%
X124975000Y-91700000D03*
X125458274Y-90533274D03*
X125458274Y-92866726D03*
X126625000Y-90050000D03*
D19*
X126625000Y-91700000D03*
D18*
X126625000Y-93350000D03*
X127791726Y-90533274D03*
X127791726Y-92866726D03*
X128275000Y-91700000D03*
%TD*%
D15*
%TO.C,Q6*%
X108055001Y-95010334D03*
D16*
X108055001Y-97550334D03*
%TD*%
D18*
%TO.C,J8*%
X183750003Y-81515002D03*
D62*
X183750002Y-81565001D03*
D63*
X183750002Y-80915001D03*
D18*
X183750001Y-80315001D03*
X183750000Y-84835002D03*
D63*
X183750000Y-84235001D03*
D62*
X183750000Y-83585001D03*
D18*
X183749999Y-83635001D03*
D62*
X181833336Y-81565001D03*
D63*
X181833335Y-80915000D03*
X181833334Y-84235001D03*
D62*
X181833334Y-83585002D03*
D18*
X181816671Y-80315001D03*
X181816669Y-81515002D03*
X181816668Y-84835002D03*
X181816668Y-83635001D03*
D62*
X179916671Y-81565001D03*
D63*
X179916670Y-80915003D03*
X179916669Y-84235001D03*
D62*
X179916669Y-83585002D03*
D18*
X179883336Y-81515002D03*
X179883336Y-80315001D03*
X179883335Y-84835002D03*
X179883335Y-83635000D03*
D62*
X178000001Y-81565001D03*
D63*
X178000001Y-80915002D03*
X178000000Y-84235000D03*
D62*
X177999999Y-83585002D03*
D18*
X177950001Y-83635001D03*
X177950001Y-81515001D03*
X177950001Y-80315000D03*
X177950000Y-84835001D03*
%TD*%
D29*
%TO.C,J13*%
X127999998Y-84549998D03*
D30*
X127999998Y-82549998D03*
X127999998Y-80549998D03*
%TD*%
D12*
%TO.C,CONN_SEN_FRONT_I1*%
X185155000Y-101580000D03*
X183355000Y-101580000D03*
D13*
X184255000Y-101916000D03*
D12*
X185155000Y-102280000D03*
X183355001Y-102280000D03*
X183155000Y-103425332D03*
X184955000Y-103425333D03*
D14*
X184055000Y-103779000D03*
D12*
X184955000Y-104125332D03*
X183155000Y-104125332D03*
X184955000Y-105316999D03*
X183155000Y-105316999D03*
D14*
X184055000Y-105642000D03*
D12*
X184955000Y-106016999D03*
X183155000Y-106016999D03*
X185155000Y-107155000D03*
X183355000Y-107155000D03*
D13*
X184255000Y-107505000D03*
D12*
X185155000Y-107855000D03*
X183355000Y-107855000D03*
%TD*%
%TO.C,CONN_SEN_FRONT_I1*%
X111724921Y-107814921D03*
X113524921Y-107814921D03*
D37*
X112624921Y-107478921D03*
D12*
X111724921Y-107114921D03*
X113524920Y-107114921D03*
X113724921Y-105969589D03*
X111924921Y-105969588D03*
D38*
X112824921Y-105615921D03*
D12*
X111924921Y-105269589D03*
X113724921Y-105269589D03*
X111924921Y-104077922D03*
X113724921Y-104077922D03*
D38*
X112824921Y-103752921D03*
D12*
X111924921Y-103377922D03*
X113724921Y-103377922D03*
X111724921Y-102239921D03*
X113524921Y-102239921D03*
D37*
X112624921Y-101889921D03*
D12*
X111724921Y-101539921D03*
X113524921Y-101539921D03*
%TD*%
D22*
%TO.C,R6*%
X159575000Y-132375000D03*
X157575000Y-132375000D03*
%TD*%
D26*
%TO.C,R21*%
X173950000Y-60700000D03*
X173950000Y-58700000D03*
%TD*%
D27*
%TO.C,D7*%
X178522155Y-62920268D03*
X180572155Y-62920268D03*
%TD*%
D15*
%TO.C,LED_IR4*%
X101510259Y-97516894D03*
D16*
X101510259Y-94976894D03*
%TD*%
D10*
%TO.C,C24*%
X155062500Y-122175000D03*
X152987500Y-122175000D03*
%TD*%
D22*
%TO.C,R3*%
X140525000Y-125750000D03*
X138525000Y-125750000D03*
%TD*%
%TO.C,R19*%
X118250000Y-65800000D03*
X116250000Y-65800000D03*
%TD*%
D39*
%TO.C,D5*%
X137527846Y-48934324D03*
X135477846Y-48934324D03*
%TD*%
D11*
%TO.C,B1*%
X150500000Y-58750000D03*
X146300000Y-58750000D03*
%TD*%
D26*
%TO.C,R17*%
X123350000Y-62800000D03*
X123350000Y-60800000D03*
%TD*%
D10*
%TO.C,C11*%
X176637500Y-94350000D03*
X174562500Y-94350000D03*
%TD*%
%TO.C,C7*%
X176637500Y-91883333D03*
X174562500Y-91883333D03*
%TD*%
D11*
%TO.C,B2*%
X150500000Y-54650000D03*
X146300000Y-54650000D03*
%TD*%
D12*
%TO.C,CONN_SEN_FRONT_I1*%
X111744999Y-116009999D03*
X113544999Y-116009999D03*
D37*
X112644999Y-115673999D03*
D12*
X111744999Y-115309999D03*
X113544998Y-115309999D03*
X113744999Y-114164667D03*
X111944999Y-114164666D03*
D38*
X112844999Y-113810999D03*
D12*
X111944999Y-113464667D03*
X113744999Y-113464667D03*
X111944999Y-112273000D03*
X113744999Y-112273000D03*
D38*
X112844999Y-111947999D03*
D12*
X111944999Y-111573000D03*
X113744999Y-111573000D03*
X111744999Y-110434999D03*
X113544999Y-110434999D03*
D37*
X112644999Y-110084999D03*
D12*
X111744999Y-109734999D03*
X113544999Y-109734999D03*
%TD*%
D22*
%TO.C,R10*%
X155150000Y-130950000D03*
X153150000Y-130950000D03*
%TD*%
D64*
%TO.C,U3*%
X187800000Y-121925000D03*
X185500000Y-121925000D03*
D65*
X185500000Y-128225000D03*
D64*
X183200000Y-121925000D03*
%TD*%
D12*
%TO.C,CONN_SEN_FRONT_I1*%
X185175078Y-93285078D03*
X183375078Y-93285078D03*
D13*
X184275078Y-93621078D03*
D12*
X185175078Y-93985078D03*
X183375079Y-93985078D03*
X183175078Y-95130410D03*
X184975078Y-95130411D03*
D14*
X184075078Y-95484078D03*
D12*
X184975078Y-95830410D03*
X183175078Y-95830410D03*
X184975078Y-97022077D03*
X183175078Y-97022077D03*
D14*
X184075078Y-97347078D03*
D12*
X184975078Y-97722077D03*
X183175078Y-97722077D03*
X185175078Y-98860078D03*
X183375078Y-98860078D03*
D13*
X184275078Y-99210078D03*
D12*
X185175078Y-99560078D03*
X183375078Y-99560078D03*
%TD*%
D18*
%TO.C,J7*%
X161194001Y-55621785D03*
D66*
X161158645Y-55657139D03*
D67*
X161618265Y-55197520D03*
D18*
X162042528Y-54773255D03*
X158846404Y-57969378D03*
D67*
X159270669Y-57545113D03*
D18*
X159694932Y-57120848D03*
D66*
X159730288Y-57085493D03*
X159803358Y-54301852D03*
D67*
X160262977Y-53842231D03*
X157915381Y-56189825D03*
D66*
X158375000Y-55730207D03*
D18*
X160675457Y-53406184D03*
X159826927Y-54254712D03*
X157479332Y-56602306D03*
X158327861Y-55753777D03*
D66*
X158448071Y-52946565D03*
D67*
X158907688Y-52486946D03*
X156560094Y-54834539D03*
D66*
X157019713Y-54374920D03*
D18*
X158459854Y-52887639D03*
X159308383Y-52039110D03*
X156112259Y-55235233D03*
X156960789Y-54386703D03*
D66*
X157092781Y-51591275D03*
D67*
X157552399Y-51131656D03*
X155204806Y-53479248D03*
D66*
X155664423Y-53019630D03*
D18*
X155593714Y-53019630D03*
X157092781Y-51520564D03*
X157941309Y-50672035D03*
X154745185Y-53868158D03*
%TD*%
D36*
%TO.C,R15*%
X152550000Y-56750000D03*
X152550000Y-58750000D03*
%TD*%
D22*
%TO.C,R24*%
X187900000Y-76950000D03*
X185900000Y-76950000D03*
%TD*%
D68*
%TO.C,Y1*%
X145945000Y-126125000D03*
X150825000Y-126125000D03*
%TD*%
D46*
%TO.C,J3*%
X127290000Y-138600000D03*
D47*
X124750000Y-138600000D03*
X122210000Y-138600000D03*
X119670000Y-138600000D03*
%TD*%
D33*
%TO.C,C17*%
X178300000Y-129687500D03*
X178300000Y-127612500D03*
%TD*%
D15*
%TO.C,LED_IR4*%
X195314819Y-95113517D03*
D16*
X195314819Y-97653517D03*
%TD*%
D69*
%TO.C,Y2*%
X149800000Y-120200000D03*
X149800000Y-122100000D03*
%TD*%
D18*
%TO.C,J5*%
X118675004Y-81490000D03*
D62*
X118675003Y-81539999D03*
D63*
X118675003Y-80889999D03*
D18*
X118675002Y-80289999D03*
X118675001Y-84810000D03*
D63*
X118675001Y-84209999D03*
D62*
X118675001Y-83559999D03*
D18*
X118675000Y-83609999D03*
D62*
X116758337Y-81539999D03*
D63*
X116758336Y-80889998D03*
X116758335Y-84209999D03*
D62*
X116758335Y-83560000D03*
D18*
X116741672Y-80289999D03*
X116741670Y-81490000D03*
X116741669Y-84810000D03*
X116741669Y-83609999D03*
D62*
X114841672Y-81539999D03*
D63*
X114841671Y-80890001D03*
X114841670Y-84209999D03*
D62*
X114841670Y-83560000D03*
D18*
X114808337Y-81490000D03*
X114808337Y-80289999D03*
X114808336Y-84810000D03*
X114808336Y-83609998D03*
D62*
X112925002Y-81539999D03*
D63*
X112925002Y-80890000D03*
X112925001Y-84209998D03*
D62*
X112925000Y-83560000D03*
D18*
X112875002Y-83609999D03*
X112875002Y-81489999D03*
X112875002Y-80289998D03*
X112875001Y-84809999D03*
%TD*%
D70*
%TO.C,U2*%
X183275000Y-138375000D03*
X185575000Y-138375000D03*
D71*
X185575000Y-132075000D03*
D70*
X187875000Y-138375000D03*
%TD*%
D72*
%TO.C,POWER*%
X130650000Y-138750000D03*
X138850000Y-138750000D03*
D73*
X132750000Y-138750000D03*
D74*
X134750000Y-138750000D03*
X136750000Y-138750000D03*
%TD*%
M02*
