%TF.GenerationSoftware,KiCad,Pcbnew,9.0.5*%
%TF.CreationDate,2025-10-14T17:43:45-03:00*%
%TF.ProjectId,RvMeg_V2,52764d65-675f-4563-922e-6b696361645f,V2.0*%
%TF.SameCoordinates,Original*%
%TF.FileFunction,Legend,Bot*%
%TF.FilePolarity,Positive*%
%FSLAX46Y46*%
G04 Gerber Fmt 4.6, Leading zero omitted, Abs format (unit mm)*
G04 Created by KiCad (PCBNEW 9.0.5) date 2025-10-14 17:43:45*
%MOMM*%
%LPD*%
G01*
G04 APERTURE LIST*
%ADD10C,0.250000*%
%ADD11C,3.000000*%
%ADD12C,0.150000*%
%ADD13C,0.120000*%
%ADD14C,0.010000*%
G04 APERTURE END LIST*
D10*
G36*
X184859528Y-140196000D02*
G01*
X185118475Y-140196000D01*
X184873743Y-139018944D01*
X184614797Y-139018944D01*
X184859528Y-140196000D01*
G37*
G36*
X183654776Y-139356586D02*
G01*
X184134787Y-140196000D01*
X184423482Y-140196000D01*
X184539986Y-139356586D01*
X184269023Y-139356586D01*
X184233852Y-139873819D01*
X184231765Y-139958378D01*
X184236782Y-140023002D01*
X184233558Y-140023002D01*
X184211486Y-139961993D01*
X184173914Y-139878728D01*
X183919364Y-139356586D01*
X183654776Y-139356586D01*
G37*
G36*
X183299016Y-139342820D02*
G01*
X183393119Y-139359297D01*
X183484215Y-139383718D01*
X183548091Y-139408756D01*
X183588904Y-139605127D01*
X183510930Y-139564890D01*
X183435818Y-139537320D01*
X183362888Y-139521280D01*
X183291416Y-139516027D01*
X183235814Y-139522483D01*
X183200463Y-139539010D01*
X183179116Y-139563966D01*
X183169362Y-139599440D01*
X183173374Y-139650556D01*
X183402571Y-139680745D01*
X183499289Y-139700878D01*
X183576414Y-139732081D01*
X183637470Y-139773195D01*
X183685032Y-139824221D01*
X183720511Y-139886315D01*
X183744023Y-139961673D01*
X183751247Y-140019980D01*
X183747817Y-140068839D01*
X183735183Y-140110250D01*
X183713761Y-140145808D01*
X183684270Y-140174710D01*
X183646805Y-140196055D01*
X183599562Y-140209775D01*
X183540031Y-140214757D01*
X183462743Y-140206114D01*
X183392504Y-140180623D01*
X183327423Y-140137559D01*
X183266357Y-140074440D01*
X183263133Y-140074440D01*
X183288412Y-140196000D01*
X183048663Y-140196000D01*
X182966439Y-139800619D01*
X183204588Y-139800619D01*
X183216165Y-139856380D01*
X183231309Y-139904654D01*
X183254891Y-139946242D01*
X183287240Y-139982189D01*
X183326339Y-140010048D01*
X183368150Y-140026369D01*
X183413855Y-140031868D01*
X183460045Y-140024286D01*
X183489473Y-140004025D01*
X183505196Y-139973065D01*
X183504640Y-139932437D01*
X183488666Y-139890499D01*
X183460715Y-139858426D01*
X183418645Y-139834668D01*
X183357801Y-139820036D01*
X183204588Y-139800619D01*
X182966439Y-139800619D01*
X182944542Y-139695326D01*
X182932090Y-139602462D01*
X182935289Y-139529319D01*
X182950978Y-139471641D01*
X182977584Y-139425965D01*
X183015306Y-139389931D01*
X183066071Y-139362583D01*
X183133276Y-139344525D01*
X183221441Y-139337828D01*
X183299016Y-139342820D01*
G37*
G36*
X183354138Y-139215902D02*
G01*
X183171249Y-139215902D01*
X182865701Y-138953292D01*
X183091015Y-138953292D01*
X183354138Y-139215902D01*
G37*
G36*
X182034933Y-140196000D02*
G01*
X182287505Y-140196000D01*
X182190565Y-139729764D01*
X182181290Y-139648683D01*
X182189149Y-139595936D01*
X182208864Y-139562356D01*
X182239869Y-139542230D01*
X182286406Y-139534785D01*
X182328211Y-139540351D01*
X182367493Y-139557143D01*
X182405401Y-139586443D01*
X182436459Y-139623449D01*
X182459658Y-139666766D01*
X182475083Y-139717528D01*
X182574588Y-140196000D01*
X182827965Y-140196000D01*
X182653429Y-139356586D01*
X182400052Y-139356586D01*
X182427749Y-139489649D01*
X182424525Y-139489649D01*
X182371421Y-139433008D01*
X182315985Y-139390827D01*
X182257731Y-139361411D01*
X182195830Y-139343798D01*
X182129162Y-139337828D01*
X182056580Y-139345258D01*
X182002704Y-139365327D01*
X181962925Y-139396482D01*
X181934598Y-139439694D01*
X181917509Y-139498262D01*
X181913938Y-139577272D01*
X181928321Y-139683090D01*
X182034933Y-140196000D01*
G37*
G36*
X181324699Y-140196000D02*
G01*
X181065753Y-140196000D01*
X180972184Y-139745811D01*
X180902428Y-139745811D01*
X180879467Y-139748463D01*
X180860076Y-139756069D01*
X180826884Y-139785598D01*
X180799260Y-139831907D01*
X180773468Y-139893383D01*
X180657623Y-140196000D01*
X180360136Y-140196000D01*
X180505143Y-139848247D01*
X180530935Y-139792852D01*
X180562808Y-139739949D01*
X180600397Y-139696938D01*
X180621755Y-139680906D01*
X180644508Y-139670267D01*
X180643848Y-139666969D01*
X180583470Y-139646340D01*
X180527711Y-139619342D01*
X180476388Y-139585901D01*
X180431357Y-139547095D01*
X180392225Y-139502638D01*
X180359623Y-139453013D01*
X180334561Y-139398837D01*
X180317491Y-139339293D01*
X180314513Y-139313943D01*
X180592786Y-139313943D01*
X180597100Y-139372779D01*
X180612584Y-139420019D01*
X180638131Y-139461714D01*
X180674623Y-139498808D01*
X180717527Y-139526499D01*
X180765178Y-139543139D01*
X180818970Y-139548854D01*
X180931224Y-139548854D01*
X180861981Y-139215902D01*
X180744891Y-139215902D01*
X180675254Y-139223643D01*
X180631250Y-139243345D01*
X180604898Y-139272734D01*
X180592786Y-139313943D01*
X180314513Y-139313943D01*
X180308376Y-139261713D01*
X180314490Y-139199226D01*
X180333413Y-139148281D01*
X180364696Y-139106201D01*
X180409905Y-139071535D01*
X180472395Y-139044277D01*
X180556942Y-139025855D01*
X180669420Y-139018944D01*
X181079968Y-139018944D01*
X181324699Y-140196000D01*
G37*
G36*
X179823074Y-139345544D02*
G01*
X179915141Y-139367886D01*
X179998475Y-139404274D01*
X180074445Y-139454991D01*
X180140167Y-139518109D01*
X180193420Y-139592193D01*
X180234726Y-139678676D01*
X180263782Y-139779590D01*
X180276489Y-139881527D01*
X180270679Y-139966189D01*
X180249038Y-140037237D01*
X180212418Y-140097594D01*
X180172988Y-140137881D01*
X180125087Y-140169914D01*
X180067324Y-140193887D01*
X179997767Y-140209251D01*
X179914050Y-140214757D01*
X179811288Y-140206802D01*
X179719299Y-140183783D01*
X179636253Y-140146279D01*
X179560729Y-140093930D01*
X179495515Y-140029164D01*
X179442580Y-139953738D01*
X179401450Y-139866277D01*
X179372418Y-139764862D01*
X179362896Y-139687470D01*
X179621372Y-139687470D01*
X179631584Y-139769771D01*
X179655578Y-139854308D01*
X179685971Y-139916845D01*
X179721670Y-139961889D01*
X179762603Y-139992771D01*
X179809754Y-140011352D01*
X179865031Y-140017800D01*
X179922952Y-140010823D01*
X179963841Y-139992148D01*
X179992306Y-139962805D01*
X180010193Y-139920604D01*
X180016112Y-139860678D01*
X180005715Y-139776293D01*
X179984150Y-139701835D01*
X179955005Y-139643304D01*
X179918960Y-139597873D01*
X179873847Y-139562700D01*
X179823566Y-139541895D01*
X179766332Y-139534785D01*
X179710781Y-139541532D01*
X179671531Y-139559608D01*
X179644175Y-139588069D01*
X179626987Y-139629098D01*
X179621372Y-139687470D01*
X179362896Y-139687470D01*
X179360423Y-139667373D01*
X179366338Y-139585300D01*
X179387810Y-139515375D01*
X179424221Y-139454991D01*
X179463190Y-139414707D01*
X179510644Y-139382683D01*
X179567980Y-139358711D01*
X179637147Y-139343340D01*
X179720537Y-139337828D01*
X179823074Y-139345544D01*
G37*
G36*
X177970708Y-140196000D02*
G01*
X178223279Y-140196000D01*
X178123775Y-139717528D01*
X178115293Y-139641947D01*
X178123011Y-139592585D01*
X178142066Y-139560960D01*
X178172110Y-139541874D01*
X178217344Y-139534785D01*
X178256786Y-139540589D01*
X178294139Y-139558275D01*
X178330624Y-139589667D01*
X178360219Y-139628571D01*
X178382807Y-139673837D01*
X178398328Y-139726540D01*
X178495928Y-140196000D01*
X178749305Y-140196000D01*
X178648775Y-139712618D01*
X178640579Y-139639182D01*
X178648187Y-139591166D01*
X178666891Y-139560349D01*
X178696405Y-139541714D01*
X178740879Y-139534785D01*
X178782073Y-139540475D01*
X178819933Y-139557536D01*
X178855697Y-139587249D01*
X178884413Y-139624720D01*
X178907397Y-139671603D01*
X178924207Y-139729764D01*
X179021147Y-140196000D01*
X179274525Y-140196000D01*
X179099989Y-139356586D01*
X178846612Y-139356586D01*
X178873942Y-139488037D01*
X178870718Y-139488037D01*
X178811402Y-139428000D01*
X178737948Y-139379667D01*
X178683642Y-139356182D01*
X178629250Y-139342396D01*
X178574110Y-139337828D01*
X178506476Y-139344853D01*
X178455034Y-139364046D01*
X178415970Y-139394155D01*
X178387079Y-139436129D01*
X178368140Y-139492946D01*
X178313528Y-139435338D01*
X178256119Y-139392269D01*
X178195393Y-139362112D01*
X178130471Y-139343989D01*
X178060174Y-139337828D01*
X177988736Y-139345107D01*
X177935727Y-139364761D01*
X177896611Y-139395243D01*
X177868766Y-139437477D01*
X177851951Y-139494655D01*
X177848366Y-139571724D01*
X177862337Y-139674883D01*
X177970708Y-140196000D01*
G37*
G36*
X177303538Y-139342820D02*
G01*
X177397641Y-139359297D01*
X177488737Y-139383718D01*
X177552613Y-139408756D01*
X177593426Y-139605127D01*
X177515452Y-139564890D01*
X177440340Y-139537320D01*
X177367410Y-139521280D01*
X177295938Y-139516027D01*
X177240336Y-139522483D01*
X177204985Y-139539010D01*
X177183638Y-139563966D01*
X177173884Y-139599440D01*
X177177896Y-139650556D01*
X177407093Y-139680745D01*
X177503811Y-139700878D01*
X177580936Y-139732081D01*
X177641992Y-139773195D01*
X177689554Y-139824221D01*
X177725033Y-139886315D01*
X177748545Y-139961673D01*
X177755769Y-140019980D01*
X177752339Y-140068839D01*
X177739705Y-140110250D01*
X177718283Y-140145808D01*
X177688792Y-140174710D01*
X177651327Y-140196055D01*
X177604084Y-140209775D01*
X177544553Y-140214757D01*
X177467265Y-140206114D01*
X177397026Y-140180623D01*
X177331945Y-140137559D01*
X177270879Y-140074440D01*
X177267655Y-140074440D01*
X177292934Y-140196000D01*
X177053185Y-140196000D01*
X176970961Y-139800619D01*
X177209110Y-139800619D01*
X177220687Y-139856380D01*
X177235831Y-139904654D01*
X177259413Y-139946242D01*
X177291762Y-139982189D01*
X177330861Y-140010048D01*
X177372672Y-140026369D01*
X177418377Y-140031868D01*
X177464567Y-140024286D01*
X177493995Y-140004025D01*
X177509718Y-139973065D01*
X177509162Y-139932437D01*
X177493188Y-139890499D01*
X177465237Y-139858426D01*
X177423167Y-139834668D01*
X177362323Y-139820036D01*
X177209110Y-139800619D01*
X176970961Y-139800619D01*
X176949064Y-139695326D01*
X176936611Y-139602462D01*
X176939811Y-139529319D01*
X176955500Y-139471641D01*
X176982106Y-139425965D01*
X177019828Y-139389931D01*
X177070593Y-139362583D01*
X177137798Y-139344525D01*
X177225963Y-139337828D01*
X177303538Y-139342820D01*
G37*
G36*
X176039455Y-140196000D02*
G01*
X176292027Y-140196000D01*
X176195087Y-139729764D01*
X176185812Y-139648683D01*
X176193671Y-139595936D01*
X176213386Y-139562356D01*
X176244391Y-139542230D01*
X176290928Y-139534785D01*
X176332733Y-139540351D01*
X176372015Y-139557143D01*
X176409923Y-139586443D01*
X176440981Y-139623449D01*
X176464180Y-139666766D01*
X176479605Y-139717528D01*
X176579110Y-140196000D01*
X176832487Y-140196000D01*
X176657951Y-139356586D01*
X176404574Y-139356586D01*
X176432271Y-139489649D01*
X176429047Y-139489649D01*
X176375943Y-139433008D01*
X176320507Y-139390827D01*
X176262253Y-139361411D01*
X176200352Y-139343798D01*
X176133684Y-139337828D01*
X176061102Y-139345258D01*
X176007225Y-139365327D01*
X175967447Y-139396482D01*
X175939120Y-139439694D01*
X175922031Y-139498262D01*
X175918460Y-139577272D01*
X175932843Y-139683090D01*
X176039455Y-140196000D01*
G37*
G36*
X175338775Y-139345544D02*
G01*
X175430842Y-139367886D01*
X175514177Y-139404274D01*
X175590146Y-139454991D01*
X175655868Y-139518109D01*
X175709122Y-139592193D01*
X175750427Y-139678676D01*
X175779483Y-139779590D01*
X175792190Y-139881527D01*
X175786380Y-139966189D01*
X175764740Y-140037237D01*
X175728119Y-140097594D01*
X175688689Y-140137881D01*
X175640788Y-140169914D01*
X175583025Y-140193887D01*
X175513468Y-140209251D01*
X175429752Y-140214757D01*
X175326989Y-140206802D01*
X175235000Y-140183783D01*
X175151954Y-140146279D01*
X175076430Y-140093930D01*
X175011216Y-140029164D01*
X174958281Y-139953738D01*
X174917151Y-139866277D01*
X174888119Y-139764862D01*
X174878597Y-139687470D01*
X175137073Y-139687470D01*
X175147285Y-139769771D01*
X175171279Y-139854308D01*
X175201672Y-139916845D01*
X175237371Y-139961889D01*
X175278305Y-139992771D01*
X175325455Y-140011352D01*
X175380732Y-140017800D01*
X175438654Y-140010823D01*
X175479542Y-139992148D01*
X175508007Y-139962805D01*
X175525894Y-139920604D01*
X175531814Y-139860678D01*
X175521416Y-139776293D01*
X175499851Y-139701835D01*
X175470707Y-139643304D01*
X175434661Y-139597873D01*
X175389549Y-139562700D01*
X175339268Y-139541895D01*
X175282034Y-139534785D01*
X175226482Y-139541532D01*
X175187233Y-139559608D01*
X175159876Y-139588069D01*
X175142688Y-139629098D01*
X175137073Y-139687470D01*
X174878597Y-139687470D01*
X174876124Y-139667373D01*
X174882040Y-139585300D01*
X174903511Y-139515375D01*
X174939923Y-139454991D01*
X174978891Y-139414707D01*
X175026346Y-139382683D01*
X175083682Y-139358711D01*
X175152849Y-139343340D01*
X175236238Y-139337828D01*
X175338775Y-139345544D01*
G37*
G36*
X173806465Y-139839600D02*
G01*
X174245003Y-139839600D01*
X174206974Y-139656711D01*
X173768436Y-139656711D01*
X173806465Y-139839600D01*
G37*
G36*
X172903084Y-139980284D02*
G01*
X172415600Y-139980284D01*
X172460443Y-140196000D01*
X173225265Y-140196000D01*
X173206653Y-140106533D01*
X173181166Y-140020240D01*
X173143419Y-139944893D01*
X173095468Y-139876546D01*
X173042083Y-139816373D01*
X172983576Y-139762395D01*
X172923014Y-139715623D01*
X172805118Y-139636635D01*
X172701877Y-139566146D01*
X172623914Y-139499321D01*
X172593620Y-139465130D01*
X172571011Y-139432057D01*
X172554045Y-139396857D01*
X172543021Y-139359443D01*
X172538135Y-139309694D01*
X172544842Y-139272851D01*
X172561046Y-139245211D01*
X172586393Y-139225222D01*
X172624568Y-139211725D01*
X172680481Y-139206523D01*
X172751456Y-139213362D01*
X172825781Y-139234623D01*
X172904745Y-139272105D01*
X172989546Y-139328449D01*
X172942065Y-139099764D01*
X172854490Y-139055716D01*
X172765914Y-139024791D01*
X172675660Y-139006355D01*
X172582955Y-139000187D01*
X172498975Y-139006399D01*
X172431133Y-139023561D01*
X172371912Y-139052630D01*
X172327526Y-139090385D01*
X172295387Y-139137946D01*
X172276088Y-139195752D01*
X172270717Y-139259422D01*
X172279532Y-139333944D01*
X172301992Y-139411692D01*
X172334047Y-139478292D01*
X172375113Y-139538643D01*
X172422927Y-139593110D01*
X172476560Y-139642423D01*
X172535987Y-139687852D01*
X172663115Y-139771090D01*
X172748771Y-139826265D01*
X172822923Y-139880193D01*
X172876999Y-139932071D01*
X172894767Y-139957898D01*
X172903084Y-139980284D01*
G37*
G36*
X171671384Y-139006714D02*
G01*
X171747011Y-139025809D01*
X171817082Y-139057287D01*
X171882583Y-139101697D01*
X171944162Y-139160288D01*
X172007067Y-139242834D01*
X172063218Y-139345567D01*
X172111932Y-139471912D01*
X172151964Y-139625863D01*
X172175345Y-139774503D01*
X172179603Y-139892260D01*
X172168833Y-139984765D01*
X172146070Y-140056968D01*
X172113078Y-140112997D01*
X172070170Y-140155899D01*
X172016174Y-140187355D01*
X171948588Y-140207472D01*
X171863855Y-140214757D01*
X171784147Y-140208334D01*
X171710675Y-140189498D01*
X171642230Y-140158350D01*
X171577869Y-140114260D01*
X171516981Y-140055902D01*
X171454727Y-139973956D01*
X171399374Y-139872689D01*
X171351563Y-139748912D01*
X171312477Y-139598899D01*
X171288273Y-139446527D01*
X171283730Y-139336099D01*
X171542949Y-139336099D01*
X171546245Y-139444255D01*
X171572449Y-139607472D01*
X171612125Y-139763919D01*
X171653095Y-139872045D01*
X171693948Y-139943202D01*
X171734046Y-139986888D01*
X171773813Y-140010333D01*
X171814909Y-140017800D01*
X171855109Y-140010058D01*
X171885134Y-139987645D01*
X171907346Y-139947285D01*
X171920041Y-139880749D01*
X171917974Y-139776358D01*
X171893311Y-139619782D01*
X171852444Y-139459007D01*
X171810056Y-139347733D01*
X171767632Y-139274365D01*
X171725839Y-139229208D01*
X171684238Y-139204903D01*
X171641106Y-139197144D01*
X171603623Y-139204749D01*
X171575444Y-139227021D01*
X171554527Y-139267829D01*
X171542949Y-139336099D01*
X171283730Y-139336099D01*
X171283318Y-139326089D01*
X171293446Y-139231783D01*
X171315525Y-139158490D01*
X171347665Y-139101920D01*
X171389403Y-139058853D01*
X171441767Y-139027439D01*
X171507129Y-139007422D01*
X171588935Y-139000187D01*
X171671384Y-139006714D01*
G37*
G36*
X170971025Y-139980284D02*
G01*
X170483541Y-139980284D01*
X170528384Y-140196000D01*
X171293206Y-140196000D01*
X171274595Y-140106533D01*
X171249108Y-140020240D01*
X171211360Y-139944893D01*
X171163409Y-139876546D01*
X171110024Y-139816373D01*
X171051517Y-139762395D01*
X170990956Y-139715623D01*
X170873060Y-139636635D01*
X170769818Y-139566146D01*
X170691856Y-139499321D01*
X170661562Y-139465130D01*
X170638953Y-139432057D01*
X170621986Y-139396857D01*
X170610963Y-139359443D01*
X170606076Y-139309694D01*
X170612784Y-139272851D01*
X170628988Y-139245211D01*
X170654334Y-139225222D01*
X170692509Y-139211725D01*
X170748422Y-139206523D01*
X170819398Y-139213362D01*
X170893722Y-139234623D01*
X170972686Y-139272105D01*
X171057487Y-139328449D01*
X171010006Y-139099764D01*
X170922431Y-139055716D01*
X170833855Y-139024791D01*
X170743601Y-139006355D01*
X170650896Y-139000187D01*
X170566916Y-139006399D01*
X170499075Y-139023561D01*
X170439854Y-139052630D01*
X170395467Y-139090385D01*
X170363328Y-139137946D01*
X170344030Y-139195752D01*
X170338658Y-139259422D01*
X170347473Y-139333944D01*
X170369933Y-139411692D01*
X170401988Y-139478292D01*
X170443054Y-139538643D01*
X170490868Y-139593110D01*
X170544501Y-139642423D01*
X170603928Y-139687852D01*
X170731057Y-139771090D01*
X170816713Y-139826265D01*
X170890865Y-139880193D01*
X170944940Y-139932071D01*
X170962709Y-139957898D01*
X170971025Y-139980284D01*
G37*
G36*
X170273248Y-140163979D02*
G01*
X170227233Y-139942769D01*
X170155989Y-139984303D01*
X170078168Y-140009265D01*
X169991880Y-140017800D01*
X169926666Y-140011906D01*
X169871662Y-139995199D01*
X169824891Y-139968341D01*
X169785874Y-139931480D01*
X169757913Y-139887178D01*
X169740408Y-139833958D01*
X169735887Y-139779251D01*
X169745675Y-139737834D01*
X169768061Y-139705669D01*
X169804956Y-139680711D01*
X169861436Y-139663437D01*
X169944912Y-139656711D01*
X170037472Y-139659930D01*
X170153007Y-139670633D01*
X169974221Y-139018944D01*
X169365690Y-139018944D01*
X169410533Y-139234660D01*
X169825844Y-139234660D01*
X169889738Y-139464663D01*
X169782100Y-139459754D01*
X169693242Y-139466727D01*
X169623014Y-139485852D01*
X169567667Y-139515380D01*
X169524399Y-139554935D01*
X169492393Y-139604308D01*
X169473343Y-139661813D01*
X169467672Y-139729742D01*
X169477431Y-139811024D01*
X169502786Y-139896562D01*
X169540906Y-139972747D01*
X169592079Y-140040916D01*
X169657390Y-140101917D01*
X169731494Y-140150648D01*
X169813122Y-140185710D01*
X169903641Y-140207291D01*
X170004776Y-140214757D01*
X170114813Y-140208333D01*
X170203008Y-140190750D01*
X170273248Y-140163979D01*
G37*
D11*
X105900001Y-85590588D02*
X105900000Y-85590588D01*
X190900000Y-135549999D02*
G75*
G02*
X183408654Y-143050000I-7500016J10D01*
G01*
X187684422Y-119406884D02*
X182507731Y-118371547D01*
X153900004Y-138050000D02*
G75*
G02*
X155899993Y-140050000I0J-1999989D01*
G01*
X109115537Y-119406893D02*
X114292232Y-118371554D01*
X140900000Y-140049994D02*
G75*
G02*
X142899995Y-138050000I1999995J-1D01*
G01*
X158400000Y-78050000D02*
G75*
G02*
X138400000Y-78050000I-10000000J0D01*
G01*
X138400000Y-78050000D02*
G75*
G02*
X158400000Y-78050000I10000000J0D01*
G01*
X105900000Y-85550000D02*
G75*
G02*
X190900000Y-85550000I42500000J0D01*
G01*
X182507739Y-89728452D02*
X188498785Y-88530243D01*
X156899964Y-143050000D02*
G75*
G02*
X155900043Y-142050000I0J999921D01*
G01*
X180900000Y-91689579D02*
G75*
G02*
X182507739Y-89728453I1999964J0D01*
G01*
X190900000Y-85550000D02*
X190900000Y-85590579D01*
X190900000Y-85590579D02*
G75*
G02*
X188498785Y-88530244I-3000036J0D01*
G01*
X114292232Y-89728446D02*
X108311651Y-88532330D01*
X182507731Y-118371547D02*
G75*
G02*
X180899982Y-116400480I392233J1961168D01*
G01*
X108311651Y-88532330D02*
G75*
G02*
X105900001Y-85590588I588348J2941740D01*
G01*
X114292232Y-89728446D02*
G75*
G02*
X115900000Y-91689607I-392231J-1961161D01*
G01*
X180900000Y-116400480D02*
X180900000Y-91689579D01*
X105900000Y-135549999D02*
X105900000Y-123329217D01*
X113400000Y-143050000D02*
G75*
G02*
X105900000Y-135549999I0J7500000D01*
G01*
X190900000Y-135549999D02*
X190900000Y-123329216D01*
X187684422Y-119406884D02*
G75*
G02*
X190899936Y-123329216I-784458J-3922295D01*
G01*
X140900000Y-142049997D02*
X140900000Y-140049994D01*
X105900000Y-123329217D02*
G75*
G02*
X109115537Y-119406893I4000001J0D01*
G01*
X142899995Y-138050000D02*
X153900004Y-138050000D01*
X115900000Y-116410393D02*
G75*
G02*
X114292232Y-118371554I-1999999J0D01*
G01*
X155900000Y-140050000D02*
X155900000Y-142050000D01*
X105900000Y-85550000D02*
X105900000Y-85590588D01*
X113400000Y-143050000D02*
X139899997Y-143050000D01*
X156899964Y-143050000D02*
X183408654Y-143050000D01*
X115900000Y-91689607D02*
X115900000Y-116410393D01*
X140900000Y-142049997D02*
G75*
G02*
X139899997Y-143050000I-1000004J1D01*
G01*
D12*
X120650000Y-140616033D02*
X120883333Y-140282700D01*
X121050000Y-140616033D02*
X121050000Y-139916033D01*
X121050000Y-139916033D02*
X120783333Y-139916033D01*
X120783333Y-139916033D02*
X120716667Y-139949366D01*
X120716667Y-139949366D02*
X120683333Y-139982700D01*
X120683333Y-139982700D02*
X120650000Y-140049366D01*
X120650000Y-140049366D02*
X120650000Y-140149366D01*
X120650000Y-140149366D02*
X120683333Y-140216033D01*
X120683333Y-140216033D02*
X120716667Y-140249366D01*
X120716667Y-140249366D02*
X120783333Y-140282700D01*
X120783333Y-140282700D02*
X121050000Y-140282700D01*
X119983333Y-140616033D02*
X120383333Y-140616033D01*
X120183333Y-140616033D02*
X120183333Y-139916033D01*
X120183333Y-139916033D02*
X120250000Y-140016033D01*
X120250000Y-140016033D02*
X120316667Y-140082700D01*
X120316667Y-140082700D02*
X120383333Y-140116033D01*
X119316666Y-140616033D02*
X119716666Y-140616033D01*
X119516666Y-140616033D02*
X119516666Y-139916033D01*
X119516666Y-139916033D02*
X119583333Y-140016033D01*
X119583333Y-140016033D02*
X119650000Y-140082700D01*
X119650000Y-140082700D02*
X119716666Y-140116033D01*
X146916033Y-111449999D02*
X146582700Y-111216666D01*
X146916033Y-111049999D02*
X146216033Y-111049999D01*
X146216033Y-111049999D02*
X146216033Y-111316666D01*
X146216033Y-111316666D02*
X146249366Y-111383333D01*
X146249366Y-111383333D02*
X146282700Y-111416666D01*
X146282700Y-111416666D02*
X146349366Y-111449999D01*
X146349366Y-111449999D02*
X146449366Y-111449999D01*
X146449366Y-111449999D02*
X146516033Y-111416666D01*
X146516033Y-111416666D02*
X146549366Y-111383333D01*
X146549366Y-111383333D02*
X146582700Y-111316666D01*
X146582700Y-111316666D02*
X146582700Y-111049999D01*
X146282700Y-111716666D02*
X146249366Y-111749999D01*
X146249366Y-111749999D02*
X146216033Y-111816666D01*
X146216033Y-111816666D02*
X146216033Y-111983333D01*
X146216033Y-111983333D02*
X146249366Y-112049999D01*
X146249366Y-112049999D02*
X146282700Y-112083333D01*
X146282700Y-112083333D02*
X146349366Y-112116666D01*
X146349366Y-112116666D02*
X146416033Y-112116666D01*
X146416033Y-112116666D02*
X146516033Y-112083333D01*
X146516033Y-112083333D02*
X146916033Y-111683333D01*
X146916033Y-111683333D02*
X146916033Y-112116666D01*
X146216033Y-112750000D02*
X146216033Y-112416666D01*
X146216033Y-112416666D02*
X146549366Y-112383333D01*
X146549366Y-112383333D02*
X146516033Y-112416666D01*
X146516033Y-112416666D02*
X146482700Y-112483333D01*
X146482700Y-112483333D02*
X146482700Y-112650000D01*
X146482700Y-112650000D02*
X146516033Y-112716666D01*
X146516033Y-112716666D02*
X146549366Y-112750000D01*
X146549366Y-112750000D02*
X146616033Y-112783333D01*
X146616033Y-112783333D02*
X146782700Y-112783333D01*
X146782700Y-112783333D02*
X146849366Y-112750000D01*
X146849366Y-112750000D02*
X146882700Y-112716666D01*
X146882700Y-112716666D02*
X146916033Y-112650000D01*
X146916033Y-112650000D02*
X146916033Y-112483333D01*
X146916033Y-112483333D02*
X146882700Y-112416666D01*
X146882700Y-112416666D02*
X146849366Y-112383333D01*
X161279366Y-125799999D02*
X161312700Y-125766666D01*
X161312700Y-125766666D02*
X161346033Y-125666666D01*
X161346033Y-125666666D02*
X161346033Y-125599999D01*
X161346033Y-125599999D02*
X161312700Y-125499999D01*
X161312700Y-125499999D02*
X161246033Y-125433333D01*
X161246033Y-125433333D02*
X161179366Y-125399999D01*
X161179366Y-125399999D02*
X161046033Y-125366666D01*
X161046033Y-125366666D02*
X160946033Y-125366666D01*
X160946033Y-125366666D02*
X160812700Y-125399999D01*
X160812700Y-125399999D02*
X160746033Y-125433333D01*
X160746033Y-125433333D02*
X160679366Y-125499999D01*
X160679366Y-125499999D02*
X160646033Y-125599999D01*
X160646033Y-125599999D02*
X160646033Y-125666666D01*
X160646033Y-125666666D02*
X160679366Y-125766666D01*
X160679366Y-125766666D02*
X160712700Y-125799999D01*
X160712700Y-126066666D02*
X160679366Y-126099999D01*
X160679366Y-126099999D02*
X160646033Y-126166666D01*
X160646033Y-126166666D02*
X160646033Y-126333333D01*
X160646033Y-126333333D02*
X160679366Y-126399999D01*
X160679366Y-126399999D02*
X160712700Y-126433333D01*
X160712700Y-126433333D02*
X160779366Y-126466666D01*
X160779366Y-126466666D02*
X160846033Y-126466666D01*
X160846033Y-126466666D02*
X160946033Y-126433333D01*
X160946033Y-126433333D02*
X161346033Y-126033333D01*
X161346033Y-126033333D02*
X161346033Y-126466666D01*
X160646033Y-127100000D02*
X160646033Y-126766666D01*
X160646033Y-126766666D02*
X160979366Y-126733333D01*
X160979366Y-126733333D02*
X160946033Y-126766666D01*
X160946033Y-126766666D02*
X160912700Y-126833333D01*
X160912700Y-126833333D02*
X160912700Y-127000000D01*
X160912700Y-127000000D02*
X160946033Y-127066666D01*
X160946033Y-127066666D02*
X160979366Y-127100000D01*
X160979366Y-127100000D02*
X161046033Y-127133333D01*
X161046033Y-127133333D02*
X161212700Y-127133333D01*
X161212700Y-127133333D02*
X161279366Y-127100000D01*
X161279366Y-127100000D02*
X161312700Y-127066666D01*
X161312700Y-127066666D02*
X161346033Y-127000000D01*
X161346033Y-127000000D02*
X161346033Y-126833333D01*
X161346033Y-126833333D02*
X161312700Y-126766666D01*
X161312700Y-126766666D02*
X161279366Y-126733333D01*
X146450000Y-60666033D02*
X146683333Y-60332700D01*
X146850000Y-60666033D02*
X146850000Y-59966033D01*
X146850000Y-59966033D02*
X146583333Y-59966033D01*
X146583333Y-59966033D02*
X146516667Y-59999366D01*
X146516667Y-59999366D02*
X146483333Y-60032700D01*
X146483333Y-60032700D02*
X146450000Y-60099366D01*
X146450000Y-60099366D02*
X146450000Y-60199366D01*
X146450000Y-60199366D02*
X146483333Y-60266033D01*
X146483333Y-60266033D02*
X146516667Y-60299366D01*
X146516667Y-60299366D02*
X146583333Y-60332700D01*
X146583333Y-60332700D02*
X146850000Y-60332700D01*
X145783333Y-60666033D02*
X146183333Y-60666033D01*
X145983333Y-60666033D02*
X145983333Y-59966033D01*
X145983333Y-59966033D02*
X146050000Y-60066033D01*
X146050000Y-60066033D02*
X146116667Y-60132700D01*
X146116667Y-60132700D02*
X146183333Y-60166033D01*
X145516666Y-60032700D02*
X145483333Y-59999366D01*
X145483333Y-59999366D02*
X145416666Y-59966033D01*
X145416666Y-59966033D02*
X145250000Y-59966033D01*
X145250000Y-59966033D02*
X145183333Y-59999366D01*
X145183333Y-59999366D02*
X145150000Y-60032700D01*
X145150000Y-60032700D02*
X145116666Y-60099366D01*
X145116666Y-60099366D02*
X145116666Y-60166033D01*
X145116666Y-60166033D02*
X145150000Y-60266033D01*
X145150000Y-60266033D02*
X145550000Y-60666033D01*
X145550000Y-60666033D02*
X145116666Y-60666033D01*
X136579366Y-123299999D02*
X136612700Y-123266666D01*
X136612700Y-123266666D02*
X136646033Y-123166666D01*
X136646033Y-123166666D02*
X136646033Y-123099999D01*
X136646033Y-123099999D02*
X136612700Y-122999999D01*
X136612700Y-122999999D02*
X136546033Y-122933333D01*
X136546033Y-122933333D02*
X136479366Y-122899999D01*
X136479366Y-122899999D02*
X136346033Y-122866666D01*
X136346033Y-122866666D02*
X136246033Y-122866666D01*
X136246033Y-122866666D02*
X136112700Y-122899999D01*
X136112700Y-122899999D02*
X136046033Y-122933333D01*
X136046033Y-122933333D02*
X135979366Y-122999999D01*
X135979366Y-122999999D02*
X135946033Y-123099999D01*
X135946033Y-123099999D02*
X135946033Y-123166666D01*
X135946033Y-123166666D02*
X135979366Y-123266666D01*
X135979366Y-123266666D02*
X136012700Y-123299999D01*
X136646033Y-123966666D02*
X136646033Y-123566666D01*
X136646033Y-123766666D02*
X135946033Y-123766666D01*
X135946033Y-123766666D02*
X136046033Y-123699999D01*
X136046033Y-123699999D02*
X136112700Y-123633333D01*
X136112700Y-123633333D02*
X136146033Y-123566666D01*
X136646033Y-124300000D02*
X136646033Y-124433333D01*
X136646033Y-124433333D02*
X136612700Y-124500000D01*
X136612700Y-124500000D02*
X136579366Y-124533333D01*
X136579366Y-124533333D02*
X136479366Y-124600000D01*
X136479366Y-124600000D02*
X136346033Y-124633333D01*
X136346033Y-124633333D02*
X136079366Y-124633333D01*
X136079366Y-124633333D02*
X136012700Y-124600000D01*
X136012700Y-124600000D02*
X135979366Y-124566666D01*
X135979366Y-124566666D02*
X135946033Y-124500000D01*
X135946033Y-124500000D02*
X135946033Y-124366666D01*
X135946033Y-124366666D02*
X135979366Y-124300000D01*
X135979366Y-124300000D02*
X136012700Y-124266666D01*
X136012700Y-124266666D02*
X136079366Y-124233333D01*
X136079366Y-124233333D02*
X136246033Y-124233333D01*
X136246033Y-124233333D02*
X136312700Y-124266666D01*
X136312700Y-124266666D02*
X136346033Y-124300000D01*
X136346033Y-124300000D02*
X136379366Y-124366666D01*
X136379366Y-124366666D02*
X136379366Y-124500000D01*
X136379366Y-124500000D02*
X136346033Y-124566666D01*
X136346033Y-124566666D02*
X136312700Y-124600000D01*
X136312700Y-124600000D02*
X136246033Y-124633333D01*
X130299366Y-123299999D02*
X130332700Y-123266666D01*
X130332700Y-123266666D02*
X130366033Y-123166666D01*
X130366033Y-123166666D02*
X130366033Y-123099999D01*
X130366033Y-123099999D02*
X130332700Y-122999999D01*
X130332700Y-122999999D02*
X130266033Y-122933333D01*
X130266033Y-122933333D02*
X130199366Y-122899999D01*
X130199366Y-122899999D02*
X130066033Y-122866666D01*
X130066033Y-122866666D02*
X129966033Y-122866666D01*
X129966033Y-122866666D02*
X129832700Y-122899999D01*
X129832700Y-122899999D02*
X129766033Y-122933333D01*
X129766033Y-122933333D02*
X129699366Y-122999999D01*
X129699366Y-122999999D02*
X129666033Y-123099999D01*
X129666033Y-123099999D02*
X129666033Y-123166666D01*
X129666033Y-123166666D02*
X129699366Y-123266666D01*
X129699366Y-123266666D02*
X129732700Y-123299999D01*
X130366033Y-123966666D02*
X130366033Y-123566666D01*
X130366033Y-123766666D02*
X129666033Y-123766666D01*
X129666033Y-123766666D02*
X129766033Y-123699999D01*
X129766033Y-123699999D02*
X129832700Y-123633333D01*
X129832700Y-123633333D02*
X129866033Y-123566666D01*
X129966033Y-124366666D02*
X129932700Y-124300000D01*
X129932700Y-124300000D02*
X129899366Y-124266666D01*
X129899366Y-124266666D02*
X129832700Y-124233333D01*
X129832700Y-124233333D02*
X129799366Y-124233333D01*
X129799366Y-124233333D02*
X129732700Y-124266666D01*
X129732700Y-124266666D02*
X129699366Y-124300000D01*
X129699366Y-124300000D02*
X129666033Y-124366666D01*
X129666033Y-124366666D02*
X129666033Y-124500000D01*
X129666033Y-124500000D02*
X129699366Y-124566666D01*
X129699366Y-124566666D02*
X129732700Y-124600000D01*
X129732700Y-124600000D02*
X129799366Y-124633333D01*
X129799366Y-124633333D02*
X129832700Y-124633333D01*
X129832700Y-124633333D02*
X129899366Y-124600000D01*
X129899366Y-124600000D02*
X129932700Y-124566666D01*
X129932700Y-124566666D02*
X129966033Y-124500000D01*
X129966033Y-124500000D02*
X129966033Y-124366666D01*
X129966033Y-124366666D02*
X129999366Y-124300000D01*
X129999366Y-124300000D02*
X130032700Y-124266666D01*
X130032700Y-124266666D02*
X130099366Y-124233333D01*
X130099366Y-124233333D02*
X130232700Y-124233333D01*
X130232700Y-124233333D02*
X130299366Y-124266666D01*
X130299366Y-124266666D02*
X130332700Y-124300000D01*
X130332700Y-124300000D02*
X130366033Y-124366666D01*
X130366033Y-124366666D02*
X130366033Y-124500000D01*
X130366033Y-124500000D02*
X130332700Y-124566666D01*
X130332700Y-124566666D02*
X130299366Y-124600000D01*
X130299366Y-124600000D02*
X130232700Y-124633333D01*
X130232700Y-124633333D02*
X130099366Y-124633333D01*
X130099366Y-124633333D02*
X130032700Y-124600000D01*
X130032700Y-124600000D02*
X129999366Y-124566666D01*
X129999366Y-124566666D02*
X129966033Y-124500000D01*
X146450000Y-56566033D02*
X146683333Y-56232700D01*
X146850000Y-56566033D02*
X146850000Y-55866033D01*
X146850000Y-55866033D02*
X146583333Y-55866033D01*
X146583333Y-55866033D02*
X146516667Y-55899366D01*
X146516667Y-55899366D02*
X146483333Y-55932700D01*
X146483333Y-55932700D02*
X146450000Y-55999366D01*
X146450000Y-55999366D02*
X146450000Y-56099366D01*
X146450000Y-56099366D02*
X146483333Y-56166033D01*
X146483333Y-56166033D02*
X146516667Y-56199366D01*
X146516667Y-56199366D02*
X146583333Y-56232700D01*
X146583333Y-56232700D02*
X146850000Y-56232700D01*
X145783333Y-56566033D02*
X146183333Y-56566033D01*
X145983333Y-56566033D02*
X145983333Y-55866033D01*
X145983333Y-55866033D02*
X146050000Y-55966033D01*
X146050000Y-55966033D02*
X146116667Y-56032700D01*
X146116667Y-56032700D02*
X146183333Y-56066033D01*
X145550000Y-55866033D02*
X145116666Y-55866033D01*
X145116666Y-55866033D02*
X145350000Y-56132700D01*
X145350000Y-56132700D02*
X145250000Y-56132700D01*
X145250000Y-56132700D02*
X145183333Y-56166033D01*
X145183333Y-56166033D02*
X145150000Y-56199366D01*
X145150000Y-56199366D02*
X145116666Y-56266033D01*
X145116666Y-56266033D02*
X145116666Y-56432700D01*
X145116666Y-56432700D02*
X145150000Y-56499366D01*
X145150000Y-56499366D02*
X145183333Y-56532700D01*
X145183333Y-56532700D02*
X145250000Y-56566033D01*
X145250000Y-56566033D02*
X145450000Y-56566033D01*
X145450000Y-56566033D02*
X145516666Y-56532700D01*
X145516666Y-56532700D02*
X145550000Y-56499366D01*
X146450000Y-52466033D02*
X146683333Y-52132700D01*
X146850000Y-52466033D02*
X146850000Y-51766033D01*
X146850000Y-51766033D02*
X146583333Y-51766033D01*
X146583333Y-51766033D02*
X146516667Y-51799366D01*
X146516667Y-51799366D02*
X146483333Y-51832700D01*
X146483333Y-51832700D02*
X146450000Y-51899366D01*
X146450000Y-51899366D02*
X146450000Y-51999366D01*
X146450000Y-51999366D02*
X146483333Y-52066033D01*
X146483333Y-52066033D02*
X146516667Y-52099366D01*
X146516667Y-52099366D02*
X146583333Y-52132700D01*
X146583333Y-52132700D02*
X146850000Y-52132700D01*
X145783333Y-52466033D02*
X146183333Y-52466033D01*
X145983333Y-52466033D02*
X145983333Y-51766033D01*
X145983333Y-51766033D02*
X146050000Y-51866033D01*
X146050000Y-51866033D02*
X146116667Y-51932700D01*
X146116667Y-51932700D02*
X146183333Y-51966033D01*
X145183333Y-51999366D02*
X145183333Y-52466033D01*
X145350000Y-51732700D02*
X145516666Y-52232700D01*
X145516666Y-52232700D02*
X145083333Y-52232700D01*
X148933333Y-104966033D02*
X148933333Y-105532700D01*
X148933333Y-105532700D02*
X148900000Y-105599366D01*
X148900000Y-105599366D02*
X148866666Y-105632700D01*
X148866666Y-105632700D02*
X148800000Y-105666033D01*
X148800000Y-105666033D02*
X148666666Y-105666033D01*
X148666666Y-105666033D02*
X148600000Y-105632700D01*
X148600000Y-105632700D02*
X148566666Y-105599366D01*
X148566666Y-105599366D02*
X148533333Y-105532700D01*
X148533333Y-105532700D02*
X148533333Y-104966033D01*
X147900000Y-104966033D02*
X148033333Y-104966033D01*
X148033333Y-104966033D02*
X148100000Y-104999366D01*
X148100000Y-104999366D02*
X148133333Y-105032700D01*
X148133333Y-105032700D02*
X148200000Y-105132700D01*
X148200000Y-105132700D02*
X148233333Y-105266033D01*
X148233333Y-105266033D02*
X148233333Y-105532700D01*
X148233333Y-105532700D02*
X148200000Y-105599366D01*
X148200000Y-105599366D02*
X148166667Y-105632700D01*
X148166667Y-105632700D02*
X148100000Y-105666033D01*
X148100000Y-105666033D02*
X147966667Y-105666033D01*
X147966667Y-105666033D02*
X147900000Y-105632700D01*
X147900000Y-105632700D02*
X147866667Y-105599366D01*
X147866667Y-105599366D02*
X147833333Y-105532700D01*
X147833333Y-105532700D02*
X147833333Y-105366033D01*
X147833333Y-105366033D02*
X147866667Y-105299366D01*
X147866667Y-105299366D02*
X147900000Y-105266033D01*
X147900000Y-105266033D02*
X147966667Y-105232700D01*
X147966667Y-105232700D02*
X148100000Y-105232700D01*
X148100000Y-105232700D02*
X148166667Y-105266033D01*
X148166667Y-105266033D02*
X148200000Y-105299366D01*
X148200000Y-105299366D02*
X148233333Y-105366033D01*
X152316033Y-111499999D02*
X151982700Y-111266666D01*
X152316033Y-111099999D02*
X151616033Y-111099999D01*
X151616033Y-111099999D02*
X151616033Y-111366666D01*
X151616033Y-111366666D02*
X151649366Y-111433333D01*
X151649366Y-111433333D02*
X151682700Y-111466666D01*
X151682700Y-111466666D02*
X151749366Y-111499999D01*
X151749366Y-111499999D02*
X151849366Y-111499999D01*
X151849366Y-111499999D02*
X151916033Y-111466666D01*
X151916033Y-111466666D02*
X151949366Y-111433333D01*
X151949366Y-111433333D02*
X151982700Y-111366666D01*
X151982700Y-111366666D02*
X151982700Y-111099999D01*
X151682700Y-111766666D02*
X151649366Y-111799999D01*
X151649366Y-111799999D02*
X151616033Y-111866666D01*
X151616033Y-111866666D02*
X151616033Y-112033333D01*
X151616033Y-112033333D02*
X151649366Y-112099999D01*
X151649366Y-112099999D02*
X151682700Y-112133333D01*
X151682700Y-112133333D02*
X151749366Y-112166666D01*
X151749366Y-112166666D02*
X151816033Y-112166666D01*
X151816033Y-112166666D02*
X151916033Y-112133333D01*
X151916033Y-112133333D02*
X152316033Y-111733333D01*
X152316033Y-111733333D02*
X152316033Y-112166666D01*
X151616033Y-112766666D02*
X151616033Y-112633333D01*
X151616033Y-112633333D02*
X151649366Y-112566666D01*
X151649366Y-112566666D02*
X151682700Y-112533333D01*
X151682700Y-112533333D02*
X151782700Y-112466666D01*
X151782700Y-112466666D02*
X151916033Y-112433333D01*
X151916033Y-112433333D02*
X152182700Y-112433333D01*
X152182700Y-112433333D02*
X152249366Y-112466666D01*
X152249366Y-112466666D02*
X152282700Y-112500000D01*
X152282700Y-112500000D02*
X152316033Y-112566666D01*
X152316033Y-112566666D02*
X152316033Y-112700000D01*
X152316033Y-112700000D02*
X152282700Y-112766666D01*
X152282700Y-112766666D02*
X152249366Y-112800000D01*
X152249366Y-112800000D02*
X152182700Y-112833333D01*
X152182700Y-112833333D02*
X152016033Y-112833333D01*
X152016033Y-112833333D02*
X151949366Y-112800000D01*
X151949366Y-112800000D02*
X151916033Y-112766666D01*
X151916033Y-112766666D02*
X151882700Y-112700000D01*
X151882700Y-112700000D02*
X151882700Y-112566666D01*
X151882700Y-112566666D02*
X151916033Y-112500000D01*
X151916033Y-112500000D02*
X151949366Y-112466666D01*
X151949366Y-112466666D02*
X152016033Y-112433333D01*
D13*
%TO.C,CS8*%
X185790000Y-110809165D02*
X185790000Y-111040835D01*
X186510000Y-110809165D02*
X186510000Y-111040835D01*
%TO.C,RS10*%
X192252062Y-109789999D02*
X191797934Y-109789999D01*
X192252062Y-111259999D02*
X191797934Y-111259999D01*
%TO.C,RS12*%
X186244999Y-113307379D02*
X186244999Y-113642621D01*
X187005001Y-113307379D02*
X187005001Y-113642621D01*
%TO.C,MOSFET-N4*%
X191325000Y-111615000D02*
X191975000Y-111614999D01*
X191325000Y-114735000D02*
X191975000Y-114735001D01*
X192625000Y-111615000D02*
X191975000Y-111614999D01*
X192625000Y-114735000D02*
X191975000Y-114735001D01*
X191052500Y-115014999D02*
X190572500Y-115015000D01*
X190812500Y-114685000D01*
X191052500Y-115014999D01*
G36*
X191052500Y-115014999D02*
G01*
X190572500Y-115015000D01*
X190812500Y-114685000D01*
X191052500Y-115014999D01*
G37*
%TO.C,RS8*%
X196565000Y-112460502D02*
X196565000Y-112006374D01*
X198035000Y-112460502D02*
X198035000Y-112006374D01*
%TO.C,CS7*%
X186715000Y-110809164D02*
X186715000Y-111040834D01*
X187435000Y-110809164D02*
X187435000Y-111040834D01*
%TO.C,RS12*%
X109894998Y-111832620D02*
X109894998Y-111497378D01*
X110655000Y-111832620D02*
X110655000Y-111497378D01*
%TO.C,MOSFET-N4*%
X104274999Y-110404999D02*
X104924999Y-110404998D01*
X104274999Y-113524999D02*
X104924999Y-113525000D01*
X105574999Y-110404999D02*
X104924999Y-110404998D01*
X105574999Y-113524999D02*
X104924999Y-113525000D01*
X106087499Y-110454999D02*
X105847499Y-110125000D01*
X106327499Y-110124999D01*
X106087499Y-110454999D01*
G36*
X106087499Y-110454999D02*
G01*
X105847499Y-110125000D01*
X106327499Y-110124999D01*
X106087499Y-110454999D01*
G37*
%TO.C,RS10*%
X104647937Y-113880000D02*
X105102065Y-113880000D01*
X104647937Y-115350000D02*
X105102065Y-115350000D01*
%TO.C,CS7*%
X109464999Y-114330835D02*
X109464999Y-114099165D01*
X110184999Y-114330835D02*
X110184999Y-114099165D01*
%TO.C,CS8*%
X110389999Y-114330834D02*
X110389999Y-114099164D01*
X111109999Y-114330834D02*
X111109999Y-114099164D01*
%TO.C,RS8*%
X98864999Y-112679497D02*
X98864999Y-113133625D01*
X100334999Y-112679497D02*
X100334999Y-113133625D01*
X196565000Y-104910502D02*
X196565000Y-104456374D01*
X198035000Y-104910502D02*
X198035000Y-104456374D01*
%TO.C,MOSFET-N4*%
X191325000Y-104065000D02*
X191975000Y-104064999D01*
X191325000Y-107185000D02*
X191975000Y-107185001D01*
X192625000Y-104065000D02*
X191975000Y-104064999D01*
X192625000Y-107185000D02*
X191975000Y-107185001D01*
X191052500Y-107464999D02*
X190572500Y-107465000D01*
X190812500Y-107135000D01*
X191052500Y-107464999D01*
G36*
X191052500Y-107464999D02*
G01*
X190572500Y-107465000D01*
X190812500Y-107135000D01*
X191052500Y-107464999D01*
G37*
%TO.C,CS7*%
X186715000Y-103259164D02*
X186715000Y-103490834D01*
X187435000Y-103259164D02*
X187435000Y-103490834D01*
%TO.C,RS12*%
X186244999Y-105757379D02*
X186244999Y-106092621D01*
X187005001Y-105757379D02*
X187005001Y-106092621D01*
%TO.C,RS10*%
X192252062Y-102239999D02*
X191797934Y-102239999D01*
X192252062Y-103709999D02*
X191797934Y-103709999D01*
%TO.C,CS8*%
X185790000Y-103259165D02*
X185790000Y-103490835D01*
X186510000Y-103259165D02*
X186510000Y-103490835D01*
%TO.C,RS12*%
X187025079Y-97462457D02*
X187025079Y-97797699D01*
X186265077Y-97462457D02*
X186265077Y-97797699D01*
%TO.C,MOSFET-N4*%
X192645078Y-98890078D02*
X191995078Y-98890079D01*
X192645078Y-95770078D02*
X191995078Y-95770077D01*
X191345078Y-98890078D02*
X191995078Y-98890079D01*
X191345078Y-95770078D02*
X191995078Y-95770077D01*
X191072578Y-99170077D02*
X190592578Y-99170078D01*
X190832578Y-98840078D01*
X191072578Y-99170077D01*
G36*
X191072578Y-99170077D02*
G01*
X190592578Y-99170078D01*
X190832578Y-98840078D01*
X191072578Y-99170077D01*
G37*
%TO.C,RS10*%
X192272140Y-95415077D02*
X191818012Y-95415077D01*
X192272140Y-93945077D02*
X191818012Y-93945077D01*
%TO.C,CS7*%
X187455078Y-94964242D02*
X187455078Y-95195912D01*
X186735078Y-94964242D02*
X186735078Y-95195912D01*
%TO.C,CS8*%
X186530078Y-94964243D02*
X186530078Y-95195913D01*
X185810078Y-94964243D02*
X185810078Y-95195913D01*
%TO.C,RS8*%
X198055078Y-96615580D02*
X198055078Y-96161452D01*
X196585078Y-96615580D02*
X196585078Y-96161452D01*
%TO.C,RS12*%
X109874920Y-103637542D02*
X109874920Y-103302300D01*
X110634922Y-103637542D02*
X110634922Y-103302300D01*
%TO.C,MOSFET-N4*%
X104254921Y-102209921D02*
X104904921Y-102209920D01*
X104254921Y-105329921D02*
X104904921Y-105329922D01*
X105554921Y-102209921D02*
X104904921Y-102209920D01*
X105554921Y-105329921D02*
X104904921Y-105329922D01*
X106067421Y-102259921D02*
X105827421Y-101929922D01*
X106307421Y-101929921D01*
X106067421Y-102259921D01*
G36*
X106067421Y-102259921D02*
G01*
X105827421Y-101929922D01*
X106307421Y-101929921D01*
X106067421Y-102259921D01*
G37*
%TO.C,RS10*%
X104627859Y-105684922D02*
X105081987Y-105684922D01*
X104627859Y-107154922D02*
X105081987Y-107154922D01*
%TO.C,CS7*%
X109444921Y-106135757D02*
X109444921Y-105904087D01*
X110164921Y-106135757D02*
X110164921Y-105904087D01*
%TO.C,CS8*%
X110369921Y-106135756D02*
X110369921Y-105904086D01*
X111089921Y-106135756D02*
X111089921Y-105904086D01*
%TO.C,RS8*%
X98844921Y-104484419D02*
X98844921Y-104938547D01*
X100314921Y-104484419D02*
X100314921Y-104938547D01*
%TO.C,RS12*%
X110560001Y-95167954D02*
X110560001Y-94832712D01*
X109799999Y-95167954D02*
X109799999Y-94832712D01*
%TO.C,RS8*%
X100240000Y-96014831D02*
X100240000Y-96468959D01*
X98770000Y-96014831D02*
X98770000Y-96468959D01*
%TO.C,CS7*%
X110090000Y-97666169D02*
X110090000Y-97434499D01*
X109370000Y-97666169D02*
X109370000Y-97434499D01*
%TO.C,CS8*%
X111015000Y-97666168D02*
X111015000Y-97434498D01*
X110295000Y-97666168D02*
X110295000Y-97434498D01*
%TO.C,MOSFET-N4*%
X105480000Y-93740333D02*
X104830000Y-93740332D01*
X104180000Y-93740333D02*
X104830000Y-93740332D01*
X105480000Y-96860333D02*
X104830000Y-96860334D01*
X104180000Y-96860333D02*
X104830000Y-96860334D01*
X105992500Y-93790333D02*
X105752500Y-93460334D01*
X106232500Y-93460333D01*
X105992500Y-93790333D01*
G36*
X105992500Y-93790333D02*
G01*
X105752500Y-93460334D01*
X106232500Y-93460333D01*
X105992500Y-93790333D01*
G37*
%TO.C,RS10*%
X104552938Y-97215334D02*
X105007066Y-97215334D01*
X104552938Y-98685334D02*
X105007066Y-98685334D01*
D14*
%TO.C,REF\u002A\u002A*%
X131387128Y-79503945D02*
X131417954Y-79513568D01*
X131455916Y-79529563D01*
X131474296Y-79538159D01*
X131487561Y-79539713D01*
X131490495Y-79527798D01*
X131490498Y-79527461D01*
X131496709Y-79516087D01*
X131518131Y-79510256D01*
X131559653Y-79508614D01*
X131628812Y-79508614D01*
X131628812Y-80112179D01*
X131490495Y-80112179D01*
X131490495Y-79696027D01*
X131456110Y-79664161D01*
X131445368Y-79655104D01*
X131413370Y-79639630D01*
X131373965Y-79639010D01*
X131320312Y-79652664D01*
X131302225Y-79653529D01*
X131281008Y-79640283D01*
X131252768Y-79608800D01*
X131239069Y-79591385D01*
X131222868Y-79566797D01*
X131220371Y-79551145D01*
X131229442Y-79537941D01*
X131257289Y-79521245D01*
X131300540Y-79508030D01*
X131347464Y-79501478D01*
X131387128Y-79503945D01*
G36*
X131387128Y-79503945D02*
G01*
X131417954Y-79513568D01*
X131455916Y-79529563D01*
X131474296Y-79538159D01*
X131487561Y-79539713D01*
X131490495Y-79527798D01*
X131490498Y-79527461D01*
X131496709Y-79516087D01*
X131518131Y-79510256D01*
X131559653Y-79508614D01*
X131628812Y-79508614D01*
X131628812Y-80112179D01*
X131490495Y-80112179D01*
X131490495Y-79696027D01*
X131456110Y-79664161D01*
X131445368Y-79655104D01*
X131413370Y-79639630D01*
X131373965Y-79639010D01*
X131320312Y-79652664D01*
X131302225Y-79653529D01*
X131281008Y-79640283D01*
X131252768Y-79608800D01*
X131239069Y-79591385D01*
X131222868Y-79566797D01*
X131220371Y-79551145D01*
X131229442Y-79537941D01*
X131257289Y-79521245D01*
X131300540Y-79508030D01*
X131347464Y-79501478D01*
X131387128Y-79503945D01*
G37*
X131570265Y-80459965D02*
X131608255Y-80477745D01*
X131641386Y-80503806D01*
X131641386Y-80477745D01*
X131642211Y-80467849D01*
X131649893Y-80457358D01*
X131670667Y-80452725D01*
X131710544Y-80451683D01*
X131779703Y-80451683D01*
X131779703Y-81067822D01*
X131641386Y-81067822D01*
X131641386Y-80867226D01*
X131641369Y-80855710D01*
X131640189Y-80774758D01*
X131637294Y-80708817D01*
X131632888Y-80661258D01*
X131627181Y-80635452D01*
X131621940Y-80625710D01*
X131589676Y-80595156D01*
X131545730Y-80581631D01*
X131497743Y-80587941D01*
X131485973Y-80592217D01*
X131460898Y-80599776D01*
X131443762Y-80597428D01*
X131426518Y-80582064D01*
X131401124Y-80550571D01*
X131359936Y-80498568D01*
X131388886Y-80475125D01*
X131416405Y-80461015D01*
X131464745Y-80451486D01*
X131519230Y-80451174D01*
X131570265Y-80459965D01*
G36*
X131570265Y-80459965D02*
G01*
X131608255Y-80477745D01*
X131641386Y-80503806D01*
X131641386Y-80477745D01*
X131642211Y-80467849D01*
X131649893Y-80457358D01*
X131670667Y-80452725D01*
X131710544Y-80451683D01*
X131779703Y-80451683D01*
X131779703Y-81067822D01*
X131641386Y-81067822D01*
X131641386Y-80867226D01*
X131641369Y-80855710D01*
X131640189Y-80774758D01*
X131637294Y-80708817D01*
X131632888Y-80661258D01*
X131627181Y-80635452D01*
X131621940Y-80625710D01*
X131589676Y-80595156D01*
X131545730Y-80581631D01*
X131497743Y-80587941D01*
X131485973Y-80592217D01*
X131460898Y-80599776D01*
X131443762Y-80597428D01*
X131426518Y-80582064D01*
X131401124Y-80550571D01*
X131359936Y-80498568D01*
X131388886Y-80475125D01*
X131416405Y-80461015D01*
X131464745Y-80451486D01*
X131519230Y-80451174D01*
X131570265Y-80459965D01*
G37*
X134193960Y-81067822D02*
X134068218Y-81067822D01*
X134068218Y-80873740D01*
X134068078Y-80828594D01*
X134066649Y-80753823D01*
X134063029Y-80698467D01*
X134056434Y-80658702D01*
X134046079Y-80630700D01*
X134031178Y-80610635D01*
X134010946Y-80594681D01*
X133988859Y-80582792D01*
X133962705Y-80579421D01*
X133925508Y-80586917D01*
X133913555Y-80590038D01*
X133883718Y-80594735D01*
X133862383Y-80588005D01*
X133837655Y-80567177D01*
X133832963Y-80562647D01*
X133807020Y-80534626D01*
X133790291Y-80511843D01*
X133787996Y-80506355D01*
X133792543Y-80486088D01*
X133815602Y-80469884D01*
X133851995Y-80458513D01*
X133896544Y-80452740D01*
X133944072Y-80453334D01*
X133989400Y-80461063D01*
X134027351Y-80476694D01*
X134039381Y-80483993D01*
X134059632Y-80494676D01*
X134067129Y-80492230D01*
X134068218Y-80476647D01*
X134068473Y-80471053D01*
X134074539Y-80458660D01*
X134093356Y-80453020D01*
X134131089Y-80451683D01*
X134193960Y-80451683D01*
X134193960Y-81067822D01*
G36*
X134193960Y-81067822D02*
G01*
X134068218Y-81067822D01*
X134068218Y-80873740D01*
X134068078Y-80828594D01*
X134066649Y-80753823D01*
X134063029Y-80698467D01*
X134056434Y-80658702D01*
X134046079Y-80630700D01*
X134031178Y-80610635D01*
X134010946Y-80594681D01*
X133988859Y-80582792D01*
X133962705Y-80579421D01*
X133925508Y-80586917D01*
X133913555Y-80590038D01*
X133883718Y-80594735D01*
X133862383Y-80588005D01*
X133837655Y-80567177D01*
X133832963Y-80562647D01*
X133807020Y-80534626D01*
X133790291Y-80511843D01*
X133787996Y-80506355D01*
X133792543Y-80486088D01*
X133815602Y-80469884D01*
X133851995Y-80458513D01*
X133896544Y-80452740D01*
X133944072Y-80453334D01*
X133989400Y-80461063D01*
X134027351Y-80476694D01*
X134039381Y-80483993D01*
X134059632Y-80494676D01*
X134067129Y-80492230D01*
X134068218Y-80476647D01*
X134068473Y-80471053D01*
X134074539Y-80458660D01*
X134093356Y-80453020D01*
X134131089Y-80451683D01*
X134193960Y-80451683D01*
X134193960Y-81067822D01*
G37*
X131880297Y-79704342D02*
X131881357Y-79792394D01*
X131885509Y-79863510D01*
X131893921Y-79915199D01*
X131907757Y-79950360D01*
X131928182Y-79971889D01*
X131956364Y-79982682D01*
X131993465Y-79985636D01*
X132028890Y-79983000D01*
X132057500Y-79972679D01*
X132078296Y-79951772D01*
X132092442Y-79917381D01*
X132101103Y-79866610D01*
X132105445Y-79796563D01*
X132106633Y-79704342D01*
X132106633Y-79508614D01*
X132232376Y-79508614D01*
X132232376Y-79744578D01*
X132232160Y-79807561D01*
X132230484Y-79889007D01*
X132226277Y-79951121D01*
X132218521Y-79997458D01*
X132206196Y-80031573D01*
X132188285Y-80057022D01*
X132163767Y-80077362D01*
X132131623Y-80096147D01*
X132064125Y-80119928D01*
X131993681Y-80121480D01*
X131927264Y-80099580D01*
X131898286Y-80085383D01*
X131883909Y-80083261D01*
X131880297Y-80093293D01*
X131874299Y-80104556D01*
X131852830Y-80110489D01*
X131811138Y-80112179D01*
X131741980Y-80112179D01*
X131741980Y-79508614D01*
X131880297Y-79508614D01*
X131880297Y-79704342D01*
G36*
X131880297Y-79704342D02*
G01*
X131881357Y-79792394D01*
X131885509Y-79863510D01*
X131893921Y-79915199D01*
X131907757Y-79950360D01*
X131928182Y-79971889D01*
X131956364Y-79982682D01*
X131993465Y-79985636D01*
X132028890Y-79983000D01*
X132057500Y-79972679D01*
X132078296Y-79951772D01*
X132092442Y-79917381D01*
X132101103Y-79866610D01*
X132105445Y-79796563D01*
X132106633Y-79704342D01*
X132106633Y-79508614D01*
X132232376Y-79508614D01*
X132232376Y-79744578D01*
X132232160Y-79807561D01*
X132230484Y-79889007D01*
X132226277Y-79951121D01*
X132218521Y-79997458D01*
X132206196Y-80031573D01*
X132188285Y-80057022D01*
X132163767Y-80077362D01*
X132131623Y-80096147D01*
X132064125Y-80119928D01*
X131993681Y-80121480D01*
X131927264Y-80099580D01*
X131898286Y-80085383D01*
X131883909Y-80083261D01*
X131880297Y-80093293D01*
X131874299Y-80104556D01*
X131852830Y-80110489D01*
X131811138Y-80112179D01*
X131741980Y-80112179D01*
X131741980Y-79508614D01*
X131880297Y-79508614D01*
X131880297Y-79704342D01*
G37*
X133982605Y-79507424D02*
X134039926Y-79525434D01*
X134065199Y-79537674D01*
X134077910Y-79538938D01*
X134080792Y-79527798D01*
X134080795Y-79527461D01*
X134087006Y-79516087D01*
X134108428Y-79510256D01*
X134149950Y-79508614D01*
X134219109Y-79508614D01*
X134219109Y-80112179D01*
X134080792Y-80112179D01*
X134080792Y-79904132D01*
X134080697Y-79833879D01*
X134080051Y-79776170D01*
X134078320Y-79735787D01*
X134074974Y-79708615D01*
X134069481Y-79690540D01*
X134061310Y-79677447D01*
X134049928Y-79665221D01*
X134034424Y-79652217D01*
X133989843Y-79634745D01*
X133943047Y-79639873D01*
X133900180Y-79667507D01*
X133887927Y-79680368D01*
X133879132Y-79693384D01*
X133873233Y-79710706D01*
X133869651Y-79736501D01*
X133867809Y-79774939D01*
X133867128Y-79830189D01*
X133867030Y-79906418D01*
X133867030Y-80112179D01*
X133728713Y-80112179D01*
X133728989Y-79888985D01*
X133729008Y-79879044D01*
X133730207Y-79784106D01*
X133733891Y-79710358D01*
X133741006Y-79654214D01*
X133752500Y-79612087D01*
X133769318Y-79580391D01*
X133792409Y-79555541D01*
X133822717Y-79533950D01*
X133854012Y-79519002D01*
X133917037Y-79505421D01*
X133982605Y-79507424D01*
G36*
X133982605Y-79507424D02*
G01*
X134039926Y-79525434D01*
X134065199Y-79537674D01*
X134077910Y-79538938D01*
X134080792Y-79527798D01*
X134080795Y-79527461D01*
X134087006Y-79516087D01*
X134108428Y-79510256D01*
X134149950Y-79508614D01*
X134219109Y-79508614D01*
X134219109Y-80112179D01*
X134080792Y-80112179D01*
X134080792Y-79904132D01*
X134080697Y-79833879D01*
X134080051Y-79776170D01*
X134078320Y-79735787D01*
X134074974Y-79708615D01*
X134069481Y-79690540D01*
X134061310Y-79677447D01*
X134049928Y-79665221D01*
X134034424Y-79652217D01*
X133989843Y-79634745D01*
X133943047Y-79639873D01*
X133900180Y-79667507D01*
X133887927Y-79680368D01*
X133879132Y-79693384D01*
X133873233Y-79710706D01*
X133869651Y-79736501D01*
X133867809Y-79774939D01*
X133867128Y-79830189D01*
X133867030Y-79906418D01*
X133867030Y-80112179D01*
X133728713Y-80112179D01*
X133728989Y-79888985D01*
X133729008Y-79879044D01*
X133730207Y-79784106D01*
X133733891Y-79710358D01*
X133741006Y-79654214D01*
X133752500Y-79612087D01*
X133769318Y-79580391D01*
X133792409Y-79555541D01*
X133822717Y-79533950D01*
X133854012Y-79519002D01*
X133917037Y-79505421D01*
X133982605Y-79507424D01*
G37*
X131033409Y-79511493D02*
X131102021Y-79538224D01*
X131160048Y-79582351D01*
X131202907Y-79642958D01*
X131205801Y-79649137D01*
X131224176Y-79709409D01*
X131233357Y-79781407D01*
X131233285Y-79856369D01*
X131223901Y-79925536D01*
X131205149Y-79980149D01*
X131181995Y-80018212D01*
X131131030Y-80072135D01*
X131067306Y-80106411D01*
X131012785Y-80120272D01*
X130929767Y-80121785D01*
X130850326Y-80100882D01*
X130779879Y-80058464D01*
X130734284Y-80020880D01*
X130775351Y-79978510D01*
X130801296Y-79953409D01*
X130824764Y-79939434D01*
X130846524Y-79942511D01*
X130874356Y-79961287D01*
X130885454Y-79968638D01*
X130932337Y-79983683D01*
X130986224Y-79983673D01*
X131036675Y-79968168D01*
X131055672Y-79955716D01*
X131083537Y-79918946D01*
X131097506Y-79864939D01*
X131098405Y-79791331D01*
X131098403Y-79791289D01*
X131088009Y-79725433D01*
X131065114Y-79679772D01*
X131027439Y-79651528D01*
X130972708Y-79637920D01*
X130938241Y-79636090D01*
X130908126Y-79643584D01*
X130877240Y-79665295D01*
X130837272Y-79698926D01*
X130786656Y-79658250D01*
X130768163Y-79642667D01*
X130745065Y-79620340D01*
X130736039Y-79607183D01*
X130739236Y-79601253D01*
X130757646Y-79583048D01*
X130786973Y-79559895D01*
X130809920Y-79544830D01*
X130882774Y-79513880D01*
X130958799Y-79503073D01*
X131033409Y-79511493D01*
G36*
X131033409Y-79511493D02*
G01*
X131102021Y-79538224D01*
X131160048Y-79582351D01*
X131202907Y-79642958D01*
X131205801Y-79649137D01*
X131224176Y-79709409D01*
X131233357Y-79781407D01*
X131233285Y-79856369D01*
X131223901Y-79925536D01*
X131205149Y-79980149D01*
X131181995Y-80018212D01*
X131131030Y-80072135D01*
X131067306Y-80106411D01*
X131012785Y-80120272D01*
X130929767Y-80121785D01*
X130850326Y-80100882D01*
X130779879Y-80058464D01*
X130734284Y-80020880D01*
X130775351Y-79978510D01*
X130801296Y-79953409D01*
X130824764Y-79939434D01*
X130846524Y-79942511D01*
X130874356Y-79961287D01*
X130885454Y-79968638D01*
X130932337Y-79983683D01*
X130986224Y-79983673D01*
X131036675Y-79968168D01*
X131055672Y-79955716D01*
X131083537Y-79918946D01*
X131097506Y-79864939D01*
X131098405Y-79791331D01*
X131098403Y-79791289D01*
X131088009Y-79725433D01*
X131065114Y-79679772D01*
X131027439Y-79651528D01*
X130972708Y-79637920D01*
X130938241Y-79636090D01*
X130908126Y-79643584D01*
X130877240Y-79665295D01*
X130837272Y-79698926D01*
X130786656Y-79658250D01*
X130768163Y-79642667D01*
X130745065Y-79620340D01*
X130736039Y-79607183D01*
X130739236Y-79601253D01*
X130757646Y-79583048D01*
X130786973Y-79559895D01*
X130809920Y-79544830D01*
X130882774Y-79513880D01*
X130958799Y-79503073D01*
X131033409Y-79511493D01*
G37*
X132832857Y-79853771D02*
X132829349Y-79893565D01*
X132813844Y-79969538D01*
X132786110Y-80027511D01*
X132743898Y-80071300D01*
X132684960Y-80104722D01*
X132662076Y-80112676D01*
X132602812Y-80122601D01*
X132540447Y-80122331D01*
X132487823Y-80111430D01*
X132486789Y-80111034D01*
X132444381Y-80086087D01*
X132401537Y-80047468D01*
X132365986Y-80003306D01*
X132345459Y-79961727D01*
X132339374Y-79931334D01*
X132334164Y-79874429D01*
X132333291Y-79823705D01*
X132459976Y-79823705D01*
X132467549Y-79884545D01*
X132485341Y-79934538D01*
X132512296Y-79967204D01*
X132522513Y-79972812D01*
X132561473Y-79983007D01*
X132606536Y-79985104D01*
X132644448Y-79978020D01*
X132659244Y-79967861D01*
X132680014Y-79932334D01*
X132693083Y-79876732D01*
X132697624Y-79803766D01*
X132697551Y-79782762D01*
X132695974Y-79740203D01*
X132690728Y-79712439D01*
X132679723Y-79691925D01*
X132660868Y-79671112D01*
X132624989Y-79645887D01*
X132578280Y-79635573D01*
X132533151Y-79645396D01*
X132495680Y-79673805D01*
X132471943Y-79719253D01*
X132463675Y-79758497D01*
X132459976Y-79823705D01*
X132333291Y-79823705D01*
X132333049Y-79809621D01*
X132335844Y-79745116D01*
X132342366Y-79689121D01*
X132352432Y-79649842D01*
X132375877Y-79605372D01*
X132425637Y-79550692D01*
X132489238Y-79516055D01*
X132564790Y-79502345D01*
X132650399Y-79510448D01*
X132664644Y-79513899D01*
X132730982Y-79543664D01*
X132780971Y-79592530D01*
X132814612Y-79660501D01*
X132831906Y-79747580D01*
X132832410Y-79803766D01*
X132832857Y-79853771D01*
G36*
X132832857Y-79853771D02*
G01*
X132829349Y-79893565D01*
X132813844Y-79969538D01*
X132786110Y-80027511D01*
X132743898Y-80071300D01*
X132684960Y-80104722D01*
X132662076Y-80112676D01*
X132602812Y-80122601D01*
X132540447Y-80122331D01*
X132487823Y-80111430D01*
X132486789Y-80111034D01*
X132444381Y-80086087D01*
X132401537Y-80047468D01*
X132365986Y-80003306D01*
X132345459Y-79961727D01*
X132339374Y-79931334D01*
X132334164Y-79874429D01*
X132333291Y-79823705D01*
X132459976Y-79823705D01*
X132467549Y-79884545D01*
X132485341Y-79934538D01*
X132512296Y-79967204D01*
X132522513Y-79972812D01*
X132561473Y-79983007D01*
X132606536Y-79985104D01*
X132644448Y-79978020D01*
X132659244Y-79967861D01*
X132680014Y-79932334D01*
X132693083Y-79876732D01*
X132697624Y-79803766D01*
X132697551Y-79782762D01*
X132695974Y-79740203D01*
X132690728Y-79712439D01*
X132679723Y-79691925D01*
X132660868Y-79671112D01*
X132624989Y-79645887D01*
X132578280Y-79635573D01*
X132533151Y-79645396D01*
X132495680Y-79673805D01*
X132471943Y-79719253D01*
X132463675Y-79758497D01*
X132459976Y-79823705D01*
X132333291Y-79823705D01*
X132333049Y-79809621D01*
X132335844Y-79745116D01*
X132342366Y-79689121D01*
X132352432Y-79649842D01*
X132375877Y-79605372D01*
X132425637Y-79550692D01*
X132489238Y-79516055D01*
X132564790Y-79502345D01*
X132650399Y-79510448D01*
X132664644Y-79513899D01*
X132730982Y-79543664D01*
X132780971Y-79592530D01*
X132814612Y-79660501D01*
X132831906Y-79747580D01*
X132832410Y-79803766D01*
X132832857Y-79853771D01*
G37*
X132932997Y-80649130D02*
X132949997Y-80699850D01*
X132970107Y-80755997D01*
X132986899Y-80798532D01*
X132998986Y-80823990D01*
X133004980Y-80828903D01*
X133006426Y-80824630D01*
X133014254Y-80798422D01*
X133026723Y-80754649D01*
X133042447Y-80698211D01*
X133060043Y-80634010D01*
X133107914Y-80457971D01*
X133181007Y-80454152D01*
X133187177Y-80453846D01*
X133226592Y-80453441D01*
X133245533Y-80457487D01*
X133247945Y-80466726D01*
X133244898Y-80475749D01*
X133234874Y-80506632D01*
X133219180Y-80555544D01*
X133198934Y-80618987D01*
X133175256Y-80693462D01*
X133149263Y-80775471D01*
X133056736Y-81067822D01*
X132940993Y-81067822D01*
X132886457Y-80882352D01*
X132876386Y-80848294D01*
X132857775Y-80786378D01*
X132841872Y-80734787D01*
X132830109Y-80698130D01*
X132823918Y-80681018D01*
X132822154Y-80679741D01*
X132813571Y-80690779D01*
X132801316Y-80719969D01*
X132787426Y-80762750D01*
X132786692Y-80765263D01*
X132768096Y-80828400D01*
X132746818Y-80899889D01*
X132727321Y-80964734D01*
X132695705Y-81069122D01*
X132637402Y-81065328D01*
X132579098Y-81061535D01*
X132525098Y-80891782D01*
X132501390Y-80817193D01*
X132474833Y-80733539D01*
X132449404Y-80653342D01*
X132428354Y-80586857D01*
X132385609Y-80451683D01*
X132528612Y-80451683D01*
X132563274Y-80580570D01*
X132572488Y-80614625D01*
X132589915Y-80678115D01*
X132606054Y-80735874D01*
X132618322Y-80778614D01*
X132638709Y-80847773D01*
X132768745Y-80457971D01*
X132818476Y-80454237D01*
X132868206Y-80450504D01*
X132932997Y-80649130D01*
G36*
X132932997Y-80649130D02*
G01*
X132949997Y-80699850D01*
X132970107Y-80755997D01*
X132986899Y-80798532D01*
X132998986Y-80823990D01*
X133004980Y-80828903D01*
X133006426Y-80824630D01*
X133014254Y-80798422D01*
X133026723Y-80754649D01*
X133042447Y-80698211D01*
X133060043Y-80634010D01*
X133107914Y-80457971D01*
X133181007Y-80454152D01*
X133187177Y-80453846D01*
X133226592Y-80453441D01*
X133245533Y-80457487D01*
X133247945Y-80466726D01*
X133244898Y-80475749D01*
X133234874Y-80506632D01*
X133219180Y-80555544D01*
X133198934Y-80618987D01*
X133175256Y-80693462D01*
X133149263Y-80775471D01*
X133056736Y-81067822D01*
X132940993Y-81067822D01*
X132886457Y-80882352D01*
X132876386Y-80848294D01*
X132857775Y-80786378D01*
X132841872Y-80734787D01*
X132830109Y-80698130D01*
X132823918Y-80681018D01*
X132822154Y-80679741D01*
X132813571Y-80690779D01*
X132801316Y-80719969D01*
X132787426Y-80762750D01*
X132786692Y-80765263D01*
X132768096Y-80828400D01*
X132746818Y-80899889D01*
X132727321Y-80964734D01*
X132695705Y-81069122D01*
X132637402Y-81065328D01*
X132579098Y-81061535D01*
X132525098Y-80891782D01*
X132501390Y-80817193D01*
X132474833Y-80733539D01*
X132449404Y-80653342D01*
X132428354Y-80586857D01*
X132385609Y-80451683D01*
X132528612Y-80451683D01*
X132563274Y-80580570D01*
X132572488Y-80614625D01*
X132589915Y-80678115D01*
X132606054Y-80735874D01*
X132618322Y-80778614D01*
X132638709Y-80847773D01*
X132768745Y-80457971D01*
X132818476Y-80454237D01*
X132868206Y-80450504D01*
X132932997Y-80649130D01*
G37*
X135964997Y-79844931D02*
X135963373Y-79884310D01*
X135959688Y-79932332D01*
X135953410Y-79966368D01*
X135943044Y-79993338D01*
X135927092Y-80020158D01*
X135926412Y-80021175D01*
X135887132Y-80064629D01*
X135839072Y-80097772D01*
X135783185Y-80117439D01*
X135709666Y-80123824D01*
X135637609Y-80111268D01*
X135573201Y-80081011D01*
X135522627Y-80034294D01*
X135508108Y-80012221D01*
X135480993Y-79943602D01*
X135467546Y-79858939D01*
X135467776Y-79837523D01*
X135602920Y-79837523D01*
X135603174Y-79877574D01*
X135607421Y-79904313D01*
X135617096Y-79924859D01*
X135633638Y-79946331D01*
X135656593Y-79967639D01*
X135702505Y-79986653D01*
X135751802Y-79983122D01*
X135798917Y-79956694D01*
X135812207Y-79944072D01*
X135826397Y-79922465D01*
X135834266Y-79892094D01*
X135838726Y-79844770D01*
X135839955Y-79809219D01*
X135833224Y-79736620D01*
X135812567Y-79684642D01*
X135777894Y-79652999D01*
X135737249Y-79637847D01*
X135688777Y-79639123D01*
X135643845Y-79664703D01*
X135633103Y-79674442D01*
X135619548Y-79691480D01*
X135611505Y-79713772D01*
X135607043Y-79747947D01*
X135604228Y-79800638D01*
X135602920Y-79837523D01*
X135467776Y-79837523D01*
X135468583Y-79762351D01*
X135469907Y-79748651D01*
X135488374Y-79660908D01*
X135522540Y-79592793D01*
X135572479Y-79544231D01*
X135638261Y-79515148D01*
X135719961Y-79505471D01*
X135750828Y-79506379D01*
X135814128Y-79517493D01*
X135865889Y-79544021D01*
X135914147Y-79589436D01*
X135921865Y-79598551D01*
X135942681Y-79629248D01*
X135956362Y-79664007D01*
X135963948Y-79708056D01*
X135966479Y-79766621D01*
X135965672Y-79809219D01*
X135964997Y-79844931D01*
G36*
X135964997Y-79844931D02*
G01*
X135963373Y-79884310D01*
X135959688Y-79932332D01*
X135953410Y-79966368D01*
X135943044Y-79993338D01*
X135927092Y-80020158D01*
X135926412Y-80021175D01*
X135887132Y-80064629D01*
X135839072Y-80097772D01*
X135783185Y-80117439D01*
X135709666Y-80123824D01*
X135637609Y-80111268D01*
X135573201Y-80081011D01*
X135522627Y-80034294D01*
X135508108Y-80012221D01*
X135480993Y-79943602D01*
X135467546Y-79858939D01*
X135467776Y-79837523D01*
X135602920Y-79837523D01*
X135603174Y-79877574D01*
X135607421Y-79904313D01*
X135617096Y-79924859D01*
X135633638Y-79946331D01*
X135656593Y-79967639D01*
X135702505Y-79986653D01*
X135751802Y-79983122D01*
X135798917Y-79956694D01*
X135812207Y-79944072D01*
X135826397Y-79922465D01*
X135834266Y-79892094D01*
X135838726Y-79844770D01*
X135839955Y-79809219D01*
X135833224Y-79736620D01*
X135812567Y-79684642D01*
X135777894Y-79652999D01*
X135737249Y-79637847D01*
X135688777Y-79639123D01*
X135643845Y-79664703D01*
X135633103Y-79674442D01*
X135619548Y-79691480D01*
X135611505Y-79713772D01*
X135607043Y-79747947D01*
X135604228Y-79800638D01*
X135602920Y-79837523D01*
X135467776Y-79837523D01*
X135468583Y-79762351D01*
X135469907Y-79748651D01*
X135488374Y-79660908D01*
X135522540Y-79592793D01*
X135572479Y-79544231D01*
X135638261Y-79515148D01*
X135719961Y-79505471D01*
X135750828Y-79506379D01*
X135814128Y-79517493D01*
X135865889Y-79544021D01*
X135914147Y-79589436D01*
X135921865Y-79598551D01*
X135942681Y-79629248D01*
X135956362Y-79664007D01*
X135963948Y-79708056D01*
X135966479Y-79766621D01*
X135965672Y-79809219D01*
X135964997Y-79844931D01*
G37*
X133790761Y-80806813D02*
X133789167Y-80860571D01*
X133785962Y-80898018D01*
X133785413Y-80901450D01*
X133763838Y-80962835D01*
X133724438Y-81014877D01*
X133672752Y-81050135D01*
X133617248Y-81064729D01*
X133548977Y-81063597D01*
X133486173Y-81044029D01*
X133469815Y-81035771D01*
X133448779Y-81026923D01*
X133440774Y-81029676D01*
X133439505Y-81044029D01*
X133438922Y-81051186D01*
X133431394Y-81061772D01*
X133410488Y-81066645D01*
X133370346Y-81067822D01*
X133301188Y-81067822D01*
X133301188Y-80765930D01*
X133439505Y-80765930D01*
X133440496Y-80818230D01*
X133444519Y-80853050D01*
X133453108Y-80876905D01*
X133467797Y-80896895D01*
X133506584Y-80926618D01*
X133551974Y-80936582D01*
X133595989Y-80924260D01*
X133633060Y-80889888D01*
X133642859Y-80864735D01*
X133650097Y-80820194D01*
X133653279Y-80766155D01*
X133652277Y-80710728D01*
X133646961Y-80662022D01*
X133637204Y-80628148D01*
X133634087Y-80622593D01*
X133604038Y-80594674D01*
X133563315Y-80582306D01*
X133519579Y-80585183D01*
X133480491Y-80603000D01*
X133453710Y-80635452D01*
X133452603Y-80638181D01*
X133445963Y-80668634D01*
X133441278Y-80714139D01*
X133439505Y-80765930D01*
X133301188Y-80765930D01*
X133301188Y-80212773D01*
X133439505Y-80212773D01*
X133439505Y-80505878D01*
X133465124Y-80482693D01*
X133489792Y-80468282D01*
X133536480Y-80456236D01*
X133591056Y-80452354D01*
X133644354Y-80457120D01*
X133687207Y-80471014D01*
X133717878Y-80490779D01*
X133749471Y-80524449D01*
X133770733Y-80569730D01*
X133783514Y-80630981D01*
X133789664Y-80712563D01*
X133790568Y-80745540D01*
X133790633Y-80766155D01*
X133790761Y-80806813D01*
G36*
X133790761Y-80806813D02*
G01*
X133789167Y-80860571D01*
X133785962Y-80898018D01*
X133785413Y-80901450D01*
X133763838Y-80962835D01*
X133724438Y-81014877D01*
X133672752Y-81050135D01*
X133617248Y-81064729D01*
X133548977Y-81063597D01*
X133486173Y-81044029D01*
X133469815Y-81035771D01*
X133448779Y-81026923D01*
X133440774Y-81029676D01*
X133439505Y-81044029D01*
X133438922Y-81051186D01*
X133431394Y-81061772D01*
X133410488Y-81066645D01*
X133370346Y-81067822D01*
X133301188Y-81067822D01*
X133301188Y-80765930D01*
X133439505Y-80765930D01*
X133440496Y-80818230D01*
X133444519Y-80853050D01*
X133453108Y-80876905D01*
X133467797Y-80896895D01*
X133506584Y-80926618D01*
X133551974Y-80936582D01*
X133595989Y-80924260D01*
X133633060Y-80889888D01*
X133642859Y-80864735D01*
X133650097Y-80820194D01*
X133653279Y-80766155D01*
X133652277Y-80710728D01*
X133646961Y-80662022D01*
X133637204Y-80628148D01*
X133634087Y-80622593D01*
X133604038Y-80594674D01*
X133563315Y-80582306D01*
X133519579Y-80585183D01*
X133480491Y-80603000D01*
X133453710Y-80635452D01*
X133452603Y-80638181D01*
X133445963Y-80668634D01*
X133441278Y-80714139D01*
X133439505Y-80765930D01*
X133301188Y-80765930D01*
X133301188Y-80212773D01*
X133439505Y-80212773D01*
X133439505Y-80505878D01*
X133465124Y-80482693D01*
X133489792Y-80468282D01*
X133536480Y-80456236D01*
X133591056Y-80452354D01*
X133644354Y-80457120D01*
X133687207Y-80471014D01*
X133717878Y-80490779D01*
X133749471Y-80524449D01*
X133770733Y-80569730D01*
X133783514Y-80630981D01*
X133789664Y-80712563D01*
X133790568Y-80745540D01*
X133790633Y-80766155D01*
X133790761Y-80806813D01*
G37*
X130719444Y-79769878D02*
X130717825Y-79866121D01*
X130717615Y-79868014D01*
X130699535Y-79956325D01*
X130666870Y-80024986D01*
X130618601Y-80075506D01*
X130553713Y-80109393D01*
X130541801Y-80113268D01*
X130467971Y-80124688D01*
X130391614Y-80118320D01*
X130320626Y-80095563D01*
X130262904Y-80057819D01*
X130219667Y-80017872D01*
X130265625Y-79981532D01*
X130311583Y-79945193D01*
X130366969Y-79972101D01*
X130431056Y-79993905D01*
X130487632Y-79994558D01*
X130533920Y-79974525D01*
X130567230Y-79934315D01*
X130579171Y-79910222D01*
X130585837Y-79889630D01*
X130581980Y-79875720D01*
X130564675Y-79867181D01*
X130530997Y-79862704D01*
X130478021Y-79860978D01*
X130402822Y-79860693D01*
X130220495Y-79860693D01*
X130220495Y-79773492D01*
X130221857Y-79735210D01*
X130350234Y-79735210D01*
X130356399Y-79742251D01*
X130374654Y-79745916D01*
X130409352Y-79747306D01*
X130464846Y-79747525D01*
X130494603Y-79747176D01*
X130541562Y-79744867D01*
X130573416Y-79740822D01*
X130585148Y-79735542D01*
X130582146Y-79716062D01*
X130560988Y-79678786D01*
X130525731Y-79648164D01*
X130483699Y-79629668D01*
X130442220Y-79628773D01*
X130410997Y-79643604D01*
X130375618Y-79677355D01*
X130353122Y-79719233D01*
X130351805Y-79723690D01*
X130350234Y-79735210D01*
X130221857Y-79735210D01*
X130222136Y-79727371D01*
X130226955Y-79681740D01*
X130233840Y-79650893D01*
X130238859Y-79639117D01*
X130275390Y-79586667D01*
X130328175Y-79542921D01*
X130389904Y-79514279D01*
X130422102Y-79506457D01*
X130498820Y-79502896D01*
X130567179Y-79521009D01*
X130625299Y-79558779D01*
X130671302Y-79614191D01*
X130703310Y-79685229D01*
X130712900Y-79735542D01*
X130719444Y-79769878D01*
G36*
X130719444Y-79769878D02*
G01*
X130717825Y-79866121D01*
X130717615Y-79868014D01*
X130699535Y-79956325D01*
X130666870Y-80024986D01*
X130618601Y-80075506D01*
X130553713Y-80109393D01*
X130541801Y-80113268D01*
X130467971Y-80124688D01*
X130391614Y-80118320D01*
X130320626Y-80095563D01*
X130262904Y-80057819D01*
X130219667Y-80017872D01*
X130265625Y-79981532D01*
X130311583Y-79945193D01*
X130366969Y-79972101D01*
X130431056Y-79993905D01*
X130487632Y-79994558D01*
X130533920Y-79974525D01*
X130567230Y-79934315D01*
X130579171Y-79910222D01*
X130585837Y-79889630D01*
X130581980Y-79875720D01*
X130564675Y-79867181D01*
X130530997Y-79862704D01*
X130478021Y-79860978D01*
X130402822Y-79860693D01*
X130220495Y-79860693D01*
X130220495Y-79773492D01*
X130221857Y-79735210D01*
X130350234Y-79735210D01*
X130356399Y-79742251D01*
X130374654Y-79745916D01*
X130409352Y-79747306D01*
X130464846Y-79747525D01*
X130494603Y-79747176D01*
X130541562Y-79744867D01*
X130573416Y-79740822D01*
X130585148Y-79735542D01*
X130582146Y-79716062D01*
X130560988Y-79678786D01*
X130525731Y-79648164D01*
X130483699Y-79629668D01*
X130442220Y-79628773D01*
X130410997Y-79643604D01*
X130375618Y-79677355D01*
X130353122Y-79719233D01*
X130351805Y-79723690D01*
X130350234Y-79735210D01*
X130221857Y-79735210D01*
X130222136Y-79727371D01*
X130226955Y-79681740D01*
X130233840Y-79650893D01*
X130238859Y-79639117D01*
X130275390Y-79586667D01*
X130328175Y-79542921D01*
X130389904Y-79514279D01*
X130422102Y-79506457D01*
X130498820Y-79502896D01*
X130567179Y-79521009D01*
X130625299Y-79558779D01*
X130671302Y-79614191D01*
X130703310Y-79685229D01*
X130712900Y-79735542D01*
X130719444Y-79769878D01*
G37*
X133198874Y-79508207D02*
X133271495Y-79526408D01*
X133324546Y-79560144D01*
X133358329Y-79609642D01*
X133373147Y-79675126D01*
X133370147Y-79737820D01*
X133348493Y-79790699D01*
X133306967Y-79829796D01*
X133244736Y-79855873D01*
X133160969Y-79869695D01*
X133106540Y-79876940D01*
X133056860Y-79892615D01*
X133031211Y-79915314D01*
X133029662Y-79944998D01*
X133039984Y-79963507D01*
X133071951Y-79985443D01*
X133117395Y-79995818D01*
X133170649Y-79994399D01*
X133226048Y-79980952D01*
X133277928Y-79955243D01*
X133329653Y-79921013D01*
X133375148Y-79967049D01*
X133420643Y-80013084D01*
X133382921Y-80043876D01*
X133368253Y-80054574D01*
X133326983Y-80078880D01*
X133282327Y-80099825D01*
X133246984Y-80111845D01*
X133195234Y-80120552D01*
X133131435Y-80120667D01*
X133053200Y-80111081D01*
X132982722Y-80086783D01*
X132932836Y-80048188D01*
X132903423Y-79995198D01*
X132894365Y-79927718D01*
X132900921Y-79868354D01*
X132921970Y-79819752D01*
X132959864Y-79784946D01*
X133017004Y-79761798D01*
X133095785Y-79748170D01*
X133104834Y-79747183D01*
X133153885Y-79740892D01*
X133193675Y-79734309D01*
X133216312Y-79728708D01*
X133223866Y-79724197D01*
X133236637Y-79700941D01*
X133234563Y-79671171D01*
X133217495Y-79645327D01*
X133208533Y-79639691D01*
X133171188Y-79630660D01*
X133122950Y-79631267D01*
X133072650Y-79640878D01*
X133029115Y-79658858D01*
X132983372Y-79685847D01*
X132947890Y-79644384D01*
X132939280Y-79633850D01*
X132919883Y-79605632D01*
X132911897Y-79586508D01*
X132920283Y-79574781D01*
X132946226Y-79556476D01*
X132983688Y-79536777D01*
X132988966Y-79534370D01*
X133038366Y-79515482D01*
X133085983Y-79506452D01*
X133145072Y-79504639D01*
X133198874Y-79508207D01*
G36*
X133198874Y-79508207D02*
G01*
X133271495Y-79526408D01*
X133324546Y-79560144D01*
X133358329Y-79609642D01*
X133373147Y-79675126D01*
X133370147Y-79737820D01*
X133348493Y-79790699D01*
X133306967Y-79829796D01*
X133244736Y-79855873D01*
X133160969Y-79869695D01*
X133106540Y-79876940D01*
X133056860Y-79892615D01*
X133031211Y-79915314D01*
X133029662Y-79944998D01*
X133039984Y-79963507D01*
X133071951Y-79985443D01*
X133117395Y-79995818D01*
X133170649Y-79994399D01*
X133226048Y-79980952D01*
X133277928Y-79955243D01*
X133329653Y-79921013D01*
X133375148Y-79967049D01*
X133420643Y-80013084D01*
X133382921Y-80043876D01*
X133368253Y-80054574D01*
X133326983Y-80078880D01*
X133282327Y-80099825D01*
X133246984Y-80111845D01*
X133195234Y-80120552D01*
X133131435Y-80120667D01*
X133053200Y-80111081D01*
X132982722Y-80086783D01*
X132932836Y-80048188D01*
X132903423Y-79995198D01*
X132894365Y-79927718D01*
X132900921Y-79868354D01*
X132921970Y-79819752D01*
X132959864Y-79784946D01*
X133017004Y-79761798D01*
X133095785Y-79748170D01*
X133104834Y-79747183D01*
X133153885Y-79740892D01*
X133193675Y-79734309D01*
X133216312Y-79728708D01*
X133223866Y-79724197D01*
X133236637Y-79700941D01*
X133234563Y-79671171D01*
X133217495Y-79645327D01*
X133208533Y-79639691D01*
X133171188Y-79630660D01*
X133122950Y-79631267D01*
X133072650Y-79640878D01*
X133029115Y-79658858D01*
X132983372Y-79685847D01*
X132947890Y-79644384D01*
X132939280Y-79633850D01*
X132919883Y-79605632D01*
X132911897Y-79586508D01*
X132920283Y-79574781D01*
X132946226Y-79556476D01*
X132983688Y-79536777D01*
X132988966Y-79534370D01*
X133038366Y-79515482D01*
X133085983Y-79506452D01*
X133145072Y-79504639D01*
X133198874Y-79508207D01*
G37*
X131364353Y-80759753D02*
X131362718Y-80806692D01*
X131347827Y-80896459D01*
X131317185Y-80967045D01*
X131270524Y-81018952D01*
X131207574Y-81052686D01*
X131187235Y-81058647D01*
X131114612Y-81066971D01*
X131037928Y-81059946D01*
X130968663Y-81038265D01*
X130944262Y-81025959D01*
X130909275Y-81004879D01*
X130888072Y-80987534D01*
X130884942Y-80983571D01*
X130879085Y-80969077D01*
X130887524Y-80953321D01*
X130913221Y-80929460D01*
X130925622Y-80919072D01*
X130950052Y-80900063D01*
X130962861Y-80892293D01*
X130966530Y-80893094D01*
X130987561Y-80901745D01*
X131018960Y-80916931D01*
X131029197Y-80921926D01*
X131089590Y-80940475D01*
X131142057Y-80935694D01*
X131188065Y-80907500D01*
X131193419Y-80902291D01*
X131219013Y-80869659D01*
X131233637Y-80838342D01*
X131241736Y-80803763D01*
X130861782Y-80803763D01*
X130861852Y-80737748D01*
X130861892Y-80731182D01*
X130867022Y-80678218D01*
X131000099Y-80678218D01*
X131001670Y-80689203D01*
X131009738Y-80696773D01*
X131028967Y-80700975D01*
X131064019Y-80702783D01*
X131119554Y-80703169D01*
X131150429Y-80702768D01*
X131196002Y-80700429D01*
X131227348Y-80696465D01*
X131239010Y-80691413D01*
X131229064Y-80649827D01*
X131199947Y-80611013D01*
X131157952Y-80584086D01*
X131109440Y-80574772D01*
X131073723Y-80585272D01*
X131038020Y-80610940D01*
X131010879Y-80644381D01*
X131000099Y-80678218D01*
X130867022Y-80678218D01*
X130869758Y-80649965D01*
X130892655Y-80583895D01*
X130932607Y-80526940D01*
X130956979Y-80502848D01*
X131007315Y-80470597D01*
X131067419Y-80454970D01*
X131143338Y-80453871D01*
X131180010Y-80458179D01*
X131247703Y-80480549D01*
X131299530Y-80521263D01*
X131335945Y-80580949D01*
X131357401Y-80660236D01*
X131359579Y-80691413D01*
X131364353Y-80759753D01*
G36*
X131364353Y-80759753D02*
G01*
X131362718Y-80806692D01*
X131347827Y-80896459D01*
X131317185Y-80967045D01*
X131270524Y-81018952D01*
X131207574Y-81052686D01*
X131187235Y-81058647D01*
X131114612Y-81066971D01*
X131037928Y-81059946D01*
X130968663Y-81038265D01*
X130944262Y-81025959D01*
X130909275Y-81004879D01*
X130888072Y-80987534D01*
X130884942Y-80983571D01*
X130879085Y-80969077D01*
X130887524Y-80953321D01*
X130913221Y-80929460D01*
X130925622Y-80919072D01*
X130950052Y-80900063D01*
X130962861Y-80892293D01*
X130966530Y-80893094D01*
X130987561Y-80901745D01*
X131018960Y-80916931D01*
X131029197Y-80921926D01*
X131089590Y-80940475D01*
X131142057Y-80935694D01*
X131188065Y-80907500D01*
X131193419Y-80902291D01*
X131219013Y-80869659D01*
X131233637Y-80838342D01*
X131241736Y-80803763D01*
X130861782Y-80803763D01*
X130861852Y-80737748D01*
X130861892Y-80731182D01*
X130867022Y-80678218D01*
X131000099Y-80678218D01*
X131001670Y-80689203D01*
X131009738Y-80696773D01*
X131028967Y-80700975D01*
X131064019Y-80702783D01*
X131119554Y-80703169D01*
X131150429Y-80702768D01*
X131196002Y-80700429D01*
X131227348Y-80696465D01*
X131239010Y-80691413D01*
X131229064Y-80649827D01*
X131199947Y-80611013D01*
X131157952Y-80584086D01*
X131109440Y-80574772D01*
X131073723Y-80585272D01*
X131038020Y-80610940D01*
X131010879Y-80644381D01*
X131000099Y-80678218D01*
X130867022Y-80678218D01*
X130869758Y-80649965D01*
X130892655Y-80583895D01*
X130932607Y-80526940D01*
X130956979Y-80502848D01*
X131007315Y-80470597D01*
X131067419Y-80454970D01*
X131143338Y-80453871D01*
X131180010Y-80458179D01*
X131247703Y-80480549D01*
X131299530Y-80521263D01*
X131335945Y-80580949D01*
X131357401Y-80660236D01*
X131359579Y-80691413D01*
X131364353Y-80759753D01*
G37*
X134807022Y-79734861D02*
X134811421Y-79822936D01*
X134810322Y-79861371D01*
X134797926Y-79945367D01*
X134770608Y-80011595D01*
X134726941Y-80062784D01*
X134665495Y-80101663D01*
X134605888Y-80119812D01*
X134531110Y-80123284D01*
X134455664Y-80109930D01*
X134388366Y-80080425D01*
X134363428Y-80064012D01*
X134335951Y-80042973D01*
X134323414Y-80029129D01*
X134324124Y-80023417D01*
X134338158Y-80003955D01*
X134364533Y-79980376D01*
X134410240Y-79945513D01*
X134463799Y-79972262D01*
X134478282Y-79978882D01*
X134520916Y-79993273D01*
X134556649Y-79999010D01*
X134582998Y-79994282D01*
X134624347Y-79971514D01*
X134659104Y-79936170D01*
X134678983Y-79895273D01*
X134687083Y-79860693D01*
X134307129Y-79860693D01*
X134307199Y-79794679D01*
X134307774Y-79773757D01*
X134311972Y-79728862D01*
X134445445Y-79728862D01*
X134445690Y-79731434D01*
X134452604Y-79739443D01*
X134472141Y-79744364D01*
X134508467Y-79746843D01*
X134565748Y-79747525D01*
X134584575Y-79747517D01*
X134633470Y-79747065D01*
X134662863Y-79745113D01*
X134677115Y-79740558D01*
X134680582Y-79732299D01*
X134677625Y-79719233D01*
X134677173Y-79717752D01*
X134651699Y-79672285D01*
X134611539Y-79640981D01*
X134563651Y-79629327D01*
X134545949Y-79630259D01*
X134513094Y-79641408D01*
X134481575Y-79669763D01*
X134473085Y-79679789D01*
X134453336Y-79708423D01*
X134445445Y-79728862D01*
X134311972Y-79728862D01*
X134312512Y-79723091D01*
X134320459Y-79681166D01*
X134329168Y-79657696D01*
X134359790Y-79606646D01*
X134400799Y-79560283D01*
X134444168Y-79528514D01*
X134456699Y-79522614D01*
X134529661Y-79503046D01*
X134604168Y-79505109D01*
X134674217Y-79527931D01*
X134733807Y-79570639D01*
X134766038Y-79610025D01*
X134792392Y-79665510D01*
X134806482Y-79732299D01*
X134807022Y-79734861D01*
G36*
X134807022Y-79734861D02*
G01*
X134811421Y-79822936D01*
X134810322Y-79861371D01*
X134797926Y-79945367D01*
X134770608Y-80011595D01*
X134726941Y-80062784D01*
X134665495Y-80101663D01*
X134605888Y-80119812D01*
X134531110Y-80123284D01*
X134455664Y-80109930D01*
X134388366Y-80080425D01*
X134363428Y-80064012D01*
X134335951Y-80042973D01*
X134323414Y-80029129D01*
X134324124Y-80023417D01*
X134338158Y-80003955D01*
X134364533Y-79980376D01*
X134410240Y-79945513D01*
X134463799Y-79972262D01*
X134478282Y-79978882D01*
X134520916Y-79993273D01*
X134556649Y-79999010D01*
X134582998Y-79994282D01*
X134624347Y-79971514D01*
X134659104Y-79936170D01*
X134678983Y-79895273D01*
X134687083Y-79860693D01*
X134307129Y-79860693D01*
X134307199Y-79794679D01*
X134307774Y-79773757D01*
X134311972Y-79728862D01*
X134445445Y-79728862D01*
X134445690Y-79731434D01*
X134452604Y-79739443D01*
X134472141Y-79744364D01*
X134508467Y-79746843D01*
X134565748Y-79747525D01*
X134584575Y-79747517D01*
X134633470Y-79747065D01*
X134662863Y-79745113D01*
X134677115Y-79740558D01*
X134680582Y-79732299D01*
X134677625Y-79719233D01*
X134677173Y-79717752D01*
X134651699Y-79672285D01*
X134611539Y-79640981D01*
X134563651Y-79629327D01*
X134545949Y-79630259D01*
X134513094Y-79641408D01*
X134481575Y-79669763D01*
X134473085Y-79679789D01*
X134453336Y-79708423D01*
X134445445Y-79728862D01*
X134311972Y-79728862D01*
X134312512Y-79723091D01*
X134320459Y-79681166D01*
X134329168Y-79657696D01*
X134359790Y-79606646D01*
X134400799Y-79560283D01*
X134444168Y-79528514D01*
X134456699Y-79522614D01*
X134529661Y-79503046D01*
X134604168Y-79505109D01*
X134674217Y-79527931D01*
X134733807Y-79570639D01*
X134766038Y-79610025D01*
X134792392Y-79665510D01*
X134806482Y-79732299D01*
X134807022Y-79734861D01*
G37*
X132389413Y-80902333D02*
X132374244Y-80959419D01*
X132341277Y-81008255D01*
X132291270Y-81043386D01*
X132286362Y-81045521D01*
X132231646Y-81060903D01*
X132169993Y-81066899D01*
X132111376Y-81063233D01*
X132065767Y-81049629D01*
X132047549Y-81040754D01*
X132034179Y-81038637D01*
X132031188Y-81049706D01*
X132025524Y-81059942D01*
X132003607Y-81066038D01*
X131961068Y-81067822D01*
X131890948Y-81067822D01*
X131895053Y-80825768D01*
X131895492Y-80803763D01*
X132031188Y-80803763D01*
X132031188Y-80847773D01*
X132035924Y-80880666D01*
X132056336Y-80916931D01*
X132063871Y-80923597D01*
X132094753Y-80937620D01*
X132141213Y-80941228D01*
X132169090Y-80939819D01*
X132221255Y-80929204D01*
X132253587Y-80909425D01*
X132264492Y-80881824D01*
X132252374Y-80847743D01*
X132245304Y-80838824D01*
X132213724Y-80818818D01*
X132163744Y-80807395D01*
X132092487Y-80803763D01*
X132031188Y-80803763D01*
X131895492Y-80803763D01*
X131896169Y-80769794D01*
X131899106Y-80685996D01*
X131904058Y-80621920D01*
X131912002Y-80574073D01*
X131923917Y-80538962D01*
X131940780Y-80513093D01*
X131963572Y-80492974D01*
X131993269Y-80475110D01*
X132008589Y-80468290D01*
X132061589Y-80455417D01*
X132125513Y-80450095D01*
X132191602Y-80452227D01*
X132251099Y-80461714D01*
X132295247Y-80478461D01*
X132310604Y-80488185D01*
X132345960Y-80517005D01*
X132357926Y-80541137D01*
X132355020Y-80545800D01*
X132336909Y-80562088D01*
X132307672Y-80583817D01*
X132292725Y-80593987D01*
X132267270Y-80608397D01*
X132250728Y-80609773D01*
X132235370Y-80599827D01*
X132197094Y-80579684D01*
X132145590Y-80571400D01*
X132092957Y-80577742D01*
X132091961Y-80578030D01*
X132054838Y-80594158D01*
X132036463Y-80619405D01*
X132031380Y-80661158D01*
X132031188Y-80700879D01*
X132162423Y-80705168D01*
X132183331Y-80705873D01*
X132236043Y-80708326D01*
X132271381Y-80712180D01*
X132295267Y-80718878D01*
X132313624Y-80729864D01*
X132332376Y-80746580D01*
X132363337Y-80785244D01*
X132386029Y-80842456D01*
X132388254Y-80881824D01*
X132389413Y-80902333D01*
G36*
X132389413Y-80902333D02*
G01*
X132374244Y-80959419D01*
X132341277Y-81008255D01*
X132291270Y-81043386D01*
X132286362Y-81045521D01*
X132231646Y-81060903D01*
X132169993Y-81066899D01*
X132111376Y-81063233D01*
X132065767Y-81049629D01*
X132047549Y-81040754D01*
X132034179Y-81038637D01*
X132031188Y-81049706D01*
X132025524Y-81059942D01*
X132003607Y-81066038D01*
X131961068Y-81067822D01*
X131890948Y-81067822D01*
X131895053Y-80825768D01*
X131895492Y-80803763D01*
X132031188Y-80803763D01*
X132031188Y-80847773D01*
X132035924Y-80880666D01*
X132056336Y-80916931D01*
X132063871Y-80923597D01*
X132094753Y-80937620D01*
X132141213Y-80941228D01*
X132169090Y-80939819D01*
X132221255Y-80929204D01*
X132253587Y-80909425D01*
X132264492Y-80881824D01*
X132252374Y-80847743D01*
X132245304Y-80838824D01*
X132213724Y-80818818D01*
X132163744Y-80807395D01*
X132092487Y-80803763D01*
X132031188Y-80803763D01*
X131895492Y-80803763D01*
X131896169Y-80769794D01*
X131899106Y-80685996D01*
X131904058Y-80621920D01*
X131912002Y-80574073D01*
X131923917Y-80538962D01*
X131940780Y-80513093D01*
X131963572Y-80492974D01*
X131993269Y-80475110D01*
X132008589Y-80468290D01*
X132061589Y-80455417D01*
X132125513Y-80450095D01*
X132191602Y-80452227D01*
X132251099Y-80461714D01*
X132295247Y-80478461D01*
X132310604Y-80488185D01*
X132345960Y-80517005D01*
X132357926Y-80541137D01*
X132355020Y-80545800D01*
X132336909Y-80562088D01*
X132307672Y-80583817D01*
X132292725Y-80593987D01*
X132267270Y-80608397D01*
X132250728Y-80609773D01*
X132235370Y-80599827D01*
X132197094Y-80579684D01*
X132145590Y-80571400D01*
X132092957Y-80577742D01*
X132091961Y-80578030D01*
X132054838Y-80594158D01*
X132036463Y-80619405D01*
X132031380Y-80661158D01*
X132031188Y-80700879D01*
X132162423Y-80705168D01*
X132183331Y-80705873D01*
X132236043Y-80708326D01*
X132271381Y-80712180D01*
X132295267Y-80718878D01*
X132313624Y-80729864D01*
X132332376Y-80746580D01*
X132363337Y-80785244D01*
X132386029Y-80842456D01*
X132388254Y-80881824D01*
X132389413Y-80902333D01*
G37*
X134807299Y-80900223D02*
X134807157Y-80901882D01*
X134791835Y-80966479D01*
X134757753Y-81015063D01*
X134703218Y-81050072D01*
X134675036Y-81058589D01*
X134626764Y-81065228D01*
X134573978Y-81066813D01*
X134526353Y-81063160D01*
X134493566Y-81054083D01*
X134473652Y-81046813D01*
X134454155Y-81054083D01*
X134447023Y-81058295D01*
X134418557Y-81065126D01*
X134380059Y-81067822D01*
X134319703Y-81067822D01*
X134319703Y-80824484D01*
X134319707Y-80803763D01*
X134458020Y-80803763D01*
X134458020Y-80852111D01*
X134462668Y-80888904D01*
X134481015Y-80921269D01*
X134491514Y-80928274D01*
X134528988Y-80939191D01*
X134575773Y-80941917D01*
X134621652Y-80936379D01*
X134656410Y-80922505D01*
X134673726Y-80904161D01*
X134684356Y-80871566D01*
X134674929Y-80845729D01*
X134643764Y-80823263D01*
X134593667Y-80808850D01*
X134527582Y-80803763D01*
X134458020Y-80803763D01*
X134319707Y-80803763D01*
X134319707Y-80803440D01*
X134319937Y-80724122D01*
X134320797Y-80665154D01*
X134322679Y-80622616D01*
X134325974Y-80592592D01*
X134331073Y-80571163D01*
X134338366Y-80554411D01*
X134348246Y-80538419D01*
X134380023Y-80500948D01*
X134425055Y-80472339D01*
X134484210Y-80456555D01*
X134562161Y-80451703D01*
X134564695Y-80451708D01*
X134618880Y-80454155D01*
X134667380Y-80460256D01*
X134700478Y-80468809D01*
X134709552Y-80473096D01*
X134738433Y-80491248D01*
X134764568Y-80512822D01*
X134781764Y-80532236D01*
X134783825Y-80543909D01*
X134779803Y-80547063D01*
X134735976Y-80580739D01*
X134706671Y-80600600D01*
X134687294Y-80608613D01*
X134673253Y-80606746D01*
X134659957Y-80596965D01*
X134635418Y-80584756D01*
X134594064Y-80576615D01*
X134547326Y-80574503D01*
X134505034Y-80578800D01*
X134477017Y-80589887D01*
X134475543Y-80591236D01*
X134462953Y-80616581D01*
X134458020Y-80654411D01*
X134458020Y-80703169D01*
X134574331Y-80703216D01*
X134627760Y-80704061D01*
X134672735Y-80707740D01*
X134704907Y-80715309D01*
X134730899Y-80727808D01*
X134736948Y-80731647D01*
X134780710Y-80773845D01*
X134803987Y-80829647D01*
X134805955Y-80871566D01*
X134807299Y-80900223D01*
G36*
X134807299Y-80900223D02*
G01*
X134807157Y-80901882D01*
X134791835Y-80966479D01*
X134757753Y-81015063D01*
X134703218Y-81050072D01*
X134675036Y-81058589D01*
X134626764Y-81065228D01*
X134573978Y-81066813D01*
X134526353Y-81063160D01*
X134493566Y-81054083D01*
X134473652Y-81046813D01*
X134454155Y-81054083D01*
X134447023Y-81058295D01*
X134418557Y-81065126D01*
X134380059Y-81067822D01*
X134319703Y-81067822D01*
X134319703Y-80824484D01*
X134319707Y-80803763D01*
X134458020Y-80803763D01*
X134458020Y-80852111D01*
X134462668Y-80888904D01*
X134481015Y-80921269D01*
X134491514Y-80928274D01*
X134528988Y-80939191D01*
X134575773Y-80941917D01*
X134621652Y-80936379D01*
X134656410Y-80922505D01*
X134673726Y-80904161D01*
X134684356Y-80871566D01*
X134674929Y-80845729D01*
X134643764Y-80823263D01*
X134593667Y-80808850D01*
X134527582Y-80803763D01*
X134458020Y-80803763D01*
X134319707Y-80803763D01*
X134319707Y-80803440D01*
X134319937Y-80724122D01*
X134320797Y-80665154D01*
X134322679Y-80622616D01*
X134325974Y-80592592D01*
X134331073Y-80571163D01*
X134338366Y-80554411D01*
X134348246Y-80538419D01*
X134380023Y-80500948D01*
X134425055Y-80472339D01*
X134484210Y-80456555D01*
X134562161Y-80451703D01*
X134564695Y-80451708D01*
X134618880Y-80454155D01*
X134667380Y-80460256D01*
X134700478Y-80468809D01*
X134709552Y-80473096D01*
X134738433Y-80491248D01*
X134764568Y-80512822D01*
X134781764Y-80532236D01*
X134783825Y-80543909D01*
X134779803Y-80547063D01*
X134735976Y-80580739D01*
X134706671Y-80600600D01*
X134687294Y-80608613D01*
X134673253Y-80606746D01*
X134659957Y-80596965D01*
X134635418Y-80584756D01*
X134594064Y-80576615D01*
X134547326Y-80574503D01*
X134505034Y-80578800D01*
X134477017Y-80589887D01*
X134475543Y-80591236D01*
X134462953Y-80616581D01*
X134458020Y-80654411D01*
X134458020Y-80703169D01*
X134574331Y-80703216D01*
X134627760Y-80704061D01*
X134672735Y-80707740D01*
X134704907Y-80715309D01*
X134730899Y-80727808D01*
X134736948Y-80731647D01*
X134780710Y-80773845D01*
X134803987Y-80829647D01*
X134805955Y-80871566D01*
X134807299Y-80900223D01*
G37*
X135375940Y-81069136D02*
X135309926Y-81065336D01*
X135243911Y-81061535D01*
X135240772Y-80860347D01*
X135239844Y-80811425D01*
X135237208Y-80737926D01*
X135232683Y-80683991D01*
X135225438Y-80645995D01*
X135214642Y-80620313D01*
X135199462Y-80603320D01*
X135179066Y-80591389D01*
X135140797Y-80579205D01*
X135102738Y-80583940D01*
X135062549Y-80609979D01*
X135023861Y-80642533D01*
X135023861Y-81067822D01*
X134885544Y-81067822D01*
X134885544Y-80837176D01*
X134885677Y-80764882D01*
X134886413Y-80700641D01*
X134888181Y-80653618D01*
X134891411Y-80619548D01*
X134896530Y-80594170D01*
X134903967Y-80573221D01*
X134914150Y-80552436D01*
X134916564Y-80548024D01*
X134948675Y-80505047D01*
X134986256Y-80475013D01*
X135031564Y-80459243D01*
X135091561Y-80452222D01*
X135151643Y-80456025D01*
X135200525Y-80470868D01*
X135237624Y-80490052D01*
X135237624Y-80074859D01*
X135186792Y-80101354D01*
X135165558Y-80110980D01*
X135098536Y-80124592D01*
X135031930Y-80115184D01*
X134970187Y-80083905D01*
X134917757Y-80031902D01*
X134909543Y-80019680D01*
X134901649Y-80001763D01*
X134896500Y-79977404D01*
X134893527Y-79941927D01*
X134892161Y-79890656D01*
X134891915Y-79837236D01*
X135024749Y-79837236D01*
X135024861Y-79881849D01*
X135028272Y-79911601D01*
X135035937Y-79932835D01*
X135048814Y-79951896D01*
X135065171Y-79969617D01*
X135091329Y-79983028D01*
X135130742Y-79986436D01*
X135165559Y-79983471D01*
X135200020Y-79968631D01*
X135222215Y-79938569D01*
X135234097Y-79890254D01*
X135237624Y-79820650D01*
X135236712Y-79783624D01*
X135227609Y-79713728D01*
X135208828Y-79666464D01*
X135180476Y-79642168D01*
X135151840Y-79635332D01*
X135101970Y-79638537D01*
X135059833Y-79658380D01*
X135049749Y-79667480D01*
X135039063Y-79683223D01*
X135032456Y-79706658D01*
X135028532Y-79743604D01*
X135025897Y-79799880D01*
X135024749Y-79837236D01*
X134891915Y-79837236D01*
X134891831Y-79818917D01*
X134891944Y-79786184D01*
X134893872Y-79710044D01*
X134899240Y-79653166D01*
X134909406Y-79611249D01*
X134925725Y-79579996D01*
X134949553Y-79555106D01*
X134982247Y-79532282D01*
X135008759Y-79519184D01*
X135071615Y-79504739D01*
X135137869Y-79506707D01*
X135196757Y-79525433D01*
X135222030Y-79537673D01*
X135234742Y-79538938D01*
X135237624Y-79527798D01*
X135237626Y-79527461D01*
X135243838Y-79516087D01*
X135265260Y-79510256D01*
X135306782Y-79508614D01*
X135375940Y-79508614D01*
X135375940Y-79820650D01*
X135375940Y-81069136D01*
G36*
X135375940Y-81069136D02*
G01*
X135309926Y-81065336D01*
X135243911Y-81061535D01*
X135240772Y-80860347D01*
X135239844Y-80811425D01*
X135237208Y-80737926D01*
X135232683Y-80683991D01*
X135225438Y-80645995D01*
X135214642Y-80620313D01*
X135199462Y-80603320D01*
X135179066Y-80591389D01*
X135140797Y-80579205D01*
X135102738Y-80583940D01*
X135062549Y-80609979D01*
X135023861Y-80642533D01*
X135023861Y-81067822D01*
X134885544Y-81067822D01*
X134885544Y-80837176D01*
X134885677Y-80764882D01*
X134886413Y-80700641D01*
X134888181Y-80653618D01*
X134891411Y-80619548D01*
X134896530Y-80594170D01*
X134903967Y-80573221D01*
X134914150Y-80552436D01*
X134916564Y-80548024D01*
X134948675Y-80505047D01*
X134986256Y-80475013D01*
X135031564Y-80459243D01*
X135091561Y-80452222D01*
X135151643Y-80456025D01*
X135200525Y-80470868D01*
X135237624Y-80490052D01*
X135237624Y-80074859D01*
X135186792Y-80101354D01*
X135165558Y-80110980D01*
X135098536Y-80124592D01*
X135031930Y-80115184D01*
X134970187Y-80083905D01*
X134917757Y-80031902D01*
X134909543Y-80019680D01*
X134901649Y-80001763D01*
X134896500Y-79977404D01*
X134893527Y-79941927D01*
X134892161Y-79890656D01*
X134891915Y-79837236D01*
X135024749Y-79837236D01*
X135024861Y-79881849D01*
X135028272Y-79911601D01*
X135035937Y-79932835D01*
X135048814Y-79951896D01*
X135065171Y-79969617D01*
X135091329Y-79983028D01*
X135130742Y-79986436D01*
X135165559Y-79983471D01*
X135200020Y-79968631D01*
X135222215Y-79938569D01*
X135234097Y-79890254D01*
X135237624Y-79820650D01*
X135236712Y-79783624D01*
X135227609Y-79713728D01*
X135208828Y-79666464D01*
X135180476Y-79642168D01*
X135151840Y-79635332D01*
X135101970Y-79638537D01*
X135059833Y-79658380D01*
X135049749Y-79667480D01*
X135039063Y-79683223D01*
X135032456Y-79706658D01*
X135028532Y-79743604D01*
X135025897Y-79799880D01*
X135024749Y-79837236D01*
X134891915Y-79837236D01*
X134891831Y-79818917D01*
X134891944Y-79786184D01*
X134893872Y-79710044D01*
X134899240Y-79653166D01*
X134909406Y-79611249D01*
X134925725Y-79579996D01*
X134949553Y-79555106D01*
X134982247Y-79532282D01*
X135008759Y-79519184D01*
X135071615Y-79504739D01*
X135137869Y-79506707D01*
X135196757Y-79525433D01*
X135222030Y-79537673D01*
X135234742Y-79538938D01*
X135237624Y-79527798D01*
X135237626Y-79527461D01*
X135243838Y-79516087D01*
X135265260Y-79510256D01*
X135306782Y-79508614D01*
X135375940Y-79508614D01*
X135375940Y-79820650D01*
X135375940Y-81069136D01*
G37*
X133464389Y-75340018D02*
X133521237Y-75641570D01*
X133731001Y-75728041D01*
X133940764Y-75814512D01*
X134192410Y-75643395D01*
X134242216Y-75609661D01*
X134308244Y-75565381D01*
X134365410Y-75527561D01*
X134410744Y-75498142D01*
X134441280Y-75479067D01*
X134454046Y-75472278D01*
X134461887Y-75477106D01*
X134485325Y-75497339D01*
X134520794Y-75530543D01*
X134565289Y-75573670D01*
X134615805Y-75623670D01*
X134669336Y-75677495D01*
X134722877Y-75732095D01*
X134773423Y-75784423D01*
X134817968Y-75831428D01*
X134853507Y-75870063D01*
X134877034Y-75897278D01*
X134885544Y-75910024D01*
X134883565Y-75915500D01*
X134869857Y-75939927D01*
X134844825Y-75980129D01*
X134810499Y-76032952D01*
X134768907Y-76095247D01*
X134722079Y-76163862D01*
X134696380Y-76201283D01*
X134652173Y-76266432D01*
X134614272Y-76323289D01*
X134584698Y-76368770D01*
X134565472Y-76399793D01*
X134558614Y-76413274D01*
X134558726Y-76414021D01*
X134564776Y-76431110D01*
X134578654Y-76466006D01*
X134598427Y-76514151D01*
X134622160Y-76570986D01*
X134647918Y-76631953D01*
X134673766Y-76692492D01*
X134697771Y-76748047D01*
X134717998Y-76794057D01*
X134732511Y-76825965D01*
X134739377Y-76839212D01*
X134743439Y-76840387D01*
X134768121Y-76845687D01*
X134812111Y-76854467D01*
X134871887Y-76866040D01*
X134943929Y-76879721D01*
X135024716Y-76894823D01*
X135067294Y-76902830D01*
X135145445Y-76918107D01*
X135213775Y-76932215D01*
X135268551Y-76944345D01*
X135306037Y-76953686D01*
X135322500Y-76959427D01*
X135325457Y-76965119D01*
X135330362Y-76992930D01*
X135334216Y-77039250D01*
X135337021Y-77099720D01*
X135338781Y-77169983D01*
X135339499Y-77245680D01*
X135339177Y-77322453D01*
X135337819Y-77395944D01*
X135335428Y-77461794D01*
X135332006Y-77515645D01*
X135327556Y-77553138D01*
X135322082Y-77569916D01*
X135318760Y-77571809D01*
X135293987Y-77579926D01*
X135251011Y-77590666D01*
X135194802Y-77602853D01*
X135130325Y-77615310D01*
X135108570Y-77619277D01*
X135008093Y-77637729D01*
X134929126Y-77652559D01*
X134868934Y-77664380D01*
X134824778Y-77673809D01*
X134793920Y-77681460D01*
X134773625Y-77687948D01*
X134761154Y-77693888D01*
X134753771Y-77699894D01*
X134752913Y-77700902D01*
X134740838Y-77721919D01*
X134722971Y-77760376D01*
X134701042Y-77811761D01*
X134676784Y-77871563D01*
X134651927Y-77935270D01*
X134628205Y-77998371D01*
X134607347Y-78056355D01*
X134591087Y-78104709D01*
X134581156Y-78138922D01*
X134579285Y-78154483D01*
X134580536Y-78156502D01*
X134593486Y-78176028D01*
X134617840Y-78212042D01*
X134651340Y-78261228D01*
X134691727Y-78320267D01*
X134736745Y-78385842D01*
X134749100Y-78403884D01*
X134792545Y-78468599D01*
X134830091Y-78526476D01*
X134859594Y-78574082D01*
X134878914Y-78607985D01*
X134885905Y-78624752D01*
X134884398Y-78629161D01*
X134868695Y-78650882D01*
X134837714Y-78686354D01*
X134793673Y-78733188D01*
X134738790Y-78788996D01*
X134675286Y-78851392D01*
X134638988Y-78886317D01*
X134581595Y-78940711D01*
X134531361Y-78987302D01*
X134490984Y-79023636D01*
X134463161Y-79047261D01*
X134450590Y-79055724D01*
X134441952Y-79052587D01*
X134415360Y-79037747D01*
X134376741Y-79013477D01*
X134331134Y-78982852D01*
X134298707Y-78960503D01*
X134233970Y-78916122D01*
X134164886Y-78868987D01*
X134101787Y-78826155D01*
X133978178Y-78742547D01*
X133874417Y-78798650D01*
X133849984Y-78811599D01*
X133805552Y-78833749D01*
X133771191Y-78849041D01*
X133752828Y-78854743D01*
X133746818Y-78847421D01*
X133731895Y-78819541D01*
X133709852Y-78773575D01*
X133681917Y-78712441D01*
X133649317Y-78639055D01*
X133613276Y-78556335D01*
X133575023Y-78467197D01*
X133535783Y-78374559D01*
X133496783Y-78281337D01*
X133459249Y-78190450D01*
X133424409Y-78104814D01*
X133393488Y-78027345D01*
X133367714Y-77960962D01*
X133348311Y-77908582D01*
X133336508Y-77873121D01*
X133333531Y-77857496D01*
X133333732Y-77857039D01*
X133347601Y-77842595D01*
X133376611Y-77819974D01*
X133414772Y-77793864D01*
X133426817Y-77785892D01*
X133518469Y-77710256D01*
X133594323Y-77620169D01*
X133652581Y-77519381D01*
X133691448Y-77411640D01*
X133709128Y-77300697D01*
X133703826Y-77190303D01*
X133682347Y-77092115D01*
X133643782Y-76992966D01*
X133587562Y-76904512D01*
X133510410Y-76820487D01*
X133480095Y-76793645D01*
X133382094Y-76727510D01*
X133276227Y-76682970D01*
X133165561Y-76659625D01*
X133053164Y-76657078D01*
X132942105Y-76674929D01*
X132835451Y-76712780D01*
X132736270Y-76770232D01*
X132647631Y-76846887D01*
X132572600Y-76942345D01*
X132558175Y-76965985D01*
X132509143Y-77074034D01*
X132483103Y-77186548D01*
X132479372Y-77300614D01*
X132497268Y-77413318D01*
X132536109Y-77521745D01*
X132595214Y-77622982D01*
X132673900Y-77714114D01*
X132771485Y-77792228D01*
X132774654Y-77794333D01*
X132812411Y-77820940D01*
X132840709Y-77843561D01*
X132853634Y-77857496D01*
X132852003Y-77868421D01*
X132841864Y-77900231D01*
X132823884Y-77949534D01*
X132799292Y-78013413D01*
X132769311Y-78088948D01*
X132735170Y-78173223D01*
X132698092Y-78263320D01*
X132659306Y-78356321D01*
X132620036Y-78449308D01*
X132581509Y-78539364D01*
X132544950Y-78623571D01*
X132511586Y-78699010D01*
X132482643Y-78762765D01*
X132459346Y-78811917D01*
X132442923Y-78843549D01*
X132434598Y-78854743D01*
X132427674Y-78853227D01*
X132400477Y-78842331D01*
X132360280Y-78823228D01*
X132313009Y-78798650D01*
X132209248Y-78742547D01*
X132085639Y-78826155D01*
X132049120Y-78850913D01*
X131981194Y-78897171D01*
X131913475Y-78943503D01*
X131856291Y-78982852D01*
X131824732Y-79004297D01*
X131783714Y-79030939D01*
X131753301Y-79049178D01*
X131738446Y-79055941D01*
X131732065Y-79053070D01*
X131708996Y-79035485D01*
X131673433Y-79004523D01*
X131628471Y-78963231D01*
X131577206Y-78914653D01*
X131522733Y-78861835D01*
X131468148Y-78807823D01*
X131416547Y-78755661D01*
X131371024Y-78708396D01*
X131334675Y-78669072D01*
X131310595Y-78640736D01*
X131301881Y-78626432D01*
X131302383Y-78623711D01*
X131312755Y-78601560D01*
X131334912Y-78563235D01*
X131366712Y-78512200D01*
X131406016Y-78451914D01*
X131450681Y-78385842D01*
X131463207Y-78367617D01*
X131507193Y-78303485D01*
X131545937Y-78246789D01*
X131577182Y-78200844D01*
X131598669Y-78168970D01*
X131608140Y-78154483D01*
X131608373Y-78153862D01*
X131605578Y-78136139D01*
X131594903Y-78100235D01*
X131578081Y-78050662D01*
X131556843Y-77991932D01*
X131532921Y-77928556D01*
X131508046Y-77865046D01*
X131483950Y-77805913D01*
X131462365Y-77755669D01*
X131445023Y-77718826D01*
X131433655Y-77699894D01*
X131432516Y-77698719D01*
X131424376Y-77692773D01*
X131410629Y-77686776D01*
X131388537Y-77680114D01*
X131355363Y-77672173D01*
X131308370Y-77662337D01*
X131244820Y-77649991D01*
X131161976Y-77634520D01*
X131057100Y-77615310D01*
X131035348Y-77611267D01*
X130973036Y-77598769D01*
X130920619Y-77586927D01*
X130883066Y-77576917D01*
X130865343Y-77569916D01*
X130862378Y-77564075D01*
X130857435Y-77536016D01*
X130853518Y-77489500D01*
X130850629Y-77428886D01*
X130848773Y-77358532D01*
X130847952Y-77282796D01*
X130848168Y-77206037D01*
X130849426Y-77132612D01*
X130851728Y-77066880D01*
X130855076Y-77013200D01*
X130859474Y-76975930D01*
X130864926Y-76959427D01*
X130870491Y-76956989D01*
X130898178Y-76949305D01*
X130944979Y-76938436D01*
X131007157Y-76925192D01*
X131080979Y-76910384D01*
X131162710Y-76894823D01*
X131207336Y-76886509D01*
X131283824Y-76872092D01*
X131349660Y-76859467D01*
X131401323Y-76849321D01*
X131435293Y-76842341D01*
X131448048Y-76839212D01*
X131448528Y-76838568D01*
X131456651Y-76822181D01*
X131472137Y-76787852D01*
X131493050Y-76740136D01*
X131517455Y-76683586D01*
X131543416Y-76622758D01*
X131568997Y-76562206D01*
X131592262Y-76506485D01*
X131611277Y-76460150D01*
X131624105Y-76427755D01*
X131628812Y-76413855D01*
X131626736Y-76408965D01*
X131612920Y-76385692D01*
X131587860Y-76346519D01*
X131553568Y-76294520D01*
X131512059Y-76232768D01*
X131465346Y-76164336D01*
X131439718Y-76126860D01*
X131395490Y-76061156D01*
X131357570Y-76003492D01*
X131327980Y-75957014D01*
X131308743Y-75924865D01*
X131301881Y-75910190D01*
X131306649Y-75902230D01*
X131326593Y-75878446D01*
X131359313Y-75842451D01*
X131401805Y-75797295D01*
X131451065Y-75746028D01*
X131504091Y-75691701D01*
X131557877Y-75637364D01*
X131609421Y-75586067D01*
X131655720Y-75540859D01*
X131693769Y-75504792D01*
X131720565Y-75480914D01*
X131733105Y-75472278D01*
X131740066Y-75475636D01*
X131765627Y-75491210D01*
X131806874Y-75517715D01*
X131860837Y-75553210D01*
X131924542Y-75595750D01*
X131995016Y-75643395D01*
X132246662Y-75814512D01*
X132666188Y-75641570D01*
X132723036Y-75340018D01*
X132779885Y-75038466D01*
X133407540Y-75038466D01*
X133464389Y-75340018D01*
G36*
X133464389Y-75340018D02*
G01*
X133521237Y-75641570D01*
X133731001Y-75728041D01*
X133940764Y-75814512D01*
X134192410Y-75643395D01*
X134242216Y-75609661D01*
X134308244Y-75565381D01*
X134365410Y-75527561D01*
X134410744Y-75498142D01*
X134441280Y-75479067D01*
X134454046Y-75472278D01*
X134461887Y-75477106D01*
X134485325Y-75497339D01*
X134520794Y-75530543D01*
X134565289Y-75573670D01*
X134615805Y-75623670D01*
X134669336Y-75677495D01*
X134722877Y-75732095D01*
X134773423Y-75784423D01*
X134817968Y-75831428D01*
X134853507Y-75870063D01*
X134877034Y-75897278D01*
X134885544Y-75910024D01*
X134883565Y-75915500D01*
X134869857Y-75939927D01*
X134844825Y-75980129D01*
X134810499Y-76032952D01*
X134768907Y-76095247D01*
X134722079Y-76163862D01*
X134696380Y-76201283D01*
X134652173Y-76266432D01*
X134614272Y-76323289D01*
X134584698Y-76368770D01*
X134565472Y-76399793D01*
X134558614Y-76413274D01*
X134558726Y-76414021D01*
X134564776Y-76431110D01*
X134578654Y-76466006D01*
X134598427Y-76514151D01*
X134622160Y-76570986D01*
X134647918Y-76631953D01*
X134673766Y-76692492D01*
X134697771Y-76748047D01*
X134717998Y-76794057D01*
X134732511Y-76825965D01*
X134739377Y-76839212D01*
X134743439Y-76840387D01*
X134768121Y-76845687D01*
X134812111Y-76854467D01*
X134871887Y-76866040D01*
X134943929Y-76879721D01*
X135024716Y-76894823D01*
X135067294Y-76902830D01*
X135145445Y-76918107D01*
X135213775Y-76932215D01*
X135268551Y-76944345D01*
X135306037Y-76953686D01*
X135322500Y-76959427D01*
X135325457Y-76965119D01*
X135330362Y-76992930D01*
X135334216Y-77039250D01*
X135337021Y-77099720D01*
X135338781Y-77169983D01*
X135339499Y-77245680D01*
X135339177Y-77322453D01*
X135337819Y-77395944D01*
X135335428Y-77461794D01*
X135332006Y-77515645D01*
X135327556Y-77553138D01*
X135322082Y-77569916D01*
X135318760Y-77571809D01*
X135293987Y-77579926D01*
X135251011Y-77590666D01*
X135194802Y-77602853D01*
X135130325Y-77615310D01*
X135108570Y-77619277D01*
X135008093Y-77637729D01*
X134929126Y-77652559D01*
X134868934Y-77664380D01*
X134824778Y-77673809D01*
X134793920Y-77681460D01*
X134773625Y-77687948D01*
X134761154Y-77693888D01*
X134753771Y-77699894D01*
X134752913Y-77700902D01*
X134740838Y-77721919D01*
X134722971Y-77760376D01*
X134701042Y-77811761D01*
X134676784Y-77871563D01*
X134651927Y-77935270D01*
X134628205Y-77998371D01*
X134607347Y-78056355D01*
X134591087Y-78104709D01*
X134581156Y-78138922D01*
X134579285Y-78154483D01*
X134580536Y-78156502D01*
X134593486Y-78176028D01*
X134617840Y-78212042D01*
X134651340Y-78261228D01*
X134691727Y-78320267D01*
X134736745Y-78385842D01*
X134749100Y-78403884D01*
X134792545Y-78468599D01*
X134830091Y-78526476D01*
X134859594Y-78574082D01*
X134878914Y-78607985D01*
X134885905Y-78624752D01*
X134884398Y-78629161D01*
X134868695Y-78650882D01*
X134837714Y-78686354D01*
X134793673Y-78733188D01*
X134738790Y-78788996D01*
X134675286Y-78851392D01*
X134638988Y-78886317D01*
X134581595Y-78940711D01*
X134531361Y-78987302D01*
X134490984Y-79023636D01*
X134463161Y-79047261D01*
X134450590Y-79055724D01*
X134441952Y-79052587D01*
X134415360Y-79037747D01*
X134376741Y-79013477D01*
X134331134Y-78982852D01*
X134298707Y-78960503D01*
X134233970Y-78916122D01*
X134164886Y-78868987D01*
X134101787Y-78826155D01*
X133978178Y-78742547D01*
X133874417Y-78798650D01*
X133849984Y-78811599D01*
X133805552Y-78833749D01*
X133771191Y-78849041D01*
X133752828Y-78854743D01*
X133746818Y-78847421D01*
X133731895Y-78819541D01*
X133709852Y-78773575D01*
X133681917Y-78712441D01*
X133649317Y-78639055D01*
X133613276Y-78556335D01*
X133575023Y-78467197D01*
X133535783Y-78374559D01*
X133496783Y-78281337D01*
X133459249Y-78190450D01*
X133424409Y-78104814D01*
X133393488Y-78027345D01*
X133367714Y-77960962D01*
X133348311Y-77908582D01*
X133336508Y-77873121D01*
X133333531Y-77857496D01*
X133333732Y-77857039D01*
X133347601Y-77842595D01*
X133376611Y-77819974D01*
X133414772Y-77793864D01*
X133426817Y-77785892D01*
X133518469Y-77710256D01*
X133594323Y-77620169D01*
X133652581Y-77519381D01*
X133691448Y-77411640D01*
X133709128Y-77300697D01*
X133703826Y-77190303D01*
X133682347Y-77092115D01*
X133643782Y-76992966D01*
X133587562Y-76904512D01*
X133510410Y-76820487D01*
X133480095Y-76793645D01*
X133382094Y-76727510D01*
X133276227Y-76682970D01*
X133165561Y-76659625D01*
X133053164Y-76657078D01*
X132942105Y-76674929D01*
X132835451Y-76712780D01*
X132736270Y-76770232D01*
X132647631Y-76846887D01*
X132572600Y-76942345D01*
X132558175Y-76965985D01*
X132509143Y-77074034D01*
X132483103Y-77186548D01*
X132479372Y-77300614D01*
X132497268Y-77413318D01*
X132536109Y-77521745D01*
X132595214Y-77622982D01*
X132673900Y-77714114D01*
X132771485Y-77792228D01*
X132774654Y-77794333D01*
X132812411Y-77820940D01*
X132840709Y-77843561D01*
X132853634Y-77857496D01*
X132852003Y-77868421D01*
X132841864Y-77900231D01*
X132823884Y-77949534D01*
X132799292Y-78013413D01*
X132769311Y-78088948D01*
X132735170Y-78173223D01*
X132698092Y-78263320D01*
X132659306Y-78356321D01*
X132620036Y-78449308D01*
X132581509Y-78539364D01*
X132544950Y-78623571D01*
X132511586Y-78699010D01*
X132482643Y-78762765D01*
X132459346Y-78811917D01*
X132442923Y-78843549D01*
X132434598Y-78854743D01*
X132427674Y-78853227D01*
X132400477Y-78842331D01*
X132360280Y-78823228D01*
X132313009Y-78798650D01*
X132209248Y-78742547D01*
X132085639Y-78826155D01*
X132049120Y-78850913D01*
X131981194Y-78897171D01*
X131913475Y-78943503D01*
X131856291Y-78982852D01*
X131824732Y-79004297D01*
X131783714Y-79030939D01*
X131753301Y-79049178D01*
X131738446Y-79055941D01*
X131732065Y-79053070D01*
X131708996Y-79035485D01*
X131673433Y-79004523D01*
X131628471Y-78963231D01*
X131577206Y-78914653D01*
X131522733Y-78861835D01*
X131468148Y-78807823D01*
X131416547Y-78755661D01*
X131371024Y-78708396D01*
X131334675Y-78669072D01*
X131310595Y-78640736D01*
X131301881Y-78626432D01*
X131302383Y-78623711D01*
X131312755Y-78601560D01*
X131334912Y-78563235D01*
X131366712Y-78512200D01*
X131406016Y-78451914D01*
X131450681Y-78385842D01*
X131463207Y-78367617D01*
X131507193Y-78303485D01*
X131545937Y-78246789D01*
X131577182Y-78200844D01*
X131598669Y-78168970D01*
X131608140Y-78154483D01*
X131608373Y-78153862D01*
X131605578Y-78136139D01*
X131594903Y-78100235D01*
X131578081Y-78050662D01*
X131556843Y-77991932D01*
X131532921Y-77928556D01*
X131508046Y-77865046D01*
X131483950Y-77805913D01*
X131462365Y-77755669D01*
X131445023Y-77718826D01*
X131433655Y-77699894D01*
X131432516Y-77698719D01*
X131424376Y-77692773D01*
X131410629Y-77686776D01*
X131388537Y-77680114D01*
X131355363Y-77672173D01*
X131308370Y-77662337D01*
X131244820Y-77649991D01*
X131161976Y-77634520D01*
X131057100Y-77615310D01*
X131035348Y-77611267D01*
X130973036Y-77598769D01*
X130920619Y-77586927D01*
X130883066Y-77576917D01*
X130865343Y-77569916D01*
X130862378Y-77564075D01*
X130857435Y-77536016D01*
X130853518Y-77489500D01*
X130850629Y-77428886D01*
X130848773Y-77358532D01*
X130847952Y-77282796D01*
X130848168Y-77206037D01*
X130849426Y-77132612D01*
X130851728Y-77066880D01*
X130855076Y-77013200D01*
X130859474Y-76975930D01*
X130864926Y-76959427D01*
X130870491Y-76956989D01*
X130898178Y-76949305D01*
X130944979Y-76938436D01*
X131007157Y-76925192D01*
X131080979Y-76910384D01*
X131162710Y-76894823D01*
X131207336Y-76886509D01*
X131283824Y-76872092D01*
X131349660Y-76859467D01*
X131401323Y-76849321D01*
X131435293Y-76842341D01*
X131448048Y-76839212D01*
X131448528Y-76838568D01*
X131456651Y-76822181D01*
X131472137Y-76787852D01*
X131493050Y-76740136D01*
X131517455Y-76683586D01*
X131543416Y-76622758D01*
X131568997Y-76562206D01*
X131592262Y-76506485D01*
X131611277Y-76460150D01*
X131624105Y-76427755D01*
X131628812Y-76413855D01*
X131626736Y-76408965D01*
X131612920Y-76385692D01*
X131587860Y-76346519D01*
X131553568Y-76294520D01*
X131512059Y-76232768D01*
X131465346Y-76164336D01*
X131439718Y-76126860D01*
X131395490Y-76061156D01*
X131357570Y-76003492D01*
X131327980Y-75957014D01*
X131308743Y-75924865D01*
X131301881Y-75910190D01*
X131306649Y-75902230D01*
X131326593Y-75878446D01*
X131359313Y-75842451D01*
X131401805Y-75797295D01*
X131451065Y-75746028D01*
X131504091Y-75691701D01*
X131557877Y-75637364D01*
X131609421Y-75586067D01*
X131655720Y-75540859D01*
X131693769Y-75504792D01*
X131720565Y-75480914D01*
X131733105Y-75472278D01*
X131740066Y-75475636D01*
X131765627Y-75491210D01*
X131806874Y-75517715D01*
X131860837Y-75553210D01*
X131924542Y-75595750D01*
X131995016Y-75643395D01*
X132246662Y-75814512D01*
X132666188Y-75641570D01*
X132723036Y-75340018D01*
X132779885Y-75038466D01*
X133407540Y-75038466D01*
X133464389Y-75340018D01*
G37*
D13*
%TO.C,R11*%
X117415000Y-138672936D02*
X117415000Y-139127064D01*
X118885000Y-138672936D02*
X118885000Y-139127064D01*
%TO.C,R25*%
X147390000Y-111697936D02*
X147390000Y-112152064D01*
X148860000Y-111697936D02*
X148860000Y-112152064D01*
%TO.C,C25*%
X158615000Y-126511252D02*
X158615000Y-125988748D01*
X160085000Y-126511252D02*
X160085000Y-125988748D01*
%TO.C,R12*%
X145772936Y-58015000D02*
X146227064Y-58015000D01*
X145772936Y-59485000D02*
X146227064Y-59485000D01*
%TO.C,C19*%
X133915000Y-124011252D02*
X133915000Y-123488748D01*
X135385000Y-124011252D02*
X135385000Y-123488748D01*
%TO.C,C18*%
X130965000Y-124011252D02*
X130965000Y-123488748D01*
X132435000Y-124011252D02*
X132435000Y-123488748D01*
%TO.C,R13*%
X145772936Y-53915000D02*
X146227064Y-53915000D01*
X145772936Y-55385000D02*
X146227064Y-55385000D01*
%TO.C,R14*%
X145772936Y-49815000D02*
X146227064Y-49815000D01*
X145772936Y-51285000D02*
X146227064Y-51285000D01*
%TO.C,U6*%
X146730000Y-106137500D02*
X149800000Y-106137500D01*
X147000000Y-109537500D02*
X149800000Y-109537500D01*
X146170000Y-106227500D02*
X145890000Y-106227500D01*
X146170000Y-105947500D01*
X146170000Y-106227500D01*
G36*
X146170000Y-106227500D02*
G01*
X145890000Y-106227500D01*
X146170000Y-105947500D01*
X146170000Y-106227500D01*
G37*
%TO.C,R26*%
X149665000Y-112152064D02*
X149665000Y-111697936D01*
X151135000Y-112152064D02*
X151135000Y-111697936D01*
%TD*%
M02*
